<svg id="Layer_1" data-name="Layer 1" xmlns="http://www.w3.org/2000/svg" viewBox="0 0 416.65 726.05"><defs><style>.cls-1{fill:#231f20;}</style></defs><title>typography_BentonSans</title><path id="BentonSansLight" class="cls-1" d="M1.09,10.44V1.56H4.27c1.93,0,3,.74,3,2.22A2,2,0,0,1,5.66,5.83v0A2.1,2.1,0,0,1,7.59,8c0,1.49-1.1,2.42-3.07,2.42Zm1-5h2C5.5,5.44,6.27,5,6.27,4S5.64,2.5,4.2,2.5H2.13Zm0,4.08H4.45c1.45,0,2.1-.55,2.1-1.57s-.89-1.6-2.31-1.6H2.13ZM8.8,7.27A3,3,0,0,1,11.66,4C13.16,4,14.3,5,14.3,7.32v.22H9.83c0,1.43.86,2.19,1.91,2.19a2.14,2.14,0,0,0,1.91-1l.6.53a3,3,0,0,1-2.58,1.34C10.16,10.57,8.8,9.48,8.8,7.27Zm4.52-.54c-.08-1.13-.62-1.9-1.67-1.9a1.86,1.86,0,0,0-1.8,1.9Zm2.46,3.71V4.11h1v.95A3.41,3.41,0,0,1,19.2,4a1.71,1.71,0,0,1,1.87,1.9v4.57H20V6.1c0-.84-.36-1.24-1.16-1.24a3,3,0,0,0-2.05,1v4.56ZM23.29,8.9V5h-1.1V4.11h1.1V1.85h1V4.11H26V5H24.32V8.68c0,.67.22,1,1,1A2.58,2.58,0,0,0,26,9.6v.85a5.7,5.7,0,0,1-.9.07C23.72,10.52,23.29,10,23.29,8.9ZM26.9,7.27a3,3,0,1,1,5.89,0,3,3,0,1,1-5.89,0Zm4.85,0c0-1.32-.64-2.41-1.9-2.41s-1.91,1-1.91,2.41.62,2.42,1.91,2.42S31.75,8.73,31.75,7.27Zm2.51,3.17V4.11h1v.95A3.41,3.41,0,0,1,37.68,4a1.71,1.71,0,0,1,1.87,1.9v4.57h-1V6.1c0-.84-.36-1.24-1.16-1.24a3,3,0,0,0-2.05,1v4.56Zm9.6-2.15.89-.4a2.51,2.51,0,0,0,2.52,1.77c1.25,0,2.07-.53,2.07-1.46s-.48-1.31-2.23-1.86-3-1.07-3-2.6c0-1.35,1.16-2.35,2.85-2.35a3.13,3.13,0,0,1,3.13,2l-.84.47A2.31,2.31,0,0,0,47,2.36c-1.13,0-1.8.55-1.8,1.31,0,.95.6,1.26,2.34,1.81s2.84,1.15,2.84,2.66-1.28,2.47-3.17,2.47A3.34,3.34,0,0,1,43.86,8.29Zm7.64.65c0-1.28,1.09-2.19,4.23-2.64V6a1.05,1.05,0,0,0-1.2-1.18,3.39,3.39,0,0,0-2.29,1l-.54-.65A4.21,4.21,0,0,1,54.65,4a1.86,1.86,0,0,1,2.11,2.11V8.88a4.35,4.35,0,0,0,.18,1.56H55.88a2.67,2.67,0,0,1-.14-.88,3.42,3.42,0,0,1-2.45,1C52.2,10.54,51.5,10,51.5,8.94Zm4.23-.14V7c-2.41.38-3.21,1-3.21,1.76,0,.61.41.94,1.07.94A3,3,0,0,0,55.74,8.8Zm2.79,1.64V4.11h1v.95A3.41,3.41,0,0,1,61.94,4a1.71,1.71,0,0,1,1.87,1.9v4.57h-1V6.1c0-.84-.36-1.24-1.16-1.24a3,3,0,0,0-2.05,1v4.56Zm6.6-1,.62-.62a2.6,2.6,0,0,0,2,.88c1,0,1.52-.35,1.52-1s-.55-.88-1.63-1.13c-1.34-.32-2.27-.68-2.27-1.91,0-1,.84-1.73,2.22-1.73A3.29,3.29,0,0,1,70,4.89l-.54.68a2.73,2.73,0,0,0-1.83-.76c-.92,0-1.28.41-1.28.85s.5.8,1.5,1c1.43.35,2.41.7,2.41,2s-1.09,1.86-2.53,1.86A3.35,3.35,0,0,1,65.12,9.48Zm9.59,1V1.56h1.06V9.48H80v1Zm6.7-7.69v-1h1.08v1Zm0,7.69V4.11h1v6.33Zm2.22.86A1.54,1.54,0,0,1,84.8,9.9a.84.84,0,0,1-.54-.8,1.31,1.31,0,0,1,.79-1,2.09,2.09,0,0,1-1-1.82A2.35,2.35,0,0,1,86.66,4a2.78,2.78,0,0,1,1.87.66A3.37,3.37,0,0,1,90,4V5a3.27,3.27,0,0,0-1.14.2,1.86,1.86,0,0,1,.32,1.09,2.31,2.31,0,0,1-2.55,2.25,3.4,3.4,0,0,1-1-.16c-.26.12-.44.28-.44.49s.2.38.88.44l1.29.11C89,9.5,89.8,10,89.8,11c0,1.2-1.26,1.83-3.09,1.83C84.57,12.87,83.65,12.26,83.65,11.3Zm5.21-.17c0-.56-.42-.82-1.75-.91l-1.2-.08-.36,0c-.61.22-.94.61-.94,1,0,.64.66.95,2.23.95C88.1,12.1,88.86,11.71,88.86,11.14Zm-.6-4.86a1.42,1.42,0,0,0-1.6-1.5,1.44,1.44,0,0,0-1.6,1.5,1.44,1.44,0,0,0,1.61,1.48A1.42,1.42,0,0,0,88.26,6.28Zm3,4.16V1.56h1V5.05A3.41,3.41,0,0,1,94.68,4a1.71,1.71,0,0,1,1.87,1.9v4.57h-1V6.1c0-.84-.36-1.24-1.16-1.24a3,3,0,0,0-2.05,1v4.56ZM98.77,8.9V5h-1.1V4.11h1.1V1.85h1V4.11h1.64V5H99.8V8.68c0,.67.22,1,1,1a2.58,2.58,0,0,0,.65-.08v.85a5.7,5.7,0,0,1-.9.07C99.2,10.52,98.77,10,98.77,8.9ZM6.8,20.72H8.13L14,37.44H12.83l-1.94-5.58H4L2,37.44H.9Zm3.74,10.13L7.45,22h0L4.34,30.85Zm6.61-10.06h5.58c3.94,0,5.58,1.73,5.58,4.21a3.82,3.82,0,0,1-3.22,3.85v0c2.07.38,3.8,1.71,3.8,4.05s-1.62,4.5-5.63,4.5H17.15Zm5.49,7.58c2.84,0,4.55-1.06,4.55-3.31s-1.4-3.24-4.48-3.24H18.27v6.55Zm.7,8c3.06,0,4.43-1.28,4.43-3.47,0-2.43-2-3.56-5-3.56h-4.5v7ZM31.5,29c0-4.82,2.63-8.55,6.77-8.55,3.2,0,5.09,1.94,5.87,5l-1.08.25c-.79-2.81-2.12-4.28-4.82-4.28-3.38,0-5.63,3-5.63,7.49,0,4.88,2.27,7.76,5.67,7.76,2.61,0,4.3-1.58,5.06-4.48l1.06.25c-.81,3.26-3,5.24-6.14,5.24C34.11,37.75,31.5,34.18,31.5,29Zm16.38-8.24h4c5.49,0,8.15,3,8.15,8.33s-2.72,8.33-8.15,8.33h-4ZM52.13,36.4c4.25,0,6.77-2.25,6.77-7.29s-2.54-7.29-6.82-7.29H49V36.4ZM63.67,20.79h9.63v1H64.8v6.26h6.39v1H64.8V36.4h9v1H63.67Zm13.43,0h9.48v1H78.23v6.26h6.23v1H78.23v8.33H77.11ZM88,29c0-5.22,2.93-8.58,6.82-8.58,3.15,0,5.09,1.89,5.87,5l-1.08.25c-.81-2.84-2.16-4.28-4.82-4.28-3.24,0-5.67,2.81-5.67,7.49s2.16,7.76,5.67,7.76c3,0,5-2.23,4.91-5.94H95.4v-1h5.4v7.67H99.7V34.83h0a5.12,5.12,0,0,1-4.91,2.93C90.54,37.75,88,34,88,29Zm16.87-8.26H106V28.1h9.59V20.79h1.13V37.44h-1.13V29.13H106v8.31h-1.13Zm16.54,0h1.13V37.44h-1.13Zm4.27,14.52.9-.52a3.33,3.33,0,0,0,3.06,2c1.85,0,3.15-1,3.15-3.58V20.79h1.13V33.05c0,3.15-1.67,4.7-4.25,4.7A4.23,4.23,0,0,1,125.68,35.3Zm12.58-14.52h1.13v9.45l8.53-9.45h1.42L143.6,27l6.64,10.4h-1.33l-6.1-9.52-3.42,3.74v5.78h-1.13Zm14.78,0h1.13V36.4h8.33v1H153Zm12.6,0h1.44l6,15.12h0l6-15.12h1.44V37.44h-1.15V22.88h0l-1.06,2.75-4.75,11.82h-1l-4.75-11.82c-.4-1-.7-1.71-1.06-2.75h0V37.44h-1.08Zm19.42,0h1.28L196,35.23h0V20.79h1.08V37.44h-1l-10-14.94h0V37.44h-1.08Zm15.73,8.33c0-5.09,2.81-8.64,6.84-8.64s6.82,3.56,6.82,8.64-2.81,8.64-6.82,8.64S200.79,34.2,200.79,29.11Zm12.54,0c0-4.77-2.43-7.63-5.69-7.63s-5.72,2.86-5.72,7.63,2.43,7.63,5.72,7.63S213.32,33.88,213.32,29.11Zm4.77-8.33h5.42c3.62,0,5.6,1.58,5.6,4.32,0,3.11-2.23,4.55-5.78,4.55h-4.12v7.79h-1.13Zm5.33,7.83c2.88,0,4.57-.88,4.57-3.47,0-2.43-1.67-3.33-4.59-3.33h-4.19v6.8Zm14.38,9.12c-3.71-.34-6.23-3.8-6.23-8.62,0-5.09,2.81-8.64,6.84-8.64s6.82,3.56,6.82,8.64c0,4.86-2.57,8.33-6.3,8.62.11,2.14,1.67,2.79,3.74,2.79h1.15v1h-1.17C239.35,41.56,237.8,39.94,237.8,37.73Zm6.3-8.62c0-4.77-2.43-7.63-5.69-7.63s-5.72,2.86-5.72,7.63,2.43,7.63,5.72,7.63S244.1,33.88,244.1,29.11Zm4.77-8.33h5.42c3.62,0,5.6,1.58,5.6,4.32s-1.64,4-4.07,4.39l4.3,7.94h-1.31l-4.23-7.81H250v7.81h-1.13Zm5.33,7.83c2.88,0,4.57-.88,4.57-3.47,0-2.43-1.67-3.33-4.59-3.33H250v6.8Zm8.55,4.66,1.1-.27a4.66,4.66,0,0,0,4.84,3.74c2.7,0,4.41-1.33,4.41-3.33,0-1.85-.77-2.81-4.61-4.05s-5.24-2.21-5.24-4.77c0-2.23,2.07-4.12,5-4.12a5.28,5.28,0,0,1,5.51,3.92l-1.08.31a4.22,4.22,0,0,0-4.46-3.22c-2.39,0-3.85,1.4-3.85,3,0,2,1.08,2.68,4.88,3.92,3.58,1.17,5,2.36,5,4.91,0,2.77-2.5,4.41-5.58,4.41A5.71,5.71,0,0,1,262.75,33.28Zm18.14-11.46h-5.47v-1h12.06v1H282V37.44h-1.13ZM290.43,32V20.79h1.13V31.72c0,2.79,1.46,5,4.79,5s4.77-2.14,4.77-5v-11h1.13V31.93a5.91,5.91,0,0,1-11.82.07ZM305,20.79h1.17l5.24,15.15h0l5.24-15.15h1.13L312,37.51h-1Zm14.71,0h1.15l2.79,10.69c.43,1.6.81,3.22,1.06,4.3h0c.23-1.06.61-2.7,1-4.28l2.66-10.71h1.31l2.68,10.8c.38,1.55.77,3,1,4.19h0c.29-1.28.63-2.59,1-4.1l2.84-10.89h1.1L334,37.44h-1.15l-3.74-15.1h0l-3.76,15.1h-1.12Zm26.08,7.7-5.11-7.7H342l4.41,6.8,4.43-6.8h1.24L347,28.46l5.9,9h-1.19l-5.31-8.1-5.36,8.1H339.9ZM359.59,30l-5.54-9.25h1.26l4.88,8.28,4.86-8.28h1.22L360.72,30v7.4h-1.12Zm8.12,6.57L378,21.75h-9.61v-1h10.94v.83L369,36.47h10.29v1H367.71ZM1.19,61.72c0-2.25,1.91-3.94,8.13-5V56a2.37,2.37,0,0,0-2.57-2.7,6.43,6.43,0,0,0-4.59,2l-.63-.68a7.23,7.23,0,0,1,5.24-2.23c2.45,0,3.62,1.4,3.62,3.58v5.56a8.19,8.19,0,0,0,.34,2.93H9.59a5.75,5.75,0,0,1-.27-1.76,7.25,7.25,0,0,1-4.79,2C2.36,64.64,1.19,63.52,1.19,61.72Zm8.13-.09V57.55c-5.76,1-7,2.43-7,4.1,0,1.33.88,2,2.34,2A6.73,6.73,0,0,0,9.32,61.63Zm5.8,1.08v1.73H14V47.79h1.08V54.4a5.35,5.35,0,0,1,4-2c2.72,0,5,2,5,6.14s-2.25,6.12-5,6.12A5.64,5.64,0,0,1,15.12,62.71ZM23,58.54c0-3.58-1.82-5.22-3.89-5.22-1.6,0-2.68.77-4,2.12v6.14c1.33,1.35,2.52,2.12,4.05,2.12C21.24,63.7,23,62.17,23,58.54Zm3.53,0c0-4.14,2.45-6.17,5.11-6.17A4.61,4.61,0,0,1,36,55.53l-.92.5c-.72-1.69-1.69-2.7-3.51-2.7s-4,1.35-4,5.2c0,3.31,1.78,5.22,3.94,5.22,1.8,0,2.75-.92,3.65-2.72l.86.43c-1,2-2.32,3.24-4.57,3.24C28.8,64.69,26.55,62.3,26.55,58.54Zm11.63,0c0-4.14,2.25-6.17,5-6.17a5.52,5.52,0,0,1,4,2V47.79h1.08V61.51a7.58,7.58,0,0,0,.36,2.93H47.43a6.56,6.56,0,0,1-.27-1.78,5.46,5.46,0,0,1-4,2C40.41,64.64,38.18,62.68,38.18,58.54Zm9,3V55.44c-1.33-1.35-2.52-2.12-4.05-2.12-2.07,0-3.85,1.58-3.85,5.2s1.82,5.18,3.89,5.18C44.75,63.7,45.83,62.93,47.16,61.58Zm4.18-3.06c0-4.1,2.5-6.14,5-6.14,2.79,0,4.68,2.34,4.68,6.05v.16H52.43c0,3.22,1.78,5.15,4,5.15a4.06,4.06,0,0,0,3.8-2.45l.79.5a5,5,0,0,1-4.66,2.9C53.66,64.69,51.34,62.41,51.34,58.52Zm8.58-.83c-.16-2.43-1.31-4.37-3.58-4.37-1.85,0-3.6,1.44-3.89,4.37Zm4.81-4.1H62.66v-1h2.07v-2c0-2,1.28-2.84,3.24-2.84h.58v1c-.18,0-.5,0-.72,0-1.19,0-2,.5-2,1.78v2.09h2.61v1H65.81V64.44H64.73ZM69.43,66a3,3,0,0,1,2.27-2.77,1.53,1.53,0,0,1-1.13-1.53c0-.65.54-1.22,1.37-1.62a4,4,0,0,1-1.76-3.4,4.29,4.29,0,0,1,4.52-4.28A4.68,4.68,0,0,1,78,53.59a6.76,6.76,0,0,1,2.68-1.06V53.7a5.43,5.43,0,0,0-2.21.43,4,4,0,0,1,.81,2.52,4.22,4.22,0,0,1-4.52,4.21,5.4,5.4,0,0,1-2-.38c-.63.25-1.06.61-1.06,1.1s.45.83,1.89,1l2.77.25c2.45.23,3.92,1.17,3.92,2.93,0,2-2.18,3.22-5.24,3.22C71.26,68.94,69.43,67.82,69.43,66Zm9.75-.16c0-1.24-1-1.89-3.33-2.09l-2.45-.2-.58-.07c-1.53.47-2.32,1.4-2.32,2.43C70.49,67.19,71.84,68,75,68,77.63,68,79.18,67.12,79.18,65.81Zm-1-9.16a3.17,3.17,0,0,0-3.49-3.35,3.32,3.32,0,1,0,3.49,3.35Zm5-8.87h1.08v6.8a6.84,6.84,0,0,1,4.57-2.21c2.45,0,3.58,1.35,3.58,3.49v8.58H91.37V56c0-1.8-.79-2.68-2.59-2.68-1.64,0-3,.85-4.48,2.25v8.87H83.23Zm13,.45h1.17v1.37H96.21Zm0,4.39h1.08V64.44H96.25ZM99.67,68.9v-1a2.58,2.58,0,0,0,.63.07c.63,0,1.08-.38,1.08-1.24V52.62h1.08v14c0,1.6-.72,2.32-2.16,2.32A6,6,0,0,1,99.67,68.9Zm1.67-20.66h1.17v1.37h-1.17Zm5-.45h1.08v11.5l6.1-6.66h1.35L111,56.74l4.39,7.7h-1.22l-3.94-6.86-2.81,3v3.85h-1.08Zm11.77,0h1.08V64.44h-1.08Zm5,4.84h1.08v2a6.54,6.54,0,0,1,4.43-2.21c2,0,2.95.92,3.29,2.23a7,7,0,0,1,4.57-2.23c2.43,0,3.42,1.35,3.42,3.49v8.58h-1.08V56c0-1.8-.65-2.68-2.45-2.68-1.55,0-2.86.85-4.32,2.25v8.87H131V56c0-1.8-.63-2.68-2.45-2.68-1.53,0-2.86.85-4.32,2.25v8.87h-1.08Zm20.45,0h1.08v2a6.84,6.84,0,0,1,4.57-2.21c2.45,0,3.58,1.35,3.58,3.49v8.58h-1.08V56c0-1.8-.79-2.68-2.59-2.68-1.64,0-3,.85-4.48,2.25v8.87h-1.08Zm12.22,5.92c0-3.8,2.27-6.17,5.2-6.17s5.2,2.36,5.2,6.17-2.3,6.14-5.2,6.14S155.81,62.3,155.81,58.54Zm9.32,0c0-2.75-1.44-5.2-4.12-5.2s-4.12,2.25-4.12,5.2c0,2.77,1.42,5.22,4.12,5.22C163.55,63.74,165.13,61.51,165.13,58.52Zm4.18-5.9h1.08v1.73a5.46,5.46,0,0,1,4-2c2.72,0,5,2,5,6.14s-2.25,6.12-5,6.12a5.64,5.64,0,0,1-4-1.94v6.23h-1.08Zm9,5.92c0-3.58-1.82-5.22-3.89-5.22-1.6,0-2.68.77-4,2.12v6.14c1.33,1.35,2.52,2.12,4.05,2.12C176.51,63.7,178.29,62.17,178.29,58.54Zm12.53,4.12a5.46,5.46,0,0,1-4,2c-2.72,0-5-2-5-6.1s2.25-6.17,5-6.17a5.64,5.64,0,0,1,4,1.94V52.62h1.08V68.94h-1.08Zm0-1.08V55.44c-1.33-1.35-2.52-2.12-4.05-2.12-2.07,0-3.85,1.58-3.85,5.2s1.82,5.18,3.89,5.18C188.42,63.7,189.5,62.93,190.82,61.58Zm4.86-9h1.08V55.1h0a5.47,5.47,0,0,1,4.86-2.72H202l-.18,1h-.38a5.1,5.1,0,0,0-4.66,3.26v7.79h-1.08Zm7.58,9.84.79-.61a4.33,4.33,0,0,0,3.67,1.85c2.23,0,3.38-.9,3.38-2.34s-.85-2-3.51-2.68c-3-.74-4-1.53-4-3.35,0-1.51,1.35-2.95,3.89-2.95a5.45,5.45,0,0,1,4.19,1.73l-.72.74a4.39,4.39,0,0,0-3.49-1.53c-2,0-2.79,1-2.79,2,0,1.24.68,1.78,3,2.34,3.33.83,4.5,1.62,4.5,3.74s-1.82,3.29-4.48,3.29A5.19,5.19,0,0,1,203.26,62.46Zm12.6-.65V53.59h-2.07v-1h2.07v-4.3h1.08v4.3H220v1h-3.08v8.06c0,1.26.43,2,1.91,2a4.14,4.14,0,0,0,1.24-.16v1a7.71,7.71,0,0,1-1.33.11C216.81,64.6,215.86,63.81,215.86,61.81Zm7-.61V52.62h1.08v8.44c0,1.8.79,2.68,2.59,2.68,1.64,0,3-.85,4.48-2.25V52.62h1.08V64.44H231v-2a6.84,6.84,0,0,1-4.57,2.21C224,64.69,222.86,63.34,222.86,61.2Zm11.83-8.58h1.19l3.74,10.47h0l3.71-10.47h1.17l-4.39,11.88h-1.08Zm11.32,0h1.15L249,58.84,250.15,63h0c.45-1.71.67-2.54,1.13-4.1l1.76-6.23h1.1L256,59c.43,1.49.67,2.41,1.08,4h0c.45-1.6.68-2.43,1.13-3.92l1.89-6.41h1.1l-3.67,11.82h-1l-2.88-10.31h0l-2.93,10.31h-1Zm21,5.69-4-5.69h1.24l3.33,4.86L271,52.62h1.22l-4,5.67,4.3,6.14h-1.24l-3.65-5.29-3.65,5.29h-1.22Zm6.57,10.42.27-.9a5.66,5.66,0,0,0,1.49.16c1.42,0,2.12-.63,2.66-2l.56-1.46L274,52.62h1.19l3.92,10.51h0l3.92-10.51h1.17l-5.11,13.21c-.81,2.12-1.64,3.11-3.89,3.11A5.38,5.38,0,0,1,273.6,68.74Zm12.33-5,7.54-10.13h-6.93v-.95h8.33v.74L287.3,63.49h7.83v.95h-9.21ZM1.49,90.4H4.66V76.07a7.72,7.72,0,0,1-3.13.77v-1a5,5,0,0,0,3.22-1.08h1V90.4H8.64v1H1.49Zm9.29.68c0-2.41,1.33-4.57,5.72-7.38C19,82.12,20,80.86,20,79a3.34,3.34,0,0,0-3.69-3.58c-2,0-3.26,1-4.23,3L11.14,78a5.56,5.56,0,0,1,5.2-3.58A4.38,4.38,0,0,1,21.09,79c0,2.36-1.24,3.78-4.43,5.81s-4.66,4-4.7,5.63h9.21v1H10.78Zm12.64-2.5.92-.56A5.19,5.19,0,0,0,29,90.76c2.61,0,4.21-1.55,4.21-3.71,0-2.59-1.42-4-5.63-4H27v-1h.72c3.65,0,5.15-1.13,5.15-3.4,0-1.8-1.1-3.22-3.78-3.22a4.86,4.86,0,0,0-4,2.18l-.9-.59a6.11,6.11,0,0,1,4.93-2.59c3.49,0,4.86,2.09,4.86,4.14a3.79,3.79,0,0,1-3.4,4c2.5.52,3.74,1.91,3.74,4.43s-2,4.75-5.33,4.75A6.3,6.3,0,0,1,23.42,88.58Zm21.15-1.42h-8v-.79l7.58-11.59h1.49V86.15h2.81v1H45.65v4.28H44.57Zm0-1V76.07h0L37.91,86.15Zm5.49,2.43L51,88a4.94,4.94,0,0,0,4.41,2.75c3,0,4.39-2.39,4.39-4.75,0-2.88-1.73-4.48-4-4.48a4.53,4.53,0,0,0-4,2.27l-.92-.38.63-8.64H60l-.11,1.08H52.52L52,82.21a4.54,4.54,0,0,1,3.78-1.67c2.88,0,5.09,2.07,5.09,5.4s-2.12,5.81-5.51,5.81A6,6,0,0,1,50.06,88.58Zm13.28-5.18c0-4.84,2.45-8.94,6.26-8.94a5.65,5.65,0,0,1,3.85,1.24l-.63.88a4.45,4.45,0,0,0-3.24-1.13c-3.24,0-5.2,3.62-5.15,8a6.38,6.38,0,0,1,4.88-2.41c3.62,0,5.15,2.34,5.15,5.18A5.2,5.2,0,0,1,69,91.75C66,91.75,63.34,89.19,63.34,83.41Zm10,2.86c0-2.43-1.24-4.19-4.1-4.19a5.88,5.88,0,0,0-4.75,2.79c.38,4.1,2.36,5.9,4.61,5.9C71.6,90.76,73.33,89.17,73.33,86.26ZM84.9,75.87H76.19V74.79h9.9v1L78.91,91.44H77.74Zm2.9,11.61c0-2.39,1.67-3.65,4.57-4.91-2.36-1-3.8-2.14-3.8-4.14s1.91-4,5-4,5,1.94,5,4-1.4,3-3.87,4.1c3,1.31,4.64,2.52,4.64,5,0,2.23-2.12,4.28-5.76,4.28S87.79,89.77,87.79,87.48Zm10.42-.07c0-2-1.71-3.11-4.7-4.37-3.22,1.42-4.61,2.45-4.61,4.37s2,3.35,4.66,3.35S98.22,89.44,98.22,87.41Zm-.77-9c0-1.44-1.22-3-3.89-3s-3.89,1.49-3.89,2.9c0,1.67,1.17,2.48,3.92,3.69C96.32,80.88,97.45,80.12,97.45,78.43Zm4.34,11.79.61-.86a4.86,4.86,0,0,0,3.65,1.4c3.24,0,5.2-3.6,5.15-8a6.38,6.38,0,0,1-4.88,2.41c-3.62,0-5.15-2.34-5.15-5.18a5.2,5.2,0,0,1,5.42-5.49c3.06,0,5.69,2.57,5.69,8.35,0,4.84-2.45,8.94-6.26,8.94A6,6,0,0,1,101.79,90.22Zm9.34-8.87c-.38-4.1-2.36-5.9-4.61-5.9-2.5,0-4.23,1.6-4.23,4.5,0,2.43,1.24,4.19,4.1,4.19A5.88,5.88,0,0,0,111.13,81.36Zm3.8,1.76c0-5.2,2.12-8.64,5.92-8.64s5.9,3.44,5.9,8.64-2.09,8.64-5.9,8.64S114.93,88.31,114.93,83.11Zm10.71,0c0-4.91-1.91-7.65-4.79-7.65S116,78.21,116,83.11s1.91,7.65,4.82,7.65S125.64,88,125.64,83.11Z"/><path id="BentonSansBook" class="cls-1" d="M1.09,136.44v-8.87H4.27c1.93,0,3,.74,3,2.22a2,2,0,0,1-1.64,2.05v0A2.1,2.1,0,0,1,7.59,134c0,1.49-1.1,2.42-3.07,2.42Zm1-5h2c1.33,0,2.1-.47,2.1-1.49s-.64-1.45-2.07-1.45H2.13Zm0,4.08H4.45c1.45,0,2.1-.55,2.1-1.57s-.89-1.6-2.31-1.6H2.13Zm6.66-2.24a3,3,0,0,1,2.87-3.3c1.5,0,2.64,1.06,2.64,3.35v.22H9.83c0,1.43.86,2.19,1.91,2.19a2.14,2.14,0,0,0,1.91-1l.6.53a3,3,0,0,1-2.58,1.34C10.16,136.57,8.8,135.48,8.8,133.27Zm4.52-.54c-.08-1.13-.62-1.9-1.67-1.9a1.86,1.86,0,0,0-1.8,1.9Zm2.46,3.71V130.1h1v.95A3.41,3.41,0,0,1,19.2,130a1.71,1.71,0,0,1,1.87,1.9v4.57H20v-4.34c0-.84-.36-1.24-1.16-1.24a3,3,0,0,0-2.05,1v4.56Zm7.51-1.54V131h-1.1v-.85h1.1v-2.25h1v2.25H26V131H24.32v3.72c0,.67.22,1,1,1a2.58,2.58,0,0,0,.65-.08v.85a5.7,5.7,0,0,1-.9.07C23.72,136.52,23.29,136,23.29,134.9Zm3.61-1.63a3,3,0,1,1,3,3.3A3,3,0,0,1,26.9,133.27Zm4.85,0c0-1.32-.64-2.41-1.9-2.41s-1.91,1-1.91,2.41.62,2.42,1.91,2.42S31.75,134.72,31.75,133.27Zm2.51,3.17V130.1h1v.95A3.41,3.41,0,0,1,37.68,130a1.71,1.71,0,0,1,1.87,1.9v4.57h-1v-4.34c0-.84-.36-1.24-1.16-1.24a3,3,0,0,0-2.05,1v4.56Zm9.6-2.15.89-.4a2.51,2.51,0,0,0,2.52,1.77c1.25,0,2.07-.53,2.07-1.46s-.48-1.31-2.23-1.86-3-1.07-3-2.6c0-1.35,1.16-2.35,2.85-2.35a3.13,3.13,0,0,1,3.13,2l-.84.47a2.31,2.31,0,0,0-2.3-1.5c-1.13,0-1.8.55-1.8,1.31,0,.95.6,1.26,2.34,1.81s2.84,1.15,2.84,2.66-1.28,2.47-3.17,2.47A3.34,3.34,0,0,1,43.86,134.29Zm7.64.65c0-1.28,1.09-2.19,4.23-2.64V132a1.05,1.05,0,0,0-1.2-1.18,3.39,3.39,0,0,0-2.29,1l-.54-.65A4.21,4.21,0,0,1,54.65,130a1.86,1.86,0,0,1,2.11,2.11v2.79a4.35,4.35,0,0,0,.18,1.56H55.88a2.67,2.67,0,0,1-.14-.88,3.42,3.42,0,0,1-2.45,1C52.2,136.53,51.5,136,51.5,134.94Zm4.23-.14V133c-2.41.38-3.21,1-3.21,1.76,0,.61.41.94,1.07.94A3,3,0,0,0,55.74,134.79Zm2.79,1.64V130.1h1v.95A3.41,3.41,0,0,1,61.94,130a1.71,1.71,0,0,1,1.87,1.9v4.57h-1v-4.34c0-.84-.36-1.24-1.16-1.24a3,3,0,0,0-2.05,1v4.56Zm6.6-1,.62-.62a2.6,2.6,0,0,0,2,.88c1,0,1.52-.35,1.52-1s-.55-.88-1.63-1.13c-1.34-.32-2.27-.68-2.27-1.91,0-1,.84-1.73,2.22-1.73a3.29,3.29,0,0,1,2.42.91l-.54.68a2.73,2.73,0,0,0-1.83-.76c-.92,0-1.28.41-1.28.85s.5.8,1.5,1c1.43.35,2.41.7,2.41,2s-1.09,1.86-2.53,1.86A3.35,3.35,0,0,1,65.12,135.48Zm9.59,1v-8.87h3.18c1.93,0,3,.74,3,2.22a2,2,0,0,1-1.64,2.05v0A2.1,2.1,0,0,1,81.21,134c0,1.49-1.1,2.42-3.07,2.42Zm1-5h2c1.33,0,2.1-.47,2.1-1.49s-.64-1.45-2.07-1.45H75.75Zm0,4.08h2.31c1.45,0,2.1-.55,2.1-1.57s-.89-1.6-2.31-1.6h-2.1Zm6.66-2.24a3,3,0,1,1,3,3.3A3,3,0,0,1,82.42,133.27Zm4.85,0c0-1.32-.64-2.41-1.9-2.41s-1.91,1-1.91,2.41.62,2.42,1.91,2.42S87.26,134.72,87.26,133.27Zm2.15,0a3,3,0,1,1,3,3.3A3,3,0,0,1,89.41,133.27Zm4.85,0c0-1.32-.64-2.41-1.9-2.41s-1.91,1-1.91,2.41.62,2.42,1.91,2.42S94.26,134.72,94.26,133.27Zm2.51,3.17v-8.87h1v5.71l2.83-3.17h1.18l-2.07,2.27,2.3,4.07h-1.1l-1.87-3.3-1.26,1.36v1.94ZM6.71,146.71H8.44l5.9,16.72H12.67l-1.78-5.13H4.14l-1.78,5.13H.81Zm3.69,10.17L7.54,148.6h0l-2.86,8.28Zm6.88-10.11h5.78c3.76,0,5.65,1.55,5.65,4.19a3.75,3.75,0,0,1-3.15,3.85v0c2.07.38,3.69,1.67,3.69,4.05,0,2.63-1.85,4.52-5.69,4.52H17.28Zm5.65,7.4c2.66,0,4.21-.94,4.21-3s-1.28-2.95-4.16-2.95H18.86v6Zm.61,7.83c2.86,0,4.14-1.15,4.14-3.17,0-2.25-1.78-3.26-4.64-3.26H18.86V162Zm8.23-7c0-5,2.77-8.58,6.93-8.58,3.38,0,5.24,2,6,5.09l-1.53.38c-.74-2.63-2-4-4.52-4-3.22,0-5.31,2.79-5.31,7.07,0,4.61,2.12,7.31,5.36,7.31,2.48,0,4-1.44,4.75-4.23l1.53.34c-.81,3.29-3,5.33-6.3,5.33C34.49,163.75,31.77,160.35,31.77,155Zm16.54-8.26h4.21c5.42,0,8.28,2.81,8.28,8.3s-2.93,8.35-8.28,8.35H48.31ZM52.76,162c4.12,0,6.44-2.09,6.44-6.91s-2.34-6.82-6.48-6.82H49.91V162Zm11.5-15.21h9.95v1.49H65.86v5.65h6.23v1.44H65.86V162h8.82v1.46H64.26Zm13.59,0H87.6v1.49H79.45V154h6v1.44h-6v8h-1.6ZM88.94,155c0-5.24,2.93-8.58,7-8.58,3.15,0,5.2,1.78,6.05,5.11l-1.53.36c-.79-2.75-2.07-4-4.55-4-2.88,0-5.33,2.36-5.33,7s2.18,7.34,5.38,7.34c2.79,0,4.64-2,4.61-5.33h-4V155.6h5.58v7.83h-1.44v-2.54h0a5.07,5.07,0,0,1-4.82,2.86C91.42,163.75,88.94,160,88.94,155ZM106,146.78h1.6v7.13h9v-7.13h1.6v16.65h-1.6v-8.06h-9v8.06H106Zm16.7,0h1.6v16.65h-1.6Zm4.57,14.67,1.13-.86a3.36,3.36,0,0,0,2.93,1.73c1.78,0,3-.88,3-3.38V146.78h1.6V159c0,3.15-1.71,4.77-4.5,4.77A4.57,4.57,0,0,1,127.28,161.46ZM140,146.78h1.6v9l8-9h2l-5.72,6.3,6.55,10.35h-1.85l-5.78-9.12-3.13,3.42v5.69H140Zm15,0h1.6V162h8.15v1.46H155Zm12.71,0h2.07l5.58,14.58h0L181,146.78h2.12v16.65h-1.6v-14h0c-.23.74-.63,1.85-1,2.93l-4.32,11h-1.46l-4.32-11c-.41-1.08-.68-1.78-1-3h0v14h-1.49Zm19.6,0h1.71l9.18,13.73h0V146.78h1.51v16.65h-1.42l-9.48-14.16h0v14.16h-1.51Zm15.91,8.33c0-5.22,2.95-8.64,7-8.64s7,3.42,7,8.64-2.95,8.64-7,8.64S203.26,160.33,203.26,155.11Zm12.45,0c0-4.52-2.27-7.18-5.42-7.18s-5.42,2.66-5.42,7.18,2.27,7.2,5.42,7.2S215.71,159.63,215.71,155.11Zm5.06-8.33h5.54c3.62,0,5.83,1.49,5.83,4.55,0,3.35-2.48,4.73-6,4.73h-3.78v7.38h-1.6Zm5.49,7.85c2.75,0,4.28-.85,4.28-3.26,0-2.25-1.51-3.13-4.3-3.13h-3.87v6.39Zm14.31,9c-3.62-.43-6.14-3.76-6.14-8.58,0-5.22,3-8.64,7-8.64s7,3.42,7,8.64c0,4.88-2.61,8.24-6.3,8.6.18,2,1.62,2.5,3.69,2.5H247v1.42h-1.49C242.17,167.62,240.59,166,240.57,163.68Zm6.28-8.58c0-4.52-2.27-7.18-5.4-7.18s-5.42,2.66-5.42,7.18,2.27,7.22,5.42,7.22S246.85,159.63,246.85,155.11Zm5.08-8.33h5.58c3.71,0,5.78,1.58,5.78,4.5,0,2.7-1.58,4.05-4,4.5l4.21,7.65h-1.8L257.65,156h-4.14v7.47h-1.58Zm5.47,7.76c2.75,0,4.3-.79,4.3-3.2s-1.53-3.11-4.32-3.11h-3.87v6.3Zm8.57,4.79,1.42-.52a4.68,4.68,0,0,0,4.77,3.51c2.5,0,4.12-1.15,4.12-3s-.83-2.61-4.37-3.74-5.4-2.09-5.4-4.84c0-2.39,2.14-4.28,5.18-4.28a5.57,5.57,0,0,1,5.72,3.83l-1.35.63a4.25,4.25,0,0,0-4.39-3c-2.23,0-3.58,1.19-3.58,2.72,0,1.87,1.1,2.5,4.61,3.62s5.18,2.25,5.18,5-2.45,4.55-5.78,4.55A6,6,0,0,1,266,159.34Zm18.41-11.07H279v-1.49h12.36v1.49H286v15.17h-1.6Zm9.72,9.54v-11h1.6v10.76c0,2.72,1.37,4.75,4.48,4.75s4.46-1.94,4.46-4.7v-10.8h1.6v11c0,3.31-2,6-6.08,6S294.09,161.12,294.09,157.81Zm14.71-11h1.64l5,14.54h0l5-14.54H322l-5.85,16.72h-1.51Zm14.92,0h1.62l2.59,10.11c.41,1.53.77,3,1,4.19h0c.23-1.13.58-2.66,1-4.16l2.48-10.13h1.69L336.65,157c.38,1.51.72,2.81.94,4.07h0c.29-1.33.61-2.52,1-4l2.61-10.29h1.53l-4.41,16.65h-1.51L333.29,149h0l-3.58,14.45h-1.51Zm26.21,7.72-5.06-7.72h1.85l4.14,6.46,4.14-6.46h1.71l-5,7.72,5.78,8.94h-1.71l-5-7.67-5,7.67h-1.64Zm14.15,1.6-5.58-9.32h1.73l4.68,7.94,4.66-7.94h1.71l-5.6,9.32v7.34h-1.6Zm8.48,6.19,10-14.16h-9.34v-1.35H384.5V148l-9.95,14.13h9.95v1.35H372.57ZM1.08,187.67c0-2.34,2-4.05,8-5v-.61a2.15,2.15,0,0,0-2.41-2.43,6.45,6.45,0,0,0-4.43,1.87l-.83-1a7.56,7.56,0,0,1,5.4-2.21c2.66,0,3.8,1.42,3.8,3.78v5.38a8.19,8.19,0,0,0,.34,2.93H9.39a5.3,5.3,0,0,1-.27-1.69,6.78,6.78,0,0,1-4.68,1.89C2.32,190.64,1.08,189.51,1.08,187.67Zm8-.18V183.8c-5.09.86-6.5,2.12-6.5,3.67,0,1.24.83,1.89,2.16,1.89A6.18,6.18,0,0,0,9.12,187.49Zm6.55,1.33v1.62H14.11V173.78h1.55v6.53a5.18,5.18,0,0,1,4-2c2.72,0,4.88,2,4.88,6.14s-2.18,6.14-5,6.14A5.3,5.3,0,0,1,15.66,188.81Zm7.29-4.3c0-3.29-1.62-4.84-3.6-4.84a5,5,0,0,0-3.69,2v5.76a5.06,5.06,0,0,0,3.69,1.94C21.45,189.33,23,187.87,23,184.52Zm3.82,0c0-4.25,2.63-6.17,5.29-6.17a4.68,4.68,0,0,1,4.55,3.24l-1.33.59c-.65-1.6-1.6-2.5-3.26-2.5s-3.69,1.26-3.69,4.82c0,3.11,1.58,4.86,3.65,4.86,1.64,0,2.57-.77,3.4-2.52l1.26.54c-.95,2-2.32,3.31-4.73,3.31C29.18,190.68,26.77,188.46,26.77,184.52Zm11.77,0c0-4.14,2.18-6.17,5-6.17a5.25,5.25,0,0,1,3.83,1.85v-6.41h1.55v13.73a7.58,7.58,0,0,0,.36,2.93H47.66a6.08,6.08,0,0,1-.27-1.73,5.27,5.27,0,0,1-4,1.94C40.7,190.64,38.54,188.66,38.54,184.52Zm8.85,2.86v-5.76a5,5,0,0,0-3.69-2c-2.09,0-3.6,1.53-3.6,4.88s1.62,4.77,3.6,4.77A5,5,0,0,0,47.39,187.37Zm4.47-2.88c0-4.21,2.7-6.14,5.2-6.14,2.77,0,4.84,2.12,4.84,6.17v.29H53.42c0,2.93,1.69,4.57,3.74,4.57a4,4,0,0,0,3.69-2.16l1,.77a5.24,5.24,0,0,1-4.75,2.7C54.29,190.68,51.86,188.54,51.86,184.49Zm8.53-.92c-.16-2.25-1.24-3.92-3.35-3.92-1.71,0-3.31,1.24-3.6,3.92Zm5.08-3.67H63.4v-1.33h2.07V176.8c0-2,1.15-3,3.4-3,.29,0,.7,0,.9,0v1.31a7.87,7.87,0,0,0-.79,0c-1.15,0-2,.43-2,1.71v1.8h2.61v1.33H67v10.53H65.48Zm5,12.11a3,3,0,0,1,2.18-2.7,1.51,1.51,0,0,1-1.06-1.51c0-.72.58-1.33,1.44-1.78a3.92,3.92,0,0,1-1.8-3.4c0-2.52,2-4.28,4.68-4.28a4.91,4.91,0,0,1,3.38,1.22,6.29,6.29,0,0,1,2.75-1.08v1.46a5.58,5.58,0,0,0-2.16.41,3.69,3.69,0,0,1,.7,2.27c0,2.59-2,4.21-4.66,4.21A5.26,5.26,0,0,1,74,186.5c-.56.23-.95.56-.95,1s.43.77,1.76.9l2.59.2c2.75.23,4.19,1.17,4.19,3,0,2.16-2.25,3.35-5.49,3.35C72.27,195,70.49,193.83,70.49,192Zm9.68-.25c0-1.13-.9-1.69-3.24-1.87l-2.36-.18-.61-.07c-1.33.43-2,1.26-2,2.16,0,1.24,1.31,2,4.3,2C78.71,193.77,80.17,193,80.17,191.76Zm-1-9.12a2.88,2.88,0,0,0-3.2-3.06,3,3,0,1,0,3.2,3.06Zm5.35-8.87H86v6.66a6.5,6.5,0,0,1,4.52-2.09,3.18,3.18,0,0,1,3.53,3.51v8.58H92.54v-8.28c0-1.67-.74-2.48-2.36-2.48A6,6,0,0,0,86,181.75v8.69H84.49Zm13.16.38h1.64v1.67H97.65Zm0,4.41h1.55v11.86H97.69Zm3.53,16.29v-1.24a3.1,3.1,0,0,0,.7.09c.72,0,1.17-.41,1.17-1.33V178.57h1.55v13.84c0,1.62-.68,2.54-2.5,2.54A5.3,5.3,0,0,1,101.23,194.87ZM103,174.16h1.64v1.67H103Zm5.31-.38h1.55v11.05l5.65-6.26h1.82l-3.87,4.19,4.34,7.67h-1.69L112.48,184l-2.57,2.75v3.74h-1.55Zm12.06,0H122v16.65h-1.55Zm5.26,4.79h1.55v1.87a6.17,6.17,0,0,1,4.34-2.09c2,0,2.9.88,3.26,2.14a6.66,6.66,0,0,1,4.48-2.14c2.43,0,3.42,1.37,3.42,3.51v8.58h-1.55v-8.28c0-1.67-.56-2.48-2.23-2.48-1.44,0-2.63.79-4,2.07v8.69h-1.55v-8.28c0-1.67-.56-2.48-2.25-2.48-1.42,0-2.63.79-4,2.07v8.69h-1.55Zm20.54,0h1.55v1.87a6.5,6.5,0,0,1,4.52-2.09,3.18,3.18,0,0,1,3.53,3.51v8.58h-1.55v-8.28c0-1.67-.74-2.48-2.36-2.48a6,6,0,0,0-4.14,2.07v8.69h-1.55Zm12.4,5.94c0-4,2.45-6.17,5.38-6.17s5.36,2.21,5.36,6.17-2.45,6.17-5.36,6.17S158.62,188.46,158.62,184.52Zm9.18,0c0-2.59-1.31-4.82-3.8-4.82s-3.83,2-3.83,4.82c0,2.63,1.28,4.86,3.83,4.86C166.39,189.35,167.81,187.35,167.81,184.49Zm4.48-5.92h1.55v1.69a5.29,5.29,0,0,1,4-1.91c2.72,0,4.88,2,4.88,6.14s-2.18,6.14-5,6.14a5.3,5.3,0,0,1-3.83-1.82v6.12h-1.55Zm8.84,5.94c0-3.29-1.62-4.84-3.6-4.84a5,5,0,0,0-3.69,2v5.76a5.06,5.06,0,0,0,3.69,1.94C179.62,189.33,181.13,187.87,181.13,184.52Zm12.69,4.19a5.27,5.27,0,0,1-4,1.94c-2.72,0-4.88-2-4.88-6.12s2.18-6.17,5-6.17a5.36,5.36,0,0,1,3.83,1.8v-1.58h1.55v16.36h-1.55Zm0-1.33v-5.76a5,5,0,0,0-3.69-2c-2.09,0-3.6,1.53-3.6,4.88s1.62,4.77,3.6,4.77A5,5,0,0,0,193.82,187.37Zm5.15-8.8h1.55v2.34h0a5.22,5.22,0,0,1,4.7-2.57h.27l-.16,1.44-.47,0a4.8,4.8,0,0,0-4.39,2.95v7.72H199Zm7.72,10,1-.9a4.63,4.63,0,0,0,3.69,1.71c2,0,3.08-.74,3.08-2.07s-.95-1.82-3.26-2.36c-2.72-.68-4.12-1.4-4.12-3.47,0-1.69,1.46-3.11,4-3.11a5.83,5.83,0,0,1,4.39,1.71l-.88,1a4.73,4.73,0,0,0-3.47-1.46c-1.85,0-2.57.86-2.57,1.76,0,1.15.81,1.62,2.88,2.12,3,.72,4.5,1.44,4.5,3.76,0,2.16-1.94,3.4-4.61,3.4A5.69,5.69,0,0,1,206.68,188.54Zm12.8-.88V179.9h-2.07v-1.33h2.07v-4.25H221v4.25h3.08v1.33H221v7.45c0,1.26.41,1.94,1.87,1.94a4.14,4.14,0,0,0,1.24-.16v1.33a9.43,9.43,0,0,1-1.53.14C220.34,190.59,219.49,189.72,219.49,187.67Zm7.29-.52v-8.57h1.55v8.3c0,1.67.72,2.48,2.36,2.48a6.07,6.07,0,0,0,4.12-2.07v-8.71h1.58v11.86h-1.58v-1.87a6.51,6.51,0,0,1-4.5,2.12A3.18,3.18,0,0,1,226.77,187.15Zm12-8.57h1.67l3.51,10h0l3.49-10H249l-4.37,11.91h-1.55Zm11.48,0h1.62l1.67,5.87c.43,1.51.7,2.5,1.1,4h0c.43-1.69.65-2.52,1.08-4l1.62-5.87h1.42l1.64,6c.43,1.44.65,2.36,1,3.92h0c.43-1.6.65-2.43,1.08-3.87l1.73-6h1.51l-3.65,11.86h-1.44l-2.68-9.75h0l-2.72,9.75h-1.42Zm21.15,5.72-4-5.72h1.73l3.08,4.57,3.08-4.57H277l-4,5.72,4.25,6.14h-1.71l-3.4-5-3.38,5h-1.67Zm6.79,10.44.36-1.28a6.35,6.35,0,0,0,1.64.18,2.35,2.35,0,0,0,2.43-1.82l.5-1.31-4.59-11.93h1.67l3.69,10h0l3.67-10h1.62l-5.11,13.23c-.79,2.12-1.69,3.17-4,3.17A6.8,6.8,0,0,1,278.16,194.73Zm12.53-5.29,7.22-9.57h-6.64v-1.31h8.6v1l-7.22,9.57h7.54v1.28h-9.5ZM1.35,216H4.48V202.51a7.51,7.51,0,0,1-3.08.77v-1.42a4.86,4.86,0,0,0,3.17-1.08H6.05V216H8.89v1.44H1.35Zm9.45,1.08c0-2.41,1.19-4.61,5.58-7.43,2.5-1.6,3.51-2.72,3.51-4.52a3.06,3.06,0,0,0-3.4-3.24c-1.82,0-3.15.95-4.14,2.88L11.09,204a6,6,0,0,1,5.47-3.56c3,0,4.88,1.89,4.88,4.57,0,2.27-1.1,3.71-4.3,5.74-3,1.91-4.48,3.71-4.59,5.22h9v1.44H10.8Zm12.78-2.43,1.19-.85a5.13,5.13,0,0,0,4.55,2.57c2.45,0,4-1.35,4-3.4,0-2.45-1.44-3.67-5.36-3.67h-.63v-1.37h.77c3.53,0,4.86-1.08,4.86-3.13,0-1.67-1-2.9-3.53-2.9a5,5,0,0,0-4,2l-1.1-.92a6.56,6.56,0,0,1,5.15-2.52c3.51,0,5,2,5,4.16a3.77,3.77,0,0,1-3.29,3.94c2.48.52,3.67,1.94,3.67,4.39,0,2.72-2.14,4.79-5.56,4.79A6.54,6.54,0,0,1,23.58,214.64ZM45,213.41h-8v-1.19l7.58-11.43h2V212H49.3v1.42H46.49v4H45ZM45,212v-9.34h0L38.75,212Zm5.76,2.77,1.15-.92a5.09,5.09,0,0,0,4.32,2.52c2.86,0,4.16-2.12,4.16-4.37,0-2.7-1.6-4.14-3.8-4.14a4.36,4.36,0,0,0-3.8,2.09l-1.19-.45.65-8.71H61l-.13,1.46H53.53L53.08,208a4.48,4.48,0,0,1,3.69-1.55c3,0,5.15,2.12,5.15,5.45a5.49,5.49,0,0,1-5.72,5.83A6.4,6.4,0,0,1,50.71,214.76Zm13.45-5.36c0-5.13,2.7-8.94,6.53-8.94a6.21,6.21,0,0,1,4,1.26l-.83,1.22a4.6,4.6,0,0,0-3.2-1.08c-3,0-4.91,3.24-4.93,7.38A6.41,6.41,0,0,1,70.47,207c3.51,0,5.2,2.18,5.2,5.2a5.34,5.34,0,0,1-5.58,5.54C66.8,217.75,64.17,215.12,64.17,209.4Zm9.95,2.84c0-2.23-1.13-3.85-3.83-3.85a5.64,5.64,0,0,0-4.5,2.45c.34,3.87,2.16,5.54,4.37,5.54C72.54,216.38,74.12,214.87,74.12,212.24Zm11.61-10H77.15v-1.46H87.39v1.37l-7,15.28H78.7Zm3.17,11.16c0-2.34,1.67-3.62,4.41-4.82-2.27-1-3.65-2.09-3.65-4.12s1.91-4,5.18-4,5.15,2,5.15,4-1.33,3-3.69,4.07c2.84,1.24,4.46,2.43,4.46,4.86s-2.18,4.37-5.92,4.37S88.9,215.81,88.9,213.41Zm10.29-.09c0-1.87-1.58-2.9-4.43-4.1-2.95,1.31-4.28,2.32-4.28,4.1s1.82,3.11,4.37,3.11S99.18,215.21,99.18,213.32Zm-.74-8.78c0-1.33-1.1-2.75-3.6-2.75s-3.62,1.35-3.62,2.68c0,1.58,1.15,2.36,3.69,3.47C97.4,206.86,98.44,206.09,98.44,204.54Zm4.72,11.73.81-1.19a4.89,4.89,0,0,0,3.49,1.28c3,0,4.91-3.22,4.91-7.38a6.37,6.37,0,0,1-4.73,2.23c-3.51,0-5.2-2.18-5.2-5.2a5.34,5.34,0,0,1,5.58-5.54c3.29,0,5.9,2.63,5.9,8.35,0,5.13-2.68,8.94-6.5,8.94A6.22,6.22,0,0,1,103.16,216.27Zm9.16-8.89c-.34-3.87-2.18-5.51-4.39-5.51-2.36,0-3.94,1.49-3.94,4.12,0,2.23,1.13,3.85,3.83,3.85A5.64,5.64,0,0,0,112.32,207.38Zm4.09,1.73c0-5.2,2.21-8.64,6.12-8.64s6.08,3.44,6.08,8.64-2.16,8.64-6.08,8.64S116.41,214.31,116.41,209.11Zm10.62,0c0-4.7-1.78-7.22-4.5-7.22S118,204.4,118,209.11s1.78,7.25,4.52,7.25S127,213.81,127,209.11Z"/><path id="BentonSansReg" class="cls-1" d="M1.09,262.43v-8.87H4.27c1.93,0,3,.74,3,2.22a2,2,0,0,1-1.64,2.05v0A2.1,2.1,0,0,1,7.59,260c0,1.49-1.1,2.42-3.07,2.42Zm1-5h2c1.33,0,2.1-.47,2.1-1.49s-.64-1.45-2.07-1.45H2.13Zm0,4.08H4.45c1.45,0,2.1-.55,2.1-1.57s-.89-1.6-2.31-1.6H2.13Zm6.66-2.24a3,3,0,0,1,2.87-3.3c1.5,0,2.64,1.06,2.64,3.35v.22H9.83c0,1.43.86,2.19,1.91,2.19a2.14,2.14,0,0,0,1.91-1l.6.53a3,3,0,0,1-2.58,1.34C10.16,262.56,8.8,261.47,8.8,259.26Zm4.52-.54c-.08-1.13-.62-1.9-1.67-1.9a1.86,1.86,0,0,0-1.8,1.9Zm2.46,3.71V256.1h1V257A3.41,3.41,0,0,1,19.2,256a1.71,1.71,0,0,1,1.87,1.9v4.57H20v-4.34c0-.84-.36-1.24-1.16-1.24a3,3,0,0,0-2.05,1v4.56Zm7.51-1.54v-3.95h-1.1v-.85h1.1v-2.25h1v2.25H26v.85H24.32v3.72c0,.67.22,1,1,1a2.58,2.58,0,0,0,.65-.08v.85a5.7,5.7,0,0,1-.9.07C23.72,262.51,23.29,262,23.29,260.9Zm3.61-1.63a3,3,0,1,1,3,3.3A3,3,0,0,1,26.9,259.26Zm4.85,0c0-1.32-.64-2.41-1.9-2.41s-1.91,1-1.91,2.41.62,2.42,1.91,2.42S31.75,260.72,31.75,259.26Zm2.51,3.17V256.1h1V257A3.41,3.41,0,0,1,37.68,256a1.71,1.71,0,0,1,1.87,1.9v4.57h-1v-4.34c0-.84-.36-1.24-1.16-1.24a3,3,0,0,0-2.05,1v4.56Zm9.6-2.15.89-.4a2.51,2.51,0,0,0,2.52,1.77c1.25,0,2.07-.53,2.07-1.46s-.48-1.31-2.23-1.86-3-1.07-3-2.6c0-1.35,1.16-2.35,2.85-2.35a3.13,3.13,0,0,1,3.13,2l-.84.47a2.31,2.31,0,0,0-2.3-1.5c-1.13,0-1.8.55-1.8,1.31,0,.95.6,1.26,2.34,1.81s2.84,1.15,2.84,2.66-1.28,2.47-3.17,2.47A3.34,3.34,0,0,1,43.86,260.28Zm7.64.65c0-1.28,1.09-2.19,4.23-2.64V258a1.05,1.05,0,0,0-1.2-1.18,3.39,3.39,0,0,0-2.29,1l-.54-.65A4.21,4.21,0,0,1,54.65,256a1.86,1.86,0,0,1,2.11,2.11v2.79a4.35,4.35,0,0,0,.18,1.56H55.88a2.67,2.67,0,0,1-.14-.88,3.42,3.42,0,0,1-2.45,1C52.2,262.53,51.5,262,51.5,260.93Zm4.23-.14V259c-2.41.38-3.21,1-3.21,1.76,0,.61.41.94,1.07.94A3,3,0,0,0,55.74,260.79Zm2.79,1.64V256.1h1V257A3.41,3.41,0,0,1,61.94,256a1.71,1.71,0,0,1,1.87,1.9v4.57h-1v-4.34c0-.84-.36-1.24-1.16-1.24a3,3,0,0,0-2.05,1v4.56Zm6.6-1,.62-.62a2.6,2.6,0,0,0,2,.88c1,0,1.52-.35,1.52-1s-.55-.88-1.63-1.13c-1.34-.32-2.27-.68-2.27-1.91,0-1,.84-1.73,2.22-1.73a3.29,3.29,0,0,1,2.42.91l-.54.68a2.73,2.73,0,0,0-1.83-.76c-.92,0-1.28.41-1.28.85s.5.8,1.5,1c1.43.35,2.41.7,2.41,2s-1.09,1.86-2.53,1.86A3.35,3.35,0,0,1,65.12,261.47Zm9.59,1v-8.87h3c2,0,3.15.85,3.15,2.48a2.3,2.3,0,0,1-2.06,2.43l2.18,4H79.88l-2.12-3.83h-2v3.83Zm1-4.76H77.7c1.39,0,2.17-.38,2.17-1.6s-.77-1.56-2.18-1.56H75.75Zm6.18,1.59A3,3,0,0,1,84.8,256c1.5,0,2.64,1.06,2.64,3.35v.22H83c0,1.43.86,2.19,1.91,2.19a2.14,2.14,0,0,0,1.91-1l.6.53a3,3,0,0,1-2.58,1.34C83.3,262.56,81.94,261.47,81.94,259.26Zm4.52-.54c-.08-1.13-.62-1.9-1.67-1.9a1.86,1.86,0,0,0-1.8,1.9Zm1.75,4.57a1.54,1.54,0,0,1,1.15-1.4.84.84,0,0,1-.54-.8,1.31,1.31,0,0,1,.79-1,2.09,2.09,0,0,1-1-1.82A2.35,2.35,0,0,1,91.22,256a2.78,2.78,0,0,1,1.87.66,3.37,3.37,0,0,1,1.5-.59v.91a3.27,3.27,0,0,0-1.14.2,1.86,1.86,0,0,1,.32,1.09,2.31,2.31,0,0,1-2.55,2.25,3.4,3.4,0,0,1-1-.16c-.26.12-.44.28-.44.49s.2.38.88.44l1.29.11c1.61.11,2.42.62,2.42,1.64,0,1.2-1.26,1.83-3.09,1.83C89.13,264.87,88.21,264.25,88.21,263.29Zm5.21-.17c0-.56-.42-.82-1.75-.91l-1.2-.08-.36,0c-.61.22-.94.61-.94,1,0,.64.66.95,2.23.95C92.66,264.09,93.42,263.7,93.42,263.13Zm-.6-4.86a1.42,1.42,0,0,0-1.6-1.5,1.49,1.49,0,1,0,0,3A1.42,1.42,0,0,0,92.82,258.27Zm2.94,2.4V256.1h1v4.35c0,.84.36,1.24,1.16,1.24a3,3,0,0,0,2.05-1V256.1h1v6.33h-1v-.95a3.4,3.4,0,0,1-2.37,1.07A1.7,1.7,0,0,1,95.76,260.67Zm7.19,1.76v-8.87h1v8.88Zm2.54-1.5c0-1.28,1.09-2.19,4.23-2.64V258a1.05,1.05,0,0,0-1.2-1.18,3.39,3.39,0,0,0-2.29,1l-.54-.65a4.21,4.21,0,0,1,2.94-1.18,1.86,1.86,0,0,1,2.11,2.11v2.79a4.35,4.35,0,0,0,.18,1.56h-1.06a2.67,2.67,0,0,1-.14-.88,3.42,3.42,0,0,1-2.45,1C106.19,262.53,105.49,262,105.49,260.93Zm4.23-.14V259c-2.41.38-3.21,1-3.21,1.76,0,.61.41.94,1.07.94A3,3,0,0,0,109.72,260.79Zm2.79,1.64V256.1h1v1.18h0A2.72,2.72,0,0,1,116,256h.13l-.07,1a2.47,2.47,0,0,0-.3,0,2.43,2.43,0,0,0-2.23,1.43v4.09ZM.72,289.43l5.9-16.72H8.69l5.9,16.72h-2l-1.64-4.77H4.28l-1.64,4.77Zm4.16-6.5h5.4l-2.66-7.81h0Zm12.46,6.5V272.78h6c3.62,0,5.69,1.4,5.69,4.16a3.67,3.67,0,0,1-3.08,3.85v0c2,.38,3.62,1.62,3.62,4.05,0,2.79-2.07,4.55-5.76,4.55Zm2-9.39h3.83c2.5,0,3.94-.88,3.94-2.79s-1.19-2.72-3.89-2.72H19.31Zm0,7.65h4.34c2.72,0,3.94-1,3.94-2.95,0-2.09-1.67-3-4.34-3H19.31ZM32,281c0-5.2,2.9-8.58,7.07-8.58,3.53,0,5.4,2,6.17,5.11l-1.89.52c-.72-2.52-1.87-3.8-4.3-3.8-3.11,0-5,2.61-5,6.73,0,4.41,2,6.93,5.09,6.93,2.36,0,3.83-1.33,4.52-4l1.87.43c-.81,3.29-2.93,5.4-6.41,5.4C34.81,289.75,32,286.48,32,281Zm16.67,8.4V272.78H53c5.36,0,8.4,2.7,8.4,8.28s-3.11,8.37-8.4,8.37Zm2-1.78h2.66c4,0,6.17-2,6.17-6.59,0-4.48-2.16-6.46-6.21-6.46H50.63Zm14.11,1.78V272.78H75v1.82H66.71v5.2h6.12v1.78H66.71v6.05h8.71v1.8Zm13.7,0V272.78h10v1.82h-8V280h5.9v1.78h-5.9v7.7ZM89.68,281c0-5.29,2.93-8.58,7.09-8.58,3.15,0,5.29,1.67,6.17,5.15l-1.85.47c-.79-2.68-2-3.8-4.34-3.8-2.61,0-5.06,2-5.06,6.68s2.18,7,5.13,7c2.59,0,4.34-1.76,4.39-4.84H97.38v-1.67h5.74v8h-1.73v-2.5h0a5,5,0,0,1-4.7,2.81C92.14,289.75,89.68,286.08,89.68,281Zm17.24,8.4V272.78h2v7h8.58v-7h2v16.65h-2v-7.85H108.9v7.85Zm16.85,0V272.78h2v16.65Zm4.79-1.87,1.33-1.12a3.36,3.36,0,0,0,2.84,1.58c1.69,0,2.81-.81,2.81-3.22v-12h2v12.15c0,3.13-1.78,4.82-4.73,4.82A4.86,4.86,0,0,1,128.56,287.56Zm12.87,1.87V272.78h2v8.6l7.54-8.6h2.39l-5.72,6.35,6.5,10.31h-2.27l-5.54-8.8-2.9,3.17v5.63Zm15.25,0V272.78h2v14.85h8v1.8Zm12.8,0V272.78h2.59l5.24,14.16h0l5.15-14.16h2.63v16.65h-2V275.95h0c-.23.88-.63,2-1,3.06l-4,10.42h-1.78l-4-10.42a31.92,31.92,0,0,1-1-3.13h0v13.55Zm19.75,0V272.78h2.09l8.76,13.17h0V272.78H202v16.65h-1.78l-9.07-13.53h0v13.53Zm16-8.33c0-5.36,3.08-8.64,7.2-8.64s7.16,3.29,7.16,8.64-3,8.64-7.16,8.64S205.29,286.46,205.29,281.1Zm12.38,0c0-4.34-2.16-6.84-5.18-6.84s-5.2,2.5-5.2,6.84,2.14,6.86,5.2,6.86S217.67,285.45,217.67,281.1Zm5.28,8.33V272.78h5.65c3.6,0,6,1.42,6,4.73,0,3.56-2.66,4.88-6.14,4.88h-3.53v7Zm2-8.8h3.65c2.66,0,4.07-.81,4.07-3.06s-1.4-3-4.1-3h-3.62Zm23,13c-3.4,0-5-1.69-5.06-4-3.53-.47-6.08-3.71-6.08-8.53,0-5.36,3.17-8.64,7.2-8.64s7.16,3.29,7.16,8.64c0,4.93-2.66,8.15-6.28,8.55.23,1.89,1.58,2.3,3.65,2.3h1.15v1.71Zm1.22-12.56c0-4.34-2.14-6.84-5.15-6.84s-5.22,2.5-5.22,6.84,2.16,6.89,5.22,6.89S249.1,285.45,249.1,281.1Zm5.31,8.33V272.78h5.72c3.78,0,5.92,1.6,5.92,4.66,0,2.68-1.51,4.07-3.87,4.57l4.1,7.43h-2.16l-4-7.18h-3.76v7.18Zm2-8.94H260c2.61,0,4.07-.72,4.07-3s-1.44-2.93-4.1-2.93h-3.62Zm12.22,4.91,1.67-.74A4.72,4.72,0,0,0,275,288c2.34,0,3.89-1,3.89-2.75s-.9-2.45-4.19-3.49c-3.47-1.06-5.54-2-5.54-4.88,0-2.54,2.18-4.41,5.36-4.41a5.87,5.87,0,0,1,5.87,3.74l-1.58.88a4.33,4.33,0,0,0-4.32-2.81c-2.12,0-3.38,1-3.38,2.45,0,1.78,1.13,2.36,4.39,3.4s5.33,2.16,5.33,5-2.41,4.64-5.94,4.64A6.27,6.27,0,0,1,268.58,285.4Zm18.61,4V274.6H281.9v-1.82h12.58v1.82h-5.31v14.83Zm9.9-5.76V272.78h2V283.4c0,2.68,1.28,4.55,4.23,4.55s4.19-1.8,4.19-4.5V272.78h2v10.85c0,3.47-2,6.1-6.17,6.1C299,289.72,297.09,287.11,297.09,283.67Zm20.63,5.83-5.85-16.72h2l4.77,14.07h0l4.79-14.07h1.91l-5.85,16.72Zm13.66-.07-4.43-16.65h2l2.45,9.66c.38,1.46.74,2.88,1,4.07h0c.23-1.17.56-2.61.95-4.05l2.32-9.68h2l2.39,9.75c.36,1.49.7,2.7.92,4h0c.27-1.35.56-2.45.92-3.92l2.43-9.81h1.89l-4.41,16.65H340l-3.35-13.93h0l-3.44,13.93Zm16.2,0,5.72-8.89-5-7.76h2.27l3.94,6.19,3.87-6.19h2.09l-5,7.74,5.74,8.91h-2.16l-4.7-7.34-4.73,7.34Zm20.16,0v-7.29l-5.6-9.36h2.12l4.52,7.67,4.5-7.67h2.07l-5.63,9.36v7.29Zm8.77,0V288l9.75-13.59h-9.12v-1.67h11.55v1.44L379,287.79h9.68v1.64ZM1,313.62c0-2.41,2-4.12,7.94-5v-.54a2,2,0,0,0-2.25-2.21,6.36,6.36,0,0,0-4.3,1.8l-1-1.22a7.91,7.91,0,0,1,5.51-2.21c2.84,0,4,1.49,4,4v5.24a8.19,8.19,0,0,0,.34,2.93h-2a5,5,0,0,1-.27-1.64,6.43,6.43,0,0,1-4.59,1.82C2.3,316.61,1,315.53,1,313.62Zm7.94-.27V310c-4.52.72-6,1.82-6,3.31,0,1.15.77,1.75,2,1.75A5.66,5.66,0,0,0,8.94,313.35Zm7.15,1.55v1.53H14.15V299.78h1.94v6.44A5.12,5.12,0,0,1,20,304.3c2.72,0,4.84,2,4.84,6.17s-2.14,6.14-5,6.14A5.07,5.07,0,0,1,16.09,314.9Zm6.82-4.41c0-3-1.44-4.52-3.35-4.52a4.72,4.72,0,0,0-3.47,1.82v5.45a4.61,4.61,0,0,0,3.44,1.8C21.6,315,22.91,313.64,22.91,310.49Zm4,0c0-4.34,2.79-6.19,5.45-6.19a4.72,4.72,0,0,1,4.66,3.33l-1.64.67a3.1,3.1,0,0,0-3.06-2.36c-1.71,0-3.44,1.19-3.44,4.55,0,2.93,1.4,4.57,3.4,4.57,1.51,0,2.43-.65,3.2-2.39l1.6.63c-.92,2-2.3,3.38-4.86,3.38C29.5,316.68,27,314.56,27,310.49Zm11.88,0c0-4.14,2.16-6.21,5.06-6.21a5,5,0,0,1,3.69,1.75v-6.28h1.94v13.73a7.59,7.59,0,0,0,.36,2.93h-2a5.75,5.75,0,0,1-.27-1.69,5.08,5.08,0,0,1-3.92,1.87C41,316.61,38.83,314.65,38.83,310.51Zm8.76,2.68v-5.45a4.56,4.56,0,0,0-3.42-1.8c-2.07,0-3.4,1.46-3.4,4.59S42.23,315,44.15,315A4.67,4.67,0,0,0,47.59,313.19Zm4.7-2.7c0-4.32,2.88-6.19,5.38-6.19,2.81,0,5,2,5,6.28V311h-8.4c.07,2.68,1.62,4.12,3.58,4.12a4,4,0,0,0,3.58-1.94l1.13,1a5.53,5.53,0,0,1-4.84,2.52C54.86,316.68,52.29,314.63,52.29,310.49Zm8.49-1c-.16-2.12-1.17-3.56-3.13-3.56-1.6,0-3.11,1.1-3.38,3.56Zm5.31,7V306.15H64v-1.6h2.07v-1.6c0-2,1.06-3.22,3.58-3.22.34,0,.92.07,1.1.07v1.58a4.44,4.44,0,0,0-.83-.07c-1.08,0-1.91.38-1.91,1.67v1.58h2.61v1.6H68v10.29Zm5.26,1.62a2.9,2.9,0,0,1,2.16-2.63,1.57,1.57,0,0,1-1-1.51A2.46,2.46,0,0,1,74,312a3.93,3.93,0,0,1-1.82-3.42c0-2.5,2-4.28,4.84-4.28a5.23,5.23,0,0,1,3.51,1.24,6.32,6.32,0,0,1,2.81-1.1v1.71a6.15,6.15,0,0,0-2.14.38,3.51,3.51,0,0,1,.61,2c0,2.57-2,4.23-4.79,4.23a6.41,6.41,0,0,1-1.89-.29c-.5.22-.83.52-.83.92s.38.72,1.64.83l2.43.2c3,.2,4.55,1.17,4.55,3.08,0,2.25-2.36,3.44-5.81,3.44C73.08,321,71.35,319.85,71.35,318.05Zm9.77-.31c0-1.06-.79-1.53-3.29-1.71l-2.25-.16-.68-.07c-1.15.41-1.76,1.15-1.76,2,0,1.19,1.24,1.78,4.19,1.78C79.7,319.54,81.12,318.82,81.12,317.74ZM80,308.62a2.67,2.67,0,0,0-3-2.81,2.8,2.8,0,1,0,0,5.58A2.67,2.67,0,0,0,80,308.62Zm5.62,7.81V299.78h2v6.55a6.39,6.39,0,0,1,4.46-2,3.2,3.2,0,0,1,3.51,3.56v8.58H93.6v-8.15c0-1.58-.67-2.32-2.18-2.32a5.65,5.65,0,0,0-3.85,1.91v8.55ZM98.93,302v-1.89h2V302Zm0,14.43V304.55h1.94v11.88Zm3.64,4.43V319.4a3.77,3.77,0,0,0,.77.09c.77,0,1.22-.4,1.22-1.37V304.55h1.94v13.71c0,1.62-.63,2.7-2.75,2.7C103.46,321,102.78,320.89,102.62,320.86ZM104.56,302v-1.89h2V302Zm5.54,14.43V299.78H112v10.71l5.31-5.94h2.21l-3.89,4.25,4.32,7.63H117.9l-3.51-6.19L112,312.78v3.65Zm12.29,0V299.78h1.94v16.66Zm5.49,0V304.55h1.94v1.8a6,6,0,0,1,4.28-2c2,0,2.86.86,3.26,2.09a6.36,6.36,0,0,1,4.39-2.09c2.43,0,3.44,1.42,3.44,3.56v8.58h-1.94v-8.15c0-1.58-.52-2.32-2.07-2.32-1.33,0-2.43.74-3.67,1.91v8.55h-1.94v-8.15c0-1.58-.52-2.32-2.07-2.32-1.31,0-2.43.74-3.69,1.91v8.55Zm20.63,0V304.55h2v1.78a6.39,6.39,0,0,1,4.46-2,3.2,3.2,0,0,1,3.51,3.56v8.58h-1.94v-8.15c0-1.58-.67-2.32-2.18-2.32a5.65,5.65,0,0,0-3.85,1.91v8.55Zm12.55-5.94c0-4.1,2.61-6.19,5.54-6.19s5.51,2.09,5.51,6.19-2.61,6.19-5.51,6.19S161.05,314.56,161.05,310.49Zm9.09,0c0-2.48-1.19-4.52-3.56-4.52s-3.58,1.85-3.58,4.52c0,2.52,1.17,4.55,3.58,4.55C168.84,315,170.15,313.21,170.15,310.49Zm4.7,10.44V304.55h1.94v1.64a5.17,5.17,0,0,1,3.92-1.89c2.72,0,4.84,2,4.84,6.17s-2.14,6.14-5,6.14a5.07,5.07,0,0,1-3.71-1.71v6Zm8.76-10.44c0-3-1.44-4.52-3.35-4.52a4.72,4.72,0,0,0-3.47,1.82v5.45a4.61,4.61,0,0,0,3.44,1.8C182.3,315,183.6,313.64,183.6,310.49Zm12.82,10.44v-6.19a5.08,5.08,0,0,1-3.92,1.87c-2.72,0-4.84-2-4.84-6.1s2.16-6.21,5.06-6.21a5,5,0,0,1,3.69,1.73v-1.49h1.94v16.38Zm0-7.74v-5.45a4.56,4.56,0,0,0-3.42-1.8c-2.07,0-3.4,1.46-3.4,4.59S191.07,315,193,315A4.67,4.67,0,0,0,196.43,313.19Zm5.38,3.24V304.55h1.94v2.21h0a5.1,5.1,0,0,1,4.59-2.45h.25l-.14,1.8a4.71,4.71,0,0,0-.56,0,4.55,4.55,0,0,0-4.19,2.68v7.67Zm7.81-1.8,1.17-1.17a4.88,4.88,0,0,0,3.71,1.64c1.85,0,2.86-.65,2.86-1.87s-1-1.64-3.06-2.12c-2.52-.61-4.25-1.28-4.25-3.58,0-1.8,1.58-3.24,4.16-3.24a6.18,6.18,0,0,1,4.55,1.71l-1,1.28a5.13,5.13,0,0,0-3.44-1.42c-1.73,0-2.41.77-2.41,1.6,0,1.1.95,1.51,2.81,1.94,2.68.65,4.52,1.31,4.52,3.76,0,2.27-2,3.49-4.75,3.49A6.28,6.28,0,0,1,209.61,314.63Zm13-1.08v-7.4h-2.07v-1.6h2.07v-4.23h1.94v4.23h3.08v1.6h-3.08v7c0,1.26.4,1.89,1.85,1.89a4.84,4.84,0,0,0,1.22-.16v1.6a10.66,10.66,0,0,1-1.69.13C223.42,316.59,222.61,315.62,222.61,313.55Zm7.51-.43v-8.58h1.94v8.17c0,1.58.68,2.32,2.18,2.32a5.6,5.6,0,0,0,3.85-1.91v-8.58h2v11.88h-2v-1.78a6.38,6.38,0,0,1-4.46,2A3.18,3.18,0,0,1,230.13,313.12Zm16.45,3.35-4.37-11.93h2.07l3.33,9.63h0l3.29-9.63h1.94l-4.34,11.93Zm10.89,0-3.62-11.88h2l1.55,5.58c.41,1.46.68,2.43,1,4h0c.41-1.67.63-2.52,1-4l1.51-5.56h1.69l1.55,5.67c.41,1.42.63,2.32,1,3.87h0c.4-1.58.63-2.43,1-3.83l1.62-5.72h1.82l-3.62,11.88h-1.8l-2.52-9.29h0l-2.54,9.29Zm13.41,0,4.23-6.14-3.94-5.74h2.12l2.9,4.34,2.88-4.34h2l-4,5.72,4.21,6.17h-2.09l-3.2-4.73-3.17,4.73Zm11.2,4.28.45-1.55a6.86,6.86,0,0,0,1.76.2,2.19,2.19,0,0,0,2.27-1.69l.45-1.17-4.59-12h2l3.49,9.61h0l3.49-9.61h2l-5.09,13.23c-.81,2.09-1.73,3.22-4.05,3.22A7.26,7.26,0,0,1,282.08,320.71Zm12.71-4.28v-1.17l7-9.14h-6.41v-1.58h8.85v1.22l-7,9.12h7.31v1.55Zm-293.58,27v-1.76H4.34V328.85a7.51,7.51,0,0,1-3.08.76v-1.75a4.86,4.86,0,0,0,3.17-1.08H6.28v14.9H9.07v1.76Zm9.61,0v-.36c0-2.41,1.08-4.66,5.47-7.47,2.5-1.6,3.51-2.61,3.51-4.39a2.83,2.83,0,0,0-3.13-3A4.58,4.58,0,0,0,12.6,331L11.07,330a6.27,6.27,0,0,1,5.69-3.56c3.08,0,5,1.89,5,4.61,0,2.18-1,3.67-4.19,5.69-2.9,1.85-4.32,3.49-4.5,4.91h8.78v1.76Zm12.85-2.72,1.44-1.08A5.09,5.09,0,0,0,29.54,342c2.32,0,3.78-1.17,3.78-3.15,0-2.32-1.46-3.42-5.13-3.42h-.68V333.8h.79c3.44,0,4.61-1.06,4.61-2.9,0-1.58-.95-2.66-3.31-2.66a5.07,5.07,0,0,0-3.92,1.89l-1.28-1.19a7,7,0,0,1,5.36-2.45c3.53,0,5.11,1.89,5.11,4.16a3.83,3.83,0,0,1-3.24,3.94c2.48.5,3.65,2,3.65,4.32,0,2.81-2.23,4.84-5.74,4.84A6.78,6.78,0,0,1,23.67,340.71Zm21.56,2.72v-3.85h-8v-1.51l7.58-11.3h2.36v11.07H50v1.73H47.14v3.85Zm-5.85-5.58h5.85v-8.75h0Zm11.83,3.06,1.33-1.22A5.3,5.3,0,0,0,56.81,342a3.75,3.75,0,0,0,4-4.05c0-2.54-1.49-3.87-3.62-3.87A4.22,4.22,0,0,0,53.48,336l-1.42-.5.65-8.76h9l-.16,1.78H54.32l-.41,5.31a4.53,4.53,0,0,1,3.62-1.44c3.11,0,5.2,2.14,5.2,5.45a5.55,5.55,0,0,1-5.87,5.88A6.77,6.77,0,0,1,51.21,340.91Zm13.61-5.51c0-5.36,2.88-8.93,6.75-8.93a6.36,6.36,0,0,1,4.07,1.3l-1,1.46a4.77,4.77,0,0,0-3.15-1c-2.88,0-4.7,2.9-4.75,6.87a6.36,6.36,0,0,1,4.64-2.12c3.4,0,5.24,2.09,5.24,5.22a5.47,5.47,0,0,1-5.74,5.58C67.46,343.75,64.82,341.07,64.82,335.4Zm9.9,2.81c0-2.07-1-3.58-3.62-3.58a5.53,5.53,0,0,0-4.3,2.21c.31,3.65,2,5.22,4.21,5.22A3.5,3.5,0,0,0,74.73,338.21Zm4.74,5.22,6.89-14.88H77.92v-1.78H88.43v1.67l-6.93,15Zm10.26-4.07c0-2.3,1.67-3.62,4.28-4.73-2.18-1-3.51-2.07-3.51-4.12s1.94-4.1,5.33-4.1,5.29,2,5.29,4.1-1.28,3-3.53,4.05c2.7,1.17,4.3,2.34,4.3,4.79s-2.23,4.43-6.05,4.43S89.73,341.86,89.73,339.36Zm10.2-.11c0-1.75-1.49-2.72-4.23-3.87-2.7,1.22-4,2.21-4,3.87s1.69,2.9,4.12,2.9S99.92,341,99.92,339.24Zm-.72-8.62c0-1.26-1-2.54-3.38-2.54s-3.4,1.22-3.4,2.48c0,1.53,1.1,2.25,3.49,3.29C98.24,332.81,99.2,332.09,99.2,330.62Zm5,11.68,1-1.46a5,5,0,0,0,3.35,1.19c2.88,0,4.68-2.93,4.73-6.89a6.36,6.36,0,0,1-4.64,2.12c-3.38,0-5.22-2.09-5.22-5.22a5.47,5.47,0,0,1,5.74-5.58c3.44,0,6.05,2.68,6.05,8.35,0,5.36-2.86,8.94-6.73,8.94A6.45,6.45,0,0,1,104.24,342.31Zm9-8.94c-.29-3.65-2-5.2-4.19-5.2a3.48,3.48,0,0,0-3.71,3.83c0,2.07,1,3.58,3.62,3.58A5.52,5.52,0,0,0,113.24,333.37Zm4.34,1.73c0-5.2,2.3-8.64,6.28-8.64s6.23,3.44,6.23,8.64-2.23,8.64-6.23,8.64S117.58,340.3,117.58,335.1Zm10.56,0c0-4.52-1.67-6.89-4.28-6.89s-4.3,2.36-4.3,6.89,1.67,6.91,4.3,6.91S128.14,339.63,128.14,335.1Z"/><path id="BentonSansMed" class="cls-1" d="M1.09,388.43v-8.87H4.27c1.93,0,3,.74,3,2.22a2,2,0,0,1-1.64,2.05v0A2.1,2.1,0,0,1,7.59,386c0,1.49-1.1,2.42-3.07,2.42Zm1-5h2c1.33,0,2.1-.47,2.1-1.49s-.64-1.45-2.07-1.45H2.13Zm0,4.08H4.45c1.45,0,2.1-.55,2.1-1.57s-.89-1.6-2.31-1.6H2.13Zm6.66-2.24a3,3,0,0,1,2.87-3.3c1.5,0,2.64,1.06,2.64,3.35v.22H9.83c0,1.43.86,2.19,1.91,2.19a2.14,2.14,0,0,0,1.91-1l.6.53a3,3,0,0,1-2.58,1.34C10.16,388.56,8.8,387.47,8.8,385.26Zm4.52-.54c-.08-1.13-.62-1.89-1.67-1.89a1.85,1.85,0,0,0-1.8,1.89Zm2.46,3.71v-6.33h1V383A3.4,3.4,0,0,1,19.2,382a1.71,1.71,0,0,1,1.87,1.9v4.57H20v-4.34c0-.84-.36-1.24-1.16-1.24a3,3,0,0,0-2.05,1v4.56Zm7.51-1.54v-3.95h-1.1v-.85h1.1v-2.25h1v2.25H26v.85H24.32v3.72c0,.67.22,1,1,1a2.58,2.58,0,0,0,.65-.08v.85a5.64,5.64,0,0,1-.9.07C23.72,388.51,23.29,388,23.29,386.89Zm3.61-1.63a3,3,0,1,1,3,3.3A3,3,0,0,1,26.9,385.26Zm4.85,0c0-1.32-.64-2.41-1.9-2.41s-1.91,1-1.91,2.41.62,2.42,1.91,2.42S31.75,386.71,31.75,385.26Zm2.51,3.17v-6.33h1V383A3.4,3.4,0,0,1,37.68,382a1.71,1.71,0,0,1,1.87,1.9v4.57h-1v-4.34c0-.84-.36-1.24-1.16-1.24a3,3,0,0,0-2.05,1v4.56Zm9.6-2.15.89-.4a2.51,2.51,0,0,0,2.52,1.78c1.25,0,2.07-.53,2.07-1.46s-.48-1.31-2.23-1.86-3-1.07-3-2.6c0-1.36,1.16-2.35,2.85-2.35a3.13,3.13,0,0,1,3.13,2l-.84.47a2.31,2.31,0,0,0-2.3-1.5c-1.13,0-1.8.55-1.8,1.31,0,.95.6,1.26,2.34,1.81s2.84,1.15,2.84,2.66-1.28,2.47-3.17,2.47A3.34,3.34,0,0,1,43.86,386.28Zm7.64.65c0-1.28,1.09-2.2,4.23-2.64V384a1.05,1.05,0,0,0-1.2-1.17,3.39,3.39,0,0,0-2.29,1l-.54-.65A4.21,4.21,0,0,1,54.65,382a1.86,1.86,0,0,1,2.11,2.11v2.79a4.36,4.36,0,0,0,.18,1.56H55.88a2.67,2.67,0,0,1-.14-.88,3.42,3.42,0,0,1-2.45,1C52.2,388.52,51.5,387.95,51.5,386.93Zm4.23-.14V385c-2.41.38-3.21,1-3.21,1.76,0,.61.41.94,1.07.94A3,3,0,0,0,55.74,386.78Zm2.79,1.64v-6.33h1V383A3.4,3.4,0,0,1,61.94,382a1.71,1.71,0,0,1,1.87,1.9v4.57h-1v-4.34c0-.84-.36-1.24-1.16-1.24a3,3,0,0,0-2.05,1v4.56Zm6.6-1,.62-.62a2.6,2.6,0,0,0,2,.88c1,0,1.52-.35,1.52-1s-.55-.87-1.63-1.13c-1.34-.32-2.27-.68-2.27-1.91,0-1,.84-1.73,2.22-1.73a3.29,3.29,0,0,1,2.42.91l-.54.68a2.73,2.73,0,0,0-1.83-.76c-.92,0-1.28.41-1.28.85s.5.8,1.5,1c1.43.35,2.41.7,2.41,2s-1.09,1.86-2.53,1.86A3.35,3.35,0,0,1,65.12,387.47Zm9.59,1v-8.87h1.38l2.79,7.54h0l2.75-7.54h1.4v8.88H82v-7.18h0c-.12.47-.34,1-.54,1.63l-2.12,5.55h-.95l-2.12-5.55a17.06,17.06,0,0,1-.55-1.67h0v7.22Zm10-3.17a3,3,0,0,1,2.87-3.3c1.5,0,2.64,1.06,2.64,3.35v.22H85.74c0,1.43.86,2.19,1.91,2.19a2.14,2.14,0,0,0,1.91-1l.6.53a3,3,0,0,1-2.58,1.34C86.07,388.56,84.71,387.47,84.71,385.26Zm4.52-.54c-.08-1.13-.62-1.89-1.67-1.89a1.85,1.85,0,0,0-1.8,1.89Zm2.11.55c0-2.21,1.15-3.31,2.7-3.31a2.66,2.66,0,0,1,2,.94v-3.35h1v7.32a4,4,0,0,0,.19,1.56H96.15a3.08,3.08,0,0,1-.14-.9,2.71,2.71,0,0,1-2.09,1C92.47,388.52,91.34,387.48,91.34,385.27ZM96,386.7v-2.9a2.43,2.43,0,0,0-1.82-1c-1.1,0-1.81.78-1.81,2.45s.78,2.39,1.8,2.39A2.49,2.49,0,0,0,96,386.7Zm2.92-6v-1H100v1Zm0,7.69v-6.33h1v6.33Zm2.87-1.76v-4.57h1v4.35c0,.84.36,1.24,1.16,1.24a3,3,0,0,0,2.05-1v-4.57h1v6.33h-1v-.95a3.4,3.4,0,0,1-2.37,1.07A1.7,1.7,0,0,1,101.82,386.66Zm7.12,1.76v-6.33h1v1a3.21,3.21,0,0,1,2.28-1.09,1.57,1.57,0,0,1,1.74,1.12,3.39,3.39,0,0,1,2.34-1.12,1.67,1.67,0,0,1,1.83,1.9v4.57h-1v-4.34c0-.84-.28-1.24-1.1-1.24a2.91,2.91,0,0,0-2,1v4.56h-1v-4.34c0-.84-.28-1.24-1.1-1.24a3,3,0,0,0-2,1v4.56ZM.56,415.43l5.9-16.72H9.23l5.9,16.72H12.24l-1.35-4H4.57l-1.37,4ZM5.42,409h4.64l-2.27-6.75h0Zm12.15,6.44V398.77h6.3c3.33,0,5.81,1.08,5.81,4.14a3.52,3.52,0,0,1-2.95,3.83v0a3.75,3.75,0,0,1,3.44,4.07c0,3.06-2.5,4.57-5.9,4.57Zm2.77-9.7H23.6c2.21,0,3.38-.68,3.38-2.27s-1-2.21-3.33-2.21H20.34Zm0,7.27H24c2.39,0,3.42-.77,3.42-2.43s-1.35-2.45-3.71-2.45H20.34Zm12.1-5.94c0-5.58,3.13-8.6,7.31-8.6,3.87,0,5.72,2.14,6.46,5.18l-2.68.77c-.63-2.21-1.6-3.33-3.8-3.33-2.81,0-4.46,2.18-4.46,6,0,4,1.69,6.14,4.5,6.14,2.16,0,3.38-1.08,4-3.58l2.68.61c-.81,3.31-2.86,5.54-6.71,5.54C35.48,415.74,32.45,412.79,32.45,407.05Zm16.94,8.37V398.77h4.75c5.22,0,8.64,2.43,8.64,8.26s-3.49,8.39-8.64,8.39Zm2.81-2.52h2.18c3.8,0,5.58-1.67,5.58-5.87,0-4-1.8-5.65-5.63-5.65H52.2Zm13.57,2.52V398.77H76.53v2.61H68.58v4.14h5.83V408H68.58v4.84H77v2.57Zm14,0V398.77H90.23v2.61H82.55v4.46h5.56v2.5H82.55v7.09ZM91.37,407c0-5.33,2.9-8.58,7.34-8.58,3.15,0,5.47,1.46,6.46,5.24l-2.61.7c-.74-2.5-1.89-3.33-3.87-3.33s-4.48,1.22-4.48,5.9,2.23,6.26,4.59,6.26a3.67,3.67,0,0,0,3.89-3.76H99.34v-2.27h6.05v8.24h-2.32V413h0a4.8,4.8,0,0,1-4.55,2.72C93.71,415.74,91.37,412.12,91.37,407Zm17.57,8.39V398.77h2.81v6.64h7.56v-6.64h2.81v16.66h-2.81V408h-7.56v7.4Zm17.15,0V398.77h2.84v16.66Zm5.31-1.6,1.76-1.73a3.7,3.7,0,0,0,2.59,1.19c1.55,0,2.5-.63,2.5-2.86V398.77h2.81v12c0,3.11-1.87,4.93-5.13,4.93A5.84,5.84,0,0,1,131.4,413.83Zm13.19,1.6V398.77h2.81v7.74l6.55-7.74h3.33l-5.67,6.42L158,415.43h-3.22l-5-8.08L147.4,410v5.47Zm15.71,0V398.77h2.81v14.09h7.67v2.57Zm13,0V398.77H177L181.46,412h0l4.32-13.21h3.78v16.66h-2.72V403h0a33.74,33.74,0,0,1-1,3.4l-3.24,9h-2.5l-3.22-9a28.39,28.39,0,0,1-1-3.51h0v12.54Zm20.09,0V398.77h2.86l7.88,11.88h0V398.77h2.61v16.66h-2.57L196,403.3h0v12.13Zm16.36-8.33c0-5.6,3.31-8.64,7.54-8.64s7.49,3,7.49,8.64-3.29,8.64-7.49,8.64S209.74,412.7,209.74,407.1Zm12.2,0c0-3.92-1.87-6.05-4.66-6.05s-4.7,2.14-4.7,6.05,1.87,6.1,4.7,6.1S221.94,411,221.94,407.1Zm5.8,8.33V398.77h5.83c3.6,0,6.41,1.26,6.41,5.11,0,4-3.08,5.22-6.5,5.22h-2.95v6.32Zm2.79-8.78h3.08c2.48,0,3.6-.77,3.6-2.68s-1.12-2.63-3.62-2.63h-3.06ZM253,419.77c-3.51,0-5.2-1.78-5.27-4.23-3.38-.61-5.94-3.62-5.94-8.44,0-5.6,3.51-8.64,7.54-8.64s7.49,3,7.49,8.64c0,5-2.72,8-6.23,8.51.34,1.62,1.49,1.78,3.56,1.78h1.15v2.39Zm1-12.67c0-3.92-1.87-6.05-4.66-6.05s-4.7,2.14-4.7,6.05,1.87,6.14,4.7,6.14S254,411,254,407.1Zm5.82,8.33V398.77h6c4,0,6.26,1.6,6.26,5a4.43,4.43,0,0,1-3.69,4.73l3.92,6.93h-3l-3.74-6.57h-2.93v6.57Zm2.77-9h3.08c2.34,0,3.6-.58,3.6-2.57s-1.24-2.5-3.62-2.5h-3.06Zm11.68,5.11,2.23-1.17a4.82,4.82,0,0,0,4.59,2.9c2,0,3.4-.65,3.4-2.16s-1-2.12-3.78-2.93c-3.22-.95-5.81-1.82-5.81-5,0-2.83,2.32-4.7,5.69-4.7a6.56,6.56,0,0,1,6.23,3.58l-2,1.42A4.61,4.61,0,0,0,280.6,401c-1.85,0-2.9.67-2.9,1.89,0,1.55,1.19,2.07,3.92,2.88,3.15.92,5.67,2,5.67,5.09,0,2.72-2.32,4.86-6.28,4.86A6.9,6.9,0,0,1,274.29,411.51Zm19.1,3.92v-14h-5.13v-2.61h13.08v2.61h-5.13v14Zm10.21-6.08V398.77h2.81V409.1c0,2.54,1.1,4.05,3.67,4.05s3.65-1.46,3.65-4V398.77h2.77v10.56c0,3.78-2.14,6.37-6.44,6.37C305.48,415.7,303.61,413.13,303.61,409.35Zm20.79,6.14-5.78-16.72h2.86l4.3,13h0l4.37-13h2.66l-5.78,16.72Zm14.08-.07-4.43-16.66h2.84l2.12,8.62c.34,1.33.65,2.57.88,3.87h0c.23-1.28.52-2.52.86-3.85l2-8.64h2.7l2.07,8.69c.36,1.42.63,2.41.88,3.8h0c.25-1.44.5-2.32.81-3.74l2.07-8.76H354l-4.39,16.66h-2.45l-3-12.76h0L341,415.43Zm16.65,0,5.54-8.84-5-7.81h3.22l3.47,5.58,3.35-5.58h2.93l-4.86,7.81,5.56,8.84h-3.11l-4.12-6.59-4.07,6.59Zm20.63,0v-7.18l-5.67-9.48h3l4.16,7.09,4.14-7.09h2.93l-5.69,9.48v7.18Zm9.43,0v-2l9.21-12.33h-8.6v-2.36h12.13v2l-9.09,12.33h9.09v2.3ZM.79,439.55c0-2.59,2.21-4.32,7.79-5v-.36c0-1.19-.63-1.71-2-1.71a6.48,6.48,0,0,0-4,1.62l-1.35-1.73A8.56,8.56,0,0,1,7,430.25c3.2,0,4.3,1.53,4.3,4.32v4.93a8.19,8.19,0,0,0,.34,2.93H8.85a4.33,4.33,0,0,1-.27-1.53,5.75,5.75,0,0,1-4.41,1.71C2.23,442.61.79,441.53.79,439.55Zm7.79-.45v-2.63c-3.31.45-5.06,1.26-5.06,2.57,0,.95.65,1.44,1.67,1.44A4.77,4.77,0,0,0,8.58,439.1Zm8.46,2v1.33H14.27V425.77H17v6.28a4.83,4.83,0,0,1,3.8-1.8c2.72,0,4.73,2,4.73,6.19s-2,6.17-5.11,6.17A4.56,4.56,0,0,1,17,441.1Zm5.76-4.64c0-2.52-1.08-3.85-2.86-3.85a4,4,0,0,0-2.9,1.51v4.79a3.65,3.65,0,0,0,2.81,1.49C21.94,440.4,22.8,439.12,22.8,436.46Zm4.54,0c0-4.57,3.08-6.21,5.74-6.21a4.85,4.85,0,0,1,5,3.49l-2.34.83a2.61,2.61,0,0,0-2.66-2c-1.58,0-2.9,1-2.9,3.89,0,2.54,1,3.94,2.86,3.94,1.26,0,2.14-.38,2.79-2.07l2.3.83a5.25,5.25,0,0,1-5.15,3.51C30.15,442.67,27.34,440.83,27.34,436.46Zm12.1,0c0-4.14,2-6.23,5.11-6.23A4.56,4.56,0,0,1,48,431.76v-6h2.77V439.5a7.59,7.59,0,0,0,.36,2.93H48.24a4.49,4.49,0,0,1-.27-1.62,4.76,4.76,0,0,1-3.8,1.8C41.45,442.61,39.44,440.63,39.44,436.48ZM48,438.82V434a3.64,3.64,0,0,0-2.81-1.49c-2.09,0-2.95,1.35-2.95,4s1.08,3.78,2.86,3.78A4,4,0,0,0,48,438.82Zm5.2-2.36c0-4.55,3.22-6.21,5.69-6.21,2.68,0,5.24,1.6,5.24,6.46v.65H55.94a3,3,0,0,0,3.2,3.11,4.33,4.33,0,0,0,3.35-1.4l1.46,1.44a6.45,6.45,0,0,1-5,2.16C55.94,442.67,53.17,440.85,53.17,436.46Zm8.4-1.17c-.16-1.82-1.06-2.79-2.72-2.79-1.35,0-2.59.77-2.86,2.79Zm5.78,7.13v-9.75H65.27v-2.21h2.07v-1.21c0-2,.83-3.56,3.87-3.56.52,0,1.44.09,1.64.11V428a5.19,5.19,0,0,0-.95-.09c-1,0-1.8.27-1.8,1.55v1.06h2.61v2.21H70.11v9.75Zm5.89,1.71a2.68,2.68,0,0,1,2-2.52,1.57,1.57,0,0,1-.92-1.46A2.79,2.79,0,0,1,75.89,438,3.93,3.93,0,0,1,74,434.53c0-2.45,1.89-4.28,5-4.28a5.4,5.4,0,0,1,3.67,1.26,6.13,6.13,0,0,1,3-1.17v2.25a7.17,7.17,0,0,0-2.09.31,3,3,0,0,1,.43,1.62c0,2.5-1.87,4.25-5,4.25a5.63,5.63,0,0,1-1.67-.25c-.36.2-.61.45-.61.76,0,.47.31.63,1.37.72l2.12.13c3.53.23,4.93,1.17,4.93,3.26,0,2.45-2.48,3.65-6.17,3.65C74.88,447.06,73.24,445.87,73.24,444.14Zm9.48-.47c0-.86-.61-1.17-3-1.33l-2.07-.13a3.91,3.91,0,0,1-.72-.07,1.65,1.65,0,0,0-1.1,1.53c0,1.06,1.22,1.39,3.65,1.39C81.45,445.06,82.71,444.52,82.71,443.66Zm-1.24-9a2.13,2.13,0,0,0-2.43-2.3,2.28,2.28,0,1,0,0,4.55A2.12,2.12,0,0,0,81.47,434.62Zm6.23,7.81V425.77H90.5v6.32a5.93,5.93,0,0,1,4.37-1.84c2.09,0,3.44,1.24,3.44,3.6v8.58H95.51v-7.88c0-1.33-.56-1.94-1.78-1.94a4.84,4.84,0,0,0-3.24,1.55v8.26Zm13.66-14V426h2.84v2.41Zm0,14v-12h2.79v12Zm3.89,4.41V444.9a4.85,4.85,0,0,0,.9.09c.88,0,1.33-.43,1.33-1.51v-13h2.79v13.44c0,1.64-.56,3.06-3.33,3.06A13.06,13.06,0,0,1,105.28,446.84Zm2.21-18.43V426h2.84v2.41Zm6,14V425.77h2.77v9.93l4.52-5.22h3l-3.89,4.37,4.23,7.58h-2.9l-3.08-5.54L116.28,439v3.44Zm12.78,0V425.77h2.79v16.66Zm6,0v-12h2.77v1.64a5.44,5.44,0,0,1,4.1-1.87c2,0,2.79.79,3.26,2a5.67,5.67,0,0,1,4.19-2c2.43,0,3.49,1.46,3.49,3.6v8.58h-2.77v-7.88c0-1.33-.38-1.94-1.69-1.94a4.69,4.69,0,0,0-3.06,1.55v8.26h-2.77v-7.88c0-1.33-.38-1.94-1.69-1.94a4.73,4.73,0,0,0-3.06,1.55v8.26Zm20.81,0v-12h2.77v1.91a5.64,5.64,0,0,1,4.28-2.14c2.18,0,3.53,1.13,3.53,3.49v8.69h-2.77v-7.9c0-1.31-.54-2-1.8-2a4.75,4.75,0,0,0-3.24,1.55v8.33Zm12.87-6c0-4.41,2.9-6.21,5.83-6.21s5.83,1.8,5.83,6.21-2.93,6.21-5.83,6.21S166,440.83,166,436.46Zm8.87,0c0-2.23-.95-3.85-3-3.85s-3,1.44-3,3.85.92,3.89,3,3.89S174.85,438.92,174.85,436.46Zm5.22,10.46V430.48h2.77v1.58a4.83,4.83,0,0,1,3.8-1.8c2.72,0,4.73,2,4.73,6.19s-2,6.17-5.11,6.17a4.56,4.56,0,0,1-3.42-1.51v5.83Zm8.53-10.46c0-2.52-1.08-3.85-2.86-3.85a4,4,0,0,0-2.9,1.51v4.79a3.65,3.65,0,0,0,2.81,1.49C187.74,440.4,188.6,439.12,188.6,436.46Zm13.09,10.46v-6.12a4.76,4.76,0,0,1-3.8,1.8c-2.72,0-4.73-2-4.73-6.12s2-6.23,5.11-6.23a4.56,4.56,0,0,1,3.42,1.51v-1.28h2.77v16.45Zm0-8.1V434a3.64,3.64,0,0,0-2.81-1.49c-2.09,0-2.95,1.35-2.95,4s1.08,3.78,2.86,3.78A4,4,0,0,0,201.69,438.82Zm5.87,3.6v-12h2.77v2h0a4.68,4.68,0,0,1,4.3-2.18h.18l-.09,2.54c-.13,0-.58,0-.74,0a4.05,4.05,0,0,0-3.69,2.12v7.56Zm8-1.64,1.51-1.69a5.89,5.89,0,0,0,3.76,1.42c1.49,0,2.39-.38,2.39-1.37s-1.22-1.26-2.66-1.6c-2-.47-4.5-1-4.5-3.78,0-2.09,1.8-3.51,4.43-3.51a7,7,0,0,1,4.91,1.69l-1.33,1.8a6,6,0,0,0-3.38-1.31c-1.53,0-2,.54-2,1.22,0,1,1.19,1.26,2.61,1.58,2,.45,4.55,1,4.55,3.76,0,2.52-2.27,3.69-5,3.69A7.57,7.57,0,0,1,215.59,440.78ZM229,439.3v-6.62h-2.07v-2.21H229v-4.16h2.77v4.16h3.08v2.21h-3.08v5.92c0,1.28.38,1.8,1.76,1.8a4.47,4.47,0,0,0,1.19-.16v2.18a13.68,13.68,0,0,1-2,.16C229.63,442.58,229,441.46,229,439.3Zm8-.25v-8.58h2.79v7.92c0,1.33.56,1.94,1.78,1.94a4.84,4.84,0,0,0,3.24-1.55v-8.3h2.79v12h-2.79v-1.62a5.93,5.93,0,0,1-4.37,1.84C238.32,442.65,237,441.41,237,439.05Zm16.67,3.4-4.32-12h2.9l2.93,8.82h0l2.9-8.82h2.68l-4.32,12Zm11.16,0-3.56-12h2.81l1.31,5c.36,1.35.59,2.27.9,3.8h0c.36-1.62.56-2.48.95-3.85l1.26-4.91h2.25l1.33,5c.38,1.33.59,2.23.92,3.76h0c.36-1.55.56-2.41.95-3.71l1.35-5h2.52l-3.56,12h-2.59l-2.16-8.3h0l-2.16,8.3Zm13.77,0,4.16-6.17-3.87-5.78h2.95l2.5,3.83,2.41-3.83h2.86l-3.92,5.78,4.14,6.17h-2.95l-2.75-4.19-2.7,4.19Zm11.54,4.28.63-2.23a8,8,0,0,0,2,.25,1.79,1.79,0,0,0,1.89-1.35l.34-.88-4.59-12h2.88l3.08,8.71h0l3.06-8.71h2.75l-5.09,13.26c-.79,2.09-1.82,3.33-4.19,3.33A10,10,0,0,1,290.11,446.7Zm13.1-4.28v-1.6l6.37-8.15h-5.9v-2.21H313v1.67l-6.39,8.15h6.77v2.14ZM1,469.43V467H4V455.63a7.21,7.21,0,0,1-3,.77v-2.54a4.67,4.67,0,0,0,3.11-1.08H6.77V467H9.5v2.48Zm9.9,0v-.36c0-2.41.83-4.73,5.22-7.54,2.54-1.64,3.56-2.43,3.56-4.14A2.32,2.32,0,0,0,17,455a4.88,4.88,0,0,0-3.92,2.45L11,456a7,7,0,0,1,6.14-3.53c3.26,0,5.22,1.89,5.22,4.73,0,2-.74,3.56-3.94,5.58-2.66,1.69-4,3-4.3,4.19h8.33v2.48Zm13.07-2.61,2-1.58a4.93,4.93,0,0,0,4.19,2c2,0,3.38-.79,3.38-2.57,0-2.09-1.51-2.88-4.64-2.88h-.77v-2.3h.83c3.26,0,4.12-1,4.12-2.43S32.22,455,30.15,455a5.47,5.47,0,0,0-3.85,1.6l-1.64-1.75a8,8,0,0,1,5.76-2.36c3.58,0,5.36,1.73,5.36,4.21a3.81,3.81,0,0,1-3.06,3.89,3.94,3.94,0,0,1,3.53,4.23c0,3-2.41,4.93-6.12,4.93A7.36,7.36,0,0,1,23.94,466.82Zm22,2.61V466H37.8V463.8l7.58-11h3.24v10.8h2.81V466H48.63v3.42Zm-5.06-5.85H45.9v-7.45h0Zm11.5,3.65,1.73-1.84a5.86,5.86,0,0,0,4.12,1.89c2.45,0,3.58-1.42,3.58-3.35a2.94,2.94,0,0,0-3.26-3.26,3.93,3.93,0,0,0-3.38,1.6l-1.87-.61.65-8.87H63.5l-.2,2.48h-7.2l-.34,4.3a4.57,4.57,0,0,1,3.49-1.24c3.33,0,5.31,2.23,5.31,5.51,0,3.47-2.36,5.92-6.23,5.92A7.88,7.88,0,0,1,52.33,467.22Zm14-5.83c0-5.87,3.29-8.93,7.2-8.93a7.17,7.17,0,0,1,4.3,1.35l-1.35,2.07a5.16,5.16,0,0,0-3.06-1c-2.52,0-4.19,2.21-4.32,5.72a6.46,6.46,0,0,1,4.39-1.8c3.17,0,5.31,1.82,5.31,5.24a5.73,5.73,0,0,1-6,5.67C68.92,469.74,66.31,467,66.31,461.39Zm9.79,2.77c0-1.73-.81-3-3.15-3a5.38,5.38,0,0,0-3.85,1.64c.23,3.22,1.69,4.55,3.78,4.55A3,3,0,0,0,76.1,464.16Zm5.08,5.27,6.64-14.18H79.63v-2.48h11.1v2.3l-6.66,14.36Zm10.48-4.19c0-2.21,1.67-3.58,4-4.57-2-1-3.22-2-3.22-4.07s2-4.21,5.63-4.21,5.6,2.12,5.6,4.21c0,1.82-1.17,3.08-3.22,4,2.43,1.06,4,2.16,4,4.64,0,2.66-2.36,4.57-6.37,4.57S91.66,467.92,91.66,465.24Zm9.95-.16c0-1.51-1.24-2.36-3.76-3.38-2.21,1-3.38,1.94-3.38,3.38s1.4,2.45,3.58,2.45S101.61,466.61,101.61,465.08Zm-.68-8.28c0-1.06-.83-2.12-2.88-2.12s-2.9,1-2.9,2.07c0,1.37,1.06,2,3.08,2.88C100.13,458.76,100.94,458.06,100.94,456.8Zm5.69,11.59,1.35-2.07a5.17,5.17,0,0,0,3.06,1c2.52,0,4.19-2.25,4.32-5.76a6.46,6.46,0,0,1-4.39,1.8c-3.17,0-5.31-1.82-5.31-5.24a5.73,5.73,0,0,1,6-5.67c3.83,0,6.44,2.79,6.44,8.35,0,5.87-3.29,8.94-7.2,8.94A7.17,7.17,0,0,1,106.63,468.39Zm8.71-9c-.23-3.22-1.69-4.5-3.78-4.5a2.92,2.92,0,0,0-3.22,3.15c0,1.73.81,3,3.15,3A5.38,5.38,0,0,0,115.34,459.39Zm4.86,1.71c0-5.2,2.43-8.64,6.62-8.64s6.57,3.44,6.57,8.64-2.39,8.64-6.57,8.64S120.19,466.3,120.19,461.1Zm10.38,0c0-4.16-1.42-6.12-3.76-6.12s-3.8,2-3.8,6.12,1.44,6.17,3.8,6.17S130.57,465.26,130.57,461.1Z"/><path id="BentonSansBold" class="cls-1" d="M1.09,514.44v-8.88H4.27c1.93,0,3,.74,3,2.22a2,2,0,0,1-1.64,2.05v0A2.1,2.1,0,0,1,7.59,512c0,1.49-1.1,2.42-3.07,2.42Zm1-5h2c1.33,0,2.1-.47,2.1-1.49s-.64-1.45-2.07-1.45H2.13Zm0,4.08H4.45c1.45,0,2.1-.55,2.1-1.57s-.89-1.6-2.31-1.6H2.13Zm6.66-2.24a3,3,0,0,1,2.87-3.3c1.5,0,2.64,1.06,2.64,3.35v.22H9.83c0,1.43.86,2.19,1.91,2.19a2.14,2.14,0,0,0,1.91-1l.6.53a3,3,0,0,1-2.58,1.34C10.16,514.58,8.8,513.48,8.8,511.28Zm4.52-.54c-.08-1.13-.62-1.9-1.67-1.9a1.86,1.86,0,0,0-1.8,1.9Zm2.46,3.71v-6.33h1v.95A3.41,3.41,0,0,1,19.2,508a1.71,1.71,0,0,1,1.87,1.9v4.57H20V510.1c0-.84-.36-1.24-1.16-1.24a3,3,0,0,0-2.05,1v4.56Zm7.51-1.54V509h-1.1v-.85h1.1v-2.25h1v2.25H26V509H24.32v3.72c0,.67.22,1,1,1a2.58,2.58,0,0,0,.65-.08v.85a5.7,5.7,0,0,1-.9.07C23.72,514.53,23.29,514,23.29,512.91Zm3.61-1.63a3,3,0,1,1,3,3.3A3,3,0,0,1,26.9,511.28Zm4.85,0c0-1.32-.64-2.41-1.9-2.41s-1.91,1-1.91,2.41.62,2.42,1.91,2.42S31.75,512.73,31.75,511.28Zm2.51,3.17v-6.33h1v.95A3.41,3.41,0,0,1,37.68,508a1.71,1.71,0,0,1,1.87,1.9v4.57h-1V510.1c0-.84-.36-1.24-1.16-1.24a3,3,0,0,0-2.05,1v4.56Zm9.6-2.15.89-.4a2.51,2.51,0,0,0,2.52,1.77c1.25,0,2.07-.53,2.07-1.46s-.48-1.31-2.23-1.86-3-1.07-3-2.6c0-1.35,1.16-2.35,2.85-2.35a3.13,3.13,0,0,1,3.13,2l-.84.47a2.31,2.31,0,0,0-2.3-1.5c-1.13,0-1.8.55-1.8,1.31,0,.95.6,1.26,2.34,1.81s2.84,1.15,2.84,2.66-1.28,2.47-3.17,2.47A3.34,3.34,0,0,1,43.86,512.3Zm7.64.65c0-1.28,1.09-2.19,4.23-2.64V510a1.05,1.05,0,0,0-1.2-1.18,3.39,3.39,0,0,0-2.29,1l-.54-.65A4.21,4.21,0,0,1,54.65,508a1.86,1.86,0,0,1,2.11,2.11v2.79a4.35,4.35,0,0,0,.18,1.56H55.88a2.67,2.67,0,0,1-.14-.88,3.42,3.42,0,0,1-2.45,1C52.2,514.54,51.5,514,51.5,512.95Zm4.23-.14V511c-2.41.38-3.21,1-3.21,1.76,0,.61.41.94,1.07.94A3,3,0,0,0,55.74,512.8Zm2.79,1.64v-6.33h1v.95A3.41,3.41,0,0,1,61.94,508a1.71,1.71,0,0,1,1.87,1.9v4.57h-1V510.1c0-.84-.36-1.24-1.16-1.24a3,3,0,0,0-2.05,1v4.56Zm6.6-1,.62-.62a2.6,2.6,0,0,0,2,.88c1,0,1.52-.35,1.52-1s-.55-.88-1.63-1.13c-1.34-.32-2.27-.68-2.27-1.91,0-1,.84-1.73,2.22-1.73a3.29,3.29,0,0,1,2.42.91l-.54.68a2.73,2.73,0,0,0-1.83-.76c-.92,0-1.28.41-1.28.85s.5.8,1.5,1c1.43.35,2.41.7,2.41,2s-1.09,1.86-2.53,1.86A3.35,3.35,0,0,1,65.12,513.48Zm9.59,1v-8.88h3.18c1.93,0,3,.74,3,2.22a2,2,0,0,1-1.64,2.05v0A2.1,2.1,0,0,1,81.21,512c0,1.49-1.1,2.42-3.07,2.42Zm1-5h2c1.33,0,2.1-.47,2.1-1.49s-.64-1.45-2.07-1.45H75.75Zm0,4.08h2.31c1.45,0,2.1-.55,2.1-1.57s-.89-1.6-2.31-1.6h-2.1Zm6.66-2.24a3,3,0,1,1,3,3.3A3,3,0,0,1,82.42,511.28Zm4.85,0c0-1.32-.64-2.41-1.9-2.41s-1.91,1-1.91,2.41.62,2.42,1.91,2.42S87.26,512.73,87.26,511.28Zm2.58,3.17v-8.88h1v8.88Zm2.58-3.15c0-2.21,1.15-3.31,2.7-3.31a2.66,2.66,0,0,1,2,.94v-3.35h1v7.32a4,4,0,0,0,.19,1.56H97.23a3.07,3.07,0,0,1-.14-.9,2.71,2.71,0,0,1-2.09,1C93.55,514.54,92.42,513.5,92.42,511.29Zm4.67,1.43v-2.9a2.43,2.43,0,0,0-1.82-1c-1.1,0-1.81.78-1.81,2.45s.78,2.39,1.8,2.39A2.49,2.49,0,0,0,97.09,512.72ZM.38,541.44l5.9-16.72H9.77l5.9,16.72H12l-1.24-3.71H5l-1.28,3.71Zm5.56-6.37H9.86L7.94,529.4h0Zm11.81,6.37V524.79h6.66c3.06,0,5.94.74,5.94,4.12a3.65,3.65,0,0,1-3.17,3.83v0c2,.36,3.62,1.42,3.62,4.07,0,3.35-2.95,4.59-6.05,4.59Zm3.6-9.79h2.7c1.91,0,2.79-.72,2.79-2s-.79-2-2.75-2H21.35Zm0,7H24.3c2,0,2.93-.81,2.93-2.23s-1.06-2.18-3.08-2.18H21.35Zm11.54-5.56c0-5.78,3.35-8.62,7.56-8.62s6,2.25,6.75,5.24l-3.47,1c-.54-1.91-1.35-3.22-3.31-3.22-2.52,0-3.87,2.14-3.87,5.58s1.4,5.72,3.92,5.72c2,0,2.93-1.24,3.51-3.51l3.44.77c-.81,3.35-2.79,5.69-7,5.69C36.11,541.76,32.9,539,32.9,533.09Zm17.19,8.35V524.79h5.11c5.09,0,8.91,2.16,8.91,8.24,0,6.26-3.89,8.42-8.91,8.42Zm3.65-3h1.71c3.62,0,5-1.62,5-5.4,0-3.56-1.4-5.22-5-5.22H53.73Zm13,3V524.79H78.08v3.06H70.4v3.58H76v2.9H70.4v4.14h8.08v3Zm14.24,0V524.79H92v3.06H84.65v4.05h5.22v2.9H84.65v6.64ZM93,533c0-5.22,2.9-8.58,7.58-8.58,3.15,0,5.67,1.26,6.73,5.33l-3.35.92c-.7-2.32-1.76-3.22-3.4-3.22-1.35,0-3.87.79-3.87,5.47s2.25,5.83,4,5.83a3.35,3.35,0,0,0,3.42-3h-2.9v-2.72h6.39v8.35h-2.95v-2.3h0a4.59,4.59,0,0,1-4.34,2.61C95.22,541.76,93,538.07,93,533Zm17.91,8.4V524.79h3.67v6.46h6.55v-6.46h3.67v16.65H121.1v-7.11h-6.55v7.11Zm17.48,0V524.79H132v16.65Zm5.76-1.53,2-2.3a4.11,4.11,0,0,0,2.63,1.22c1.31,0,2.07-.81,2.07-2.86V524.79h3.67v11.75c0,3.11-1.58,5.22-5.56,5.22A6.72,6.72,0,0,1,134.12,539.91Zm13.52,1.53V524.79h3.67v6.89l5.58-6.89h4.28l-5.65,6.5,6.23,10.15h-4.14l-4.48-7.38-1.82,2v5.33Zm16.15,0V524.79h3.67v13.68h7.34v3Zm13.19,0V524.79h4.84L185.54,537h0L189,524.79h5v16.65h-3.53V530.08h0a29.79,29.79,0,0,1-.92,3.71l-2.5,7.65h-3.24l-2.48-7.65a29.47,29.47,0,0,1-1-3.89h0v11.55Zm20.43,0V524.79h3.67l7,10.62h0V524.79h3.38v16.65H208.1l-7.27-10.71h0v10.71Zm16.69-8.33c0-5.85,3.83-8.64,7.85-8.64s7.83,2.79,7.83,8.64-3.83,8.64-7.83,8.64S214.11,539,214.11,533.12Zm12,0c0-3.49-1.62-5.6-4.19-5.6s-4.19,2.12-4.19,5.6,1.6,5.69,4.19,5.69S226.15,536.61,226.15,533.12Zm6.3,8.33V524.79h6.05c3.56,0,6.8.95,6.8,5.33s-3.51,5.4-6.84,5.4h-2.36v5.92Zm3.65-8.75h2.5c2.27,0,3.13-.88,3.13-2.48s-.83-2.43-3.13-2.43h-2.5Zm22,13.21c-3.38,0-5.38-1.87-5.47-4.41-3.22-.74-5.78-3.56-5.78-8.37,0-5.85,3.83-8.64,7.85-8.64s7.83,2.79,7.83,8.64c0,5-2.81,7.83-6.19,8.46.45,1.35,1.78,1.42,3.47,1.42H261v2.9Zm.77-12.78c0-3.49-1.6-5.6-4.16-5.6s-4.21,2.12-4.21,5.6,1.62,5.69,4.21,5.69S258.86,536.61,258.86,533.12Zm6.34,8.33V524.79h6.26c4.1,0,6.55,1.46,6.55,5.15a4.45,4.45,0,0,1-3.47,4.75l3.71,6.75h-3.87l-3.47-6.28h-2.12v6.28Zm3.6-9.12h2.5c2.12,0,3.13-.61,3.13-2.3s-1-2.25-3.13-2.25h-2.5Zm11.14,5.33,2.77-1.64a4.94,4.94,0,0,0,4.5,2.84c1.69,0,2.9-.63,2.9-1.91s-1.19-1.8-3.38-2.41c-3-.83-6.08-1.6-6.08-5.09,0-3.11,2.43-5,6-5a7.48,7.48,0,0,1,6.62,3.42l-2.54,1.94a5,5,0,0,0-4.1-2.36c-1.55,0-2.41.68-2.41,1.67,0,1.33,1.24,1.8,3.42,2.41,2.93.79,6,1.71,6,5.15,0,2.68-2,5.06-6.66,5.06A7.45,7.45,0,0,1,279.94,537.66Zm19.58,3.78V527.85h-5v-3.06h13.59v3.06h-5v13.59Zm10.57-6.37V524.79h3.67V535c0,2.41.92,3.76,3.11,3.76s3.06-1.33,3.06-3.76v-10.2h3.6v10.26c0,4.1-2.07,6.66-6.71,6.66S310.09,539.15,310.09,535.07ZM331,541.51l-5.74-16.72H329l3.8,11.91h0l3.94-11.91h3.44l-5.74,16.72Zm14.49-.07-4.43-16.65h3.69l1.76,7.58a35.3,35.3,0,0,1,.81,3.65h0a36.55,36.55,0,0,1,.77-3.62l1.69-7.61h3.38l1.8,7.65c.31,1.33.56,2.09.79,3.58h0a36,36,0,0,1,.74-3.53l1.69-7.7h3.38l-4.34,16.65h-3.13l-2.63-11.59h0l-2.81,11.59Zm17.1,0,5.33-8.8-4.86-7.85h4.19l3,5,2.81-5h3.78l-4.75,7.88,5.4,8.78h-4.07l-3.53-5.83-3.42,5.83Zm21.13,0v-7.07L378,524.79h3.78l3.8,6.48,3.83-6.48h3.74l-5.76,9.59v7.07Zm10.06,0v-2.52l8.69-11.1h-8.12v-3h12.74v2.61l-8.51,11.07h8.51v3ZM.58,565.38c0-2.77,2.34-4.3,7.61-4.73v-.29c0-.88-.45-1.44-1.62-1.44a6.39,6.39,0,0,0-3.94,1.49L1.1,558.34a8.41,8.41,0,0,1,6-2.14c3.29,0,4.64,1.62,4.64,4.7v4.61a8.19,8.19,0,0,0,.34,2.93H8.46a5.77,5.77,0,0,1-.27-1.76A5.3,5.3,0,0,1,4,568.62,3.2,3.2,0,0,1,.58,565.38Zm7.61-.52v-2.23c-2.86.29-4.07,1-4.07,2.12,0,.77.54,1.15,1.33,1.15A3.71,3.71,0,0,0,8.19,564.87ZM18,567v1.42H14.36V551.79H18v6.5a4.4,4.4,0,0,1,3.69-2.09c2.72,0,4.61,2.09,4.61,6.23s-1.91,6.19-4.66,6.19A4.56,4.56,0,0,1,18,567Zm4.68-4.57c0-2-.7-3.26-2.32-3.26A3.52,3.52,0,0,0,18,560.36v4.43a3.25,3.25,0,0,0,2.41,1.1C21.9,565.9,22.66,564.64,22.66,562.46Zm5.08,0c0-4.79,3.4-6.26,6.05-6.26A5,5,0,0,1,39,559.87l-3,1c-.47-1.53-1.17-2-2.23-2-1.46,0-2.39,1.24-2.39,3.62,0,2.14.68,3.67,2.34,3.67,1,0,1.85-.52,2.36-2.14l3,1a5.41,5.41,0,0,1-5.42,3.65C30.83,568.69,27.74,567.12,27.74,562.46Zm12.35.09c0-4.14,1.91-6.35,4.66-6.35A4.19,4.19,0,0,1,48.4,558v-6.17H52v13.73a7.59,7.59,0,0,0,.36,2.93H48.67a5.42,5.42,0,0,1-.27-1.8,4.37,4.37,0,0,1-3.69,2C42,568.62,40.09,566.69,40.09,562.55Zm8.31,2.18V560.3a3.24,3.24,0,0,0-2.39-1.1c-1.51,0-2.3,1.15-2.3,3.33,0,2,.72,3.38,2.34,3.38A3.42,3.42,0,0,0,48.4,564.73Zm5.73-2.27a5.89,5.89,0,0,1,6-6.26c2.48,0,5.51,1.24,5.51,6.68v.54H57.74c.18,2,1.28,2.75,2.79,2.75a5.51,5.51,0,0,0,3.56-1.44l1.4,2.16a7.75,7.75,0,0,1-5.22,1.8C57.13,568.69,54.13,567.09,54.13,562.46Zm8.31-1.17c-.18-1.69-.95-2.5-2.3-2.5-1.13,0-2.09.74-2.36,2.5Zm6.19,7.16v-9.36h-2v-2.63h2v-.83c0-2,.61-3.92,4.16-3.92a19.31,19.31,0,0,1,2.18.16v2.52a6.18,6.18,0,0,0-1.06-.09c-.88,0-1.69.16-1.69,1.44v.72h2.61v2.63H72.23v9.36Zm6.32,1.8A2.82,2.82,0,0,1,77,567.84a1.64,1.64,0,0,1-.81-1.44,3.21,3.21,0,0,1,1.73-2.45,3.86,3.86,0,0,1-2-3.44c0-2.41,1.94-4.3,5.4-4.3a5.88,5.88,0,0,1,4,1.31,5.78,5.78,0,0,1,3.08-1.24V559a8.14,8.14,0,0,0-2,.27,3,3,0,0,1,.23,1.19c0,2.43-1.87,4.28-5.31,4.28a9.09,9.09,0,0,1-1.85-.2c-.25.2-.41.38-.41.61,0,.45.47.54,1.35.58l1.8.11C86.38,566,88,567,88,569.28c0,2.48-2.9,3.67-6.89,3.67C76.48,572.95,74.95,571.93,74.95,570.24Zm9.93-.36c0-.74-.36-1.08-3.2-1.22l-1.89-.09-.79-.07a1.3,1.3,0,0,0-.67,1.08c0,1,1,1.53,3.42,1.53C83.59,571.12,84.87,570.67,84.87,569.88Zm-1.42-9.25a2,2,0,1,0-4.1,0,2.05,2.05,0,1,0,4.1,0Zm6.82,7.81V551.79h3.62v6.55A5.13,5.13,0,0,1,98,556.2c2,0,3.51,1,3.51,3.49v8.75H97.92v-7.61c0-1.08-.41-1.64-1.4-1.64a4.06,4.06,0,0,0-2.63,1.19v8.06Zm14-13.64v-2.9h3.65v2.9Zm0,13.64v-12h3.6v12Zm4.12,4.41V570.4a4.29,4.29,0,0,0,1,.13c1,0,1.46-.47,1.46-1.64V556.45h3.6v13.14c0,1.67-.45,3.42-3.89,3.42A19.82,19.82,0,0,1,108.43,572.86Zm2.48-18.05v-2.9h3.65v2.9Zm6.5,13.64V551.79H121v9.14l3.74-4.48h3.89l-3.92,4.48,4.14,7.52h-3.74l-2.66-4.88L121,565.2v3.24Zm13.3,0V551.79h3.6v16.65Zm6.48,0v-12h3.62v1.89a5,5,0,0,1,3.94-2.14c2,0,2.95.83,3.29,2.14a5.15,5.15,0,0,1,4-2.14c2.43,0,3.51,1.53,3.51,3.67v8.58h-3.62v-7.61c0-1.08-.25-1.64-1.31-1.64a3.69,3.69,0,0,0-2.41,1.19v8.06h-3.62v-7.61c0-1.08-.25-1.64-1.31-1.64a3.78,3.78,0,0,0-2.43,1.19v8.06Zm21,0v-12h3.62v1.89a5.13,5.13,0,0,1,4.14-2.14,3.14,3.14,0,0,1,3.49,3.49v8.75h-3.6v-7.61c0-1.08-.41-1.64-1.42-1.64a4.05,4.05,0,0,0-2.61,1.19v8.06Zm13.23-6c0-4.7,3.22-6.26,6.14-6.26s6.12,1.55,6.12,6.26-3.22,6.23-6.12,6.23S171.4,567.12,171.4,562.46Zm8.64,0c0-2-.7-3.62-2.5-3.62s-2.52,1.46-2.52,3.62c0,2,.68,3.67,2.52,3.67S180,564.66,180,562.48Zm5.71,10.47v-16.5h3.62v1.82a4.44,4.44,0,0,1,3.69-2.07c2.72,0,4.61,2.09,4.61,6.23s-1.91,6.19-4.66,6.19a4.56,4.56,0,0,1-3.65-1.6v5.92Zm8.3-10.49c0-2-.7-3.26-2.32-3.26a3.52,3.52,0,0,0-2.36,1.17v4.43a3.25,3.25,0,0,0,2.41,1.1C193.3,565.9,194.06,564.64,194.06,562.46Zm13.39,10.49v-6.21a4.53,4.53,0,0,1-3.69,1.89c-2.72,0-4.61-1.94-4.61-6.08s1.91-6.35,4.66-6.35a4.23,4.23,0,0,1,3.65,1.73v-1.49h3.62v16.5Zm0-8.21V560.3a3.24,3.24,0,0,0-2.39-1.1c-1.51,0-2.3,1.15-2.3,3.33,0,2,.72,3.38,2.34,3.38A3.42,3.42,0,0,0,207.45,564.73Zm6.39,3.71v-12h3.62v2h0a4.54,4.54,0,0,1,4.05-2.25h.11l0,3.22c-.14,0-.72-.07-.95-.07a4,4,0,0,0-3.2,1.64v7.45Zm8.3-1.6,1.44-2a6.65,6.65,0,0,0,4.16,1.55c1.13,0,1.91-.38,1.91-1.17s-.63-1.15-2.27-1.44c-2.27-.41-4.7-.95-4.7-3.76,0-2.41,2-3.8,4.66-3.8a7.73,7.73,0,0,1,5.27,1.69l-1.42,2a6.41,6.41,0,0,0-3.53-1.31c-1,0-1.62.41-1.62,1.06s.65,1,2.14,1.28c2.36.41,4.86.95,4.86,3.67,0,2.9-2.52,4.05-5.29,4.05A8.27,8.27,0,0,1,222.14,566.85Zm13.64-1.78v-6h-2v-2.63h2v-4.12h3.6v4.12h3.08v2.63h-3.08v5.2c0,1.28.36,1.69,1.67,1.69a4.47,4.47,0,0,0,1.19-.14v2.59a17.55,17.55,0,0,1-2.39.18C236.29,568.6,235.78,567.32,235.78,565.07Zm8.53.13v-8.75h3.62v7.7c0,1.08.41,1.67,1.42,1.67A4.08,4.08,0,0,0,252,564.6v-8.15h3.62v12H252v-1.87a5.18,5.18,0,0,1-4.14,2.12C245.77,568.69,244.3,567.68,244.3,565.2Zm16.9,3.26-4.3-12h3.74l2.52,8h0l2.52-8h3.4l-4.28,12Zm11.45,0-3.51-12h3.65l1,4.3c.31,1.26.52,2.12.79,3.67h0c.29-1.58.5-2.45.83-3.76l1-4.21h2.81l1.1,4.28c.36,1.26.54,2.14.86,3.69h0c.29-1.53.5-2.41.83-3.65l1.1-4.32h3.22l-3.51,12h-3.35l-1.8-7.31h0l-1.8,7.31Zm14.13,0,4.12-6.19-3.83-5.81h3.8l2.07,3.31,2-3.31h3.65l-3.87,5.81,4.05,6.19H295l-2.3-3.62-2.23,3.62Zm11.92,4.16.77-2.79a8.73,8.73,0,0,0,2.27.31,1.44,1.44,0,0,0,1.53-1l.23-.58-4.59-12.06h3.74l2.63,7.79h0l2.66-7.79h3.51l-5,13.26c-.81,2.07-1.91,3.33-4.32,3.33A11.66,11.66,0,0,1,298.71,572.61Zm13.41-4.16v-1.87l5.81-7.5h-5.38v-2.63h9.86v1.91l-5.83,7.52h6.28v2.57Zm-311.4,27v-2.86h3V582.1a7,7,0,0,1-3,.77v-3a4.54,4.54,0,0,0,3.06-1.08H7.27v13.8H9.9v2.86Zm10.17,0v-.36c0-2.41.59-4.75,5-7.56,2.59-1.64,3.6-2.27,3.6-4a1.94,1.94,0,0,0-2.18-2,4.56,4.56,0,0,0-3.65,2.39L11,582.1a7.18,7.18,0,0,1,6.35-3.62c3.58,0,5.63,1.89,5.63,4.84,0,1.85-.5,3.49-3.69,5.51-2.41,1.53-4,2.77-4.1,3.76h7.9v2.86Zm13.3-2.54,2.27-2a5.32,5.32,0,0,0,4.05,2c1.87,0,2.86-.83,2.86-2.32,0-1.85-1.35-2.45-4-2.45h-.83v-2.68h.9c3.06,0,3.58-1,3.58-2.09s-.61-1.84-2.41-1.84A5.3,5.3,0,0,0,26.87,583l-2-2.3a9.15,9.15,0,0,1,6.19-2.25c3.62,0,5.6,1.55,5.6,4.25a3.8,3.8,0,0,1-3.26,3.87c2.5.41,3.8,2,3.8,4.14,0,3.13-2.63,5-6.53,5A7.85,7.85,0,0,1,24.19,592.9Zm22.34,2.54v-3.26H38.45v-2.66L46,578.79h4V589.3h2.81v2.88H50.07v3.26Zm-4.3-6.14h4.3v-6.14h0Zm11.29,4.25,1.85-2.41a6.37,6.37,0,0,0,4.16,1.71c2.21,0,3.17-1.24,3.17-2.95,0-1.89-1-3-2.88-3a3.93,3.93,0,0,0-3.06,1.6l-2.36-.74.68-9H65.19L65,581.56H57.89l-.32,3.69a4.82,4.82,0,0,1,3.35-1c3.56,0,5.42,2.32,5.42,5.56,0,3.56-2.5,6-6.59,6A8.91,8.91,0,0,1,53.53,593.55Zm14.24-6.14c0-6.39,3.83-8.94,7.34-8.94a7.67,7.67,0,0,1,4.84,1.4l-1.55,2.48a5,5,0,0,0-3.13-1c-2.14,0-3.69,1.78-3.92,4.84a6.67,6.67,0,0,1,4.16-1.51c2.95,0,5.38,1.58,5.38,5.29,0,3.47-2.54,5.76-6.32,5.76C70.58,595.76,67.77,592.86,67.77,587.41Zm9.68,2.75a2.45,2.45,0,0,0-2.68-2.75,4.8,4.8,0,0,0-3.42,1.4c.18,2.79,1.35,4.19,3.38,4.19A2.65,2.65,0,0,0,77.45,590.16Zm5.44,5.29,6.37-13.71H81.34v-2.95H93v2.7l-6.41,14Zm10.66-4.3c0-2.09,1.67-3.56,3.69-4.39-1.82-.95-2.93-2-2.93-4.07s2-4.21,5.94-4.21,5.92,2.12,5.92,4.21a4.34,4.34,0,0,1-2.88,4c2.14.95,3.65,2,3.65,4.5,0,2.86-2.5,4.61-6.68,4.61S93.55,594,93.55,591.15Zm9.72-.2c0-1.28-1-2-3.29-2.9-1.71.83-2.75,1.71-2.75,2.9s1.1,2.32,3,2.32S103.28,592.23,103.28,590.94Zm-.63-7.92c0-.88-.63-2-2.36-2s-2.41,1-2.41,1.89c0,1.26,1,1.85,2.63,2.5C102,584.71,102.65,584.08,102.65,583Zm6.09,11.28,1.58-2.39a5.1,5.1,0,0,0,3.22,1c2.14,0,3.67-1.87,3.89-4.93a6.67,6.67,0,0,1-4.16,1.51c-2.93,0-5.36-1.58-5.36-5.29,0-3.47,2.54-5.76,6.32-5.76,4,0,6.77,2.9,6.77,8.35,0,6.39-3.8,8.93-7.31,8.93A7.67,7.67,0,0,1,108.74,594.3Zm8.69-8.87c-.16-2.79-1.35-4.1-3.35-4.1a2.57,2.57,0,0,0-2.72,2.75,2.44,2.44,0,0,0,2.68,2.75A4.75,4.75,0,0,0,117.43,585.43Zm5.4,1.69c0-5.2,2.57-8.64,6.93-8.64s6.91,3.44,6.91,8.64-2.52,8.64-6.91,8.64S122.83,592.32,122.83,587.12Zm10.22,0c0-3.8-1.19-5.72-3.29-5.72s-3.29,1.91-3.29,5.72,1.19,5.78,3.29,5.78S133,590.92,133,587.12Z"/><path id="BentonSansBlack" class="cls-1" d="M1.09,640.44v-8.87H4.27c1.93,0,3,.74,3,2.22a2,2,0,0,1-1.64,2.05v0A2.1,2.1,0,0,1,7.59,638c0,1.49-1.1,2.42-3.07,2.42Zm1-5h2c1.33,0,2.1-.47,2.1-1.49s-.64-1.45-2.07-1.45H2.13Zm0,4.08H4.45c1.45,0,2.1-.55,2.1-1.57s-.89-1.59-2.31-1.59H2.13Zm6.66-2.24a3,3,0,0,1,2.87-3.3c1.5,0,2.64,1.06,2.64,3.35v.22H9.83c0,1.43.86,2.19,1.91,2.19a2.14,2.14,0,0,0,1.91-1l.6.53a3,3,0,0,1-2.58,1.34C10.16,640.57,8.8,639.48,8.8,637.27Zm4.52-.54c-.08-1.13-.62-1.9-1.67-1.9a1.86,1.86,0,0,0-1.8,1.9Zm2.46,3.71v-6.33h1v.95A3.41,3.41,0,0,1,19.2,634a1.71,1.71,0,0,1,1.87,1.9v4.57H20V636.1c0-.84-.36-1.24-1.16-1.24a3,3,0,0,0-2.05,1v4.56Zm7.51-1.54V635h-1.1v-.85h1.1v-2.25h1v2.25H26V635H24.32v3.72c0,.67.22,1,1,1a2.58,2.58,0,0,0,.65-.08v.85a5.64,5.64,0,0,1-.9.07C23.72,640.52,23.29,640,23.29,638.91Zm3.61-1.63a3,3,0,1,1,3,3.3A3,3,0,0,1,26.9,637.27Zm4.85,0c0-1.32-.64-2.41-1.9-2.41s-1.91,1-1.91,2.41.62,2.42,1.91,2.42S31.75,638.73,31.75,637.27Zm2.51,3.17v-6.33h1v.95A3.41,3.41,0,0,1,37.68,634a1.71,1.71,0,0,1,1.87,1.9v4.57h-1V636.1c0-.84-.36-1.24-1.16-1.24a3,3,0,0,0-2.05,1v4.56Zm9.6-2.15.89-.4a2.51,2.51,0,0,0,2.52,1.78c1.25,0,2.07-.53,2.07-1.46s-.48-1.31-2.23-1.86-3-1.07-3-2.6c0-1.36,1.16-2.35,2.85-2.35a3.13,3.13,0,0,1,3.13,2l-.84.47a2.31,2.31,0,0,0-2.3-1.5c-1.13,0-1.8.55-1.8,1.31,0,.95.6,1.26,2.34,1.81s2.84,1.15,2.84,2.66-1.28,2.47-3.17,2.47A3.34,3.34,0,0,1,43.86,638.29Zm7.64.65c0-1.28,1.09-2.2,4.23-2.64V636a1.05,1.05,0,0,0-1.2-1.18,3.39,3.39,0,0,0-2.29,1l-.54-.65A4.21,4.21,0,0,1,54.65,634a1.86,1.86,0,0,1,2.11,2.11v2.79a4.36,4.36,0,0,0,.18,1.56H55.88a2.67,2.67,0,0,1-.14-.88,3.42,3.42,0,0,1-2.45,1C52.2,640.54,51.5,640,51.5,638.94Zm4.23-.14V637c-2.41.38-3.21,1-3.21,1.76,0,.61.41.94,1.07.94A3,3,0,0,0,55.74,638.8Zm2.79,1.64v-6.33h1v.95A3.41,3.41,0,0,1,61.94,634a1.71,1.71,0,0,1,1.87,1.9v4.57h-1V636.1c0-.84-.36-1.24-1.16-1.24a3,3,0,0,0-2.05,1v4.56Zm6.6-1,.62-.62a2.6,2.6,0,0,0,2,.88c1,0,1.52-.35,1.52-1s-.55-.88-1.63-1.13c-1.34-.32-2.27-.68-2.27-1.91,0-1,.84-1.73,2.22-1.73a3.29,3.29,0,0,1,2.42.91l-.54.68a2.73,2.73,0,0,0-1.83-.76c-.92,0-1.28.41-1.28.85s.5.8,1.5,1c1.43.35,2.41.7,2.41,2s-1.09,1.86-2.53,1.86A3.35,3.35,0,0,1,65.12,639.48Zm9.59,1v-8.87h3.18c1.93,0,3,.74,3,2.22a2,2,0,0,1-1.64,2.05v0A2.1,2.1,0,0,1,81.21,638c0,1.49-1.1,2.42-3.07,2.42Zm1-5h2c1.33,0,2.1-.47,2.1-1.49s-.64-1.45-2.07-1.45H75.75Zm0,4.08h2.31c1.45,0,2.1-.55,2.1-1.57s-.89-1.59-2.31-1.59h-2.1Zm7.14.92v-8.87h1v8.88Zm2.54-1.5c0-1.28,1.09-2.2,4.23-2.64V636a1.05,1.05,0,0,0-1.2-1.18,3.39,3.39,0,0,0-2.29,1l-.54-.65A4.21,4.21,0,0,1,88.58,634a1.86,1.86,0,0,1,2.11,2.11v2.79a4.36,4.36,0,0,0,.18,1.56H89.82a2.67,2.67,0,0,1-.14-.88,3.42,3.42,0,0,1-2.45,1C86.13,640.54,85.44,640,85.44,638.94Zm4.23-.14V637c-2.41.38-3.21,1-3.21,1.76,0,.61.41.94,1.07.94A3,3,0,0,0,89.67,638.8Zm2.43-1.52c0-2.31,1.49-3.3,2.9-3.3a2.52,2.52,0,0,1,2.48,1.78l-.88.36A1.65,1.65,0,0,0,95,634.85c-.91,0-1.83.64-1.83,2.42,0,1.56.74,2.44,1.81,2.44a1.72,1.72,0,0,0,1.7-1.27l.85.34a2.68,2.68,0,0,1-2.59,1.8C93.45,640.57,92.1,639.44,92.1,637.27Zm6.79,3.17v-8.87h1v5.71l2.83-3.17h1.18l-2.07,2.27,2.3,4.07h-1.1l-1.87-3.3-1.26,1.36v1.94Zm-98.67,27,5.9-16.72h4.19l5.9,16.72H11.66l-1-3.11H5.4l-1.08,3.11Zm6.23-6.3H9.63L8.1,656.52h0ZM18,667.44V650.79h7c2.77,0,6.05.43,6.05,4.1a3.58,3.58,0,0,1-3.15,3.8v0c2,.36,3.56,1.33,3.56,4.1,0,3.62-3.38,4.61-6.19,4.61Zm4.41-10h2.14c1.62,0,2.23-.63,2.23-1.6s-.61-1.6-2.18-1.6H22.39Zm0,6.64h2.25c1.69,0,2.41-.65,2.41-1.8s-.74-1.73-2.45-1.73H22.39Zm11-5c0-6.1,3.58-8.64,7.81-8.64,4.55,0,6.35,2.34,7,5.31L44,657c-.45-1.6-1.08-2.86-2.81-2.86-2.23,0-3.29,1.82-3.29,4.93s1.1,5,3.33,5c1.76,0,2.48-1.1,3-3.17l4.25.95c-.81,3.38-2.72,5.83-7.27,5.83C36.79,667.75,33.37,665.21,33.37,659.11Zm17.46,8.33V650.79H56.3c5,0,9.16,1.89,9.16,8.21,0,6.55-4.28,8.44-9.16,8.44Zm4.48-3.62h1.24c3.4,0,4.41-1.4,4.41-4.77,0-3.08-1-4.52-4.46-4.52H55.31Zm12.46,3.62V650.79H79.65v3.74H72.27v2.7h5.27v3.51H72.27v3.08H80v3.62Zm14.51,0V650.79h11.5v3.74h-7v3.33h4.88v3.51H86.78v6.08ZM94.66,659c0-5.22,2.88-8.58,7.83-8.58,3.15,0,5.85,1.06,7,5.42L105.39,657c-.65-2.14-1.62-2.86-2.93-2.86-1.64,0-3.29,1.08-3.29,4.79,0,4.66,2.3,5.18,3.49,5.18a3,3,0,0,0,2.93-2h-2.43v-3.29h6.71v8.58h-3.53v-2.21h0a4.42,4.42,0,0,1-4.19,2.52C96.8,667.75,94.66,664.06,94.66,659Zm18.25-8.26h4.5V657h5.54v-6.19h4.5v16.66h-4.5v-6.73h-5.54v6.73h-4.5Zm17.78,16.66V650.79h4.5v16.66Zm6.37-1.28,2.27-3a4.12,4.12,0,0,0,2.5,1.08c1.17,0,1.76-.77,1.76-2.61v-10.8h4.5v11.59c0,3.08-1.53,5.38-6,5.38A7.53,7.53,0,0,1,137,666.16Zm13.75,1.28V650.79h4.5v6l4.59-6h5.22l-5.6,6.57,6.1,10.08h-5.09l-3.94-6.66-1.28,1.49v5.18Zm16.6,0V650.79h4.5v13h7v3.62Zm13.39,0V650.79h6l2.93,11.3h0l2.63-11.3h6.1v16.66h-4.3V657.13h0a31.6,31.6,0,0,1-.9,4.05l-1.76,6.26h-4l-1.71-6.26a31.23,31.23,0,0,1-.95-4.28h0v10.53Zm20.77,0V650.79H206l6.1,9.34h0v-9.34h4.12v16.66h-4.16l-6.37-9.32h0v9.32Zm17-8.33c0-6.1,4.16-8.64,8.19-8.64s8.17,2.54,8.17,8.64-4.16,8.64-8.17,8.64S218.56,665.21,218.56,659.11Zm11.86,0c0-3.06-1.33-4.93-3.67-4.93s-3.69,1.87-3.69,4.93,1.33,5,3.69,5S230.42,662.17,230.42,659.11Zm6.81,8.33V650.79h6.23c3.56,0,7.2.74,7.2,5.67s-3.94,5.67-7.2,5.67h-1.78v5.31Zm4.46-8.73h1.94c2.09,0,2.66-.88,2.66-2.14s-.56-2.14-2.66-2.14h-1.94ZM263.25,672c-3.4,0-5.56-2-5.67-4.61-3.06-.88-5.65-3.47-5.65-8.28,0-6.1,4.16-8.64,8.19-8.64s8.17,2.54,8.17,8.64c0,5.06-2.88,7.67-6.14,8.42.56,1.08,1.8,1,3.38,1h1.15V672Zm.54-12.9c0-3.06-1.33-4.93-3.67-4.93s-3.69,1.87-3.69,4.93,1.33,5,3.69,5S263.79,662.17,263.79,659.11Zm6.86,8.33V650.79h6.5c4.28,0,6.89,1.42,6.89,5.42,0,2.61-1.1,4.12-3.29,4.86l3.53,6.37h-4.77l-3.22-5.78h-1.24v5.78Zm4.41-9.21H277c1.85,0,2.66-.52,2.66-1.91s-.81-1.89-2.66-1.89h-1.94Zm10.6,5.54L289,661.7a5.16,5.16,0,0,0,4.37,2.52c1.37,0,2.41-.41,2.41-1.44s-1.33-1.46-3-1.87c-2.72-.7-6.35-1.4-6.35-5.18,0-3.4,2.57-5.27,6.35-5.27a8.56,8.56,0,0,1,7,3.26l-3,2.48a5.69,5.69,0,0,0-4-2.09c-1.28,0-1.94.43-1.94,1.22,0,1.1,1.31,1.51,2.95,1.91,2.72.65,6.37,1.49,6.37,5.22,0,2.66-1.87,5.29-7,5.29A8.21,8.21,0,0,1,285.66,663.77Zm20.07,3.67V654.52h-4.79v-3.74H315v3.74h-4.79v12.92Zm10.89-6.68v-10h4.5v9.95c0,2.3.74,3.33,2.54,3.33s2.52-1,2.52-3.33v-9.95h4.41v10c0,4.41-2.12,6.93-7,6.93S316.62,665.17,316.62,660.76Zm21.08,6.75L332,650.79h4.55l3.33,10.83h0l3.51-10.83h4.19L342,667.51Zm14.92-.07-4.43-16.66h4.52l1.42,6.55a30.07,30.07,0,0,1,.72,3.44h0a32.86,32.86,0,0,1,.68-3.42l1.37-6.57H361l1.49,6.59a29.13,29.13,0,0,1,.74,3.4h0a32.2,32.2,0,0,1,.63-3.35l1.33-6.64h4.12L365,667.44h-3.76L359,657h0l-2.52,10.42Zm17.55,0,5.15-8.75-4.79-7.9h5.13l2.5,4.39,2.3-4.39h4.61l-4.64,7.95,5.22,8.71h-5l-2.95-5.09-2.77,5.09Zm21.6,0v-7l-5.81-9.7h4.64l3.44,5.9,3.47-5.9h4.59l-5.83,9.7v7Zm10.71,0v-3.08l8.15-9.83H403v-3.74h13.32V654l-7.92,9.83h7.92v3.62ZM.38,691.2c0-2.7,2.5-4.34,7.45-4.57v-.16c0-.58-.29-1-1.33-1a6.56,6.56,0,0,0-3.71,1.31L1,684.25a8.89,8.89,0,0,1,6.23-2.09c3.56,0,5,1.67,5,5.06v4.3a8.19,8.19,0,0,0,.34,2.93H8.1a5.75,5.75,0,0,1-.27-1.76,4.8,4.8,0,0,1-4,1.94A3.25,3.25,0,0,1,.38,691.2Zm7.45-.58V688.9c-2.16.07-3.11.63-3.11,1.55,0,.58.43.85,1,.85A2.92,2.92,0,0,0,7.83,690.61Zm11.09,2.52v1.31H14.47V677.79h4.46v6.46a4.17,4.17,0,0,1,3.58-2.09c2.72,0,4.5,2.12,4.5,6.26s-1.8,6.21-4.55,6.21A4.3,4.3,0,0,1,18.92,693.13Zm3.62-4.7c0-1.49-.34-2.63-1.82-2.63a2.8,2.8,0,0,0-1.8.88v3.87a2.48,2.48,0,0,0,1.85.76C22.1,691.31,22.55,690.14,22.55,688.43Zm5.58,0c0-5,3.69-6.28,6.35-6.28,3.56,0,4.82,1.8,5.51,3.83l-3.74,1.17c-.38-1.46-1-1.8-1.82-1.8-1.33,0-1.85,1.22-1.85,3.11s.31,3.15,1.8,3.15c.72,0,1.55-.36,2-1.94L40,690.91a5.63,5.63,0,0,1-5.72,3.78C31.48,694.69,28.12,693.38,28.12,688.43Zm12.58.11c0-4.14,1.8-6.39,4.55-6.39a3.85,3.85,0,0,1,3.53,1.67v-6h4.46v13.73a7.59,7.59,0,0,0,.36,2.93H49.05a4.73,4.73,0,0,1-.27-1.8,4.08,4.08,0,0,1-3.58,2C42.48,694.62,40.7,692.68,40.7,688.54Zm8.08,1.89v-3.87a2.48,2.48,0,0,0-1.85-.77c-1.33,0-1.78,1-1.78,2.72,0,1.49.34,2.79,1.82,2.79A2.81,2.81,0,0,0,48.78,690.43Zm6.23-2c0-4.84,3.89-6.28,6.35-6.28s5.81.86,5.81,6.87v.67H59.45c.23,1.58,1.1,2,2.41,2a7.51,7.51,0,0,0,3.47-1.1l1.6,2.7a9.85,9.85,0,0,1-5.4,1.44C58.21,694.69,55,693.32,55,688.43Zm8.22-1.28c-.18-1.44-.83-1.89-1.89-1.89-.88,0-1.58.52-1.85,1.89Zm6.61,7.29v-8.87h-2v-3.2h2v-.45c0-2,.38-4.25,4.48-4.25a20.66,20.66,0,0,1,2.72.2v3a5.24,5.24,0,0,0-1.17-.13c-.79,0-1.58,0-1.58,1.33v.27h2.61v3.2H74.3v8.87Zm7,1.89c0-1.15,1-1.85,1.89-2.3a1.7,1.7,0,0,1-.72-1.4,3.55,3.55,0,0,1,1.87-2.72,3.88,3.88,0,0,1-2-3.47c0-2.36,1.89-4.3,5.67-4.3a6.29,6.29,0,0,1,4.28,1.33A5.74,5.74,0,0,1,91,682.17v3.31a9,9,0,0,0-2,.2,7,7,0,0,1,0,.76c0,2.36-1.8,4.3-5.58,4.3a11,11,0,0,1-1.8-.16.9.9,0,0,0-.18.45c0,.43.5.45,1.17.47l1.49,0c4.66.13,6.39,1.15,6.39,3.58,0,2.61-3.24,3.8-7.43,3.8C78.41,698.94,76.81,698,76.81,696.33Zm9.88-.43c0-.58-.16-.81-3.17-.92l-1.71-.07a5,5,0,0,1-.83-.07,1.88,1.88,0,0,0-.13.65c0,.95.83,1.31,3,1.31C85.5,696.8,86.69,696.53,86.69,695.9Zm-1.58-9.27a1.58,1.58,0,1,0-1.58,1.75A1.56,1.56,0,0,0,85.12,686.63Zm7.42,7.81V677.79H97v6.46a4.6,4.6,0,0,1,4-2.09,3.13,3.13,0,0,1,3.47,3.49v8.8H100V687.1c0-.83-.27-1.31-1-1.31a3.22,3.22,0,0,0-2,.86v7.79Zm14.35-13.23v-3.42h4.46v3.42Zm0,13.23V682.38h4.46v12.06Zm4.36,4.39V695.9a5.24,5.24,0,0,0,1.17.13c1.1,0,1.58-.5,1.58-1.78V682.38h4.46v12.87c0,1.69-.38,3.78-4.48,3.78A20.83,20.83,0,0,1,111.26,698.83ZM114,681.21v-3.42h4.46v3.42Zm7,13.23V677.79h4.46v8.35l2.95-3.76h4.73L129.22,687l4.05,7.47H128.7l-2.23-4.23-1,1.19v3Zm13.79,0V677.79h4.46v16.66Zm7,0V682.38h4.46v1.87a4.54,4.54,0,0,1,3.76-2.09c2,0,2.95.79,3.29,2.09a4.54,4.54,0,0,1,3.76-2.09c2.43,0,3.56,1.58,3.56,3.71v8.58h-4.46V687.1c0-.83-.11-1.31-.92-1.31a2.87,2.87,0,0,0-1.8.86v7.79H149V687.1c0-.83-.11-1.31-.92-1.31a2.87,2.87,0,0,0-1.8.86v7.79Zm21.15-12.06h4.46v1.87a4.6,4.6,0,0,1,4-2.09,3.13,3.13,0,0,1,3.47,3.49v8.8h-4.46V687.1c0-.83-.27-1.31-1-1.31a3.22,3.22,0,0,0-2,.86v7.79h-4.46Zm13.57,6.05c0-5,3.51-6.28,6.44-6.28s6.44,1.26,6.44,6.28-3.53,6.26-6.44,6.26S176.51,693.38,176.51,688.43Zm8.42,0c0-1.76-.45-3.11-2-3.11s-2,1.22-2,3.11.43,3.15,2,3.15S184.93,690.37,184.93,688.45ZM191.16,699V682.4h4.46v1.87a4.17,4.17,0,0,1,3.58-2.09c2.72,0,4.5,2.12,4.5,6.26s-1.8,6.21-4.55,6.21a4.3,4.3,0,0,1-3.53-1.49V699Zm8.08-10.51c0-1.49-.34-2.63-1.82-2.63a2.8,2.8,0,0,0-1.8.88v3.87a2.48,2.48,0,0,0,1.85.77C198.79,691.33,199.24,690.16,199.24,688.45Zm13.66,10.49v-6.19a4.25,4.25,0,0,1-3.58,1.87c-2.72,0-4.5-1.94-4.5-6.08s1.8-6.39,4.55-6.39a3.85,3.85,0,0,1,3.53,1.67v-1.44h4.46v16.56Zm0-8.51v-3.87a2.48,2.48,0,0,0-1.85-.77c-1.33,0-1.78,1-1.78,2.72,0,1.49.34,2.79,1.82,2.79A2.81,2.81,0,0,0,212.9,690.43Zm6.88,4V682.38h4.46v1.87h0a4.15,4.15,0,0,1,3.76-2.09h0v3.94c-.18,0-.81-.09-1.13-.09a4.17,4.17,0,0,0-2.7,1.1v7.34Zm8.55-1.49,1.64-2.5a7.62,7.62,0,0,0,4.32,1.46c.77,0,1.44-.23,1.44-.79s-.56-.83-1.87-1c-2-.29-5-.77-5-3.89,0-2.7,2.21-4.07,4.93-4.07a8.69,8.69,0,0,1,5.63,1.67l-1.64,2.45a7.67,7.67,0,0,0-3.56-1.22c-.74,0-1.24.23-1.24.77s.63.77,1.85.92c2,.27,5,.72,5,3.65,0,3.2-2.75,4.3-5.54,4.3A9.72,9.72,0,0,1,228.33,693Zm14-2.14v-5.24h-2v-3.2h2v-4.05h4.46v4.05h3.08v3.2h-3.08v4.25c0,1.28.31,1.6,1.58,1.6a5.17,5.17,0,0,0,1.17-.14v3.11a20.86,20.86,0,0,1-2.72.2C242.66,694.6,242.28,693.16,242.28,690.82Zm9,.38v-8.82h4.46v7.47c0,.83.27,1.31,1,1.31a3.22,3.22,0,0,0,2-.86v-7.92h4.46v12.06h-4.46v-1.85a4.6,4.6,0,0,1-4,2.09A3.13,3.13,0,0,1,251.32,691.2Zm17.1,3.24-4.25-12.06h4.57l2.12,7.18h0l2.14-7.18h4.14l-4.25,12.06Zm11.72,0-3.44-12.06h4.46l.79,3.67c.27,1.15.43,2,.65,3.51h0c.25-1.53.45-2.41.74-3.62l.81-3.56h3.38l.88,3.6c.32,1.17.5,2,.77,3.58h0c.25-1.51.45-2.39.74-3.53l.85-3.65h3.89l-3.44,12.06h-4.12l-1.46-6.32h0l-1.42,6.32Zm14.49,0,4.05-6.21-3.76-5.85h4.64l1.67,2.79,1.49-2.79h4.46l-3.83,5.87,4,6.19h-4.64l-1.85-3.08-1.76,3.08Zm12.28,4.12.92-3.42a9.72,9.72,0,0,0,2.54.36,1,1,0,0,0,1.15-.7l.11-.29-4.59-12.13h4.57l2.23,6.89h0l2.23-6.89h4.3l-5,13.28c-.79,2.07-2,3.4-4.46,3.4A13.49,13.49,0,0,1,306.92,698.56Zm13.77-4.12v-2.23l5.22-6.64H321v-3.2h10.38v2.32l-5.24,6.64h5.74v3.11ZM.47,721.44V718H3.42v-9.21a6.72,6.72,0,0,1-2.9.76v-3.67a4.37,4.37,0,0,0,3-1.08H7.79V718h2.54v3.47Zm10.46,0v-.36c0-2.41.34-4.79,4.73-7.61,2.63-1.69,3.65-2.12,3.65-3.74a1.48,1.48,0,0,0-1.69-1.53,4.78,4.78,0,0,0-3.47,2.18L11,708.09a7.83,7.83,0,0,1,6.73-3.62c3.78,0,5.92,1.89,5.92,5,0,1.69-.25,3.33-3.44,5.36-2.16,1.37-3.8,2.43-3.89,3.2h7.45v3.47ZM24.48,719l2.7-2.52A5.58,5.58,0,0,0,31,718.22c1.62,0,2.43-.61,2.43-1.85,0-1.62-1.35-2-3.44-2h-.92v-3.24H30c2.88,0,3.08-1,3.08-1.67,0-.86-.45-1.37-2-1.37a5.45,5.45,0,0,0-3.69,1.35l-2.36-2.84a10.41,10.41,0,0,1,6.59-2.16c3.67,0,5.85,1.4,5.85,4.3a3.77,3.77,0,0,1-3.2,3.83,4.06,4.06,0,0,1,3.8,4.05c0,3.31-2.81,5.09-6.91,5.09A8.45,8.45,0,0,1,24.48,719Zm22.73,2.43v-2.93H39.1v-3.26l7.58-10.47h4.86V715h2.81v3.49H51.55v2.93ZM43.7,715h3.51v-4.84h0Zm11,4.84,2.16-3a7.61,7.61,0,0,0,4.07,1.37c1.94,0,2.79-.85,2.79-2.36a2.25,2.25,0,0,0-2.52-2.52,3.76,3.76,0,0,0-2.77,1.37l-2.81-.86.68-9.07H66.92l-.23,3.33h-7l-.25,2.81a5.28,5.28,0,0,1,3.22-.83c3.78,0,5.54,2.41,5.54,5.63,0,3.62-2.63,6-7,6A10.84,10.84,0,0,1,54.67,719.87Zm14.58-6.46c0-6.91,4.28-8.93,7.67-8.93a8.28,8.28,0,0,1,5.18,1.44l-1.87,3a5.2,5.2,0,0,0-3.08-.92c-1.78,0-3.17,1.17-3.49,3.78a7,7,0,0,1,3.92-1.19c2.72,0,5.45,1.31,5.45,5.31,0,3.6-2.7,5.85-6.62,5.85C72.11,721.76,69.25,718.74,69.25,713.41Zm9.57,2.7a2,2,0,0,0-2.21-2.25,4.82,4.82,0,0,0-3,.92c.09,2.36,1,3.62,2.95,3.62A2.18,2.18,0,0,0,78.82,716.11Zm5.78,5.33,6.12-13.1H83v-3.56H95.29V708l-6.14,13.39ZM95.49,717c0-2,1.67-3.51,3.4-4.23-1.64-.9-2.63-1.89-2.63-4s2-4.3,6.23-4.3,6.23,2.16,6.23,4.3a4.31,4.31,0,0,1-2.57,3.92c1.87.83,3.33,1.82,3.33,4.34,0,3.06-2.63,4.73-7,4.73S95.49,720.09,95.49,717Zm9.48-.25c0-1-.77-1.62-2.81-2.41-1.22.63-2.14,1.44-2.14,2.41s.81,2,2.48,2S105,717.82,105,716.78Zm-.59-7.58a1.64,1.64,0,0,0-1.87-1.62c-1.44,0-1.91.81-1.91,1.58,0,1.1.92,1.64,2.23,2.09C103.91,710.66,104.38,710.05,104.38,709.2Zm6.68,11.12,1.87-2.9a5.2,5.2,0,0,0,3.08.92c1.78,0,3.17-1.28,3.49-3.89a7,7,0,0,1-3.92,1.19c-2.72,0-5.45-1.31-5.45-5.31,0-3.6,2.7-5.85,6.62-5.85,4.3,0,7.16,3,7.16,8.35,0,6.91-4.28,8.94-7.67,8.94A8.29,8.29,0,0,1,111.06,720.32Zm8.46-8.87c-.09-2.36-1-3.51-2.95-3.51a2.1,2.1,0,0,0-2.23,2.18,2,2,0,0,0,2.21,2.25A4.82,4.82,0,0,0,119.52,711.45Zm5.91,1.67c0-5.2,2.7-8.64,7.27-8.64s7.25,3.44,7.25,8.64-2.68,8.64-7.25,8.64S125.44,718.31,125.44,713.11Zm10,0c0-3.44-.95-5.06-2.77-5.06s-2.79,1.62-2.79,5.06,1,5.15,2.79,5.15S135.47,716.56,135.47,713.11Z"/></svg>