<svg id="Layer_1" data-name="Layer 1" xmlns="http://www.w3.org/2000/svg" viewBox="0 0 397.71 348.88"><defs><style>.cls-1{fill:#231f20;}</style></defs><title>typography_GT_Sectra</title><path id="GTSecBook" class="cls-1" d="M4.68,10.42A4.05,4.05,0,0,1,.48,6.12C.48,3.33,2.24,2,4.92,1.59a5.36,5.36,0,0,1,2.94.94V4.14h-.6L6.87,3.06a2.93,2.93,0,0,0-2.12-.85C3,2.21,1.86,3.53,1.86,5.82c0,2,1.25,3.93,3.18,3.93A2.33,2.33,0,0,0,6.6,9.12V6.84L5.52,6.69l.06-.42,1.65,0,1.34,0,.06.42-.78.16V9.48A18.46,18.46,0,0,1,4.68,10.42Zm9.54-.2-1.94,0-2,0-.06-.42,1.44-.16V2.37l-1.8,0L9.29,3.92H8.82V1.79l3.44,0,3.45,0V3.92h-.47L14.7,2.39l-1.8,0V9.64l1.38.16ZM20.52,9a2.24,2.24,0,0,0,1.69.76,1.48,1.48,0,0,0,1.63-1.52,1.72,1.72,0,0,0-1.25-1.6L21.14,6a2.14,2.14,0,0,1-1.57-2c0-1.31,1.2-2.08,2.87-2.42a3.85,3.85,0,0,1,2.19.7V3.9H24l-.35-1.09a1.78,1.78,0,0,0-1.41-.59c-.95,0-1.51.52-1.51,1.32s.47,1.07,1.13,1.35l1.38.6A2.38,2.38,0,0,1,25,7.73c0,1.13-.77,2.22-3,2.69a3.74,3.74,0,0,1-2.48-.82L19.26,8h.84Zm6.6-1.86c0,1.37.73,2.34,2,2.34a3.11,3.11,0,0,0,1.5-.5l.19.46a7.3,7.3,0,0,1-2.1.95,2.72,2.72,0,0,1-2.76-2.91,3,3,0,0,1,2.71-3.08c1.58,0,2.12,1,2.12,2.25v.5Zm2.41-.6c0-.92-.18-1.56-1.1-1.56-.73,0-1.2.68-1.3,1.68ZM35,5.21a1,1,0,0,0-.7-.19c-.81,0-1.44.91-1.44,2.22s.7,2.24,1.87,2.24A2.62,2.62,0,0,0,36.08,9l.19.46a6.73,6.73,0,0,1-2,.95,2.58,2.58,0,0,1-2.67-2.85c0-1.88,1.38-2.78,2.85-3.14a2.86,2.86,0,0,1,1.66.6v1.2h-.89Zm1.65,0V5l.42-.42h.78V3.84l.78-.78h.31V4.71h1.81v.54h-1.8V8.76c0,.35.13.72.64.72a2,2,0,0,0,.95-.29l.2.41-1.4.78c-1.34,0-1.52-.48-1.52-1.56V5.25Zm6.49.88,1.37-1.68h1v1.2h-.89a2.74,2.74,0,0,0-1.14.85l-.24.29V9.64l1.26.12-.06.46-1.74,0-1.34,0-.06-.42.84-.12V5.29l-.84.07-.06-.42,1.44-.37.48,0Zm5.11-1.74c1.51,0,1.9.38,1.9,1.91V8.64a1.46,1.46,0,0,0,.2.9h.6L51,10l-1.55.3-.37-.92-1.43,1a1.56,1.56,0,0,1-1.76-1.54,1.75,1.75,0,0,1,.42-1.1l2.7-.9v-.6c0-.72-.06-1.15-.71-1.15a2.86,2.86,0,0,0-1,.22l-.2.95h-1V5.34ZM49,7.32,47.25,8a.91.91,0,0,0-.24.67c0,.61.35.83.7.83a1.42,1.42,0,0,0,.78-.31l.5-.35Zm7,2.85-1.66,0-.06-.42,1.08-.16V2.37l-1.08-.16.06-.42,1.66,0,2.36,0c1.57,0,2.32.9,2.32,1.81a2.32,2.32,0,0,1-1.9,2.07c1.57.07,2.4,1,2.4,2.06,0,1.62-1.34,2.19-3.24,2.47Zm.62-7.81V5.52h1a1.74,1.74,0,0,0,1.76-1.8,1.35,1.35,0,0,0-1.5-1.42ZM57.71,9.7a1.89,1.89,0,0,0,2.16-1.91A1.7,1.7,0,0,0,58,6.06H56.63V9.64Zm10-2.43c0,1.79-1.09,2.82-3,3.12a2.67,2.67,0,0,1-2.67-2.87c0-1.8,1.09-2.82,3-3.13A2.69,2.69,0,0,1,67.71,7.26ZM65.06,9.79c1,0,1.45-1,1.45-2.28C66.51,6,65.78,5,64.74,5s-1.45,1-1.45,2.29S64,9.79,65.06,9.79Zm9.06-2.53c0,1.79-1.09,2.82-3,3.12A2.67,2.67,0,0,1,68.5,7.51c0-1.8,1.09-2.82,3-3.13A2.69,2.69,0,0,1,74.12,7.26ZM71.47,9.79c1,0,1.45-1,1.45-2.28C72.92,6,72.19,5,71.15,5s-1.45,1-1.45,2.29S70.4,9.79,71.47,9.79Zm8.12.38-.72,0L76.65,7.44l-.13-.3V9.67l.66.12-.06.42-1.14,0-1.38,0-.06-.42.84-.12V2.45l-.84,0-.06-.42,1.44-.37.6,0v5.3l.32-.14,1.94-1.7L78.44,5V4.55l1,0,.9,0L80.4,5l-.64.12L77.49,6.93l.26.16,2.31,2.59.54.12-.06.42ZM5.22,31.87,3.69,36.23l2,.29-.11.7-2.79-.07-2.45.07-.11-.7,1.87-.25L7.83,21.56l.83-.31,6.08,15,1.82.25-.11.7-2.81-.07-3.06.07-.11-.7,2-.29-1.62-4.37Zm3-6.93-.18-1.19-2.5,7.13h4.91ZM20.79,37.15l-3.2.07-.11-.7,2.12-.29V22.41l-2.12-.29.11-.7,3.2.07,4-.07c3,0,4.43,1.67,4.43,3.35a4.43,4.43,0,0,1-3.42,3.94c2.86.11,4.39,1.87,4.39,3.85,0,3.11-2.52,4.12-6.12,4.66Zm.81-14.72v6h2A3.43,3.43,0,0,0,27.16,25c0-1.58-1.06-2.59-2.93-2.63ZM23.81,36.3c3.26,0,4.28-2,4.28-3.65,0-1.87-1.37-3.22-3.71-3.22H21.6v6.77Zm22.37-3.47-.63,3a21.64,21.64,0,0,1-5.36,1.8,7.77,7.77,0,0,1-8-8.12c0-5.22,3.49-7.83,8.33-8.44a9.5,9.5,0,0,1,5.42,1.85v2.77H44.78l-.72-2.07a5.57,5.57,0,0,0-3.83-1.49c-3.51,0-5.85,2.39-5.85,6.89,0,3.58,2.32,7.47,6.53,7.47a4.69,4.69,0,0,0,2.86-1.17L45,32.83Zm4.38-11.34,4.3-.07c4.52,0,7.34,2.63,7.34,7.45,0,5-2.61,7.74-7.61,8.35l-4-.07-3.13.07-.11-.7,2.12-.29V22.41l-2.12-.29.11-.7Zm.9.95V36l3,.23c3.24,0,5.51-2.72,5.51-7.11,0-3.74-2-6.77-6.17-6.82Zm23.22-1,.2,4h-.63L73,22.46l-6.19-.07v6.14l3.33-.09.9-2.36h.67l-.22,2.72.22,3h-.67l-.9-2.34-3.33-.09v6.89l6.42-.07,1.51-3h.74l-.81,4.07-8.76-.07-3.11.07-.11-.7,2.12-.29V22.41l-2.12-.29.11-.7,3.11.07Zm2.22,15.8-.11-.7,2.12-.29V22.41l-2.12-.29.11-.7,3.11.07,8.75-.07.2,3.92h-.63L87.1,22.46l-6.19-.07v6.44l3.33-.09.9-2.34h.68l-.23,2.72.23,3h-.68l-.9-2.36-3.33-.09v6.57l2.7.29-.11.7L80,37.15Zm20.75.38c-4.12,0-7.79-2.81-7.79-8.15,0-5.18,3.26-7.67,8.1-8.42a9.85,9.85,0,0,1,5.56,1.82v2.79h-1l-.72-2a6,6,0,0,0-4.14-1.58c-3.35,0-5.6,2.54-5.6,6.89,0,3.74,2.48,7.47,6.26,7.47a4.68,4.68,0,0,0,3.15-1.33V30.81l-2-.29.11-.68,2.93.07,2.43-.07.09.68-1.53.29v5A44,44,0,0,1,97.65,37.6Zm8-15.48.11-.7,3,.07,2.9-.07.11.7-2,.29v6.1h7.56v-6.1l-2.16-.29.11-.7,3.06.07,2.86-.07.11.7-2,.29V36.23l2,.29-.11.7-2.86-.07-3.06.07-.11-.7,2.16-.29V29.55H109.8v6.68l2,.29-.11.7-2.9-.07-3,.07-.11-.7,2.12-.29V22.41Zm20.14,15-3,.07-.11-.72,2.12-.29V22.41l-2.12-.29.11-.7,3,.07,3-.07.11.7-2.12.29v13.8l2.12.29-.11.72Zm8.64-1.91c0,1.76.2,2.41-.54,3.24l-2.39,2.66h-2v-1.8h2.3l.2-.47c.36-.81.38-1.51.38-3.8V22.41L130,22.12l.11-.7,3.38.07,2.88-.07.11.7-2,.29Zm7.85-6.75,6.33-6.08L147,22.12l.11-.7,2.34.07,2.12-.07.11.7-1.76.36-6.32,6.23L144,29l7,7.31,1.19.2-.11.7-1.91-.07-1.48.07L142,29.82l-.32-.58v7l1.73.29-.11.7-2.61-.07-3,.07-.11-.7,2.12-.29V22.41l-2.12-.29.11-.7,3,.07,2.61-.07.11.7-1.73.29v6.41Zm14.06,8.67-3.11.07-.11-.7,2.12-.29V22.41l-2.12-.29.11-.7,3.11.07,2.9-.07.11.7-2.12.29V36.25l5.83-.07,1.42-3h.79l-.77,4Zm24.89-15.73,2.3.07,2-.07.11.7-2,.29V36.23l1.85.29-.11.7-2.54-.07-3.24.07-.11-.7,2.12-.29V26l.29-2.61L176,37.2h-1.15l-4.59-11.32-.9-2.57V36.23l2.07.29-.2.7-2.39-.07-2.59.07-.11-.7,1.85-.29V22.48l-2-.36.11-.7,2.39.07,2.07-.07,4.91,12.13.25,1.08Zm9.2,14.81,2,.29-.14.7-2.39-.07-2.86.07-.11-.7,2.12-.29V22.62l-2-.5.11-.7,2.16.07,1.46-.07,8.08,11.77.43,1.13V22.41l-2-.29.11-.7,2.41.07,2.84-.07.11.7-2.12.29V37.24h-1.33L190.8,24.57l-.34-1.37ZM218.91,29c0,5-2.59,7.74-7.94,8.6-4.43,0-7.52-3.4-7.52-8,0-5,2.59-7.74,7.94-8.6C215.82,21,218.91,24.44,218.91,29Zm-7.38,7.45c3.62,0,5.18-3.11,5.18-6.73,0-3.26-1.49-7.54-5.85-7.54-3.62,0-5.2,3.08-5.2,6.73C205.65,32.25,207.18,36.46,211.52,36.46Zm7.89-14.34.11-.7,2.95.07,4.14-.07c2.86,0,5,1.35,5,4,0,3-2.75,4.52-5.47,5h-2.61v5.83l2.7.29-.11.7-3.58-.07-3,.07-.11-.7,2.12-.29V22.41Zm4.12,7.25h2a3.56,3.56,0,0,0,3.8-3.67c0-1.94-.95-3.38-3.49-3.38l-2.36.11ZM248.27,29c0,4.59-2.23,7.31-6.8,8.37l2.25.92L246.13,40l1.19.36-.09.65H244l-3.71-3.44c-4.43,0-7.52-3.4-7.52-8,0-5,2.59-7.74,7.95-8.6C245.18,21,248.27,24.44,248.27,29Zm-7.38,7.45c3.62,0,5.18-3.11,5.18-6.73,0-3.26-1.49-7.54-5.85-7.54-3.62,0-5.2,3.08-5.2,6.73C235,32.25,236.54,36.46,240.89,36.46Zm12-6.5v6.28l2,.29-.11.7-2.86-.07-3,.07-.11-.7,2.12-.29V22.41l-2.12-.29.11-.7,3,.07,3.78-.07c3,0,5.31,1.17,5.31,3.92s-2.36,3.87-4.55,4.48l1.31.86,4,5.58,1.26.31-.09.65-1.64-.07-1.49.07-4.91-7L254.7,30Zm0-.92h1.62c2.61,0,4.23-1.53,4.23-3.53s-1.51-3.15-3.42-3.17l-2.43.11Zm13,6.08a4.35,4.35,0,0,0,3.24,1.4,3,3,0,0,0,3.22-3c0-1.67-1.1-2.57-2.45-3.13l-2.7-1.15c-1.55-.65-2.9-1.64-2.9-3.65,0-2.59,2.45-3.94,5.22-4.5a6.72,6.72,0,0,1,3.94,1.31v2.88h-1l-.65-2a3.3,3.3,0,0,0-2.66-1.06c-1.82,0-2.93,1-2.93,2.63,0,1.33.95,2.14,2.23,2.68l2.48,1c1.53.63,3.29,1.73,3.29,4.16,0,2-1.24,4.16-5.49,5a6.64,6.64,0,0,1-4.61-1.53l-.5-2.84h1.46Zm19.31,2.12-3.53-.07-3.69.07-.11-.7,2.79-.29V22.44l-3.58,0-1,2.77h-.79v-3.8l6.32.07,6.44-.07v3.8h-.79l-1-2.77-3.58,0v13.8l2.66.29Zm13.21-15.1.11-.7,2.88.07,2.66-.07.11.7-2,.29v9.32c0,2.93-1.19,4.84-5.67,5.87-4.21,0-5.72-2.39-5.72-6V22.41l-2.12-.29.11-.7,3.13.07,2.9-.07.11.7-2,.29v9.68c0,2.84,1.19,4.43,3.83,4.43,2.36,0,3.69-1.58,3.69-4.5V22.41Zm14.22,15.39-6.17-15.15-1.85-.25.11-.7,2.93.07,3.08-.07.11.7-2,.29,4.19,11.21.16,1.06,4.55-12.27-2-.29.11-.7,2.7.07,2.45-.07.11.7-1.87.25-5.85,14.76Zm22.79,0L332.35,28l-.07-1.26L329.08,37l-1.37.54-4.93-15.15-1.28-.25.11-.7,2.41.07,2.77-.07.11.7-2,.29,3.49,11.52.07,1.15,3-10-.9-2.7L329,22.12l.11-.7,2.61.07,2.79-.07.11.7-2,.29,3.49,11.52,0,1.13,3.87-12.69-2-.25.11-.7,2.68.07,1.82-.07.11.7-1.26.25L336.85,37Zm23-1-.11.72-3.17-.07-3,.07-.11-.72,2-.29-3-5-.4-.9-4,5.92,1.94.27-.11.72L346,37.15l-2.57.07-.11-.72,1.76-.25,4.93-6.8-4.68-7.11-1.84-.25.11-.7,3.35.09,2.93-.09.11.7-2,.29,2.79,4.75L351,28l3.78-5.56-2-.29.11-.7,2.54.07,2.77-.07.11.7-1.8.25-4.7,6.46,5,7.43Zm9.22-5.38,0,5.11,2.63.29-.11.7-3.51-.07-3.67.07-.11-.7,2.77-.29V31l-5.09-8.67-1.85-.25.11-.68,3,.07,2.86-.07.11.68-2,.29,4,6.68.22.79L371,22.39l-2-.29.11-.68,2.75.07,2.59-.07.11.65-1.85.23Zm18.41,2.07h1l-.77,4H375.32l-.2-1.1,8.78-12.94.83-.79-6.93.11-1,2.79h-.9V21.44h10.53l.23,1-8.82,13-.83.83,7.72-.11ZM4.91,53.35c2.75,0,3.35.68,3.35,3.62v4.41a2.62,2.62,0,0,0,.41,1.69H9.81l.07.7-2.59.5-.67-1.71-2.72,2C2,64.54.67,63.48.67,61.7a3.36,3.36,0,0,1,.72-2L6.48,58V56.91c0-1.33,0-2.27-1.39-2.27a6.35,6.35,0,0,0-2,.43l-.4,1.62H1V55.11Zm1.58,5.49L2.9,60.33a1.63,1.63,0,0,0-.43,1.19c0,1.17.68,1.55,1.37,1.55a2.84,2.84,0,0,0,1.55-.63l1.08-.74Zm8.89,5.69a5.84,5.84,0,0,1-3.74-1V49.57l-1.67,0-.11-.68,2.54-.72,1-.09v7.36l2.77-2.14c2.59,0,4.68,1.94,4.68,5.15C20.88,62.49,18.5,64.09,15.37,64.54Zm1.13-9.59a3.86,3.86,0,0,0-2.32,1l-.74.61v6a3.21,3.21,0,0,0,2.43.95c1.94,0,3.13-1.71,3.13-4.37C19,56.64,18,54.95,16.5,54.95ZM29,54.86a2.22,2.22,0,0,0-1.46-.41c-1.67,0-2.93,1.82-2.93,4.32s1.3,4.28,3.56,4.28a5.38,5.38,0,0,0,2.66-1l.27.79a13,13,0,0,1-3.51,1.69c-2.79,0-4.88-1.82-4.88-5.36s2.59-5.2,5.22-5.83a5.42,5.42,0,0,1,3,1.13v2H29.54ZM41.76,61.3A2.85,2.85,0,0,0,42.17,63h1.35l.09.74-2.79.54-.7-1.69-2.95,2c-2.84,0-4.66-2.12-4.66-5.22,0-3.62,2.23-5.56,5.56-6A6.32,6.32,0,0,1,40,54V49.55l-1.67,0-.11-.68,2.61-.7,1-.09Zm-2.54.61L40,61.3v-6a3.08,3.08,0,0,0-2.41-1c-1.91,0-3.15,1.69-3.15,4.41,0,2.57,1,4.16,2.45,4.16A4,4,0,0,0,39.22,61.9Zm7.09-3.49c0,2.72,1.42,4.64,3.92,4.64a6.1,6.1,0,0,0,2.81-1l.32.81a15.49,15.49,0,0,1-3.83,1.64c-2.61,0-5.09-1.87-5.09-5.49s2.25-5.15,5-5.69c2.93,0,3.87,1.85,3.87,4.21v.86Zm4.91-1.08c0-1.73-.34-2.95-2.25-2.95-1.46,0-2.41,1.31-2.63,3.17Zm7-3.49H61v1H58.16v8.48l2.68.11-.11.79-3.24-.07-2.68.07-.11-.7,1.67-.2V54.84h-2v-.36l.63-.74h1.4v-.2a4.57,4.57,0,0,1,1.22-3.22l1.73-2.09h2.75v1.67H59.13l-.45.63c-.32.41-.52,1-.52,2.61Zm11.93.72,1.28-1.22h1.28V55H71.46l-.86.4a2.66,2.66,0,0,1,.25,1.13c0,1.8-1.19,3.26-4.23,4-.27,0-.52,0-.74,0l-1.37,1.55a.74.74,0,0,0,.79.79h4.12c2.07,0,2.9.9,2.9,2.23,0,1.73-2.23,3.65-5.58,4.61-3.35,0-4.82-1.08-4.82-3.2v-.34l2.39-2c-1.58-.63-1.55-1.28-1.55-2.27v0L65,60.31a3.09,3.09,0,0,1-2.34-2.88c0-1.85,1.17-3.29,4.23-4.07A4.47,4.47,0,0,1,70.09,54.57Zm-5,9.86c-1.3,1.46-1.37,1.87-1.37,2.18,0,1.1,1.35,1.89,3.13,1.89s3.6-1.24,3.6-2.93c0-.86-.65-1.15-2.3-1.15Zm1.49-10.11c-1.28,0-2,.92-2,2.41A2.58,2.58,0,0,0,67,59.54a1.9,1.9,0,0,0,2-2.09C69,56.41,68.56,54.32,66.53,54.32Zm10.53,9,1.33.2-.11.7-2-.07-2.52.07-.11-.7,1.67-.2V49.55l-1.64,0-.11-.65L76,48.22l1-.09v7.36l3.26-2.14c2.95,0,3.31,1.17,3.31,4.05v5.92l1.8.2-.11.7-2.52-.07-2,.07-.11-.7,1.17-.2V56.79c0-1.26-.58-1.82-1.53-1.82a5.91,5.91,0,0,0-2.52,1.08l-.74.45Zm12.17.83-2.52.07-.11-.7,1.67-.2V55l-1.67.13-.11-.7L89,53.71l1-.09v9.7l1.8.2-.11.7ZM88.18,48.71l1.46-.11.59.11.11,1.17-.23,1L88.67,51l-.56-.13L88,49.73Zm6.1,18.5a4.37,4.37,0,0,0,.47-2.36V55l-1.67.13-.11-.7,2.54-.72,1-.09V64.54a3.83,3.83,0,0,1-.95,2.75l-1.89,2.21H91.93V67.71H94Zm.38-18.5,1.46-.11.58.11.11,1.17-.22,1L95.15,51l-.56-.13-.13-1.17Zm13.59,15.44-1.28.07L102.65,59l-.23-.45v4.82l1.35.2-.11.7-2-.07-2.61.07-.11-.7,1.67-.2V49.59l-1.64,0-.11-.7,2.52-.72,1-.09v10l.61-.25,3.67-3.29-.47-.2v-.7l1.71.07,1.57-.07.11.7-1.17.2-4.34,3.58.4.25L109,63.32l1,.2-.09.7Zm5.31,0-2.52.07-.11-.7,1.67-.2V49.59l-1.64,0-.11-.7,2.52-.72,1-.09V63.32l1.8.2-.11.7Zm19,0-2,.07-.11-.7,1.22-.2V56.79c0-1.26-.54-1.8-1.4-1.8a4.76,4.76,0,0,0-2.43,1.08l-.72.5v6.75l1.06.2-.11.7-1.76-.07-1.94.07-.11-.7,1.08-.2V56.79c0-1.26-.54-1.8-1.4-1.8a4.76,4.76,0,0,0-2.43,1.08l-.74.5v6.75l1.22.2-.11.7L120,64.15l-2.59.07-.11-.7,1.67-.2V55l-1.64.16-.11-.7,2.57-.72.86-.07.09,1.89,3.13-2.18c2.18,0,2.9.7,3.15,2.23l3.15-2.23c2.95,0,3.29,1.17,3.29,4.05v5.92l1.8.2-.11.7Zm6.23,0-2.52.07-.11-.7,1.67-.2V55l-1.64.16-.11-.7,2.52-.72.86-.07.13,1.91,3.31-2.21c2.95,0,3.31,1,3.31,3.74v6.23l1.82.2-.11.7-2.52-.07-2,.07-.11-.7,1.19-.2V56.79c0-1.26-.56-1.82-1.6-1.82a4.84,4.84,0,0,0-2.45,1.08l-.74.47v6.8l1.33.2-.11.7Zm20.36-5.42c0,3.24-1.85,5.29-5.38,5.81-3,0-5-2.36-5-5.36,0-3.26,1.85-5.27,5.4-5.83C157.16,53.35,159.14,55.74,159.14,58.73Zm-4.86,4.77c2,0,3-2.07,3-4.46,0-2.66-1.46-4.66-3.65-4.66-2,0-3,2.07-3,4.5S152,63.5,154.28,63.5Zm9.25.5v4.48l2.45.23-.11.7-3.15-.07-2.54.07-.11-.7,1.67-.23V54.95l-1.67.16-.11-.68,2.57-.72.86-.07.11,1.87,2.84-2.16c3.13,0,4.66,2,4.66,5.31,0,3.83-2.39,5.45-5.54,5.87A3.71,3.71,0,0,1,163.53,64Zm3.11-9.16A4.44,4.44,0,0,0,164.27,56l-.74.56v5.6a3.19,3.19,0,0,0,2.68,1.35c1.73,0,2.88-1.64,2.88-4.21S168.1,54.84,166.64,54.84Zm14.9-1.37h.27v15l1.67.23-.11.7-2.54-.07-3.15.07-.11-.7,2.45-.23V62.71l-2.68,1.82c-2.9,0-4.79-2-4.79-5.36,0-3.47,2.16-5.42,5.72-5.83a5.85,5.85,0,0,1,2.52,1Zm-3,9.16,1.44-1V56a2.19,2.19,0,0,0-2.3-1.64c-2.07,0-3.29,1.67-3.29,4.28,0,2.77,1.31,4.41,2.79,4.41A2.6,2.6,0,0,0,178.56,62.62Zm8.86-6.17,2.61-3h1.71v2h-1.46A5.18,5.18,0,0,0,188,57.06l-.49.61v5.56l2.34.2-.11.79-3.06-.07-2.43.07-.11-.7,1.67-.2V55l-1.67.16-.11-.7,2.61-.72.81-.07Zm11.27-1.67a4.48,4.48,0,0,0-1.71-.43,1.57,1.57,0,0,0-1.76,1.42c0,.74.61,1.22,1.55,1.71l1.76.9c1.55.79,2.09,1.62,2.09,2.88,0,2-1.64,2.72-4.1,3.26a6.75,6.75,0,0,1-3.35-1.06l-.43-2.32h1.42l.83,1.91a3.7,3.7,0,0,0,1.78.43,1.75,1.75,0,0,0,1.89-1.85c0-.95-.52-1.35-1.71-2l-1.82-.95a2.93,2.93,0,0,1-1.78-2.52c0-1.55,1.58-2.39,3.92-2.86a6.27,6.27,0,0,1,3.11,1.08v2h-1.17Zm2.7.07v-.38l.77-.74h1.55V52.29L205,50.9h.43v3h3.51v.95h-3.49v6.77c0,.61.2,1.33,1.21,1.33a4,4,0,0,0,1.78-.52l.34.67-2.5,1.42c-2.7,0-2.63-1-2.63-2.86V54.86Zm18,6.44a4.23,4.23,0,0,0,.25,1.73h1.19l.09.7-2.63.54-.63-1.78-3.31,2c-3,0-3.4-1.15-3.4-3.74V55l-1.69.11-.11-.81,2.61-.56,1-.09v7.54c0,1.24.52,1.76,1.67,1.76a6,6,0,0,0,2.72-1.26l.47-.29V55l-1.42.11-.11-.81,2.36-.56,1-.09Zm8.44,1.6,2.81-8.31-1-.23.11-.7,1.94.07,1.91-.07.11.7-1.49.23-3.76,9.25-1.4.7-3.87-9.95-1.49-.23.11-.7,2.45.07,2.3-.07.11.7-1.58.23,2.57,6.84ZM243.25,58l-.11-1.46-2.7,7.31-1.6.7-3.44-9.93-1.49-.23.11-.7,2.34.07,2-.07.11.7-1.33.23,2.32,7,.18,1.19,2.68-7.36-.29-.81-.95-.23.11-.7,1.8.07,2-.07.11.7-1.3.23,2.32,7,.18,1.19,2.93-8.17-1-.23.11-.7,1.51.07,2.29-.07.11.7-1.49.23-3.69,9.23-1.6.7Zm13.63,5.56-.11.7-1.58-.07-2.45.07-.11-.7,1.69-.23,3.31-4.21-3.26-4.48-1.44-.23.11-.72,2.57.07,1.82-.07.11.72-.86.23,1.76,2.66.18.52,2.09-3.17-1.19-.23.11-.72,1.67.07,2.43-.07.11.72-1.71.23-2.93,3.65,3.51,5,1.49.23-.11.7-2.66-.07-1.8.07-.11-.7.92-.23-2.09-3.13-.14-.43-2.39,3.56Zm9.31,6v-2h1.71L270.11,64l-.52.16-3.69-9.54-1.49-.23.11-.7,2.45.07,2.29-.07.11.7-1.58.23,2.45,6.84.16,1.44,2.79-8.28-1-.23.11-.7,1.94.07,1.87-.07.11.7-1.49.23-3.6,9.3-2.5,5.6Zm11.27-5.29-.25-.65,6-8.35.83-.68-4.7.09-.72,2h-.81V53.69h7.85l.32.65-6.12,8.48-.72.54,4.91-.07,1.24-2.09h.88l-.63,3ZM4.5,82.38l-.95.45L1,83.41l-.38-.74,5.06-2.09H6.3v9.57l3.58.38-.11.7-4.43-.07-4.41.07-.11-.7,3.58-.38V82.78Zm10.15,7h6.42v.59l-.54,1.26H11.09l-.43-.95,4-3c2-1.55,3.08-2.57,3.08-3.65a1.92,1.92,0,0,0-2.16-2,2.55,2.55,0,0,0-1.44.43l-.83,2.3H11.86V81.93L16,80.35c2.34,0,3.87,1.17,3.87,2.88,0,2.14-1.4,3.2-3.85,4.68l-3.33,2ZM27,94.53a3.56,3.56,0,0,0,2.23-3.26c0-1.55-1.49-2.81-4.37-2.81l-.23-.56,1.1-.47c1.87-.79,2.81-1.82,2.81-3.53a2.17,2.17,0,0,0-2.07-2.39,3.7,3.7,0,0,0-1.64.43L24,84.25H22.54V81.93l4.12-1.58c2.72,0,3.85,1.46,3.85,3a4.51,4.51,0,0,1-3,4.07c2.27.16,3.71,1.55,3.71,3.2,0,3-2.23,4-4.68,5l-1.71.7H22.3V94.53Zm14.22-4.82h3.24V91H41.22v5.42H39.33V91H33.12l-.74-.7,7.36-9.57h2.14v.68L34.29,90l.83-.29h4.21V87.28l1.33-1.15h.56Zm6.16-7.2-.59,4.7L49.3,86c4.55,0,5.22,3.17,5.22,4.25,0,3.31-2.39,4.48-5,5.49l-1.69.68H45.47V94.53H50a4.05,4.05,0,0,0,2.45-3.47,3.14,3.14,0,0,0-3.42-3.15,5.2,5.2,0,0,0-2.12.38l-.74.29-.63-.31.9-7.58h7.68v.61l-.47,1.22Zm13.39,9c-2.95,0-4.68-2.7-4.68-6.41,0-4.32,2.32-7.83,8-10.15l.34.86c-4.73,2.36-5.94,4.57-6.14,7.72l3.26-2.41c3.13,0,4.5,2.39,4.5,5C66,89.08,64.08,90.82,60.77,91.54Zm.7-8.73a3.7,3.7,0,0,0-2.23,1.06l-1,.83c0,2.79.56,5.81,2.93,5.81,1.8,0,3-1.78,3-4.05C64.13,84,62.82,82.8,61.47,82.8Zm5.33-2.12h9.86l.32.38L70.7,96.38H68.83v-.54l5.76-12.56.83-.79H66.8ZM83.54,91.54c-2.79,0-4.82-1.8-4.82-4.05,0-1.69,1-3.42,3.33-4.5-1.78-1.06-2.81-2.25-2.81-3.87,0-1.91,1.62-3.29,4.79-4,2.72,0,4.48,1.31,4.48,3.22s-1.42,3.33-3.24,4.39c1.89,1.15,3.58,2.34,3.58,4.25C88.85,89.42,87,90.84,83.54,91.54Zm.27-1.06a2.9,2.9,0,0,0,3.08-2.77c0-2.21-2.75-3.51-4.19-4.34a3.48,3.48,0,0,0-2,3.47C80.73,88.7,81.95,90.48,83.81,90.48Zm-.09-14.31a2.33,2.33,0,0,0-2.5,2.41c0,1.53,1.85,2.72,3.42,3.71a3.46,3.46,0,0,0,1.87-3.17A2.7,2.7,0,0,0,83.72,76.17Zm12,4.19c2.95,0,4.68,2.61,4.68,6.44,0,4.16-2.27,7.63-7.85,9.9l-.34-.86c4.59-2.34,5.78-4.46,6-7.52L95,90.7c-3.13,0-4.5-2.43-4.5-4.88C90.47,82.83,92.25,81.12,95.74,80.35ZM94.93,89A3.58,3.58,0,0,0,97.27,88l1-.79c0-3.08-.59-5.78-2.9-5.78-1.8,0-3,1.58-3,4.19C92.39,87.69,93.69,89,94.93,89Zm18.9-3.33c0,3-2,4.88-5.72,5.85a5.47,5.47,0,0,1-5.67-5.33c0-3,2-4.86,5.72-5.85A5.48,5.48,0,0,1,113.83,85.69Zm-5.33,4.73c2.07,0,3.17-2.16,3.17-4.14,0-2.43-1.12-4.79-3.89-4.79-2.07,0-3.15,2.16-3.15,4.14C104.63,88,105.73,90.41,108.5,90.41Z"/><path id="GTSecReg" class="cls-1" d="M4.68,136.41a4.05,4.05,0,0,1-4.2-4.29c0-2.79,1.76-4.11,4.44-4.53a5.36,5.36,0,0,1,2.94.94v1.62h-.6l-.38-1.08a2.93,2.93,0,0,0-2.12-.85c-1.74,0-2.89,1.32-2.89,3.61,0,2,1.25,3.93,3.18,3.93a2.33,2.33,0,0,0,1.56-.64v-2.28l-1.08-.16.06-.42,1.65,0,1.34,0,.06.42-.78.16v2.64A18.46,18.46,0,0,1,4.68,136.41Zm9.54-.2-1.94,0-2,0-.06-.42,1.44-.16v-7.27l-1.8,0-.55,1.52H8.82v-2.12l3.44,0,3.45,0v2.12h-.47l-.55-1.52-1.8,0v7.27l1.38.16Zm6.3-1.21a2.24,2.24,0,0,0,1.69.76,1.48,1.48,0,0,0,1.63-1.52,1.72,1.72,0,0,0-1.25-1.6L21.14,132a2.14,2.14,0,0,1-1.57-2c0-1.31,1.2-2.08,2.87-2.42a3.85,3.85,0,0,1,2.19.7v1.62H24l-.35-1.09a1.78,1.78,0,0,0-1.41-.59c-.95,0-1.51.52-1.51,1.32s.47,1.07,1.13,1.35l1.38.6A2.38,2.38,0,0,1,25,133.72c0,1.13-.77,2.22-3,2.69a3.74,3.74,0,0,1-2.48-.82L19.26,134h.84Zm6.6-1.86c0,1.37.73,2.34,2,2.34a3.11,3.11,0,0,0,1.5-.5l.19.46a7.3,7.3,0,0,1-2.1.95,2.72,2.72,0,0,1-2.76-2.91,3,3,0,0,1,2.71-3.08c1.58,0,2.12,1,2.12,2.25v.5Zm2.41-.6c0-.92-.18-1.56-1.1-1.56-.73,0-1.2.68-1.3,1.68ZM35,131.21a1,1,0,0,0-.7-.19c-.81,0-1.44.91-1.44,2.22s.7,2.24,1.87,2.24a2.62,2.62,0,0,0,1.36-.5l.19.46a6.73,6.73,0,0,1-2,.95,2.58,2.58,0,0,1-2.67-2.85c0-1.88,1.38-2.78,2.85-3.14a2.86,2.86,0,0,1,1.66.6v1.2h-.89Zm1.65,0V131l.42-.42h.78v-.78l.78-.78h.31v1.64h1.81v.54h-1.8v3.51c0,.35.13.72.64.72a2,2,0,0,0,.95-.29l.2.41-1.4.78c-1.34,0-1.52-.48-1.52-1.56v-3.57Zm6.49.88,1.37-1.68h1v1.2h-.89a2.74,2.74,0,0,0-1.14.85l-.24.29v2.85l1.26.12-.06.46-1.74,0-1.34,0-.06-.42.84-.12v-4.38l-.84.07-.06-.42,1.44-.37.48,0Zm5.11-1.74c1.51,0,1.9.38,1.9,1.91v2.35a1.46,1.46,0,0,0,.2.9h.6l0,.42-1.55.3-.37-.92-1.43,1a1.56,1.56,0,0,1-1.76-1.54,1.75,1.75,0,0,1,.42-1.1l2.7-.9v-.6c0-.72-.06-1.15-.71-1.15a2.86,2.86,0,0,0-1,.22l-.2.95h-1v-.91Zm.75,2.94-1.74.72a.91.91,0,0,0-.24.67c0,.61.35.83.7.83a1.42,1.42,0,0,0,.78-.31l.5-.35Zm7.63-1v3.29l1,.16-.06.42-1.58,0-1.66,0-.06-.42,1.08-.16v-7.27l-1.08-.16.06-.42,1.66,0,2.18,0c1.57,0,2.77.65,2.77,2.09s-1.25,2-2.47,2.35l.84.49,2.06,2.91.65.18,0,.4-1,0-.84,0-2.54-3.73-.14-.13Zm0-.54h.84a1.89,1.89,0,0,0,2.1-1.85,1.59,1.59,0,0,0-1.74-1.67l-1.2.07Zm6.71,1.33c0,1.37.73,2.34,2,2.34a3.1,3.1,0,0,0,1.5-.5l.19.46a7.32,7.32,0,0,1-2.1.95,2.72,2.72,0,0,1-2.76-2.91,3,3,0,0,1,2.71-3.08c1.58,0,2.12,1,2.12,2.25v.5Zm2.41-.6c0-.92-.18-1.56-1.1-1.56-.73,0-1.2.68-1.29,1.68Zm6.4-1.43.65-.73h.72v1h-.72l-.4.19a1.54,1.54,0,0,1,.12.58c0,1-.71,1.74-2.34,2.16a2.92,2.92,0,0,1-.47,0l-.65.74a.42.42,0,0,0,.47.42h2.2c1.09,0,1.57.5,1.57,1.24,0,1-1.25,1.94-3.06,2.48-1.74,0-2.61-.54-2.61-1.66v-.2l1.31-1c-.84-.31-.9-.7-.9-1.25v-.07l1.2-.83A1.69,1.69,0,0,1,68,132.54c0-1,.7-1.74,2.34-2.16A2.35,2.35,0,0,1,72.14,131.11Zm-2.78,5.27c-.61.67-.66.89-.66,1.06,0,.56.65,1,1.63,1A1.68,1.68,0,0,0,72.15,137c0-.43-.32-.61-1.14-.61Zm.78-5.44c-.65,0-1,.5-1,1.27,0,.58.25,1.51,1.24,1.51a1,1,0,0,0,1-1.14C71.37,131.95,71.12,130.93,70.14,130.93Zm9.13,3.71a2,2,0,0,0,.14.9H80l0,.42-1.55.3-.34-1-1.74,1.09c-1.58,0-1.85-.56-1.85-2v-3.13l-.84.06-.06-.47,1.44-.31.6,0v4c0,.62.26.9.85.9a2.91,2.91,0,0,0,1.31-.6l.24-.16v-3.37l-.72.06-.06-.47,1.32-.31.6,0ZM82,136.17l-1.38,0-.06-.42.84-.12v-7.22l-.84,0-.06-.42,1.44-.37.6,0v8l.9.12-.06.42Zm4.34-5.79c1.51,0,1.89.38,1.89,1.91v2.35a1.46,1.46,0,0,0,.2.9h.6l0,.42-1.55.3-.37-.92-1.43,1A1.56,1.56,0,0,1,84,134.84a1.76,1.76,0,0,1,.42-1.1l2.7-.9v-.6c0-.72-.06-1.15-.71-1.15a2.87,2.87,0,0,0-1,.22l-.2.95h-1v-.91Zm.76,2.94L85.4,134a.91.91,0,0,0-.24.67c0,.61.35.83.7.83a1.42,1.42,0,0,0,.78-.31l.5-.35Zm4.36-1.2,1.37-1.68h1v1.2h-.89a2.74,2.74,0,0,0-1.14.85l-.24.29v2.85l1.26.12-.06.46-1.74,0-1.34,0-.06-.42.84-.12v-4.38l-.84.07-.06-.42,1.44-.37.48,0ZM5.06,157.93,3.6,162.14l2,.29-.11.79-2.7-.07-2.41.07-.11-.79L2,162.18,7.56,147.6l1.35-.38,5.87,15,1.75.25-.11.79-3.11-.07-3,.07-.11-.79,1.91-.29-1.53-4.21Zm3-7-.16-1.22-2.47,7.16h4.79Zm12.6,12.22-3.11.07-.11-.79,2-.29V148.5l-2-.29.11-.79,3.11.07,4.43-.07c2.95,0,4.34,1.69,4.34,3.4a4.35,4.35,0,0,1-3.56,3.89c2.95.13,4.5,1.85,4.5,3.87,0,3-2.52,4.12-6.08,4.64Zm1.17-14.65v5.92h1.87A3.26,3.26,0,0,0,27,151c0-1.58-1-2.61-2.81-2.66Zm2,13.75c3.08,0,4.05-2,4.05-3.58,0-1.87-1.31-3.24-3.56-3.24H21.83v6.71Zm22.48-3.65-.58,3.24a21.7,21.7,0,0,1-5.47,1.76,7.78,7.78,0,0,1-8.1-8.08c0-5.24,3.49-7.81,8.51-8.48a9.81,9.81,0,0,1,5.38,1.76v3H44.82l-.72-2.09a5.13,5.13,0,0,0-3.74-1.53c-3.33,0-5.6,2.36-5.6,6.77,0,3.65,2.23,7.38,6.17,7.38a4.55,4.55,0,0,0,2.95-1.26l1.22-2.5Zm4.27-11.12,4.48-.07c4.59,0,7.43,2.63,7.43,7.45s-2.54,7.77-7.65,8.35l-4.25-.07-3,.07-.11-.79,2-.29V148.5l-2-.29.11-.79Zm1.24,1V162l2.81.23c3.13,0,5.24-2.81,5.24-7,0-3.78-2-6.77-5.87-6.77Zm23.38-1.08.23,4.05h-.77l-1.26-2.93-6-.07v6l3.15-.09.9-2.36h.79l-.23,2.81.23,3h-.79l-.9-2.36-3.15-.09v6.75l6.19-.07,1.51-3H76l-.79,4.16-8.93-.07-3.11.07-.11-.79,2-.29V148.5l-2-.29.11-.79,3.11.07Zm2.13,15.8-.11-.79,2-.29V148.5l-2-.29.11-.79,3.11.07,8.94-.07.22,4.05h-.76l-1.26-2.93-6-.07v6.3l3.15-.09.9-2.36h.79l-.22,2.81.22,3h-.79l-.9-2.36-3.15-.09v6.41l2.7.29-.11.79-3.76-.07Zm20.93.38c-4.16,0-7.88-2.81-7.88-8.06s3.31-7.72,8.33-8.51a10,10,0,0,1,5.51,1.76v3h-1.12l-.72-2a5.49,5.49,0,0,0-4-1.6c-3.26,0-5.42,2.48-5.42,6.77,0,3.78,2.34,7.38,6,7.38a4.38,4.38,0,0,0,2.93-1.19v-4.28l-2-.29.11-.79,3.11.07,2.52-.07.11.79-1.46.29v5A34.67,34.67,0,0,1,98.28,163.6Zm8.1-15.39.11-.79,3.11.07,3-.07.11.79-1.91.29v6H118v-6l-2-.29.11-.79,3.11.07,3-.07.11.79-1.91.29v13.64l1.91.29-.11.79-3-.07-3.11.07-.11-.79,2-.29v-6.55h-7.2v6.55l1.91.29-.11.79-3-.07-3.11.07-.11-.79,2-.29V148.5Zm20.43,14.94-3.11.07-.11-.81,2-.29V148.5l-2-.29.11-.79,3.11.07,3.08-.07.11.79-2,.29v13.62l2,.29-.11.81Zm9.16-2.21c0,1.91-.2,2.81-1,3.71l-2.25,2.48h-2v-2H133l.2-.47c.34-.79.36-1.53.36-3.58V148.5l-2.48-.29.11-.79,3.56.07,3-.07.11.79-1.91.29Zm8.05-6.48,6.21-6-1.64-.29.11-.79,2.39.07,2.25-.07.11.79-1.73.34-6.3,6.14.56.31,6.82,7.2,1.19.23-.11.79-1.91-.07-1.76.07-6.48-7.34-.34-.65v6.91l1.69.29-.11.79-2.75-.07-3.11.07-.11-.79,2-.29V148.5l-2-.29.11-.79,3.11.07,2.75-.07.11.79-1.69.29v6.3Zm14.08,8.69-3.11.07-.11-.79,2-.29V148.5l-2-.29.11-.79,3.11.07,3.08-.07.11.79-2,.29v13.66l5.63-.07,1.51-3h.85l-.79,4.16ZM183,147.42l2.5.07,2.09-.07.11.79-1.91.29v13.64l1.8.29-.11.79-2.7-.07-3.26.07-.11-.79,2-.29V151.85l.29-2.63-5.69,14h-1.4l-4.52-11.37-.83-2.61v12.92l2,.29-.18.79-2.41-.07-2.54.07-.11-.79,1.8-.29V148.54l-1.91-.34.11-.79,2.32.07,2.47-.07,4.73,11.91.18,1.26Zm9.54,14.72,1.91.29-.11.79-2.41-.07-2.77.07-.11-.79,2-.29V148.66l-1.94-.45.11-.79,2.09.07,1.69-.07L201,158.56l.47,1.33V148.5l-1.91-.29.11-.79,2.41.07,2.77-.07.11.79-2,.29v14.74h-1.42L193,151l-.38-1.55ZM221.22,155c0,5-2.54,7.7-8.1,8.62-4.55,0-7.65-3.4-7.65-7.94,0-5,2.54-7.7,8.1-8.62C218.12,147,221.22,150.43,221.22,155Zm-7.54,7.38c3.47,0,5-3,5-6.64,0-3.29-1.46-7.45-5.61-7.45-3.46,0-5,3-5,6.64C208.06,158.27,209.57,162.36,213.68,162.36Zm8.1-14.16.11-.79,3,.07,4.39-.07c2.81,0,5,1.35,5,4,0,3-2.84,4.43-5.63,5h-2.48v5.72l2.7.29-.11.79-3.76-.07-3.11.07-.11-.79,2-.29V148.5Zm4.39,7.09h1.91a3.44,3.44,0,0,0,3.6-3.6,3,3,0,0,0-3.38-3.33l-2.14.14Zm25-.31c0,4.57-2.14,7.22-6.77,8.35l2.21.88,2.36,1.71,1.28.36-.09.74h-3.42L243,163.6c-4.55,0-7.65-3.4-7.65-7.94,0-5,2.54-7.7,8.1-8.62C248,147,251.15,150.43,251.15,155Zm-7.54,7.38c3.47,0,5-3,5-6.64,0-3.29-1.46-7.45-5.6-7.45-3.47,0-5,3-5,6.64C238,158.27,239.49,162.36,243.61,162.36ZM256.09,156v6.17l1.91.29-.11.79-3-.07-3.11.07-.11-.79,2-.29V148.5l-2-.29.11-.79,3.11.07,4.1-.07c2.95,0,5.2,1.22,5.2,3.92s-2.34,3.83-4.64,4.41l1.58.92,3.87,5.47,1.21.34-.09.74-1.85-.07-1.58.07-4.77-7-.27-.25Zm0-1h1.58c2.38,0,3.94-1.46,3.94-3.47a3,3,0,0,0-3.26-3.13l-2.25.14Zm13.07,6a4.21,4.21,0,0,0,3.17,1.42,2.79,2.79,0,0,0,3.06-2.86c0-1.53-1-2.41-2.34-3l-2.72-1.19c-1.62-.7-2.95-1.73-2.95-3.74,0-2.45,2.25-3.89,5.38-4.55a7.22,7.22,0,0,1,4.12,1.31v3h-1.13l-.65-2a3.34,3.34,0,0,0-2.66-1.1c-1.78,0-2.84,1-2.84,2.48,0,1.24.88,2,2.12,2.54l2.59,1.13c1.78.77,3.33,1.89,3.31,4.19,0,2.12-1.44,4.16-5.67,5a7,7,0,0,1-4.66-1.53l-.5-3h1.58Zm19.62,2.27-3.65-.07-3.78.07-.11-.79,2.7-.29V148.5l-3.38,0-1,2.86h-.88v-4l6.46.07,6.48-.07v4h-.88l-1-2.86-3.37,0v13.64l2.59.29Zm13.36-15,.11-.79,2.88.07,2.63-.07.11.79-1.91.29v9.18c0,2.93-1.19,4.88-5.67,5.92-4.43,0-6-2.39-6-6V148.5l-2-.29.11-.79,3.11.07,3.08-.07.11.79-1.91.29V158c0,2.79,1.19,4.39,3.76,4.39,2.34,0,3.65-1.58,3.65-4.46V148.5Zm13.9,15.33-6-15.08-1.76-.25.11-.79,3.17.07,3-.07.11.79-1.91.29,4.05,11,.11,1.17,4.43-12.18-2-.29.11-.79,2.63.07,2.41-.07.11.79-1.76.25-5.69,14.63Zm23.18,0L336.11,154l-.07-1.33L332.82,163l-1.55.56-4.93-15.08-1.31-.25.11-.79,2.72.07,2.75-.07.11.79-1.91.29,3.38,11,0,1.26,2.93-9.72-.86-2.59-1.42-.25.11-.79,2.84.07,2.75-.07.11.79-1.91.29,3.38,11,0,1.26,3.71-12.31-1.94-.25.11-.79,2.59.07,2-.07.11.79-1.31.25L340.79,163Zm23.44-1.12-.11.81-3.08-.07-3.22.07-.11-.81,1.91-.29-3-4.82-.38-.92-3.94,5.76,1.84.27-.11.81-2.63-.07-2.52.07-.11-.81,1.75-.25,4.86-6.68-4.66-7-1.76-.25.11-.79,3.22.09,3.2-.09.11.79-1.91.29,2.77,4.59.29.85,3.69-5.42-2-.29.11-.79,2.63.07,2.63-.07.11.79-1.75.25L356,154.8l5,7.36Zm9.45-5.31,0,5,2.59.29-.11.79-3.65-.07-3.78.07-.11-.79,2.7-.29V157l-5-8.57-1.76-.25.11-.77,3.11.07,3-.07.11.77-1.91.29,3.87,6.53.18.88,3.89-7.4-2-.29.11-.77,2.68.07,2.5-.07.11.74-1.76.25Zm18.32,2h1.08l-.79,4.14H379.57l-.23-1.13,8.55-12.83.9-.79-6.66.11-1,2.81h-1v-3.94h10.71l.23,1-8.6,12.92-.9.81,7.38-.11ZM5.11,179.28c2.84,0,3.56.72,3.56,3.58v4.41A2.74,2.74,0,0,0,9,189h1.12l.09.79-2.9.56-.7-1.73-2.68,2c-1.94,0-3.31-1.08-3.31-2.88a3.3,3.3,0,0,1,.79-2.07l5.06-1.69v-1.13c0-1.35-.11-2.16-1.33-2.16a5.39,5.39,0,0,0-1.85.41L3,182.79H1v-1.71Zm1.42,5.51-3.26,1.35a1.71,1.71,0,0,0-.45,1.26c0,1.15.65,1.55,1.3,1.55a2.66,2.66,0,0,0,1.46-.59l.95-.65Zm9.34,5.74a6.8,6.8,0,0,1-3.92-1V175.63l-1.58,0-.11-.77,2.7-.7,1.13-.09v7.29l2.84-2.14c2.47,0,4.59,1.94,4.59,5.13C21.51,188.3,19.22,190,15.86,190.53Zm1.06-9.45a3.65,3.65,0,0,0-2.16.92l-.67.54v6a2.91,2.91,0,0,0,2.23.9c1.8,0,2.95-1.64,2.95-4.3C19.26,182.61,18.27,181.08,16.92,181.08Zm12.55-.25a1.92,1.92,0,0,0-1.31-.36c-1.53,0-2.7,1.71-2.7,4.16s1.31,4.21,3.51,4.21a4.91,4.91,0,0,0,2.54-.95l.36.86a12.66,12.66,0,0,1-3.67,1.78c-2.88,0-5-1.89-5-5.36s2.59-5.22,5.36-5.9a5.37,5.37,0,0,1,3.11,1.13v2.25H30Zm13.32,6.44a2.68,2.68,0,0,0,.38,1.64h1.26l.09.83-3,.56-.7-1.73-2.9,2c-2.86,0-4.68-2.14-4.68-5.24,0-3.65,2.23-5.56,5.51-6a6.26,6.26,0,0,1,1.91.61v-4.25l-1.57,0-.11-.77,2.7-.7,1.13-.09Zm-2.81.54.67-.54v-6a2.91,2.91,0,0,0-2.23-.9c-1.8,0-2.95,1.64-2.95,4.3,0,2.5,1,4,2.34,4A3.65,3.65,0,0,0,40,187.81Zm7.54-3.35c0,2.57,1.37,4.39,3.74,4.39a5.82,5.82,0,0,0,2.81-.95l.36.86a13.71,13.71,0,0,1-3.94,1.78,5.1,5.1,0,0,1-5.18-5.47c0-3.33,2-5.11,5.09-5.78,3,0,4,1.87,4,4.23v.95ZM52,183.33c0-1.73-.34-2.93-2.07-2.93-1.37,0-2.25,1.28-2.43,3.15Zm7.45-3.49H62.3v1.06H59.49v8.31l2.59.16-.11.85-3.49-.07-2.59.07-.11-.79,1.58-.23V180.9h-2v-.38l.68-.79h1.3v-.23a4.36,4.36,0,0,1,1.24-3.15l1.89-2.14h2.84V176H60.39l-.43.61a4.23,4.23,0,0,0-.47,2.54Zm12.2.81,1.22-1.37h1.35v1.82H72.9l-.74.36a2.88,2.88,0,0,1,.23,1.08c0,1.91-1.33,3.26-4.39,4.05a5.46,5.46,0,0,1-.88,0l-1.21,1.4a.78.78,0,0,0,.88.79H70.9c2,0,2.95.95,2.95,2.32,0,1.85-2.34,3.65-5.74,4.66-3.26,0-4.91-1-4.91-3.11v-.38l2.45-1.89C64.08,189.75,64,189,64,188v-.14l2.25-1.55a3.16,3.16,0,0,1-2.34-3c0-1.91,1.3-3.26,4.39-4.05A4.41,4.41,0,0,1,71.69,180.65Zm-5.22,9.88c-1.15,1.26-1.24,1.67-1.24,2,0,1.06,1.21,1.87,3.06,1.87s3.42-1.19,3.42-2.7c0-.81-.61-1.15-2.14-1.15Zm1.46-10.22c-1.22,0-1.91.95-1.91,2.39,0,1.08.47,2.84,2.32,2.84a1.88,1.88,0,0,0,1.91-2.14C70.25,182.23,69.77,180.31,67.93,180.31Zm10.93,8.89,1.24.23-.11.79-2.14-.07-2.59.07-.11-.79,1.58-.23V175.63l-1.58,0-.11-.77,2.7-.7,1.13-.09v7.29l3.29-2.14c2.88,0,3.35,1.08,3.35,3.94v6l1.69.23-.11.79-2.59-.07-2.12.07-.11-.79,1.1-.23v-6.44c0-1.17-.54-1.69-1.44-1.69a5.43,5.43,0,0,0-2.39,1l-.67.43Zm12.19.95-2.59.07-.11-.79,1.58-.23V181l-1.58.13-.11-.79,2.7-.7,1.13-.09v9.66l1.69.23-.11.79Zm-1.12-15.48,1.62-.11.63.11.11,1.26L92,177l-1.6.14-.61-.14-.13-1.26ZM96.14,193a5.26,5.26,0,0,0,.43-2.48V181l-1.58.13-.11-.79,2.7-.7,1.13-.09V190.2a4.36,4.36,0,0,1-1.24,3.15l-1.89,2.14H93.76v-2h2.16Zm.43-18.34,1.62-.11.63.11.11,1.26L98.69,177l-1.6.14-.61-.14-.13-1.26Zm14,15.48-1.35.07L105,185l-.25-.56v4.75l1.24.23-.11.79-2.14-.07-2.59.07-.11-.79,1.58-.23V175.66l-1.58,0-.11-.79,2.7-.7,1.13-.09v9.95l.61-.27,3.65-3.2-.65-.23v-.79l1.87.07,1.69-.07.11.79-1.19.23-4.25,3.44.5.29,4.34,4.86,1,.23-.11.79Zm5.51,0-2.59.07-.11-.79,1.58-.23V175.66l-1.58,0-.11-.79,2.7-.7,1.13-.09v15.08l1.69.23-.11.79Zm19.35,0-2.14.07-.11-.79,1.13-.23v-6.44c0-1.17-.5-1.69-1.31-1.69a4.52,4.52,0,0,0-2.29,1l-.68.47v6.64l1,.23-.11.79-1.91-.07-2,.07-.11-.79,1-.23v-6.44c0-1.17-.5-1.69-1.31-1.69a4.51,4.51,0,0,0-2.29,1l-.68.47v6.64l1.13.23-.11.79-2-.07-2.59.07-.11-.79,1.58-.23V181l-1.58.13-.11-.79,2.7-.7,1-.07.11,1.87,3.11-2.16c2.18,0,3,.65,3.24,2.21l3.17-2.21c2.88,0,3.35,1.08,3.35,3.94v6l1.69.23-.11.79Zm6.34,0-2.59.07-.11-.79,1.58-.23V181l-1.58.13-.11-.79,2.7-.7,1-.07.11,1.89,3.33-2.18c2.88,0,3.35,1,3.35,3.67v6.26l1.71.23-.11.79-2.59-.07-2.16.07-.11-.79,1.13-.23v-6.44c0-1.17-.52-1.69-1.49-1.69a4.56,4.56,0,0,0-2.34,1l-.68.45v6.66l1.24.23-.11.79Zm20.63-5.47c0,3.35-2,5.29-5.54,5.85-3,0-5-2.32-5-5.38,0-3.38,2-5.29,5.54-5.87C160.36,179.28,162.38,181.62,162.38,184.68Zm-5,4.75c1.8,0,2.72-1.85,2.72-4.28,0-2.86-1.37-4.77-3.33-4.77s-2.72,1.85-2.72,4.3S155.41,189.43,157.41,189.43Zm9.58.63v4.32l2.36.23-.11.79-3.26-.07-2.59.07-.11-.79,1.58-.23V181l-1.58.13-.11-.77,2.7-.7,1-.07.11,1.87,2.88-2.16c2.9,0,4.59,2,4.59,5.24,0,3.83-2.3,5.56-5.65,6A3.67,3.67,0,0,1,167,190.06Zm2.84-9.09a4.07,4.07,0,0,0-2.16,1l-.67.52v5.65a2.89,2.89,0,0,0,2.45,1.24c1.62,0,2.72-1.6,2.72-4.19S171.18,181,169.83,181Zm15.26-1.58h.38v15l1.58.23-.11.79-2.59-.07-3.26.07-.11-.79,2.36-.23v-5.69l-2.63,1.85c-2.93,0-4.82-2.07-4.82-5.36,0-3.51,2.16-5.45,5.65-5.9a6.36,6.36,0,0,1,2.77.94Zm-3,9,1.26-.88v-5.67a2,2,0,0,0-2.12-1.46c-1.94,0-3.08,1.62-3.08,4.19s1.22,4.25,2.63,4.25A2.44,2.44,0,0,0,182.07,188.42Zm9.18-5.87,2.57-3.15h1.8v2.25H194a5.14,5.14,0,0,0-2.14,1.6l-.45.54v5.36l2.36.23-.11.85-3.26-.07-2.52.07-.11-.79,1.58-.23V181l-1.58.13-.11-.79,2.7-.7.9-.07Zm11.45-1.67a3.5,3.5,0,0,0-1.71-.5c-.88,0-1.71.47-1.71,1.33s.56,1.17,1.57,1.69l1.73.88c1.51.77,2.12,1.62,2.12,2.9,0,2-1.64,2.79-4.23,3.35a7.7,7.7,0,0,1-3.42-1l-.43-2.54h1.44l.76,1.87a3.38,3.38,0,0,0,1.85.56,1.64,1.64,0,0,0,1.8-1.71c0-.88-.47-1.26-1.64-1.87l-1.78-.92a3,3,0,0,1-1.89-2.61c0-1.58,1.46-2.45,4.07-3a6,6,0,0,1,3.17,1v2.25h-1.19Zm2.72,0v-.38l.79-.79h1.46v-1.46l1.46-1.46h.58v3.08h3.4v1h-3.38v6.59c0,.65.25,1.35,1.19,1.35a3.8,3.8,0,0,0,1.78-.54l.38.77-2.63,1.46c-2.52,0-2.86-.9-2.86-2.93V180.9ZM224,187.27a3.68,3.68,0,0,0,.27,1.69h1.13l.09.79-2.9.56-.63-1.82-3.26,2c-3,0-3.47-1.06-3.47-3.67V181l-1.58.11-.11-.88,2.7-.58,1.13-.09V187c0,1.17.49,1.69,1.6,1.69a5.47,5.47,0,0,0,2.45-1.13l.45-.29V181l-1.35.11-.11-.88,2.48-.58,1.13-.09Zm8.48,1.49,2.72-8.15-1-.23.11-.79,2,.07,1.87-.07.11.79-1.44.23-3.69,9.25-1.64.67-3.92-9.93-1.4-.23.11-.79,2.59.07,2.36-.07.11.79-1.49.23,2.45,6.59Zm15.48-4.64-.11-1.49-2.66,7.2-1.8.67-3.53-9.9-1.39-.23.11-.79,2.48.07,2.14-.07.11.79-1.26.23,2.23,6.71.18,1.33,2.59-7.13-.34-.9-.95-.23.11-.79,2,.07,2.14-.07.11.79-1.26.23,2.23,6.71.18,1.33,2.84-8-1-.23.11-.79,1.6.07,2.18-.07.11.79-1.44.23L252,189.84l-1.8.67Zm13.77,5.31-.11.79-1.75-.07-2.32.07-.11-.79,1.58-.23,3.33-4.1L259,180.63l-1.4-.23.11-.81,2.59.07,2.14-.07.11.81-.88.23,1.67,2.5.18.58,2.14-3.08-1.1-.23.11-.81,1.76.07,2.32-.07.11.81-1.62.23-3,3.6,3.53,5,1.4.23-.11.79-2.59-.07-2.14.07-.11-.79.92-.23-2-2.9-.18-.52-2.39,3.42Zm9.56,6.05v-2.25h1.94l2.23-3.4-.9.27-3.67-9.5-1.4-.23.11-.79,2.59.07,2.36-.07.11.79-1.49.23,2.39,6.59.18,1.55,2.68-8.15-1-.23.11-.79,2,.07,1.87-.07.11.79-1.44.23-3.53,9.21-2.52,5.67Zm11.34-5.29-.27-.7,5.92-8.3.85-.68-4.5.11-.72,2H283v-3h8.1l.34.68-6,8.42-.76.58,4.7-.11,1.21-2.21h1l-.63,3.22ZM4.39,208.46l-.95.45L1,209.45l-.41-.81,5.06-2.14h.9V216l3.49.38-.11.79-4.5-.07-4.5.07-.11-.79L4.28,216v-7.18Zm10.87,6.71h6.17v.67l-.58,1.35H11.25l-.45-1,4-3c2-1.53,3.13-2.54,3.13-3.78a1.79,1.79,0,0,0-2-1.91,2.8,2.8,0,0,0-1.42.4l-.81,2.41H12v-2.45l4.25-1.6c2.5,0,4,1.17,4,2.93,0,2.12-1.53,3.2-4.05,4.66l-3.33,1.89Zm12.22,5.18a3.39,3.39,0,0,0,2-3.11c0-1.55-1.4-2.79-4.14-2.79l-.23-.63,1-.45c1.78-.77,2.68-1.8,2.68-3.49a2.09,2.09,0,0,0-1.94-2.36,3.28,3.28,0,0,0-1.53.4l-.81,2.41H22.88v-2.45l4.25-1.6c2.81,0,3.94,1.46,3.94,3,0,1.78-1.12,3.15-3.06,4,2.41.18,3.83,1.67,3.83,3.31,0,3-2.3,4-4.79,5l-1.8.74H22.66v-2ZM42,215.73h3.13v1.46H42v5.18H39.83V217.2H33.75l-.79-.88,7.36-9.7h2.27v.81L35,216.07l.88-.34h4v-2.39L41.38,212H42Zm6.1-7.11-.58,4.61,2.59-1.33c4.25,0,5.24,2.9,5.24,4.25,0,3.26-2.34,4.41-4.93,5.47l-1.8.74H46.1v-2h4.66a3.84,3.84,0,0,0,2.16-3.29,3,3,0,0,0-3.24-3.13,5.05,5.05,0,0,0-2.14.43l-.74.29-.63-.36.94-7.67h7.83v.7l-.54,1.31Zm13.59,8.91c-3,0-4.77-2.66-4.77-6.39,0-4.32,2.36-7.85,8.24-10.17l.34.92c-4.7,2.27-5.85,4.5-6.05,7.63l3.2-2.41c3.13,0,4.5,2.41,4.5,4.93C67.1,215.17,65,216.79,61.65,217.53Zm.77-8.57a3.45,3.45,0,0,0-2.12,1l-.95.77c0,2.81.56,5.69,2.75,5.69,1.64,0,2.72-1.64,2.72-3.94S63.65,209,62.42,209Zm5.46-2.34h9.9l.41.47-6.42,15.28H69.7v-.72l6-12.45.52-.56H67.88Zm16.79,10.92c-2.84,0-4.91-1.8-4.91-4.05,0-1.69,1-3.31,3.35-4.39-1.85-1.06-2.86-2.34-2.86-3.94,0-1.94,1.67-3.31,4.91-4.05,2.79,0,4.59,1.35,4.59,3.26s-1.4,3.26-3.29,4.28c2,1.13,3.62,2.39,3.62,4.28C90.09,215.4,88.2,216.77,84.67,217.53Zm.27-1.12a2.71,2.71,0,0,0,2.84-2.7c0-2.09-2.48-3.33-3.89-4.16a3.51,3.51,0,0,0-1.8,3.38C82.08,214.74,83.23,216.41,84.94,216.41Zm-.07-14.18a2.18,2.18,0,0,0-2.29,2.32c0,1.49,1.64,2.63,3.15,3.58A3.4,3.4,0,0,0,87.44,205,2.54,2.54,0,0,0,84.87,202.23Zm12.24,4.05c3,0,4.77,2.59,4.77,6.41,0,4.19-2.34,7.67-8.12,10l-.34-.92c4.59-2.25,5.72-4.41,5.94-7.47l-3.2,2.39c-3.13,0-4.5-2.43-4.5-4.86C91.66,208.67,93.64,207.07,97.11,206.28Zm-.86,8.53a3.45,3.45,0,0,0,2.21-1l.95-.74c0-3.06-.58-5.67-2.72-5.67-1.67,0-2.75,1.49-2.75,4.05C93.94,213.5,95.11,214.81,96.25,214.81Zm19.13-3.13c0,3.11-2.16,5-5.85,5.85a5.44,5.44,0,0,1-5.63-5.4c0-3.11,2.16-5,5.85-5.85A5.44,5.44,0,0,1,115.38,211.68Zm-5.4,4.61c1.89,0,2.93-1.91,2.93-3.94,0-2.63-1.12-4.84-3.6-4.84-1.89,0-2.93,1.91-2.93,3.94C106.38,214.09,107.5,216.29,110,216.29Z"/><path id="GTSecMed" class="cls-1" d="M4.68,262.41a4.05,4.05,0,0,1-4.2-4.29c0-2.79,1.76-4.11,4.44-4.53a5.36,5.36,0,0,1,2.94.94v1.62h-.6l-.38-1.08a2.93,2.93,0,0,0-2.12-.85c-1.74,0-2.89,1.32-2.89,3.61,0,2,1.25,3.93,3.18,3.93a2.33,2.33,0,0,0,1.56-.64v-2.28l-1.08-.16.06-.42,1.65,0,1.34,0,.06.42-.78.16v2.64A18.46,18.46,0,0,1,4.68,262.41Zm9.54-.2-1.94,0-2,0-.06-.42,1.44-.16v-7.27l-1.8,0-.55,1.52H8.82v-2.12l3.44,0,3.45,0v2.12h-.47l-.55-1.52-1.8,0v7.27l1.38.16Zm6.3-1.21a2.24,2.24,0,0,0,1.69.76,1.48,1.48,0,0,0,1.63-1.52,1.72,1.72,0,0,0-1.25-1.6L21.14,258a2.14,2.14,0,0,1-1.57-2c0-1.31,1.2-2.08,2.87-2.42a3.85,3.85,0,0,1,2.19.7v1.62H24l-.35-1.09a1.78,1.78,0,0,0-1.41-.59c-.95,0-1.51.52-1.51,1.32s.47,1.07,1.13,1.35l1.38.6A2.38,2.38,0,0,1,25,259.72c0,1.13-.77,2.22-3,2.69a3.74,3.74,0,0,1-2.48-.82L19.26,260h.84Zm6.6-1.86c0,1.37.73,2.34,2,2.34a3.11,3.11,0,0,0,1.5-.5l.19.46a7.3,7.3,0,0,1-2.1.95,2.72,2.72,0,0,1-2.76-2.91,3,3,0,0,1,2.71-3.08c1.58,0,2.12,1,2.12,2.25v.5Zm2.41-.6c0-.92-.18-1.56-1.1-1.56-.73,0-1.2.68-1.3,1.68ZM35,257.2a1,1,0,0,0-.7-.19c-.81,0-1.44.91-1.44,2.22s.7,2.24,1.87,2.24a2.62,2.62,0,0,0,1.36-.5l.19.46a6.73,6.73,0,0,1-2,.95,2.58,2.58,0,0,1-2.67-2.85c0-1.88,1.38-2.78,2.85-3.14a2.86,2.86,0,0,1,1.66.6v1.2h-.89Zm1.65,0V257l.42-.42h.78v-.78l.78-.78h.31v1.64h1.81v.54h-1.8v3.51c0,.35.13.72.64.72a2,2,0,0,0,.95-.29l.2.41-1.4.78c-1.34,0-1.52-.48-1.52-1.56v-3.57Zm6.49.88,1.37-1.68h1v1.2h-.89a2.74,2.74,0,0,0-1.14.85l-.24.29v2.85l1.26.12-.06.46-1.74,0-1.34,0-.06-.42.84-.12v-4.38l-.84.07-.06-.42,1.44-.37.48,0Zm5.11-1.74c1.51,0,1.9.38,1.9,1.91v2.35a1.46,1.46,0,0,0,.2.9h.6l0,.42-1.55.3-.37-.92-1.43,1a1.56,1.56,0,0,1-1.76-1.54,1.75,1.75,0,0,1,.42-1.1l2.7-.9v-.6c0-.72-.06-1.15-.71-1.15a2.86,2.86,0,0,0-1,.22l-.2.95h-1v-.91Zm.75,2.94-1.74.72a.91.91,0,0,0-.24.67c0,.61.35.83.7.83a1.42,1.42,0,0,0,.78-.31l.5-.35Zm13.34-5.53,1.33,0,1.12,0,.06.42-1,.16v7.27l1,.16-.06.42-1.44,0-1.74,0-.06-.42,1.08-.16v-5.48l.16-1.4-3,7.45h-.74l-2.41-6.06-.44-1.39v6.88l1.06.16-.1.42-1.28,0-1.36,0-.06-.42,1-.16v-7.24l-1-.18.06-.42,1.24,0,1.32,0,2.52,6.34.1.67Zm4.17,5.35c0,1.37.73,2.34,2,2.34A3.1,3.1,0,0,0,70,261l.19.46a7.32,7.32,0,0,1-2.1.95,2.72,2.72,0,0,1-2.76-2.91A3,3,0,0,1,68,256.37c1.58,0,2.12,1,2.12,2.25v.5Zm2.41-.6c0-.92-.18-1.56-1.1-1.56-.73,0-1.2.68-1.29,1.68Zm7.15,2.1a1.42,1.42,0,0,0,.2.88h.67l0,.44-1.61.3-.37-.92-1.55,1A2.51,2.51,0,0,1,71,259.58a3,3,0,0,1,2.94-3.2,3.33,3.33,0,0,1,1,.32v-2.27l-.84,0L74,254l1.44-.37.6,0Zm-1.5.29.36-.29v-3.18a1.55,1.55,0,0,0-1.19-.48c-1,0-1.57.88-1.57,2.29s.53,2.15,1.25,2.15A2,2,0,0,0,74.57,260.92Zm4.52,1.25-1.38,0-.06-.42.84-.12v-4.38l-.84.07-.06-.42,1.44-.37.6,0v5.15l.9.12-.06.42Zm-.6-8.25.86-.06.33.06.06.67-.13.58-.85.07-.32-.07-.07-.67Zm8,6.72a2,2,0,0,0,.14.9h.6l0,.42-1.55.3-.34-1-1.74,1.09c-1.58,0-1.85-.56-1.85-2v-3.13l-.84.06-.06-.47,1.44-.31.6,0v4c0,.62.26.9.85.9a2.92,2.92,0,0,0,1.31-.6l.24-.16v-3.37l-.72.06-.06-.47,1.32-.31.6,0Zm9.67,1.54-1.14,0-.06-.42.6-.12v-3.43c0-.62-.26-.9-.7-.9a2.41,2.41,0,0,0-1.22.54l-.36.25v3.54l.54.12-.06.42-1,0-1.08,0-.06-.42.54-.12v-3.43c0-.62-.26-.9-.7-.9a2.41,2.41,0,0,0-1.22.54l-.36.25v3.54l.6.12-.06.42-1.08,0-1.38,0-.06-.42.84-.12v-4.38l-.84.07-.06-.42,1.44-.37.52,0,.06,1,1.66-1.15c1.16,0,1.59.35,1.73,1.18l1.69-1.18c1.54,0,1.79.58,1.79,2.1v3.19l.9.12-.06.42ZM4.86,284l-1.37,4,1.87.29-.11.9-2.59-.07-2.34.07-.11-.9L1.8,288l5.4-14.38,2-.5,5.63,14.9,1.67.25-.11.9-3.51-.07-2.84.07-.11-.9,1.78-.29-1.42-4Zm2.95-7.07-.11-1.24-2.45,7.18H9.9ZM20.5,289.15l-3,.07-.11-.9,1.91-.29V274.61l-1.91-.29.11-.9,3,.07,5-.07c2.88,0,4.23,1.73,4.23,3.44s-1.53,3.35-3.74,3.87c3,.13,4.64,1.78,4.64,3.89,0,2.93-2.52,4.1-6,4.59Zm1.64-14.56v5.81h1.69a3,3,0,0,0,3-3.26,2.44,2.44,0,0,0-2.66-2.68Zm1.78,13.59c2.86,0,3.76-1.91,3.76-3.49a3.1,3.1,0,0,0-3.35-3.24H22.14V288Zm22.66-3.87-.52,3.6a22.63,22.63,0,0,1-5.65,1.69c-4.25,0-8.22-2.79-8.22-8S35.69,273.8,41,273a10.07,10.07,0,0,1,5.31,1.64v3.4H44.89l-.72-2.14a4.54,4.54,0,0,0-3.6-1.6c-3.08,0-5.27,2.36-5.27,6.64,0,3.74,2.09,7.27,5.69,7.27a4.49,4.49,0,0,0,3.06-1.37l1.17-2.57Zm4.14-10.83,4.73-.07c4.68,0,7.54,2.63,7.54,7.47,0,4.68-2.45,7.77-7.72,8.33l-4.57-.07-2.93.07-.11-.9,1.91-.29V274.61l-1.91-.29.11-.9Zm1.69,1.1v13.35l2.61.2c3,0,4.88-2.9,4.88-7,0-3.83-1.89-6.77-5.49-6.71ZM76,273.41l.22,4.16h-.92L74,274.65l-5.65-.07v5.81l2.9-.09.9-2.39h.95l-.22,2.93.22,3.11h-.95l-.9-2.39-2.9-.09V288l5.9-.07,1.51-3h1L76,289.21l-9.18-.07-3.11.07-.11-.9,1.91-.29V274.61l-1.91-.29.11-.9,3.11.07Zm2,15.8-.11-.9,1.91-.29V274.61l-1.91-.29.11-.9,3.11.07,9.18-.07.23,4.23h-.92l-1.31-3-5.65-.07v6.12l2.9-.09.9-2.36h.95l-.22,2.93.22,3.11h-.95l-.9-2.39-2.9-.09V288l2.7.29-.11.9-4.12-.07Zm21.15.38c-4.21,0-8-2.81-8-7.94,0-5.33,3.35-7.79,8.64-8.62a10.52,10.52,0,0,1,5.45,1.67v3.38H104l-.72-2.07a4.84,4.84,0,0,0-3.78-1.67c-3.13,0-5.18,2.41-5.18,6.66,0,3.83,2.16,7.25,5.58,7.25a3.92,3.92,0,0,0,2.61-1V283l-2-.29.11-.92,3.35.07,2.63-.07.13.92-1.35.29v4.84A27.52,27.52,0,0,1,99.18,289.6Zm8.16-15.28.11-.9,3.22.07,3.06-.07.11.9-1.75.29v5.81h6.73v-5.81l-1.85-.29.11-.9,3.15.07,3.13-.07.11.9-1.82.29V288l1.82.29-.11.9-3.13-.07-3.15.07-.11-.9,1.85-.29v-6.37H112.1V288l1.75.29-.11.9-3.06-.07-3.22.07-.11-.9,1.91-.29V274.61Zm20.81,14.83-3.22.07-.11-.92,1.91-.29V274.61l-1.91-.29.11-.9,3.22.07,3.22-.07.11.9-1.91.29V288l1.91.29-.11.92Zm9.85-2.59a5.83,5.83,0,0,1-1.64,4.34l-2,2.23h-2.14v-2.32h2.45l.2-.47a8.59,8.59,0,0,0,.34-3.29V274.61l-2.48-.29.11-.9,3.8.07,3.08-.07.11.9-1.8.29Zm8.33-6.14,6.08-5.81-1.64-.29.11-.9,2.43.07,2.45-.07.11.9-1.73.34-6.26,6,.74.36,6.57,7.07,1.17.25-.11.9-1.91-.07-2.12.07L146,282l-.36-.74V288l1.62.29-.11.9-2.93-.07-3.22.07-.11-.9,1.91-.29V274.61l-1.91-.29.11-.9,3.22.07,2.93-.07.11.9-1.62.29v6.14Zm14.13,8.73-3.11.07-.11-.9,1.91-.29V274.61l-1.91-.29.11-.9,3.11.07,3.33-.07.11.9-1.91.29V288l5.38-.07,1.6-3.11h.95l-.79,4.34Zm25-15.73,2.75.07,2.27-.07.11.9-1.82.29V288l1.73.29-.11.9-2.9-.07-3.29.07-.11-.9L186,288V277.71l.31-2.66-5.47,14.13h-1.71l-4.43-11.41-.77-2.68V288l1.87.29-.16.9-2.41-.07-2.5.07-.11-.9,1.73-.29V274.65l-1.82-.34.11-.9,2.23.07,3-.07L180.36,285l.09,1.51Zm10,14.61,1.8.29-.09.9-2.43-.07-2.66.07-.11-.9,1.91-.29v-13.3l-1.85-.41.11-.9,2,.07,2-.07,7.58,10.31.54,1.6V274.61l-1.8-.29.09-.9,2.43.07,2.66-.07.11.9-1.91.29v14.63h-1.53l-8.39-11.68-.45-1.78ZM224.35,281c0,5-2.5,7.63-8.33,8.64a7.55,7.55,0,0,1-7.83-7.92c0-5,2.5-7.63,8.33-8.64A7.55,7.55,0,0,1,224.35,281Zm-7.76,7.29c3.26,0,4.66-2.86,4.66-6.55,0-3.31-1.44-7.31-5.27-7.31-3.26,0-4.68,2.84-4.68,6.53C211.3,284.31,212.78,288.25,216.59,288.25ZM225,274.31l.11-.9,3.15.07,4.73-.07c2.75,0,4.88,1.35,4.88,4,0,3-3,4.32-5.83,5h-2.3V288l2.7.29-.11.9-4-.07-3.22.07-.11-.9,1.91-.29V274.61Zm4.75,6.89h1.73a3.24,3.24,0,0,0,3.31-3.49,3,3,0,0,0-3.2-3.29l-1.84.16ZM255,281c0,4.52-2,7.11-6.8,8.3l2.21.83,2.29,1.67,1.4.36L254,293h-3.71l-3.62-3.4a7.55,7.55,0,0,1-7.83-7.92c0-5,2.5-7.63,8.33-8.64A7.55,7.55,0,0,1,255,281Zm-7.77,7.29c3.26,0,4.66-2.86,4.66-6.55,0-3.31-1.44-7.31-5.27-7.31-3.26,0-4.68,2.84-4.68,6.53C241.94,284.31,243.43,288.25,247.23,288.25ZM260.35,282v6l1.82.29-.11.9-3.13-.07-3.22.07-.11-.9,1.91-.29V274.61l-1.91-.29.11-.9,3.22.07,4.5-.07c2.84,0,5.06,1.28,5.06,3.92s-2.32,3.76-4.77,4.32l1.94,1,3.65,5.33,1.15.34-.09.88-2.12-.07-1.69.07-4.59-7-.27-.25Zm0-1.15h1.53a3.27,3.27,0,0,0,3.51-3.35,2.85,2.85,0,0,0-3-3.06l-2,.16Zm13.07,5.9a4.22,4.22,0,0,0,3.11,1.46,2.58,2.58,0,0,0,2.84-2.66c0-1.33-.86-2.18-2.21-2.79l-2.72-1.26c-1.73-.79-3-1.87-3-3.85,0-2.3,2-3.85,5.58-4.61a8,8,0,0,1,4.34,1.31v3.24H280l-.65-2a3.36,3.36,0,0,0-2.66-1.15c-1.71,0-2.7.92-2.7,2.25,0,1.13.79,1.85,2,2.39l2.75,1.24c2.09,1,3.35,2.12,3.33,4.23,0,2.32-1.71,4.16-5.9,5.11a7.71,7.71,0,0,1-4.73-1.53l-.5-3.31h1.73Zm20,2.48-3.8-.07-3.89.07-.11-.9,2.59-.29V274.61l-3.11,0-1.08,3h-1v-4.23l6.64.07,6.55-.07v4.23h-1l-1.06-3-3.11,0V288l2.5.29Zm13.59-14.9.11-.9,2.88.07,2.61-.07.11.9-1.87.29v9c0,2.95-1.19,4.93-5.67,6-4.73,0-6.39-2.41-6.39-6v-9l-1.91-.29.11-.9,3.08.07,3.31-.07.11.9-1.78.29v9.21c0,2.75,1.17,4.34,3.67,4.34,2.32,0,3.58-1.6,3.58-4.41v-9.14Zm13.5,15.24-5.69-15-1.64-.27.11-.9,3.49.07,2.86-.07.11.9-1.8.29,3.85,10.74.07,1.35,4.28-12.09-1.87-.29.11-.9,2.54.07,2.34-.07.11.9-1.6.27L322.34,289Zm23.65,0L341.08,280l0-1.42-3.24,10.33-1.8.61-4.93-15-1.33-.27.11-.9,3.15.07,2.72-.07.11.9-1.82.29,3.22,10.31,0,1.44,2.84-9.36-.81-2.41-1.28-.27.11-.9,3.11.07,2.7-.07.11.9-1.8.29,3.22,10.33.07,1.42L349,274.58l-1.89-.27.11-.9,2.45.07,2.14-.07.11.9-1.35.27L346,288.94Zm24-1.26-.11.92-3-.07-3.56.07-.11-.92,1.8-.29-3-4.59-.38-.95-3.8,5.56,1.73.27-.11.92-2.77-.07-2.45.07-.11-.92,1.76-.27,4.79-6.53-4.64-6.93-1.64-.27.11-.9,3,.09,3.56-.09.11.9-1.78.29,2.7,4.39.29.9,3.6-5.27-1.85-.29.11-.9,2.77.07,2.45-.07.11.9-1.71.27-4.5,6.17,5,7.27ZM378,283l0,5,2.52.29-.11.9-3.83-.07-3.92.07-.11-.9,2.61-.29v-5l-5-8.42-1.64-.27.11-.88,3.2.07,3.13-.07.11.88-1.8.29,3.76,6.35.11,1,3.92-7.31-1.85-.29.11-.88,2.59.07,2.41-.07.11.88-1.64.25Zm18.18,1.82h1.21l-.81,4.32H385.24L385,288l8.24-12.67,1-.79-6.28.11-1.08,2.84h-1.1v-4.1H396.7l.25,1-8.31,12.81-1,.79,6.93-.11ZM5.36,305.19c3,0,3.85.77,3.85,3.53v4.39a2.82,2.82,0,0,0,.36,1.69h1.1l.11.9-3.33.67-.72-1.78L4.1,316.53c-2,0-3.42-1.13-3.42-2.95a3.17,3.17,0,0,1,.88-2.16l5-1.64v-1.22c0-1.35-.22-2-1.24-2a4.28,4.28,0,0,0-1.64.38l-.36,2H1V307Zm1.24,5.54-2.86,1.17a2,2,0,0,0-.47,1.37c0,1.13.63,1.53,1.22,1.53a2.39,2.39,0,0,0,1.33-.52l.79-.54Zm9.92,5.81a8.2,8.2,0,0,1-4.14-1V301.72l-1.46,0-.11-.9,2.93-.65,1.24-.09v7.2l2.9-2.14c2.36,0,4.48,1.94,4.48,5.09C22.35,314.05,20.16,316,16.52,316.53Zm1-9.27a3.32,3.32,0,0,0-2,.83l-.59.45v5.94a2.46,2.46,0,0,0,2,.86c1.62,0,2.7-1.58,2.7-4.23S18.68,307.26,17.51,307.26Zm12.58-.45a1.48,1.48,0,0,0-1.08-.31c-1.33,0-2.41,1.55-2.41,4s1.3,4.12,3.44,4.12a4.56,4.56,0,0,0,2.43-.88l.45.92A11.76,11.76,0,0,1,29,316.53c-3,0-5.2-2-5.2-5.38s2.61-5.22,5.54-6a5.44,5.44,0,0,1,3.29,1.13v2.54H30.6Zm14.06,6.44a2.52,2.52,0,0,0,.38,1.6h1.13l.09.92-3.33.61-.7-1.82-2.84,2c-2.88,0-4.7-2.16-4.7-5.29,0-3.67,2.21-5.54,5.45-6.05a5.86,5.86,0,0,1,1.94.61v-4l-1.46,0-.11-.9,2.84-.7,1.33-.09Zm-3.17.45.58-.45V307.3a2.56,2.56,0,0,0-2-.81c-1.64,0-2.68,1.58-2.68,4.16,0,2.39.92,3.83,2.18,3.83A3.15,3.15,0,0,0,41,313.69Zm8.17-3.17c0,2.36,1.31,4.05,3.49,4.05a5.72,5.72,0,0,0,2.81-.92l.43.92a12.39,12.39,0,0,1-4.1,2,5.15,5.15,0,0,1-5.31-5.42c0-3.06,1.69-5.06,5.24-5.92,3,0,4.14,1.91,4.14,4.28v1.06Zm4-1.19c0-1.73-.34-2.88-1.85-2.88-1.24,0-2,1.24-2.16,3.11Zm8.08-3.49h2.86V307H61.22v8.06l2.48.18-.11,1-3.8-.07-2.48.07-.11-.9,1.44-.25V307H56.75v-.45l.72-.83h1.17v-.25a4.2,4.2,0,0,1,1.3-3.08L62,300.21H65v2H62l-.38.56a4.47,4.47,0,0,0-.43,2.43Zm12.56.92,1.13-1.58h1.44v2H74.79l-.58.34a3,3,0,0,1,.18,1c0,2-1.49,3.29-4.59,4.1a5.24,5.24,0,0,1-1.06-.09l-1,1.19c0,.5.36.79,1,.79h4.14c2,0,3,1,3,2.43,0,2-2.5,3.65-6,4.73-3.11,0-5-.9-5-3v-.45l2.54-1.78c-1.58-.52-1.89-1.33-1.89-2.41v-.29l2.32-1.51a3.32,3.32,0,0,1-2.34-3.08c0-2,1.51-3.24,4.61-4A4.31,4.31,0,0,1,73.78,306.76Zm-5.47,9.9c-.92,1-1.06,1.4-1.06,1.73,0,1,1,1.82,3,1.82s3.2-1.1,3.2-2.39c0-.76-.56-1.17-1.91-1.17Zm1.46-10.35c-1.15,0-1.75,1-1.75,2.36s.52,2.84,2.12,2.84c1.15,0,1.76-.88,1.76-2.16S71.37,306.31,69.77,306.31Zm11.43,8.76,1.13.25-.11.9L80,316.15l-2.68.07-.11-.9,1.44-.25V301.74l-1.46,0-.11-.9,2.93-.67,1.24-.09v7.2l3.35-2.14c2.77,0,3.4,1,3.4,3.78v6.1l1.55.25-.11.9-2.68-.07-2.27.07-.11-.9,1-.25v-6.33c0-1.06-.5-1.53-1.33-1.53a5,5,0,0,0-2.21.95l-.61.38Zm12.26,1.08-2.68.07-.11-.9,1.46-.25V307l-1.46.09-.11-.9,2.93-.65,1.24-.09v9.61l1.53.25-.11.9Zm-1.22-15.53,1.85-.14.67.14.13,1.37-.27,1.17-1.82.13-.67-.13L92,301.79Zm6.37,18.12A6.76,6.76,0,0,0,99,316.1V307l-1.46.09-.11-.9,2.93-.65,1.24-.09v10.29a5.12,5.12,0,0,1-1.62,3.71l-1.89,2H96.16v-2.25h2.25Zm.47-18.12,1.85-.14.67.14.13,1.37-.27,1.17-1.82.13-.67-.13-.13-1.37Zm14.47,15.53-1.42.07-3.94-5.11-.29-.72v4.68l1.08.25-.11.9-2.32-.07-2.59.07-.11-.9,1.46-.25v-13.3l-1.48,0-.11-.92,2.93-.67,1.26-.09V310l.61-.27,3.62-3.11-.9-.25v-.9l2.07.07,1.85-.07.13.9-1.26.25-4.1,3.29.58.36,4.19,4.77,1,.25-.13.9Zm5.8,0-2.68.07-.11-.9,1.44-.25v-13.3l-1.46,0-.11-.92,2.93-.67,1.24-.09v14.94l1.55.25-.11.9Zm19.83,0-2.32.07-.11-.9,1-.25v-6.33c0-1.06-.45-1.53-1.19-1.53a4.1,4.1,0,0,0-2.12.92l-.58.43v6.5l.92.25-.11.9-2.12-.07-2.14.07-.11-.9.92-.25v-6.33c0-1.06-.45-1.53-1.19-1.53a4,4,0,0,0-2.09.92l-.61.43v6.5l1,.25-.11.9-2.23-.07-2.61.07-.11-.9,1.46-.25v-8l-1.49.11-.11-.92,2.88-.67,1.13-.07.11,1.85,3.11-2.14c2.18,0,3.08.61,3.38,2.18l3.17-2.18c2.79,0,3.44,1,3.44,3.78v6.1l1.55.25-.11.9Zm6.5,0-2.68.07-.11-.9,1.46-.25v-8l-1.48.11-.11-.92,2.93-.67,1.15-.07.07,1.87,3.38-2.16c2.77,0,3.42.88,3.42,3.58v6.3l1.55.25-.11.9-2.68-.07-2.32.07-.11-.9,1-.25v-6.33c0-1.06-.47-1.53-1.35-1.53a4.34,4.34,0,0,0-2.18.95l-.58.41v6.5l1.1.25-.11.9Zm21-5.54c0,3.51-2.32,5.31-5.74,5.92-2.95,0-5-2.27-5-5.4,0-3.56,2.32-5.31,5.74-5.94C164.61,305.19,166.7,307.46,166.7,310.61Zm-5.11,4.73c1.51,0,2.34-1.55,2.34-4,0-3.13-1.26-4.93-2.93-4.93s-2.34,1.55-2.34,4C158.67,313.33,159.88,315.34,161.6,315.34Zm10,.79v4.12l2.23.25-.11.9-3.4-.07-2.66.07-.11-.9,1.46-.25V307l-1.46.11-.11-.88,2.88-.67,1.1-.07.13,1.87,2.93-2.16c2.63,0,4.5,2,4.5,5.15,0,3.8-2.18,5.69-5.78,6.19A3.51,3.51,0,0,1,171.63,316.12Zm2.48-9a3.43,3.43,0,0,0-1.89.9l-.58.45v5.72a2.53,2.53,0,0,0,2.16,1.1c1.46,0,2.5-1.58,2.5-4.16S175.32,307.17,174.11,307.17Zm15.71-1.87h.54v15l1.44.23-.11.9-2.61-.07-3.44.07-.11-.9,2.25-.23v-5.63l-2.57,1.89c-2.95,0-4.84-2.09-4.84-5.36,0-3.56,2.16-5.47,5.56-6a6.94,6.94,0,0,1,3.08.92Zm-3.08,8.85,1-.7v-5.76a1.86,1.86,0,0,0-1.87-1.21c-1.76,0-2.81,1.58-2.81,4.05s1.08,4.05,2.41,4.05A2.2,2.2,0,0,0,186.73,314.14Zm9.61-5.47,2.48-3.38h1.94v2.63h-1.94a5.36,5.36,0,0,0-2,1.53l-.38.45V315l2.39.22-.11,1-3.51-.07-2.66.07-.11-.9,1.46-.25v-8l-1.46.11-.11-.92,2.81-.67,1-.09ZM208,307a2.78,2.78,0,0,0-1.71-.61c-.9,0-1.64.47-1.64,1.24s.5,1.08,1.62,1.64l1.71.85c1.44.72,2.12,1.6,2.12,2.93,0,2.07-1.64,2.86-4.41,3.47a9.1,9.1,0,0,1-3.51-.95l-.43-2.84h1.46l.7,1.8a3.24,3.24,0,0,0,1.94.72,1.47,1.47,0,0,0,1.67-1.51c0-.79-.41-1.17-1.53-1.73l-1.73-.9a3.14,3.14,0,0,1-2-2.72c0-1.6,1.28-2.54,4.25-3.22a6,6,0,0,1,3.29.92v2.52h-1.24Zm2.77,0v-.38l.83-.86h1.33v-1.49l1.73-1.55h.79v3.17h3.24V307h-3.22v6.35c0,.72.32,1.37,1.17,1.37a3.8,3.8,0,0,0,1.78-.54l.43.86-2.79,1.53c-2.27,0-3.17-.81-3.17-3V307ZM230,313.22a3.23,3.23,0,0,0,.29,1.64h1l.09.9-3.24.61-.65-1.89-3.22,2c-2.86,0-3.53-.95-3.53-3.58V307l-1.44.11-.11-1,2.81-.61,1.35-.09v7.45c0,1.08.45,1.58,1.49,1.58a4.53,4.53,0,0,0,2.12-.95l.43-.29V307l-1.26.11-.11-1,2.61-.61,1.35-.09Zm8.53,1.33,2.63-7.9-1.06-.25.11-.9,2,.07,1.82-.07.11.9-1.39.25-3.6,9.23-2,.65-4-9.88L232,306.4l.11-.9,2.77.07,2.45-.07.11.9-1.37.25,2.3,6.26Zm15.59-4.23-.11-1.51-2.59,7-2.09.65-3.65-9.86-1.26-.25.11-.9,2.66.07,2.27-.07.11.9-1.19.25,2.12,6.32.18,1.51,2.48-6.82-.41-1-.92-.25.11-.9,2.32.07,2.25-.07.11.9-1.17.25L257.6,313l.18,1.51,2.7-7.83-1-.25.11-.9,1.71.07,2-.07.11.9-1.37.25-3.51,9.21-2.09.65Zm13.95,5-.11.9-2-.07-2.16.07-.11-.9,1.44-.22,3.35-4-3.26-4.48-1.35-.22.11-.92,2.61.07,2.57-.07.11.92-.9.22,1.55,2.3.18.65,2.21-2.95-1-.22.11-.92,1.87.07,2.16-.07.11.92-1.49.22-3,3.53,3.56,4.91,1.26.22-.11.9-2.52-.07-2.57.07-.13-.9.94-.22-1.89-2.61-.23-.63-2.38,3.24Zm9.88,6.17v-2.59h2.25l2.23-3.24-1.37.43-3.65-9.45-1.28-.22.11-.9,2.77.07,2.45-.07.11.9-1.37.22,2.3,6.28.22,1.71,2.54-8-1.06-.22.11-.92,2,.07,1.89-.07.11.92-1.4.22-3.42,9.07L281,321.48Zm11.45-5.29-.32-.74,5.78-8.26.88-.67-4.23.13-.74,2.12h-1v-3.24h8.44l.36.72-5.79,8.33-.83.63,4.43-.16,1.17-2.36h1.1l-.63,3.51ZM4.23,334.57l-.95.45-2.32.5-.43-.9,5.06-2.21H6.82v9.52l3.38.38-.11.9-4.59-.07-4.61.07-.11-.9,3.35-.38v-7Zm11.83,6.35H21.9v.81l-.65,1.46H11.45l-.47-1,3.94-3c2-1.51,3.15-2.5,3.15-4a1.6,1.6,0,0,0-1.8-1.73,3,3,0,0,0-1.42.38l-.76,2.54H12.2v-2.63l4.46-1.62c2.68,0,4.23,1.19,4.23,3,0,2.07-1.71,3.2-4.32,4.64l-3.33,1.8Zm12,5.18a3.15,3.15,0,0,0,1.71-2.9c0-1.53-1.26-2.75-3.83-2.75l-.23-.72.95-.43a3.52,3.52,0,0,0,2.5-3.42c0-1.46-.81-2.34-1.78-2.34a3,3,0,0,0-1.37.36l-.76,2.54H23.33v-2.63l4.43-1.62c2.93,0,4.05,1.46,4.05,3.06,0,1.82-1.17,3.11-3.2,3.94,2.61.18,4,1.82,4,3.44,0,3-2.36,3.85-4.93,4.93l-1.94.81H23.13v-2.27Zm14.85-4.32h3v1.76h-3v4.84H40.48v-4.84h-5.9l-.85-1.13,7.36-9.88h2.45v1l-7.7,8.62,1-.36h3.67v-2.34l1.85-1.55h.61Zm6-7-.58,4.48,2.72-1.4c3.85,0,5.27,2.52,5.27,4.23,0,3.22-2.27,4.32-4.88,5.42l-2,.86H46.93v-2.27h4.79a3.51,3.51,0,0,0,1.78-3,2.87,2.87,0,0,0-3-3.08,4.87,4.87,0,0,0-2.16.47l-.74.29-.63-.41,1-7.81h8v.81l-.61,1.44Zm13.86,8.76c-3.06,0-4.88-2.59-4.88-6.37,0-4.3,2.43-7.88,8.57-10.2l.34,1c-4.68,2.14-5.74,4.41-5.94,7.52L64,333.09c3.13,0,4.5,2.41,4.5,4.88C68.49,341.28,66.11,342.76,62.8,343.53Zm.86-8.37a3.24,3.24,0,0,0-2,.95l-.85.7c0,2.84.56,5.54,2.5,5.54,1.46,0,2.41-1.49,2.41-3.78S64.76,335.16,63.65,335.16Zm5.65-2.63h10l.52.58-6.6,15.26H70.85v-1l6.32-12.27.11-.29h-8Zm16.85,11c-2.9,0-5-1.8-5-4.05,0-1.69.88-3.17,3.35-4.25-1.91-1.06-2.9-2.45-2.9-4,0-2,1.73-3.35,5.06-4.12,2.88,0,4.75,1.4,4.75,3.31S90,333.58,88,334.55c2.12,1.1,3.71,2.43,3.71,4.3C91.74,341.37,89.75,342.65,86.15,343.53Zm.27-1.22a2.46,2.46,0,0,0,2.5-2.61c0-1.94-2.12-3.11-3.51-3.92A3.64,3.64,0,0,0,83.88,339C83.88,340.81,84.94,342.31,86.42,342.31Zm0-14a2,2,0,0,0-2,2.21c0,1.4,1.4,2.5,2.79,3.4a3.34,3.34,0,0,0,1.51-3C88.65,329.6,87.93,328.31,86.4,328.31Zm12.53,3.87c3.06,0,4.88,2.54,4.88,6.39,0,4.19-2.41,7.74-8.49,10l-.34-1c4.59-2.12,5.63-4.34,5.85-7.4l-3.11,2.41c-3.13,0-4.5-2.45-4.5-4.84C93.24,334.46,95.51,333,98.93,332.19ZM98,340.51a3.2,3.2,0,0,0,2-.95l.86-.67c0-3-.56-5.51-2.48-5.51-1.46,0-2.43,1.35-2.43,3.87C96,339.27,97,340.51,98,340.51Zm19.44-2.86c0,3.33-2.43,5.09-6.05,5.88a5.4,5.4,0,0,1-5.56-5.49c0-3.31,2.43-5.06,6.05-5.85A5.41,5.41,0,0,1,117.45,337.65Zm-5.51,4.48c1.67,0,2.61-1.58,2.61-3.67,0-2.9-1.13-4.88-3.22-4.88-1.67,0-2.61,1.55-2.61,3.67C108.72,340.13,109.84,342.13,111.94,342.13Z"/></svg>