<svg id="Layer_1" data-name="Layer 1" xmlns="http://www.w3.org/2000/svg" xmlns:xlink="http://www.w3.org/1999/xlink" viewBox="0 0 144 310.33">
  <defs>
    <style>
      .cls-1 {
        fill: url(#linear-gradient);
      }

      .cls-2 {
        fill: url(#radial-gradient);
      }

      .cls-3 {
        fill: #f3ba20;
      }

      .cls-4 {
        fill: #f6cd16;
      }

      .cls-5 {
        fill: #c03c28;
      }

      .cls-6 {
        fill: #fcf1db;
      }
    </style>
    <linearGradient id="linear-gradient" x1="72" y1="306.42" x2="72" y2="206.2" gradientUnits="userSpaceOnUse">
      <stop offset="0" stop-color="#b52d26"/>
      <stop offset="1" stop-color="#eb8225"/>
    </linearGradient>
    <radialGradient id="radial-gradient" cx="108.95" cy="321.92" r="229.13" gradientUnits="userSpaceOnUse">
      <stop offset="0" stop-color="#e8652c"/>
      <stop offset="0.3" stop-color="#eb7a2a"/>
      <stop offset="0.92" stop-color="#f2b024"/>
      <stop offset="1" stop-color="#f3b823"/>
    </radialGradient>
  </defs>
  <title>APPROVED_UT Towers</title>
  <g>
    <path class="cls-1" d="M0,310.33,5.57,135.57l-1.65-.89L4,130.74l2.42-2.42v-9.28l2.8-2.8v0l11.63-13.13c0-5-.89-4.82-.89-4.82L19.9,95l5.5-6.33,0-5.42C25.64,81,23.72,81,23.72,81l-1.13-1.49,4.07-9.83,3.62.76.37-4.75,3.87-5.46,6.2,1.54,0-3.46-.92-.84,2.17-2.65-.11-22.59-.67-.55.11-4L39,27,38,25.49,55.22,2.37l3.94,1.09,6.4-1.15L67.35,0,87,6,85.41,7.94V11l9,3.84-.78,1.53-.9,1.28v2.69L98,22.41l-.39,1.54L95.4,26.51v2.94l-1,1.67V52.89l2.2,2.52-.13,2.13,8.38,7.84L101.62,70l.08,3.54,16.93,5-.09,3.58s-.85.43-.85,2.57.17,5.29.17,5.29l.22,3.8,15.15,4.57.34,10.29,2.39.72.25,5-1.55.69L144,310.33H0Z"/>
    <polygon class="cls-2" points="47.2 310.33 46.88 90.71 130.99 113.77 139.4 310.33 47.2 310.33"/>
    <polygon class="cls-3" points="95.54 54.98 65.66 45.66 62.25 49.07 58.65 49.95 52.6 48.21 53.14 50.67 58.39 52.5 63 51.43 66 48.42 84.32 53.89 87.48 53.12 88.65 55.47 93.75 57 95.54 54.98"/>
    <path class="cls-3" d="M66.34,13.54l-2.12,3,1.86.63a1.25,1.25,0,0,1,1.16-.54c1.1,0,1.4.63,1.4.63v.79L73,19.54a1.5,1.5,0,0,1,1.36-.59,1.58,1.58,0,0,1,1.34.74l0,.78,4.76,1.61a1.32,1.32,0,0,1,1.16-.72,1.56,1.56,0,0,1,1.42.75V23l4.39,1.49a1.32,1.32,0,0,1,1.33-.74,1.25,1.25,0,0,1,1.21.72l0,.89,4.14,1.4,2.62-2.91Z"/>
    <polygon class="cls-3" points="92.96 16.05 90.99 19.01 90.85 17.58 66.23 9.49 65.49 6.88 92.96 16.05"/>
    <polygon class="cls-4" points="77.48 46.34 77.48 42.97 73.78 41.74 73.67 43.34 77.48 46.34"/>
    <polygon class="cls-4" points="85.29 48.69 85.29 45.32 81.59 44.09 81.49 45.7 85.29 48.69"/>
    <polygon class="cls-4" points="91.86 50.94 91.86 47.57 88.17 46.34 88.06 47.94 91.86 50.94"/>
    <g>
      <polygon class="cls-5" points="87.03 44.04 86.8 26.09 83.62 25.15 83.8 43.04 87.03 44.04"/>
      <polygon class="cls-5" points="91.56 45.44 91.32 27.44 90.34 27.14 90.57 45.13 91.56 45.44"/>
      <polygon class="cls-5" points="80.2 41.93 79.8 24.01 76.19 22.94 76.38 40.74 80.2 41.93"/>
      <polygon class="cls-5" points="72.97 39.69 72.62 21.88 68.95 20.78 69.01 38.47 72.97 39.69"/>
    </g>
    <path class="cls-3" d="M117,82.1l-21.74-6a9.4,9.4,0,0,1-1.44,3.09c-3.11,4.22-9,4-13.26-.56a14.59,14.59,0,0,1-3.69-7.59L52.94,64.52l-.29,11.3,11.92,3.23v-.94l4.64,1.3.06,1L81.43,84l0-1,4.43,1.27.06,1,11.57,3.2,0-.87,4.62,1.15,0,1,11.24,2.77,0-.83,2.3.57-.37-8.65Z"/>
    <polygon class="cls-5" points="35.08 109.13 33.67 285.78 30.64 286.6 32.66 111.95 35.08 109.13"/>
    <polygon class="cls-5" points="27.11 117.1 25.69 287.98 22.66 288.8 24.68 119.94 27.11 117.1"/>
    <polygon class="cls-5" points="19.33 125.08 17.92 290.24 14.89 291.06 16.91 127.91 19.33 125.08"/>
    <path class="cls-5" d="M37.87,80.49c-.62,5-3.16,8.85-5.67,8.54s-4.05-4.64-3.43-9.67,3.16-8.86,5.68-8.55S38.5,75.46,37.87,80.49Z"/>
    <g>
      <polygon class="cls-5" points="114.24 211.93 107.64 210.63 107.87 218.25 114.46 219.55 114.24 211.93"/>
      <polygon class="cls-5" points="108.91 252.84 109.15 261.01 115.71 262 115.47 253.89 108.91 252.84"/>
      <polygon class="cls-5" points="97.51 229.93 97.37 222.63 90.79 221.35 90.93 228.77 97.51 229.93"/>
      <polygon class="cls-5" points="97.77 244.54 97.63 236.5 91.05 235.34 91.2 243.49 97.77 244.54"/>
      <polygon class="cls-5" points="98.04 259.35 97.89 251.08 91.32 250.04 91.47 258.36 98.04 259.35"/>
      <polygon class="cls-5" points="106 155.45 106.22 162.96 112.84 164.33 112.62 156.9 106 155.45"/>
      <polygon class="cls-5" points="106.81 182.71 107.04 190.38 113.64 191.75 113.42 184.15 106.81 182.71"/>
      <polygon class="cls-5" points="107.23 196.88 107.45 204.15 114.05 205.44 113.83 198.25 107.23 196.88"/>
      <polygon class="cls-5" points="108.47 238.42 108.71 246.28 115.27 247.33 115.05 239.58 108.47 238.42"/>
      <polygon class="cls-5" points="108.06 224.74 108.28 231.83 114.85 232.99 114.65 226.03 108.06 224.74"/>
      <polygon class="cls-5" points="115.9 268.7 109.35 267.71 109.59 275.81 116.15 276.71 115.9 268.7"/>
      <polygon class="cls-5" points="97.11 208.57 90.52 207.28 90.67 214.88 97.25 216.17 97.11 208.57"/>
      <polygon class="cls-5" points="96.25 160.89 96.12 153.3 89.49 151.86 89.63 159.51 96.25 160.89"/>
      <polygon class="cls-5" points="73.51 211.51 80.09 212.81 80 205.21 73.41 203.92 73.51 211.51"/>
      <polygon class="cls-5" points="98.16 266.03 91.6 265.05 91.76 273.4 98.31 274.28 98.16 266.03"/>
      <polygon class="cls-5" points="74.26 271.02 80.81 271.91 80.71 263.4 74.16 262.41 74.26 271.02"/>
      <polygon class="cls-5" points="89.25 138.92 89.38 146 96.01 147.45 95.88 140.5 89.25 138.92"/>
      <polygon class="cls-5" points="96.75 188.24 96.61 180.49 90 179.06 90.15 186.87 96.75 188.24"/>
      <polygon class="cls-5" points="97 202.1 96.86 194.73 90.26 193.35 90.41 200.81 97 202.1"/>
      <polygon class="cls-5" points="113.01 170.19 106.39 168.82 106.63 176.84 113.25 178.28 113.01 170.19"/>
      <polygon class="cls-5" points="96.5 174.64 96.36 166.73 89.74 165.36 89.89 173.2 96.5 174.64"/>
      <polygon class="cls-5" points="95.54 121.87 95.27 106.68 88.61 104.88 88.9 120.21 95.54 121.87"/>
      <polygon class="cls-5" points="105.61 142.81 105.81 149.58 112.45 151.03 112.25 144.38 105.61 142.81"/>
      <polygon class="cls-5" points="116.34 283.39 109.79 282.51 110.02 290.24 116.56 291.06 116.34 283.39"/>
      <polygon class="cls-5" points="98.43 280.96 91.88 280.07 92.03 287.98 98.57 288.8 98.43 280.96"/>
      <polygon class="cls-5" points="80.45 241.77 80.34 233.45 73.77 232.28 73.88 240.72 80.45 241.77"/>
      <polygon class="cls-5" points="80.89 278.58 74.35 277.69 74.45 285.78 80.99 286.6 80.89 278.58"/>
      <polygon class="cls-5" points="80.63 256.72 80.53 248.31 73.96 247.27 74.06 255.74 80.63 256.72"/>
      <polygon class="cls-5" points="78.93 117.72 78.75 102.71 72.09 100.91 72.28 116.06 78.93 117.72"/>
      <polygon class="cls-5" points="111.71 125.9 111.28 111.29 104.62 109.49 105.06 124.25 111.71 125.9"/>
      <polygon class="cls-5" points="89.14 133.04 95.77 134.62 95.65 127.77 89.01 126.11 89.14 133.04"/>
      <polygon class="cls-5" points="79.25 143.79 79.16 136.53 72.53 134.96 72.62 142.35 79.25 143.79"/>
      <polygon class="cls-5" points="80.27 226.88 80.17 219.27 73.58 217.97 73.69 225.72 80.27 226.88"/>
      <polygon class="cls-5" points="105.44 136.91 112.08 138.49 111.88 131.82 105.24 130.16 105.44 136.91"/>
      <polygon class="cls-5" points="72.45 129.08 79.1 130.66 79 123.62 72.36 121.96 72.45 129.08"/>
      <polygon class="cls-5" points="79.92 198.75 79.83 191.18 73.23 189.81 73.32 197.46 79.92 198.75"/>
      <polygon class="cls-5" points="79.42 157.39 79.32 149.65 72.7 148.21 72.8 156.02 79.42 157.39"/>
      <polygon class="cls-5" points="79.75 184.71 79.65 176.81 73.04 175.37 73.15 183.34 79.75 184.71"/>
      <polygon class="cls-5" points="79.58 170.96 79.49 163.23 72.88 161.86 72.97 169.52 79.58 170.96"/>
    </g>
    <polygon class="cls-5" points="87.81 62.8 89.18 71.92 81.01 70.08 87.98 70.4 87.81 62.8"/>
    <path class="cls-6" d="M91.83,64.5c3.32,3.55,4,9.1,1.61,12.42S86.33,80,83,76.48s-4-9.1-1.6-12.41S88.51,60.95,91.83,64.5Z"/>
    <polygon class="cls-5" points="88.12 63.42 89.49 72.54 81.32 70.7 88.28 71.02 88.12 63.42"/>
  </g>
</svg>
