<?xml version="1.0" encoding="utf-8"?>
<!-- Generator: Adobe Illustrator 21.1.0, SVG Export Plug-In . SVG Version: 6.00 Build 0)  -->
<svg version="1.1" id="Layer_1" xmlns="http://www.w3.org/2000/svg" xmlns:xlink="http://www.w3.org/1999/xlink" x="0px" y="0px"
	 viewBox="0 0 98 98" style="enable-background:new 0 0 98 98;" xml:space="preserve">
<style type="text/css">
	.st0{fill:#BF5700;}
</style>
<title>The University of Texas Offical Seal</title>
<g id="Layer_2">
	<g id="Layer_1-2">
		<path class="st0" d="M0,49c0,27.1,21.9,49,49,49s49-21.9,49-49S76.1,0,49,0C21.9,0,0,21.9,0,49z M0.5,49C0.5,22.2,22.2,0.5,49,0.5
			S97.5,22.2,97.5,49S75.8,97.5,49,97.5c0,0,0,0,0,0C22.2,97.5,0.5,75.8,0.5,49z"/>
		<path class="st0" d="M49,2.4C23.3,2.4,2.4,23.3,2.4,49S23.3,95.6,49,95.6S95.6,74.7,95.6,49l0,0C95.6,23.3,74.7,2.4,49,2.4z
			 M49,94.5C23.9,94.5,3.5,74.1,3.5,49S23.9,3.5,49,3.5c25.1,0,45.5,20.4,45.5,45.5C94.5,74.1,74.1,94.5,49,94.5
			C49,94.5,49,94.5,49,94.5z"/>
		<path class="st0" d="M49,12.9c-19.9,0-36.1,16.2-36.1,36.1S29.1,85.1,49,85.1S85.1,68.9,85.1,49l0,0C85.1,29.1,68.9,12.9,49,12.9z
			 M49,84.1c-19.4,0-35.1-15.7-35.1-35.2S29.6,13.9,49,13.9c19.4,0,35.1,15.7,35.1,35.1C84.2,68.4,68.4,84.1,49,84.1
			C49,84.1,49,84.1,49,84.1z"/>
		<path class="st0" d="M27.8,25c-0.9,8-1.7,16.1-1.4,21.1c0.4,11.6,7.6,27.7,22.4,35.8l0.2,0.1l0.2-0.1c14.8-8.1,22-24.2,22.4-35.8
			c0.4-5-0.4-13.1-1.4-21.1l-0.1-0.8l-0.6,0.5c-4.7,3.8-13.6,4.8-20.3,0.1L49,24.7l-0.2,0.2c-6.8,4.7-15.6,3.7-20.3-0.1l-0.6-0.5
			L27.8,25z M49,25.6c6.8,4.6,15.5,3.7,20.5,0.1c0.8,5.8,1.2,11.7,1.4,17.5c0,1,0,1.9-0.1,2.7C70.3,57.3,63.3,73,49,81
			c-14.3-8-21.4-23.7-21.8-35c-0.1-0.8-0.1-1.7-0.1-2.7c0.2-5.9,0.6-11.7,1.4-17.5C33.5,29.4,42.2,30.2,49,25.6z"/>
		<rect x="26.8" y="42.2" class="st0" width="44.4" height="0.8"/>
		<path class="st0" d="M46.8,52.5h-7.3l6,4.4l-2.4,7l5.9-4.3l5.9,4.3l-2.3-7l5.9-4.4h-7.3L49,45.6L46.8,52.5z"/>
		<path class="st0" d="M85.7,67.3h1.8l-1.4,1.1l0.6,1.7l-1.4-1l-1.4,1l0.6-1.7l-1.4-1.1h1.8l0.5-1.7L85.7,67.3z"/>
		<path class="st0" d="M13.4,67.3h1.8l-1.4,1.1l0.6,1.7l-1.4-1l-1.4,1l0.6-1.7l-1.4-1.1h1.8l0.5-1.7L13.4,67.3z"/>
		<path class="st0" d="M6.7,53.2c-0.1,0-0.1,0-0.1,0s0,0.3,0,0.4c0.1,0.8,0.1,1,0.9,1.2c0,0,0.2,0,0.2,0.3c0,0.1,0,0.2-0.1,0.2
			c0,0.1-0.1,0.1-0.2,0.1H6.2c-0.2,0-0.4-0.1-0.4-0.4c0-0.4-0.1-0.9-0.1-1.3s0-0.9-0.1-1.3s-0.1-0.9-0.1-1.3s-0.1-0.9-0.1-1.3
			s0.1-0.4,0.4-0.5l0.9-0.2h0.2c0.1,0,0.1,0,0.2,0c0.1,0.1,0.1,0.2,0.1,0.2c0,0.2-0.1,0.3-0.2,0.3c-0.7,0.2-0.7,0.5-0.7,1.3
			c0,0.3,0.1,0.4,0.1,0.4s0,0,0.1,0l3.9-0.3c0.4,0,0.4-0.2,0.5-0.6c0-0.1,0-0.2,0.1-0.2l0,0c0-0.2,0.1-0.3,0.3-0.3
			c0.1,0,0.2,0,0.2,0.1c0.1,0.1,0.1,0.2,0.1,0.3c0,0.2,0,0.5,0,0.8s0,0.5,0,0.8s0.1,0.5,0.1,0.8s0.1,0.5,0.1,0.8
			c0,0.1,0,0.2-0.1,0.3c-0.1,0.1-0.1,0.1-0.2,0.1c-0.2,0-0.3-0.1-0.4-0.3l0,0c0-0.1-0.1-0.1-0.1-0.2c-0.1-0.3-0.2-0.5-0.6-0.5
			L6.7,53.2z"/>
		<path class="st0" d="M11.3,29.4c-0.3-0.2-0.5-0.1-0.7,0.1c-0.1,0.2-0.3,0.2-0.4,0.1c0,0,0,0,0,0c-0.1,0-0.1-0.1-0.1-0.2
			c0-0.1,0-0.3,0.2-0.6c0.1-0.1,0.2-0.3,0.3-0.4c0.1-0.1,0.2-0.3,0.3-0.4s0.1-0.3,0.2-0.4c0.1-0.2,0.2-0.3,0.2-0.5
			c0.1-0.1,0.1-0.2,0.3-0.2c0.1,0,0.1,0,0.2,0c0.2,0.1,0.1,0.3,0.1,0.4v0.1c0,0.2,0.1,0.5,0.3,0.6l2.3,1.4c0.7,0.5,1.6,0.3,2-0.4
			c0,0,0.1-0.1,0.1-0.2c0.3-0.4,0.3-0.8,0.2-1.2c-0.2-0.5-0.6-1-1.1-1.3l-1.9-1.1c-0.2-0.2-0.5-0.1-0.7,0.1c0,0,0,0.1-0.1,0.1
			c-0.1,0.2-0.3,0.3-0.5,0.2c0,0,0,0,0,0c-0.1,0-0.1-0.1-0.1-0.2c0-0.1,0-0.3,0.1-0.4c0.1-0.1,0.1-0.2,0.2-0.3s0.1-0.2,0.2-0.3
			s0.1-0.2,0.2-0.3s0.1-0.2,0.2-0.4c0-0.1,0.1-0.2,0.2-0.2c0.1,0,0.2,0,0.2,0c0.1,0.1,0.2,0.3,0.1,0.4V24c0,0.1,0,0.2,0.6,0.6l1.5,1
			c0.7,0.4,1.3,1,1.5,1.8c0.2,0.8,0,1.7-0.5,2.4c-0.3,0.6-0.8,1.1-1.5,1.4c-0.7,0.2-1.4,0.1-2-0.4L11.3,29.4z"/>
		<path class="st0" d="M24.4,19.2c0.2,0.2,0.5,0.2,0.7,0.1c0.1-0.1,0.4-0.1,0.5,0.1c0,0,0,0,0,0c0,0.1,0.1,0.1,0.1,0.2
			c0,0.2-0.2,0.3-0.4,0.5c-0.1,0.1-0.2,0.2-0.3,0.3c-0.3,0.2-0.5,0.4-0.8,0.7c-0.1,0.1-0.2,0.3-0.4,0.4c-0.1,0.1-0.4,0.3-0.5,0.1
			c-0.1-0.1-0.1-0.4,0-0.5c0.1-0.1,0.1-0.3-0.1-0.6l-2.5-2.9c-0.1-0.2-0.4-0.3-0.6-0.2c0,0-0.1,0.1-0.1,0.1
			c-0.1,0.1-0.4,0.1-0.5-0.1c0,0,0,0,0,0c0-0.1-0.1-0.1-0.1-0.2c0-0.2,0.2-0.3,0.4-0.5s0.3-0.2,0.4-0.3c0.3-0.2,0.5-0.4,0.8-0.6
			c0.1-0.1,0.2-0.2,0.4-0.4c0.1-0.1,0.2-0.1,0.3-0.1c0.1,0,0.1,0,0.2,0.1c0.2,0.2,0,0.4-0.1,0.5l0,0c-0.1,0.2,0,0.3,0.2,0.6
			L24.4,19.2z"/>
		<path class="st0" d="M27.3,12.9c0-0.2-0.1-0.4-0.1-0.5c-0.1-0.1-0.2-0.2-0.3-0.2c-0.2,0-0.3,0.1-0.5,0.1s-0.2,0-0.3-0.1
			s0-0.2,0.1-0.2c0.2-0.2,0.5-0.3,0.8-0.4s0.4-0.4,0.7-0.5c0.1,0,0.2-0.1,0.2,0s-0.1,0.2-0.1,0.4c0,0.4,0,0.7,0.1,1.1l0.7,4.5
			c0.1,0.5,0,0.6-0.1,0.6s-0.2,0-0.5-0.1l-4.4-2.7c-0.2-0.2-0.5-0.2-0.8-0.2c-0.1,0-0.2,0.1-0.3-0.1s0-0.2,0.1-0.2
			c0.3-0.2,0.7-0.4,1-0.6s0.6-0.5,0.9-0.7c0,0,0.2-0.1,0.2,0s0,0.2-0.1,0.3s-0.1,0.4,0,0.5c0.1,0.1,0.2,0.2,0.4,0.3l2.5,1.6
			c0.2,0.1,0.2,0.1,0.2,0.1s0,0,0-0.2L27.3,12.9z"/>
		<path class="st0" d="M42.4,10.4L42.4,10.4c0-0.1-0.1-0.2-0.1-0.3c0-0.1,0-0.1,0-0.2c0.1-0.1,0.2-0.1,0.2-0.1
			c0.2,0,0.4,0.2,0.4,0.3v0.1c0.3,0.6,1,1,1.7,1c0.3,0,0.5-0.1,0.7-0.3c0.1-0.2,0.2-0.4,0.2-0.6c0-0.5-0.5-0.6-1.3-0.8
			C43.4,9.2,42.2,9,42,7.6c-0.1-0.5,0.1-1,0.4-1.3c0.3-0.4,0.8-0.7,1.3-0.7c0.4,0,0.8,0,1.1,0.1c0.1,0,0.2,0.1,0.3,0.1l0.1-0.1
			c0.1,0,0.1-0.1,0.2-0.1c0.1,0,0.2,0,0.2,0.1c0.1,0.1,0.1,0.1,0.1,0.2c0.1,0.4,0.1,0.7,0.2,1.1c0,0.1,0,0.2,0.1,0.2
			c0,0.1,0,0.2-0.1,0.3c-0.1,0.1-0.1,0.1-0.2,0.1c-0.3,0-0.4-0.2-0.5-0.4l0,0c-0.3-0.6-0.9-0.9-1.5-0.9c-0.2,0-0.5,0.1-0.6,0.3
			c-0.1,0.1-0.1,0.3-0.1,0.4c0.1,0.5,0.5,0.6,1.3,0.8c0.9,0.2,2,0.4,2.2,1.9c0.1,0.5-0.1,1.1-0.4,1.5c-0.3,0.4-0.8,0.7-1.4,0.8
			c-0.4,0-0.7,0-1.1,0h-0.5l0,0c-0.2,0-0.3-0.1-0.4-0.2L42.4,10.4z"/>
		<path class="st0" d="M49.7,10.3c0,0.3,0.2,0.5,0.5,0.5c0.2,0,0.3,0.2,0.3,0.4c0,0,0,0,0,0c0,0.1,0,0.1-0.1,0.2
			c-0.2,0.1-0.4,0.2-0.6,0.1h-0.4c-0.2,0-0.4,0-0.5,0c-0.2,0-0.3,0-0.5,0c-0.2,0-0.3,0-0.5,0c-0.1,0-0.2,0-0.3,0
			c-0.1,0-0.2-0.2-0.2-0.3c0-0.3,0.2-0.3,0.3-0.4s0.3-0.1,0.3-0.6V6.5c0-0.4-0.2-0.5-0.5-0.5c-0.2,0-0.3-0.2-0.3-0.4c0,0,0,0,0,0
			c0-0.1,0-0.1,0.1-0.2c0.2-0.1,0.4-0.2,0.6-0.1c0.2,0,0.4,0,0.5,0c0.2,0,0.3,0,0.5,0c0.2,0,0.3,0,0.5,0c0.2,0,0.3,0,0.5,0
			c0.1,0,0.2,0,0.3,0.1c0.1,0.1,0.1,0.1,0.1,0.2c0,0.2-0.3,0.3-0.4,0.4l0,0c-0.2,0.1-0.2,0.2-0.2,0.5L49.7,10.3z"/>
		<path class="st0" d="M53.5,6.5c0-0.1,0-0.1,0-0.1s-0.3-0.1-0.4-0.1c-0.8-0.1-1-0.1-1.3,0.6c0,0-0.1,0.2-0.3,0.2
			c-0.1,0-0.2,0-0.2-0.1c0-0.1-0.1-0.1,0-0.2c0-0.1,0-0.1,0-0.2V6.4l0.2-0.8c0.1-0.2,0.2-0.3,0.5-0.3c0.4,0.1,0.9,0.1,1.3,0.2
			s0.8,0.1,1.3,0.2s0.9,0.1,1.3,0.1s0.9,0.1,1.3,0.1s0.4,0.2,0.4,0.5v0.9c0,0.1,0,0.1,0,0.2c0,0.2-0.2,0.2-0.3,0.2
			c-0.2,0-0.3-0.2-0.3-0.3c-0.1-0.8-0.4-0.8-1.1-0.9c-0.4-0.1-0.5,0-0.5,0.2l-0.5,3.9c0,0.4,0.1,0.5,0.5,0.6l0.2,0.1l0,0
			c0.2,0,0.3,0.2,0.2,0.4c0,0.2-0.2,0.3-0.4,0.3s-0.5-0.1-0.8-0.1s-0.5-0.1-0.8-0.1s-0.5,0-0.8-0.1s-0.5,0-0.8-0.1
			c-0.1,0-0.2,0-0.3-0.1c0-0.1-0.1-0.1,0-0.2c0-0.2,0.2-0.3,0.3-0.3l0,0l0.2-0.1c0.3-0.1,0.5-0.1,0.6-0.5L53.5,6.5z"/>
		<path class="st0" d="M69.8,17c0.3,0.2,0.7,0.2,1,0.2c0.6-0.2,1.1-0.6,1.4-1.2c0.5-0.7,0.7-1.6,0.5-2.5c-0.1-0.4-0.3-0.7-0.6-0.9
			c-0.7-0.5-1.8,0-2.4,1c-0.5,0.7-0.7,1.6-0.5,2.5C69.2,16.5,69.5,16.8,69.8,17z M72.8,12.2c0.8,0.5,1.3,1.2,1.5,2.1
			c0.2,0.8,0,1.6-0.4,2.3c-1.1,1.6-3.3,1.9-4.8,0.8c0,0,0,0,0,0c-0.7-0.4-1.3-1.2-1.5-2c-0.2-0.8,0-1.7,0.5-2.4
			c0.5-0.7,1.2-1.2,2-1.4C71,11.4,72,11.6,72.8,12.2L72.8,12.2z"/>
		<path class="st0" d="M84.2,24.8c0.1,0,0.1-0.1,0.1-0.1s-0.1-0.3-0.2-0.4c-0.4-0.6-0.6-0.9-1.3-0.6c0,0-0.2,0.1-0.3-0.2
			c-0.1-0.1-0.1-0.2-0.1-0.3c0-0.1,0.1-0.1,0.1-0.2l0.2-0.1h0.1l0.8-0.4c0.2-0.1,0.4-0.1,0.5,0.2s0.5,0.8,0.7,1.1s0.4,0.7,0.7,1.1
			s0.5,0.7,0.7,1.1s0.5,0.7,0.7,1.1s0.1,0.4-0.2,0.6l-0.7,0.5l-0.2,0.1c-0.1,0.1-0.3,0-0.4-0.1c0,0,0,0,0,0c-0.1-0.2-0.1-0.3,0-0.4
			c0.5-0.5,0.4-0.8,0-1.5c-0.1-0.1-0.2-0.2-0.3-0.3c0,0-0.1,0-0.2,0l-3.3,2.1c-0.3,0.2-0.3,0.4-0.2,0.8c0,0.1,0,0.2,0.1,0.2l0,0
			c0.1,0.2,0,0.3-0.1,0.4c-0.2,0.1-0.3,0.1-0.5-0.1s-0.3-0.4-0.4-0.7s-0.2-0.5-0.4-0.7s-0.3-0.4-0.4-0.6s-0.3-0.4-0.4-0.6
			c-0.1-0.1-0.1-0.2-0.1-0.3c0-0.1,0.1-0.1,0.1-0.2c0.1-0.1,0.3-0.1,0.4,0.1l0,0l0.2,0.1c0.3,0.2,0.4,0.4,0.8,0.1L84.2,24.8z"/>
		<path class="st0" d="M88.2,50.5L88.2,50.5c0.1,0,0.2,0,0.3,0c0.1,0,0.2,0,0.2,0.1c0.1,0.1,0.1,0.2,0.1,0.3c0,0.2-0.3,0.3-0.4,0.4
			h-0.1c-0.7,0.2-1.2,0.8-1.3,1.5c0,0.3,0,0.5,0.2,0.7c0.1,0.2,0.3,0.3,0.5,0.3c0.5,0,0.7-0.4,1-1.1c0.4-0.8,0.9-1.9,2.3-1.8
			c0.5,0.1,0.9,0.3,1.2,0.7c0.3,0.4,0.5,0.9,0.4,1.4c0,0.4-0.2,0.7-0.3,1.1c-0.1,0.1-0.1,0.2-0.1,0.3c0,0,0,0.1,0,0.1
			c0,0.1,0,0.2,0,0.2c0,0.1-0.1,0.2-0.1,0.2c-0.1,0-0.2,0-0.2,0c-0.4,0-0.7,0-1.1,0h-0.2c-0.1,0-0.2,0-0.2-0.1
			c-0.1-0.1-0.1-0.2-0.1-0.2c0-0.3,0.3-0.3,0.5-0.4l0,0c0.6-0.2,1.1-0.7,1.2-1.3c0-0.2,0-0.5-0.2-0.7C91.5,52,91.4,52,91.3,52
			c-0.5,0-0.7,0.4-1,1.1S89.4,55,88,54.8c-0.5-0.1-1-0.3-1.4-0.8c-0.4-0.4-0.5-1-0.4-1.5c0-0.4,0.1-0.7,0.3-1.1
			c0.1-0.2,0.1-0.3,0.2-0.5l0,0c0-0.2,0.1-0.3,0.3-0.3L88.2,50.5z"/>
		<path class="st0" d="M8.2,44.2c0-0.2,0-0.2,0-0.2H8.1L7,43.9c-0.4,0-0.5,0.2-0.6,0.4c0,0.2-0.2,0.3-0.4,0.3c0,0,0,0,0,0
			c-0.1,0-0.1,0-0.2-0.1c-0.1-0.2-0.1-0.4-0.1-0.6c0-0.2,0.1-0.3,0.1-0.5c0-0.2,0.1-0.3,0.1-0.5c0-0.2,0-0.3,0-0.5
			c0-0.2,0-0.4,0-0.5c0-0.1,0-0.2,0.1-0.3c0.1,0,0.1-0.1,0.2-0.1c0.3,0,0.3,0.3,0.3,0.4c0.1,0.2,0.3,0.4,0.5,0.4l3.8,0.3
			c0.4,0,0.5-0.2,0.6-0.4c0-0.2,0.2-0.3,0.4-0.3c0,0,0,0,0,0c0.1,0,0.1,0,0.2,0.1c0.1,0.2,0.1,0.4,0.1,0.6c0,0.2,0,0.3-0.1,0.5
			c0,0.2-0.1,0.3-0.1,0.5c0,0.2,0,0.3,0,0.5c0,0.2,0,0.4,0,0.5c0,0.1,0,0.4-0.3,0.4s-0.3-0.3-0.3-0.4c-0.1-0.2-0.3-0.4-0.5-0.4L9,44
			l-0.2,2.2l1.8,0.2c0.4,0,0.5-0.2,0.6-0.4c0-0.2,0.2-0.3,0.4-0.3c0,0,0,0,0,0c0.1,0,0.1,0,0.2,0.1c0.1,0.2,0.1,0.4,0.1,0.6
			c0,0.2,0,0.3-0.1,0.5c0,0.2-0.1,0.3-0.1,0.5c0,0.2,0,0.3,0,0.5c0,0.2,0,0.4,0,0.5c0,0.1,0,0.4-0.3,0.4s-0.3-0.3-0.3-0.4
			c-0.1-0.3-0.4-0.3-0.5-0.4l-3.8-0.3c-0.4,0-0.5,0.2-0.6,0.4c0,0.2-0.2,0.3-0.4,0.3c0,0,0,0,0,0c-0.1,0-0.1,0-0.2-0.1
			c-0.1-0.2-0.1-0.4-0.1-0.6c0-0.2,0.1-0.3,0.1-0.5c0-0.2,0.1-0.3,0.1-0.5c0-0.2,0-0.3,0-0.5c0-0.2,0-0.3,0-0.5c0-0.1,0-0.2,0.1-0.3
			c0.1-0.1,0.1-0.1,0.2-0.1c0.3,0,0.3,0.3,0.3,0.4C6.3,45.9,6.5,46,6.7,46l1.2,0.1H8c0,0,0,0,0-0.1L8.2,44.2z"/>
		<path class="st0" d="M8,39.5c-0.8-0.2-0.9,0-1,0C6.8,39.9,6.7,40,6.4,40c-0.1,0-0.1-0.1-0.2-0.1c-0.1-0.1-0.1-0.3,0-0.4l0,0
			C6.5,39,6.6,38.5,6.8,38l0.1-0.5c0.1-0.3,0.2-0.6,0.2-1s0.1-0.7,0.2-1c0-0.2,0.1-0.3,0.2-0.4c0.1,0,0.2,0,0.2,0l0.3,0.1l0.2,0.1
			l0.3,0l0.3,0.1c0.1,0,0.2,0.1,0.2,0.2c0,0.1,0,0.2,0,0.2c0,0.1-0.1,0.3-0.5,0.2S8,36.1,7.7,37l-0.1,0.5c0,0,0,0.1,0,0.1
			c0,0,0,0,0.2,0.1l1.4,0.4c0.1-0.1,0.1-0.2,0.1-0.3c0.1-0.4,0.1-0.8-0.2-0.9s-0.3-0.2-0.3-0.5c0-0.1,0.1-0.1,0.1-0.2
			c0.1,0,0.2,0,0.3,0l0.4,0.1l0.4,0.1l0.4,0.1l0.4,0.1c0.1,0,0.2,0.1,0.3,0.2c0,0.1,0,0.2,0,0.2c-0.1,0.2-0.3,0.2-0.4,0.2h-0.2
			c-0.3,0.1-0.4,0.2-0.5,0.7c-0.1,0.2,0,0.3,0,0.3s0.1,0,0.1,0l1.4,0.4c0.2,0,0.3,0,0.5,0c0,0,0.1-0.1,0.1-0.3
			c0.2-0.5,0.2-1.1-0.1-1.6c-0.1-0.1-0.2-0.2-0.3-0.3c-0.1-0.1-0.2-0.3-0.2-0.4c0-0.1,0.1-0.1,0.1-0.2c0.1,0,0.2,0,0.3,0
			c0.2,0.1,0.5,0.2,0.7,0.3c0.4,0.3,0.6,0.8,0.6,1.2c-0.1,0.3-0.2,0.6-0.2,0.8s-0.2,0.5-0.2,0.8s-0.1,0.5-0.2,0.8s-0.1,0.6-0.2,0.8
			s-0.1,0.5-0.4,0.5s-0.3-0.3-0.3-0.5v-0.1c0-0.2-0.1-0.3-0.6-0.4L8,39.5z"/>
		<path class="st0" d="M29.7,11.6c-0.4-0.8-0.6-0.8-0.6-0.7c-0.4,0.1-0.6,0.1-0.7-0.1c0-0.1,0-0.1,0-0.2c0.1-0.1,0.2-0.2,0.3-0.3
			l0,0c0.5-0.2,0.9-0.4,1.3-0.6l0.4-0.2c0.3-0.1,0.6-0.3,0.9-0.4s0.6-0.3,0.9-0.4c0.1-0.1,0.3-0.1,0.5-0.1c0.1,0,0.1,0.1,0.2,0.2
			c0,0.1,0.1,0.2,0.1,0.3c0,0.1,0.1,0.2,0.1,0.2c0,0.1,0.1,0.1,0.1,0.2c0.1,0.1,0.1,0.2,0.1,0.3c0,0.1,0,0.2,0,0.3
			c0,0.1-0.1,0.1-0.2,0.2c-0.1,0-0.3,0.1-0.5-0.2s-0.4-0.5-1.3-0.1l-0.5,0.2l-0.1,0.1c0,0.1,0,0.2,0.1,0.2c0,0,0.6,1.3,0.6,1.3
			c0.1,0,0.2,0,0.3-0.1c0.4-0.2,0.6-0.4,0.6-0.7s0-0.4,0.2-0.5c0.1,0,0.1,0,0.2,0c0.1,0.1,0.2,0.1,0.2,0.3c0.1,0.1,0.1,0.2,0.2,0.4
			s0.1,0.2,0.1,0.4l0.2,0.3c0.1,0.1,0.1,0.2,0.2,0.4c0,0.1,0,0.2,0,0.3c0,0.1-0.1,0.1-0.2,0.2c-0.2,0.1-0.3-0.1-0.4-0.2
			c0,0-0.1-0.1-0.1-0.1c-0.3-0.2-0.4-0.1-0.9,0c-0.2,0.1-0.2,0.1-0.2,0.2c0,0,0,0.1,0,0.1l0.6,1.3c0.1,0.2,0.2,0.4,0.3,0.4
			s0.1,0,0.3-0.1c0.5-0.2,1-0.6,1.2-1.1c0-0.1,0.1-0.3,0.1-0.4c0-0.2,0.1-0.3,0.2-0.4c0.1,0,0.2,0,0.2,0c0.1,0,0.2,0.1,0.2,0.2
			c0.1,0.2,0.2,0.5,0.2,0.7c0.1,0.5-0.2,1-0.6,1.2c-0.3,0.1-0.5,0.2-0.8,0.3s-0.5,0.2-0.8,0.3s-0.5,0.2-0.8,0.4s-0.5,0.3-0.8,0.4
			s-0.5,0.2-0.6,0s0-0.4,0.2-0.5v-0.1c0.1-0.2,0.1-0.3-0.1-0.7L29.7,11.6z"/>
		<path class="st0" d="M86.4,29.8c0.8-0.3,0.8-0.5,0.8-0.6c-0.1-0.4-0.1-0.6,0.1-0.7c0.1,0,0.1,0,0.2,0c0.1,0,0.2,0.2,0.2,0.3l0,0
			c0.1,0.5,0.3,0.9,0.5,1.4l0.2,0.4c0.1,0.3,0.3,0.6,0.4,0.9s0.3,0.6,0.4,0.9c0.1,0.1,0.1,0.3,0.1,0.5c0,0.1-0.1,0.1-0.2,0.2
			l-0.3,0.1l-0.2,0.1l-0.2,0.1l-0.3,0.1c-0.1,0-0.2,0-0.3,0c-0.1,0-0.1-0.1-0.2-0.2c0-0.1-0.1-0.3,0.2-0.5s0.5-0.4,0.1-1.3L87.8,31
			c0,0,0-0.1,0-0.1c0,0-0.1,0-0.2,0.1l-1.3,0.6c0,0.1,0,0.2,0.1,0.3c0.2,0.4,0.4,0.6,0.7,0.6s0.4,0,0.5,0.2c0,0.1,0,0.1,0,0.2
			c-0.1,0.1-0.1,0.2-0.3,0.2l-0.4,0.1l-0.3,0.1l-0.3,0.2l-0.3,0.2c-0.1,0-0.2,0-0.3,0c-0.1,0-0.1-0.1-0.2-0.2
			c-0.1-0.2,0.1-0.3,0.2-0.4c0,0,0.1-0.1,0.1-0.1c0.2-0.3,0.2-0.4,0-0.9c-0.1-0.2-0.2-0.2-0.2-0.2c0,0-0.1,0-0.1,0L84,32.5
			c-0.2,0.1-0.4,0.2-0.4,0.3s0,0.1,0.1,0.3c0.2,0.5,0.6,1,1.1,1.2c0.1,0.1,0.3,0.1,0.4,0.1c0.2,0,0.3,0.1,0.4,0.2c0,0.1,0,0.2,0,0.2
			c0,0.1-0.1,0.1-0.2,0.2c-0.2,0.1-0.5,0.1-0.7,0.2c-0.5,0.1-1-0.2-1.2-0.6c-0.1-0.3-0.2-0.5-0.3-0.8S83,33.3,82.9,33
			s-0.2-0.5-0.4-0.8s-0.3-0.5-0.4-0.8s-0.2-0.5,0.1-0.6s0.4,0.1,0.5,0.2h0.1c0.2,0.1,0.3,0.1,0.7,0L86.4,29.8z"/>
		<path class="st0" d="M70.3,82.2l1.7,2.4c0.1,0.3,0.5,0.4,0.8,0.3l0.2-0.1c0.2-0.1,0.4-0.2,0.6,0c0,0.1,0.1,0.1,0.1,0.2
			c0,0.2-0.2,0.3-0.3,0.3c-0.1,0.1-0.3,0.2-0.4,0.2c-0.1,0.1-0.3,0.1-0.4,0.2c-0.1,0.1-0.2,0.2-0.3,0.3c-0.1,0.1-0.2,0.2-0.4,0.3
			c-0.1,0-0.1,0.1-0.2,0.1c-0.1,0-0.2,0-0.3-0.1c-0.1-0.1-0.1-0.3,0-0.5l0,0c0.2-0.3,0.2-0.7-0.1-0.9l-1.9-2.6
			C69.3,82.2,69,82,68.7,82h-0.1c-0.2,0-0.4,0.1-0.5-0.1C68,81.8,68,81.7,68,81.7c0-0.1,0.1-0.1,0.1-0.2l0.3-0.2l0.3-0.2l0.3-0.2
			l0.3-0.2c0.1-0.1,0.3-0.2,0.5-0.1l4.8,0.8l-1.1-1.5c-0.4-0.5-0.6-0.7-1-0.6s-0.6,0.2-0.7,0c0-0.1-0.1-0.1-0.1-0.2
			c0-0.1,0.2-0.2,0.3-0.3c0.1-0.1,0.3-0.2,0.4-0.2c0.1-0.1,0.3-0.1,0.4-0.2c0.1-0.1,0.2-0.2,0.3-0.3c0.1-0.1,0.2-0.2,0.4-0.3
			c0.1-0.1,0.2-0.1,0.3-0.1c0.1,0,0.2,0.1,0.2,0.1c0.1,0.1,0.1,0.3,0,0.5l0,0c-0.2,0.3-0.2,0.7,0.1,0.9l2.4,3.3
			c0.2,0.2,0.3,0.4,0.2,0.5c0,0.1-0.1,0.1-0.1,0.2c-0.1,0.1-0.3,0.1-0.8,0L70.3,82.2z"/>
		<path class="st0" d="M16.5,22.7l2.2,2c0.2,0.2,0.5,0.3,0.8,0.1l0.1-0.1c0.1-0.1,0.4-0.3,0.5-0.1c0.1,0.1,0.1,0.1,0.1,0.2
			c0,0.2-0.1,0.3-0.2,0.4c-0.1,0.1-0.2,0.2-0.3,0.3c-0.1,0.1-0.2,0.2-0.3,0.3c-0.1,0.1-0.2,0.2-0.3,0.3c-0.1,0.1-0.2,0.3-0.3,0.4
			c0,0.1-0.1,0.1-0.2,0.1c-0.1,0-0.2,0-0.3-0.1c-0.1-0.1-0.2-0.3-0.1-0.5l0,0c0.1-0.3,0-0.7-0.3-0.9l-2.4-2.1
			c-0.2-0.2-0.5-0.3-0.8-0.3l-0.1,0.1c-0.2,0.1-0.4,0.2-0.5,0c-0.1-0.1-0.1-0.1-0.1-0.2c0-0.1,0-0.1,0.1-0.2l0.3-0.3l0.3-0.3
			l0.2-0.3l0.2-0.3c0.1-0.1,0.3-0.2,0.4-0.2l4.8-0.2l-1.4-1.2c-0.5-0.4-0.8-0.6-1.1-0.4s-0.5,0.4-0.7,0.2c-0.1,0-0.1-0.1-0.1-0.2
			c0-0.1,0.1-0.3,0.2-0.4c0.1-0.1,0.2-0.2,0.3-0.3c0.1-0.1,0.2-0.2,0.3-0.3c0.1-0.1,0.2-0.2,0.3-0.3c0.1-0.1,0.2-0.3,0.3-0.4
			c0.1-0.1,0.1-0.1,0.2-0.1c0.1,0,0.2,0,0.2,0.1c0.1,0.1,0.2,0.3,0.1,0.5l0,0c-0.1,0.3,0,0.7,0.3,0.9l3.1,2.7
			c0.2,0.2,0.3,0.3,0.4,0.5c0,0.1,0,0.1-0.1,0.2c-0.1,0.1-0.3,0.1-0.8,0.2L16.5,22.7z"/>
		<path class="st0" d="M37.3,9.6C37.3,9.6,37.3,9.6,37.3,9.6c0,0.1,0.1,0.1,0.4,0.1c0.2,0,0.5-0.2,0.6-0.4c0.1-0.3,0.1-0.6,0-0.9
			c-0.1-0.3-0.2-0.5-0.4-0.6c-0.2-0.2-0.5-0.2-0.8-0.1c-0.2,0.1-0.3,0.1-0.3,0.1c0,0.1,0,0.1,0,0.2L37.3,9.6z M39.3,9.6
			c0.5,0.6,1.2,1.2,1.8,1.7c0.1,0.1,0.1,0.1,0.1,0.1l0,0h0.1l0.1-0.1c0.1,0,0.2,0,0.2,0c0.1,0,0.1,0.1,0.2,0.2c0,0.1,0,0.2,0,0.3
			c-0.2,0.4-1,0.6-1.2,0.7c-0.4,0.1-0.7-0.1-1-0.3l-1.5-1.5c-0.2-0.2-0.3-0.3-0.5-0.2l-0.1,0.1l0.4,1.4c0.2,0.6,0.4,0.6,0.7,0.6
			c0.2,0,0.4,0.1,0.4,0.3c0,0,0,0,0,0c0,0.1,0,0.1,0,0.2c-0.1,0.1-0.2,0.2-0.5,0.3c-0.2,0-0.3,0.1-0.5,0.1c-0.2,0-0.3,0.1-0.5,0.1
			c-0.2,0-0.3,0.1-0.5,0.2c-0.2,0.1-0.3,0.1-0.5,0.2c-0.1,0-0.4,0.1-0.5-0.2s0.2-0.4,0.2-0.4c0.2-0.1,0.2-0.4,0.2-0.6l-1-3.7
			c-0.1-0.3-0.3-0.4-0.6-0.4c-0.2,0.1-0.4,0-0.4-0.2c0,0,0-0.1,0-0.1c0-0.1,0-0.1,0-0.2c0.1-0.1,0.2-0.2,0.3-0.2l0.3-0.1
			c0.3,0,0.5-0.1,0.8-0.2c0.2-0.1,0.5-0.2,0.8-0.2S36.8,7,37,6.9c0.7-0.3,1.4-0.3,2.1,0c0.4,0.2,0.6,0.6,0.8,1c0.2,0.5,0,1-0.4,1.4
			C39.5,9.4,39.3,9.5,39.3,9.6L39.3,9.6z"/>
		<path class="st0" d="M62.2,8.6c0.1-0.1,0.2-0.2,0.2-0.3c0-0.1-0.2-0.3-0.4-0.4c-0.2-0.1-0.2-0.3-0.2-0.4c0-0.1,0.1-0.1,0.1-0.2
			c0.1,0,0.2,0,0.3,0c0.1,0,0.3,0.1,0.4,0.2c0.1,0.1,0.3,0.1,0.4,0.2l0.4,0.1c0.2,0,0.3,0.1,0.5,0.1c0.1,0,0.2,0.1,0.2,0.2
			c0,0.1,0,0.2,0,0.2c0,0.2-0.2,0.3-0.4,0.2h0c-0.2,0-0.3,0.1-0.8,0.5l-1.6,1.4l-0.1,0.1c-0.1,0.1-0.2,0.2-0.2,0.3l-0.4,1.3
			c-0.1,0.4,0,0.6,0.2,0.7l0,0c0.2,0.1,0.4,0.2,0.4,0.5c0,0.2-0.2,0.3-0.4,0.2c-0.1,0-0.2,0-0.4-0.1c-0.2-0.1-0.4-0.1-0.5-0.2
			s-0.4-0.1-0.6-0.2l-0.4-0.1c-0.2,0-0.4-0.1-0.6-0.1s-0.4-0.1-0.5-0.3c0-0.1,0-0.2,0-0.2c0.1-0.3,0.4-0.2,0.6-0.2l0,0
			c0.2,0,0.5,0,0.6-0.5l0.3-1c0,0,0-0.1,0-0.1l-0.6-2.7c-0.1-0.6-0.3-0.7-0.4-0.8S58,6.6,58.1,6.3c0-0.1,0.1-0.1,0.1-0.2
			c0.1-0.1,0.3-0.1,0.4,0c0.2,0.1,0.4,0.1,0.6,0.2s0.3,0.1,0.5,0.2c0.2,0,0.4,0.1,0.5,0.1c0.2,0,0.4,0.1,0.6,0.1
			c0.1,0,0.3,0.1,0.3,0.2c0,0.1,0,0.1,0,0.2c-0.1,0.2-0.3,0.2-0.4,0.2s-0.3,0.2-0.2,0.4L61,9.7L62.2,8.6z"/>
		<path class="st0" d="M76.1,16.2c0.2-0.2,0.3-0.4,0.3-0.5s0,0-0.1-0.1c-0.2-0.1-0.3-0.3-0.3-0.5c0-0.1,0-0.2,0.1-0.2
			c0-0.1,0.1-0.1,0.2-0.1c0.2,0,0.3,0.1,0.4,0.2c0.2,0.2,0.5,0.4,0.7,0.7s0.4,0.4,0.7,0.6s0.5,0.4,0.7,0.6s0.5,0.4,0.7,0.6
			c0.1,0.1,0.2,0.2,0.2,0.4c0,0.1,0,0.2-0.1,0.2l-0.2,0.2l-0.2,0.2l-0.2,0.2L79,19.1c0,0.1-0.1,0.1-0.2,0.1c-0.1,0-0.2,0-0.3-0.1
			c-0.1-0.1-0.2-0.2,0-0.5c0.3-0.5,0.1-0.8-0.5-1.3L77.7,17l-0.2,0.2l-1,1.1l0.2,0.2c0,0,0.5,0.4,0.8,0.3c0.1,0,0.1,0,0.2-0.1
			c0.1-0.1,0.3-0.1,0.4,0c0.1,0.1,0.1,0.1,0.1,0.2c0,0.1-0.1,0.2-0.1,0.3l-0.3,0.3l-0.3,0.3L77.3,20l-0.2,0.3
			c-0.2,0.2-0.3,0.2-0.5,0.1s-0.1-0.3,0-0.5c0-0.1,0.1-0.2,0.1-0.2c0-0.2,0-0.4-0.4-0.7c-0.1-0.1-0.2-0.1-0.2-0.1s-0.1,0-0.1,0.1
			l-1,1.2c-0.3,0.4-0.2,0.6,0,0.8c0.1,0.1,0.1,0.4,0,0.5c0,0,0,0,0,0c0,0-0.2,0.2-0.4,0c-0.1-0.1-0.2-0.1-0.3-0.2
			c-0.1-0.1-0.2-0.2-0.4-0.4s-0.2-0.2-0.3-0.4c-0.1-0.1-0.3-0.2-0.4-0.3c-0.1-0.1-0.3-0.2-0.4-0.3c-0.1-0.1-0.2-0.2-0.2-0.3
			c0-0.1,0-0.2,0.1-0.2c0.1-0.1,0.4-0.1,0.5,0c0.2,0.1,0.5,0,0.6-0.2L76.1,16.2z"/>
		<path class="st0" d="M86.2,37.8c-0.1-0.1-0.3-0.1-0.4-0.1c-0.1,0-0.2,0.1-0.2,0.3c0,0.1,0,0.5-0.3,0.6c-0.1,0-0.3,0-0.3-0.2
			c0-0.1-0.1-0.2-0.1-0.2c0-0.2-0.1-0.3-0.1-0.5c0-0.1,0-0.3-0.1-0.4c0-0.1-0.1-0.3-0.1-0.4c-0.1-0.1-0.1-0.3-0.2-0.4
			c-0.1-0.1-0.1-0.3,0-0.4c0-0.1,0.1-0.1,0.2-0.1c0.2,0,0.3,0,0.4,0.2l0,0c0.3,0.3,0.6,0.5,0.9,0.7l1.8,0.9l1.5-1.8
			c0.2-0.3,0.4-0.6,0.5-0.9v-0.1c0-0.2,0.1-0.3,0.2-0.4c0.1,0,0.1,0,0.2,0c0.1,0.1,0.2,0.2,0.2,0.4c0,0.2,0.1,0.4,0.1,0.5
			s0.1,0.4,0.1,0.5s0.1,0.4,0.2,0.5S91,36.8,91,37c0.1,0.1,0.1,0.3,0,0.4c0,0.1-0.1,0.1-0.2,0.1c-0.2,0-0.4-0.1-0.4-0.2
			c0-0.1-0.1-0.1-0.1-0.1l0,0c0,0-0.1,0-0.2,0.2l-0.9,1l1,0.5c0.2,0.1,0.3,0.1,0.5,0.2c0.1,0,0.1-0.1,0.1-0.3c0,0,0-0.1,0-0.1
			c0-0.2,0.1-0.4,0.3-0.4c0.1,0,0.2,0,0.2,0c0.1,0.1,0.2,0.2,0.2,0.3c0,0.2,0.1,0.3,0.1,0.5c0,0.1,0,0.3,0.1,0.4
			c0,0.1,0.1,0.3,0.1,0.4c0.1,0.1,0.1,0.3,0.2,0.4c0.1,0.1,0.1,0.2,0,0.4c0,0.1-0.1,0.1-0.2,0.1c-0.2,0-0.4,0-0.4-0.2
			c-0.2-0.3-0.4-0.5-0.8-0.7L88.7,39l-1.7,2c-0.2,0.2-0.4,0.5-0.5,0.8l0,0c0,0.2,0,0.4-0.3,0.5s-0.4-0.3-0.4-0.5s-0.1-0.3-0.1-0.5
			c0-0.2-0.1-0.3-0.1-0.5c0-0.2-0.1-0.3-0.2-0.5s-0.1-0.3-0.2-0.5c-0.1-0.2-0.1-0.4,0-0.5c0-0.1,0.1-0.1,0.2-0.1
			c0.2,0,0.4,0.1,0.5,0.2l0,0l0,0c0,0,0.1,0,0.1,0c0.1,0,0.1,0,0.1-0.1l0,0l1.1-1.3L86.2,37.8z"/>
		<path class="st0" d="M30.9,82.9c0-0.1,0-0.1,0-0.1s-0.3-0.2-0.3-0.2c-0.7-0.3-1-0.4-1.5,0.1c0,0-0.1,0.2-0.4,0
			c-0.1,0-0.1-0.1-0.2-0.2c0-0.1,0-0.1,0-0.2l0.1-0.2l0-0.1l0.5-0.7c0.1-0.2,0.3-0.2,0.5-0.1s0.8,0.4,1.1,0.6s0.8,0.4,1.1,0.6
			s0.8,0.4,1.2,0.6s0.8,0.4,1.2,0.6s0.3,0.3,0.2,0.6L34.2,85c0,0.1,0,0.1-0.1,0.2c-0.1,0.1-0.3,0.2-0.4,0.1
			c-0.2-0.1-0.2-0.3-0.2-0.3c0.2-0.7-0.1-0.9-0.8-1.2c-0.4-0.2-0.4-0.1-0.5,0l-1.8,3.5c-0.2,0.3,0,0.5,0.2,0.7
			c0.1,0.1,0.1,0.1,0.2,0.2l0,0c0.1,0.1,0.2,0.3,0.1,0.4c-0.1,0.2-0.2,0.2-0.5,0.1s-0.5-0.2-0.7-0.4s-0.4-0.3-0.7-0.4
			s-0.5-0.2-0.7-0.3s-0.5-0.2-0.7-0.3c-0.1,0-0.2-0.1-0.2-0.2c0-0.1,0-0.2,0-0.2c0.1-0.2,0.3-0.2,0.4-0.2l0,0h0.2
			c0.3,0.1,0.6,0.1,0.7-0.2L30.9,82.9z"/>
		<path class="st0" d="M46.6,87.7c0-0.2,0-0.3-0.1-0.4c-0.1-0.1-0.2-0.1-0.3-0.1c-0.2,0-0.3-0.1-0.3-0.3c0,0,0,0,0,0
			c0-0.1,0-0.2,0.1-0.2c0.1-0.1,0.3-0.1,0.6-0.1c0.2,0,0.4,0,0.5,0c0.2,0,0.3,0,0.5,0s0.3,0,0.5,0c0.2,0,0.4,0,0.5,0
			c0.1,0,0.2,0,0.3,0.1c0.1,0.1,0.1,0.1,0.1,0.2c0,0.2-0.2,0.3-0.3,0.3h-0.1c-0.2,0.1-0.3,0.3-0.3,0.6v2.7c0,0.4,0.2,0.8,0.4,1.1
			c0.3,0.3,0.7,0.4,1.2,0.4c0.4,0,0.9-0.1,1.2-0.4c0.4-0.4,0.5-1,0.5-1.6v-2.2c0-0.3-0.2-0.5-0.4-0.5c0,0-0.1,0-0.1,0
			c-0.3,0-0.4-0.2-0.4-0.4c0-0.1,0-0.1,0.1-0.2c0.1-0.1,0.3-0.1,0.4-0.1h0.8h0.4h0.4c0.1,0,0.2,0,0.3,0.1c0.1,0.1,0.1,0.1,0.1,0.2
			c0,0.2-0.2,0.3-0.3,0.3h-0.1c-0.1,0.1-0.2,0.1-0.2,0.8v1.8c0.1,0.8-0.2,1.6-0.7,2.2c-0.6,0.6-1.4,0.9-2.3,0.8
			c-0.7,0.1-1.4-0.1-2-0.5c-0.5-0.5-0.8-1.2-0.7-1.9L46.6,87.7z"/>
		<path class="st0" d="M54.1,90.8L54.1,90.8c0-0.1-0.1-0.2-0.1-0.3c0-0.1,0-0.1,0-0.2c0.1-0.1,0.1-0.1,0.2-0.2
			c0.2-0.1,0.4,0.2,0.5,0.3v0.1c0.4,0.6,1.1,0.9,1.8,0.8c0.3,0,0.5-0.2,0.6-0.4c0.1-0.2,0.1-0.4,0.1-0.6c-0.1-0.4-0.6-0.5-1.3-0.7
			c-0.9-0.1-2.1-0.3-2.4-1.7c-0.1-0.5,0-1,0.3-1.4c0.3-0.4,0.7-0.7,1.2-0.8c0.4-0.1,0.7-0.1,1.1,0c0.1,0,0.2,0,0.3,0l0.1-0.1
			c0.1-0.1,0.1-0.1,0.2-0.1c0.1,0,0.2,0,0.2,0c0.1,0.1,0.1,0.1,0.1,0.2c0.1,0.4,0.2,0.8,0.4,1.1l0.1,0.2c0,0.1,0,0.2,0,0.3
			c-0.1,0.1-0.1,0.1-0.2,0.1c-0.3,0.1-0.4-0.2-0.5-0.3l0,0c-0.3-0.5-1-0.8-1.6-0.8c-0.2,0-0.4,0.2-0.6,0.4c-0.1,0.1-0.1,0.3-0.1,0.4
			c0.1,0.5,0.6,0.6,1.3,0.7c0.9,0.1,2.1,0.3,2.4,1.7c0.1,0.5-0.1,1.1-0.4,1.5c-0.3,0.5-0.8,0.8-1.3,0.9c-0.4,0-0.7,0-1.1,0h-0.5
			c-0.2,0-0.3,0-0.4-0.2L54.1,90.8z"/>
		<path class="st0" d="M60.5,85.7c0-0.1-0.1-0.1-0.1-0.1c-0.1,0-0.3,0-0.4,0.1c-0.7,0.3-1,0.4-0.9,1.2c0,0,0,0.2-0.2,0.3
			c-0.1,0.1-0.3,0-0.4-0.1c0,0,0,0,0,0c0-0.1,0-0.1-0.1-0.2v-0.1l-0.2-0.8c-0.1-0.2,0-0.4,0.3-0.5c0.4-0.2,0.8-0.3,1.2-0.4
			s0.8-0.3,1.2-0.4s0.8-0.3,1.2-0.5s0.8-0.3,1.2-0.5s0.4,0,0.6,0.3l0.4,0.8c0,0.1,0.1,0.1,0.1,0.2c0,0.1,0,0.1,0,0.2
			c0,0.1-0.1,0.1-0.2,0.2c-0.2,0.1-0.3,0-0.4-0.1c-0.4-0.6-0.7-0.6-1.4-0.3c-0.3,0.1-0.3,0.2-0.4,0.2s0,0,0,0.1l1.4,3.7
			c0.1,0.3,0.3,0.4,0.7,0.3h0.3c0.2,0,0.3,0.1,0.4,0.2c0,0.1,0,0.2,0,0.2c-0.1,0.1-0.1,0.2-0.2,0.2c-0.2,0.1-0.5,0.2-0.7,0.2
			s-0.5,0.1-0.7,0.2s-0.5,0.2-0.7,0.3s-0.5,0.2-0.7,0.3s-0.4,0-0.5-0.2c-0.1-0.2,0-0.3,0.2-0.4l0,0l0.2-0.2c0.3-0.2,0.4-0.3,0.3-0.7
			L60.5,85.7z"/>
		<path class="st0" d="M69,86.5c0.1,0.2,0.4,0.3,0.7,0.2c0.2-0.1,0.4,0,0.5,0.2c0,0,0,0,0,0c0,0.1,0,0.1,0,0.2
			c0,0.2-0.2,0.3-0.5,0.4l-0.4,0.2c-0.2,0.1-0.3,0.1-0.5,0.2c-0.1,0.1-0.3,0.2-0.4,0.3c-0.1,0.1-0.3,0.2-0.4,0.3
			c-0.1,0.1-0.4,0.2-0.6-0.1c-0.1-0.2,0-0.4,0.1-0.5c0.1-0.1,0.2-0.2,0-0.6l-1.8-3.4c-0.1-0.2-0.3-0.4-0.6-0.3c0,0-0.1,0-0.1,0.1
			c-0.2,0.1-0.4,0-0.5-0.2c0,0,0,0,0,0c0-0.1,0-0.1,0-0.2c0.1-0.2,0.2-0.3,0.5-0.4s0.3-0.2,0.5-0.2c0.2-0.1,0.3-0.1,0.4-0.2
			c0.1-0.1,0.3-0.2,0.4-0.3c0.1-0.1,0.3-0.2,0.4-0.3c0.1-0.1,0.2-0.1,0.3-0.1c0.1,0,0.1,0.1,0.2,0.2c0.1,0.2-0.1,0.4-0.2,0.5l0,0
			c-0.1,0.1-0.1,0.3,0.1,0.6L69,86.5z"/>
		<path class="st0" d="M42.9,88.1l-0.8,1.2l1.2,0.2L42.9,88.1z M43.3,86.3c0.2-0.2,0.2-0.4,0.4-0.3s0.2,0.1,0.2,0.3l1.4,4.9l0,0.2
			c0.1,0.3,0.1,0.5,0.3,0.6h0c0.2,0.1,0.4,0.2,0.4,0.4s-0.3,0.3-0.4,0.2s-0.4-0.1-0.6-0.1l-0.5-0.1H44c-0.2,0-0.4,0-0.6-0.1
			c-0.1,0-0.2-0.1-0.2-0.1c0-0.1,0-0.1,0-0.2c0-0.2,0.2-0.3,0.4-0.3c0,0,0,0,0,0l0,0c0.1,0,0.3-0.1,0.3-0.3c0-0.3-0.1-0.7-0.2-1
			c0-0.1-0.2-0.1-0.5-0.2l-1.3-0.2c-0.1,0-0.3,0.1-0.4,0.3s-0.3,0.4-0.2,0.6s0.1,0.2,0.2,0.2h0.1c0.3,0.1,0.6,0.2,0.5,0.5
			s-0.3,0.3-0.4,0.2c-0.1,0-0.3-0.1-0.4-0.1c-0.1,0-0.3-0.1-0.4-0.1c-0.1,0-0.3,0-0.4,0c-0.1,0-0.3,0-0.5,0c-0.1,0-0.2,0-0.3-0.1
			c0-0.1,0-0.2,0-0.2c0-0.2,0.2-0.3,0.3-0.3H40c0.1-0.1,0.2-0.1,0.3-0.2L43.3,86.3z"/>
		<path class="st0" d="M26,81.1l-1.3,0.7l1,0.7L26,81.1z M27.1,79.7c0.2-0.1,0.4-0.2,0.5-0.1s0.1,0.2,0.1,0.4l-0.9,5v0.2
			c-0.1,0.3-0.1,0.5,0,0.7l0,0c0.1,0.2,0.3,0.3,0.1,0.6s-0.4,0.1-0.5,0S26.1,86.2,26,86s-0.3-0.2-0.4-0.3s-0.3-0.2-0.5-0.3
			s-0.4-0.2-0.5-0.3c-0.1-0.1-0.1-0.1-0.2-0.2c0-0.1,0-0.1,0-0.2c0.1-0.2,0.3-0.2,0.5-0.1l0,0c0.1,0.1,0.3,0,0.4-0.1
			c0.1-0.3,0.2-0.7,0.3-1c0-0.1-0.1-0.2-0.4-0.4L24,82.4c-0.1-0.1-0.3,0-0.5,0.1S23,82.8,23,83s0,0.2,0.1,0.3l0.1,0.1
			c0.2,0.2,0.4,0.5,0.2,0.7s-0.4,0.1-0.5,0c-0.1-0.1-0.2-0.2-0.4-0.3c-0.1-0.1-0.2-0.2-0.3-0.3c-0.1-0.1-0.2-0.1-0.4-0.2
			c-0.1-0.1-0.3-0.1-0.4-0.2c-0.1-0.1-0.2-0.1-0.2-0.2c0-0.1,0-0.2,0.1-0.2c0.1-0.1,0.3-0.2,0.5-0.1H22c0.1,0,0.2,0,0.3-0.1
			L27.1,79.7z"/>
		<path class="st0" d="M90.4,45.8L89,45.3l0.1,1.3L90.4,45.8z M92.2,45.8c0.2,0.1,0.4,0.2,0.4,0.4s-0.1,0.2-0.2,0.3l-4.5,2.4
			L87.7,49c-0.2,0.1-0.5,0.2-0.5,0.4v0c0,0.2-0.1,0.4-0.3,0.5s-0.3-0.3-0.3-0.4s0-0.4,0-0.6s0-0.4,0-0.6s0-0.4-0.1-0.5
			s-0.1-0.4-0.1-0.6c0-0.1,0-0.2,0.1-0.3c0-0.1,0.1-0.1,0.2-0.1c0.2,0,0.4,0.2,0.4,0.4l0,0c0,0.1,0.2,0.2,0.3,0.2
			c0.3-0.1,0.6-0.2,0.9-0.4c0.1-0.1,0.1-0.2,0.1-0.6l-0.1-1.3c0-0.1-0.2-0.2-0.4-0.3s-0.5-0.2-0.7-0.1S87,44.8,87,45v0.1
			c-0.1,0.3-0.1,0.6-0.4,0.6s-0.3-0.3-0.3-0.4c0-0.2,0-0.3,0-0.5c0-0.1,0-0.3,0-0.4c0-0.1-0.1-0.3-0.1-0.4c0-0.1,0-0.3-0.1-0.5
			c0-0.1,0-0.2,0.1-0.3c0.1-0.1,0.1-0.1,0.2-0.1c0.2,0,0.3,0.2,0.4,0.3l0.1,0.1c0.1,0.1,0.2,0.2,0.3,0.2L92.2,45.8z"/>
		<path class="st0" d="M29.5,69.9c0.1-0.1,0.2-0.2,0.2-0.3c0-0.1-0.1-0.2-0.3-0.4c-0.6-0.4-1.4-0.3-1.9,0.2
			c-0.4,0.3-0.6,0.8-0.6,1.3c0,0.3,0.1,0.6,0.4,0.9c0.1,0.1,0.2,0.1,0.2,0.1c0.1,0,0.2-0.1,0.3-0.2L29.5,69.9z M28.7,72.1
			c-0.4,0.4-0.3,0.4-0.3,0.6v0.1c0.1,0.1,0.1,0.2,0,0.3c0,0.1-0.1,0.1-0.2,0.1c-0.1,0-0.1-0.1-0.2-0.1c-0.1-0.1-0.2-0.2-0.3-0.3
			l-0.3-0.3l-0.3-0.3L27,71.8c-0.5-0.5-0.9-1.1-1-1.8c0-0.5,0.2-1,0.6-1.3c0.4-0.4,0.9-0.6,1.5-0.6c0.6,0,1.3,0.3,1.7,0.8
			c0.3,0.3,0.5,0.5,0.6,0.6l0.2,0.2l0.2,0.2l0.2,0.2c0.1,0.1,0.1,0.1,0.1,0.2c0,0,0,0.1,0,0.1c-0.1,0.1-0.2,0-0.3,0l0,0
			c-0.1-0.1-0.3,0.1-0.5,0.3L28.7,72.1z"/>
		<path class="st0" d="M26.8,66.7c0.2-0.1,0.2-0.4,0.1-0.5c-0.1-0.1-0.1-0.2,0-0.3c0,0,0,0,0,0c0,0,0.1,0,0.1,0
			c0.1,0,0.2,0.1,0.3,0.2s0.1,0.2,0.2,0.2c0.1,0.1,0.1,0.2,0.2,0.3l0.2,0.2c0.1,0.1,0.2,0.2,0.2,0.2c0.1,0.1,0.1,0.1,0.1,0.2
			c0,0,0,0.1-0.1,0.1c-0.1,0.1-0.2,0.1-0.3,0c-0.1-0.1-0.2-0.1-0.4,0.1l-2,1.6c-0.2,0.1-0.2,0.3-0.1,0.4c0,0,0,0.1,0.1,0.1
			c0.1,0.1,0.1,0.2,0,0.3c0,0,0,0,0,0c-0.1,0.1-0.3-0.1-0.4-0.2c-0.1-0.1-0.1-0.2-0.2-0.3c-0.1-0.1-0.1-0.2-0.2-0.3l-0.2-0.2
			c-0.1-0.1-0.2-0.2-0.2-0.2c-0.1,0-0.1-0.1-0.1-0.2c0,0,0-0.1,0.1-0.1c0.1-0.1,0.2,0,0.3,0.1l0,0c0.1,0.1,0.2,0,0.4-0.1L26.8,66.7z
			"/>
		<path class="st0" d="M26.1,66.3L26.1,66.3c0,0-0.1,0.1-0.1,0.1c-0.1,0-0.2,0-0.2-0.1c0,0,0,0,0,0c-0.1-0.1,0-0.2,0.1-0.3l0,0
			c0.3-0.4,0.3-0.9,0.1-1.3c-0.1-0.1-0.2-0.2-0.4-0.3c-0.2,0-0.3,0-0.5,0.1c-0.3,0.2-0.2,0.5-0.1,1s0.3,1.3-0.4,1.8
			c-0.5,0.4-1.3,0.2-1.6-0.3c-0.1-0.2-0.2-0.4-0.3-0.7c0-0.1,0-0.2-0.1-0.2L22.4,66c0,0-0.1-0.1-0.1-0.1c0,0,0-0.1,0-0.1
			c0-0.1,0.1-0.1,0.1-0.1c0.2-0.1,0.4-0.3,0.6-0.5l0.1-0.1c0.1,0,0.1,0,0.2,0c0.1,0,0.1,0,0.1,0.1c0.1,0.1,0,0.2-0.1,0.3l0,0
			c-0.3,0.3-0.3,0.8-0.1,1.2c0.1,0.1,0.2,0.2,0.4,0.3c0.1,0,0.2,0,0.3-0.1c0.3-0.2,0.2-0.5,0.1-1s-0.4-1.3,0.4-1.8
			c0.3-0.2,0.7-0.3,1-0.2c0.3,0.1,0.6,0.3,0.8,0.6c0.1,0.2,0.2,0.4,0.3,0.7l0.1,0.3l0,0c0.1,0.1,0.1,0.2,0,0.3L26.1,66.3z"/>
		<path class="st0" d="M20.8,61.1l0.1-0.1l0.1-0.1c0.1,0,0.1,0,0.2,0c0,0,0.1,0,0.1,0.1c0,0.1,0,0.2-0.1,0.3l0,0
			c-0.4,0.4-0.5,1-0.3,1.5c0.1,0.3,0.3,0.5,0.6,0.6c0.4,0.1,0.9,0,1.3-0.2c0.4-0.2,0.8-0.6,0.9-1c0.1-0.3,0.1-0.5,0-0.8
			c-0.2-0.4-0.6-0.7-1-0.8h0c-0.1,0-0.2-0.1-0.3-0.2c0,0,0-0.1,0-0.1c0,0,0-0.1,0.1-0.1c0.2,0,0.4,0,0.6,0.1c0.5,0.2,1,0.6,1.2,1.1
			c0.2,0.5,0.3,1.1,0.1,1.6c-0.2,0.5-0.5,0.9-1,1.1c-0.6,0.3-1.2,0.4-1.8,0.2c-0.5-0.2-0.9-0.6-1.1-1.1c-0.1-0.3-0.2-0.7-0.2-1
			c0-0.1,0-0.2,0-0.2c0,0,0,0-0.1,0c-0.1,0-0.2,0-0.2-0.1c0-0.1,0-0.1,0-0.2L20.8,61.1z"/>
		<path class="st0" d="M22.3,58.5c0.2-0.1,0.3-0.3,0.2-0.5c0-0.1,0-0.2,0.1-0.3c0,0,0,0,0,0c0,0,0.1,0,0.1,0c0.1,0,0.1,0.2,0.2,0.3
			s0,0.2,0.1,0.3c0,0.1,0.1,0.2,0.1,0.3c0,0.1,0.1,0.2,0.1,0.3c0,0.1,0.1,0.2,0.1,0.3c0,0.1,0,0.2,0,0.2c0,0-0.1,0.1-0.1,0.1
			c-0.1,0-0.2-0.1-0.3-0.1s-0.2-0.1-0.4-0.1l-2.4,0.9c-0.2,0-0.3,0.2-0.3,0.4c0,0,0,0.1,0,0.1c0,0.1,0,0.2-0.1,0.3c0,0,0,0,0,0
			c0,0-0.1,0-0.2-0.1c0-0.1-0.1-0.1-0.1-0.2c0-0.1-0.1-0.2-0.1-0.3c0-0.1-0.1-0.2-0.1-0.3c0-0.1-0.1-0.2-0.1-0.3
			c-0.1-0.1-0.1-0.2-0.1-0.3c0-0.1,0-0.1,0-0.2c0,0,0.1-0.1,0.1-0.1c0.1,0,0.2,0.1,0.3,0.2l0,0c0.1,0.1,0.2,0.1,0.4,0L22.3,58.5z"/>
		<path class="st0" d="M19.4,57.7c-0.3,0.1-0.3,0.2-0.3,0.4c0,0,0,0.1,0,0.1c0,0.1-0.1,0.2-0.2,0.2c0,0-0.1,0-0.2,0
			c0,0-0.1-0.1-0.1-0.2c0-0.1,0-0.2-0.1-0.4s0-0.3-0.1-0.5s-0.1-0.3-0.1-0.5s-0.1-0.4-0.2-0.6c-0.2-0.4-0.1-0.9,0.1-1.3
			c0.1-0.2,0.4-0.4,0.7-0.4c0.3-0.1,0.6,0,0.9,0.2c0.3,0.2,0.5,0.5,0.6,0.8c0.1,0.2,0.1,0.5,0,0.7c0,0-0.1,0.1-0.1,0.1
			c-0.1,0-0.1,0-0.2-0.1c0-0.1-0.1-0.2-0.1-0.2c-0.1-0.3-0.4-0.5-0.8-0.5c0,0,0,0-0.1,0c-0.2,0-0.4,0.1-0.5,0.3
			c-0.1,0.2-0.1,0.4-0.1,0.7c0,0.1,0.1,0.1,0.1,0.2c0,0,0.1,0,0.1,0l2.6-0.6c0.2,0,0.3-0.2,0.2-0.6c0-0.1,0-0.2,0.1-0.2
			c0,0,0.1,0,0.1,0c0.1,0,0.1,0.2,0.1,0.3c0,0.1,0.1,0.3,0.1,0.4c0,0.1,0,0.2,0.1,0.4s0.1,0.2,0.1,0.4c0,0.1,0.1,0.2,0.1,0.4
			c0,0.1,0,0.1,0,0.2c0,0-0.1,0.1-0.1,0.1c-0.1,0-0.2-0.1-0.2-0.1l0,0c-0.1-0.1-0.3-0.2-0.4-0.1L19.4,57.7z"/>
		<path class="st0" d="M18.6,53.9c-0.1,0-0.2,0-0.3,0.1c-0.1,0.1-0.1,0.2-0.1,0.3c0,0,0,0.1,0,0.2c0,0-0.1,0.1-0.1,0.1
			c-0.1,0-0.2,0-0.2-0.1c0,0,0,0,0,0c0-0.1,0-0.3,0-0.4s0-0.3,0-0.4s0-0.3-0.1-0.4s0-0.2-0.1-0.3c0-0.1,0-0.1,0-0.2
			c0,0,0.1-0.1,0.1-0.1c0.1,0,0.2,0.1,0.2,0.2c0.1,0.1,0.2,0.2,0.4,0.2l2.4-0.3c0.2,0,0.3,0,0.3-0.1s0-0.1,0-0.2
			c0-0.4-0.2-0.7-0.5-1l-0.2-0.1c-0.1-0.1-0.2-0.1-0.2-0.3c0,0,0-0.1,0-0.1c0.1-0.1,0.1-0.1,0.2-0.1c0.2,0,0.5,0,0.6,0.2
			c0.2,0.2,0.3,0.4,0.4,0.7c0,0.2,0,0.5,0.1,0.8s0,0.6,0.1,0.8c0,0.1,0,0.2,0.1,0.3c0,0.1,0,0.2,0.1,0.3c0,0.1,0,0.2,0,0.3
			c0,0-0.1,0.1-0.1,0.1c-0.1,0-0.2-0.1-0.2-0.1l-0.1-0.1c-0.1-0.1-0.3-0.2-0.5-0.1L18.6,53.9z"/>
		<path class="st0" d="M20.7,49c0.2,0,0.4-0.2,0.4-0.4c0-0.1,0.1-0.2,0.2-0.2c0,0,0,0,0,0c0,0,0.1,0,0.1,0c0.1,0.1,0.1,0.2,0.1,0.4
			c0,0.1,0,0.2,0,0.3c0,0.1,0,0.2,0,0.3c0,0.1,0,0.2,0,0.3s0,0.2,0,0.3s0,0.3-0.2,0.3s-0.2-0.2-0.2-0.2S21,50,20.7,50h-2.5
			c-0.2,0-0.4,0.1-0.4,0.3c0,0.1-0.1,0.2-0.2,0.2c0,0,0,0,0,0c0,0-0.1,0-0.1,0c-0.1-0.1-0.1-0.2-0.1-0.4c0-0.1,0-0.2,0-0.3
			c0-0.1,0-0.2,0-0.3c0-0.1,0-0.2,0-0.3c0-0.1,0-0.2,0-0.3c0-0.1,0-0.1,0-0.2c0,0,0.1,0,0.1,0c0.1,0,0.2,0.2,0.2,0.2l0,0
			c0,0.1,0.2,0.2,0.4,0.2L20.7,49z"/>
		<path class="st0" d="M18.6,46.7l2,0.2c0.2,0.1,0.4,0,0.5-0.2v-0.1c0-0.1,0.1-0.3,0.2-0.2c0,0,0.1,0,0.1,0.1c0,0.1,0,0.2,0,0.3
			c0,0.1,0,0.2-0.1,0.3c0,0.1,0,0.2-0.1,0.3c0,0.1,0,0.2,0,0.3c0,0.1,0,0.2,0,0.3c0,0,0,0.1,0,0.1c0,0.1-0.1,0.1-0.2,0.1
			c-0.1,0-0.2-0.1-0.2-0.2l0,0c-0.1-0.2-0.3-0.4-0.5-0.4l-2.1-0.3c-0.2,0-0.4,0-0.6,0.2l0,0.1c-0.1,0.1-0.1,0.2-0.3,0.2
			c0,0-0.1,0-0.1-0.1c0,0,0-0.1,0-0.1c0-0.1,0-0.2,0-0.2s0-0.2,0-0.2c0-0.1,0-0.2,0-0.2c0-0.1,0-0.2,0-0.3c0-0.1,0.1-0.2,0.1-0.3
			l2.6-2L19,44.1c-0.4,0-0.6,0-0.7,0.2s-0.1,0.3-0.3,0.3c0,0-0.1,0-0.1-0.1c0-0.1,0-0.2,0-0.2c0-0.1,0-0.2,0.1-0.3
			c0-0.1,0-0.2,0.1-0.3c0-0.1,0-0.2,0-0.3c0-0.1,0-0.2,0-0.3c0,0,0-0.1,0-0.1c0,0,0.1,0,0.1,0c0.1,0,0.2,0.1,0.2,0.2l0,0
			c0.1,0.2,0.3,0.4,0.5,0.4l2.7,0.3c0.2,0,0.3,0,0.4,0.1c0,0,0,0.1,0,0.1c0,0.1-0.1,0.2-0.4,0.4l-2.8,2.1L18.6,46.7z"/>
		<path class="st0" d="M21,40.8L20,41l0.8,0.7L21,40.8z M18.9,40.6c-0.1-0.1-0.2-0.2-0.2-0.3s0.1-0.1,0.2-0.1l3.3-0.5h0.1
			c0.2,0,0.4,0,0.5-0.2l0,0c0.1-0.1,0.1-0.2,0.3-0.2c0,0,0.1,0,0.1,0.1c0,0.1,0,0.1,0,0.2c0,0.1-0.1,0.3-0.1,0.4S23,40.2,23,40.3
			s-0.1,0.2-0.1,0.4s0,0.3-0.1,0.4c0,0,0,0.1-0.1,0.1c0,0-0.1,0-0.1,0c-0.1,0-0.2-0.1-0.2-0.2l0,0c0-0.1-0.1-0.2-0.2-0.2
			c-0.2,0-0.5,0-0.7,0c-0.1,0-0.1,0.1-0.2,0.4L21.1,42c0,0,0,0.1,0,0.1c0.1,0.2,0.3,0.3,0.5,0.4c0.1,0,0.2,0,0.2-0.1l0,0
			c0.1-0.2,0.2-0.3,0.3-0.3c0,0,0.1,0,0.1,0.1c0,0.1,0,0.1,0,0.2c0,0.1-0.1,0.2-0.1,0.3c0,0.1-0.1,0.2-0.1,0.3c0,0.1,0,0.2-0.1,0.3
			c0,0.1,0,0.2-0.1,0.3c0,0.1-0.1,0.2-0.2,0.2s-0.1-0.2-0.1-0.2c0,0,0-0.1,0-0.1c0-0.1-0.1-0.1-0.1-0.2L18.9,40.6z"/>
		<path class="st0" d="M79.2,44.1h-0.1L79,44.1c-0.1,0-0.2,0-0.2-0.1c0-0.1,0.1-0.2,0.2-0.3l0,0c0.4-0.3,0.7-0.9,0.6-1.4
			c-0.2-0.8-0.8-1-1.8-0.8c-0.5,0.1-0.9,0.4-1.1,0.8c-0.2,0.2-0.2,0.5-0.2,0.8c0.1,0.4,0.4,0.8,0.8,1l0,0c0.1,0,0.2,0.1,0.2,0.2
			c0,0,0,0.1,0,0.1c0,0-0.1,0.1-0.1,0.1c-0.8-0.2-1.4-0.8-1.5-1.5c-0.1-0.5,0-1.1,0.2-1.5c0.3-0.4,0.7-0.7,1.2-0.8
			c0.6-0.2,1.2-0.1,1.7,0.2c0.5,0.3,0.8,0.8,0.9,1.3c0.1,0.3,0.1,0.7,0,1c0,0.1,0,0.2,0,0.2l0,0c0.1,0,0.2,0.1,0.2,0.2
			c0,0.1,0,0.2-0.1,0.2L79.2,44.1z"/>
		<path class="st0" d="M77.2,46.4c-0.2,0-0.3,0.2-0.3,0.4c0,0.1-0.1,0.2-0.2,0.2c0,0,0,0,0,0c-0.2,0-0.2-0.2-0.2-0.4
			c0-0.1,0-0.2,0-0.3c0-0.1,0-0.2,0-0.3s0-0.2-0.1-0.3s0-0.2-0.1-0.3c0-0.1,0-0.2,0-0.2c0,0,0.1-0.1,0.1-0.1c0.2,0,0.2,0.1,0.2,0.2
			s0.2,0.2,0.4,0.2l2.5-0.3c0.2,0,0.3-0.1,0.3-0.4c0-0.1,0.1-0.2,0.2-0.2c0,0,0,0,0,0c0,0,0.1,0,0.1,0c0.1,0.1,0.1,0.2,0.1,0.4
			s0,0.2,0,0.3c0,0.1,0,0.2,0,0.3c0,0.1,0,0.2,0.1,0.3c0,0.1,0,0.2,0.1,0.3c0,0.1,0,0.1,0,0.2c0,0-0.1,0.1-0.1,0.1
			c-0.1,0-0.2-0.1-0.2-0.2l0,0c-0.1-0.1-0.2-0.2-0.4-0.1L77.2,46.4z"/>
		<path class="st0" d="M77,53c-0.2,0-0.4,0.1-0.4,0.3c0,0.1-0.1,0.2-0.2,0.2c0,0,0,0,0,0c-0.2,0-0.2-0.2-0.1-0.4
			c0-0.1,0-0.2,0.1-0.3c0-0.1,0-0.2,0.1-0.3c0-0.1,0-0.2,0-0.3c0-0.1,0-0.2,0-0.3c0-0.1,0-0.2,0.1-0.2c0,0,0.1,0,0.1,0
			c0.2,0,0.2,0.2,0.2,0.2s0.1,0.2,0.4,0.2l2.5,0.3c0.2,0.1,0.3,0,0.4-0.2c0,0,0-0.1,0-0.1c0-0.1,0.1-0.2,0.2-0.2c0,0,0,0,0,0
			c0,0,0.1,0,0.1,0c0.1,0.1,0,0.2,0,0.4s0,0.2-0.1,0.3c-0.1,0.2-0.1,0.4-0.1,0.7c0,0.1,0,0.2,0,0.3c0,0.1,0,0.1-0.1,0.2
			c0,0-0.1,0-0.1,0c-0.1,0-0.2-0.2-0.2-0.3l0,0c0-0.2-0.2-0.2-0.4-0.2L77,53z"/>
		<path class="st0" d="M79.3,55.7c0,0,0.1,0,0.1,0c0.1-0.1,0.1-0.2,0.1-0.3c0.1-0.5,0.1-0.7-0.3-0.9c0,0-0.1-0.1-0.1-0.2
			c0-0.1,0-0.1,0.1-0.1c0,0,0.1,0,0.1,0h0.1h0.1l0.6,0.2c0.2,0.1,0.2,0.2,0.1,0.3S80,55.1,80,55.4s-0.2,0.5-0.2,0.8
			s-0.1,0.6-0.2,0.8s-0.1,0.6-0.2,0.8s-0.1,0.2-0.3,0.2L78.5,58h-0.1c0,0-0.1,0-0.1,0c0-0.1,0-0.1,0-0.2c0-0.1,0.1-0.2,0.2-0.2
			c0.5,0,0.6-0.2,0.7-0.7c0-0.1,0-0.2,0-0.3c0,0,0,0-0.1,0l-2.5-0.6c-0.3-0.1-0.4,0.1-0.5,0.3L76,56.5l0,0c0,0.1-0.1,0.2-0.2,0.1
			c0,0-0.1,0-0.1-0.1c0-0.1,0-0.1,0-0.2c0-0.2,0.1-0.3,0.1-0.5s0.1-0.3,0.1-0.5S76,55,76,54.8s0.1-0.3,0.1-0.5c0-0.1,0-0.1,0.1-0.2
			c0,0,0.1,0,0.1,0c0.1,0,0.2,0.1,0.2,0.2l0,0c0,0.1,0,0.1,0,0.2c0,0.2,0,0.4,0.3,0.5L79.3,55.7z"/>
		<path class="st0" d="M76.3,63.8c0,0,0.1,0,0.1,0c0.1,0,0.1-0.1,0.2-0.2c0.3-0.5,0.3-0.6-0.1-1c0,0-0.1-0.1,0-0.2
			c0,0,0.1-0.1,0.1-0.1c0,0,0.1,0,0.1,0l0.1,0.1l0,0l0.5,0.3c0.1,0.1,0.1,0.2,0.1,0.3s-0.3,0.5-0.4,0.7s-0.3,0.5-0.4,0.7
			s-0.3,0.5-0.4,0.8s-0.3,0.5-0.4,0.8s-0.2,0.2-0.4,0.1l-0.5-0.2l-0.1-0.1c0,0-0.1,0-0.1-0.1c0-0.1,0-0.1,0-0.2
			c0.1-0.1,0.1-0.1,0.2-0.1c0.5,0.1,0.6,0,0.9-0.5c0.1-0.1,0.1-0.2,0.1-0.3s0,0-0.1-0.1l-2.3-1.3c-0.2-0.1-0.4,0-0.5,0.1l-0.1,0.1
			l0,0c-0.1,0.1-0.2,0.1-0.3,0c0,0-0.1-0.1-0.1-0.1c0-0.1,0-0.1,0-0.2c0.1-0.1,0.2-0.3,0.3-0.4s0.2-0.3,0.3-0.4s0.2-0.3,0.2-0.5
			s0.2-0.3,0.2-0.5c0-0.1,0.1-0.1,0.1-0.1c0,0,0.1,0,0.1,0c0.1,0,0.1,0.2,0.1,0.2l0,0c0,0,0,0.1,0,0.2c0,0.2-0.1,0.4,0.2,0.5
			L76.3,63.8z"/>
		<path class="st0" d="M71.4,67.2L71.4,67.2l0.1,0.1c0,0,0,0.1,0,0.1c0,0.1,0,0.1-0.1,0.2c-0.1,0.1-0.2,0-0.3,0h-0.1
			c-0.4-0.2-0.9-0.1-1.3,0.2c-0.1,0.1-0.2,0.3-0.2,0.5c0,0.1,0.1,0.3,0.2,0.4c0.2,0.2,0.5,0.1,1-0.1s1.2-0.6,1.9,0.1
			c0.2,0.2,0.3,0.5,0.3,0.8c0,0.3-0.1,0.6-0.4,0.9c-0.2,0.2-0.4,0.3-0.6,0.4c-0.1,0-0.1,0.1-0.2,0.1c0,0,0,0.1,0,0.1
			c0,0,0,0.1-0.1,0.1c0,0-0.1,0.1-0.1,0.1c0,0-0.1,0-0.1-0.1c-0.2-0.2-0.4-0.3-0.6-0.5l-0.1-0.1c0,0-0.1-0.1-0.1-0.2
			c0-0.1,0-0.1,0.1-0.1c0.1-0.1,0.2,0,0.4,0l0,0c0.4,0.2,0.9,0.2,1.3-0.1c0.1-0.1,0.2-0.3,0.2-0.4c0-0.1,0-0.2-0.1-0.3
			c-0.2-0.2-0.5-0.1-1,0.1s-1.2,0.6-1.9-0.1c-0.3-0.3-0.4-0.6-0.4-1c0-0.4,0.2-0.7,0.4-0.9c0.2-0.2,0.4-0.3,0.6-0.4l0.3-0.2l0,0
			c0.1-0.1,0.2-0.1,0.3,0L71.4,67.2z"/>
		<path class="st0" d="M79.6,50.3c0.1,0.1,0.2,0.1,0.3,0.1c0.1,0,0.1,0,0.2,0c0-0.1,0.1-0.1,0.1-0.2c0-0.1,0-0.1,0.1-0.2
			c0-0.1,0.1-0.2,0.2-0.2c0,0,0.1,0,0.1,0c0,0.1,0,0.1,0,0.2c0,0.1,0,0.2,0,0.3c0,0.1,0,0.2,0,0.3c0,0.1,0,0.2,0,0.3
			c0,0.1,0,0.2,0,0.3c0,0.1,0,0.1-0.1,0.2c0,0-0.1,0-0.1,0c-0.1,0-0.2-0.1-0.2-0.1c0,0,0-0.1-0.1-0.1c-0.2-0.1-0.3-0.2-0.5-0.3h-0.1
			l-2.8-1.2c-0.3-0.1-0.4-0.2-0.4-0.3s0.1-0.2,0.3-0.3l3.1-1.4c0.1-0.1,0.2-0.2,0.3-0.3l0,0l0,0c0-0.1,0.1-0.1,0.2-0.1
			c0,0,0.1,0,0.1,0c0,0.1,0,0.1,0,0.2c0,0.1,0,0.3,0,0.4s0,0.2,0,0.4s0,0.2,0,0.4s0,0.3,0,0.4c0,0.1,0,0.1-0.1,0.2c0,0-0.1,0-0.1,0
			c-0.2,0-0.2-0.2-0.2-0.2s-0.1-0.1-0.2-0.1c-0.1,0-0.2,0-0.2,0.1l0,0L78,49.5l-0.1,0.1L79.6,50.3z"/>
		<path class="st0" d="M76.6,59l-0.3,0.8l1-0.1L76.6,59z M78.4,60.2c0.1,0.1,0.2,0.2,0.2,0.3s-0.1,0.1-0.2,0.1L75,60.8h-0.1
			c-0.2,0-0.4,0-0.5,0.1l0,0c-0.1,0.1-0.2,0.2-0.3,0.2c0,0-0.1,0-0.1-0.1c0-0.1,0-0.1,0-0.2c0-0.1,0.1-0.3,0.2-0.4s0.1-0.2,0.2-0.3
			s0.1-0.2,0.1-0.3s0.1-0.3,0.1-0.4c0-0.1,0.1-0.1,0.1-0.1c0,0,0.1,0,0.1,0c0.1,0,0.2,0.2,0.1,0.3l0,0c0,0.1,0,0.2,0.2,0.2
			c0.2,0,0.5,0,0.7,0c0.1,0,0.1-0.1,0.2-0.3l0.3-0.8c0,0,0-0.1,0-0.1c-0.1-0.2-0.3-0.4-0.5-0.5c-0.1,0-0.1,0-0.2,0.1l0,0
			c-0.1,0.2-0.2,0.3-0.4,0.3c0,0-0.1,0-0.1-0.1c0-0.1,0-0.1,0-0.2c0-0.1,0.1-0.2,0.1-0.3c0-0.1,0.1-0.2,0.1-0.2
			c0-0.1,0.1-0.2,0.1-0.3c0-0.1,0-0.2,0.1-0.3c0-0.1,0.1-0.1,0.1-0.2c0,0,0.1,0,0.1,0c0.1,0,0.1,0.2,0.1,0.2c0,0,0,0.1,0,0.1
			c0,0.1,0.1,0.2,0.1,0.2L78.4,60.2z"/>
		<path class="st0" d="M71.7,66c-0.2-0.1-0.4-0.1-0.5,0.1c-0.1,0.1-0.2,0.1-0.3,0c0,0,0,0,0,0c-0.1-0.1,0-0.3,0.1-0.4l0.2-0.2
			c0.1-0.1,0.2-0.2,0.2-0.3c0.1-0.1,0.1-0.2,0.2-0.3s0.1-0.2,0.2-0.3s0.1-0.1,0.2-0.2c0,0,0.1,0,0.1,0c0.1,0.1,0.1,0.2,0,0.3
			s0,0.3,0.2,0.4l2,1.5c0.1,0.1,0.3,0.1,0.5,0c0,0,0,0,0.1-0.1c0.1-0.1,0.2-0.1,0.3,0c0,0,0,0,0,0c0,0,0.1,0.1,0.1,0.1
			c0,0.1-0.1,0.2-0.2,0.3s-0.2,0.2-0.2,0.3c-0.2,0.2-0.3,0.3-0.4,0.5c-0.1,0.1-0.1,0.2-0.2,0.3c0,0.1-0.1,0.1-0.2,0.1
			c0,0-0.1,0-0.1,0c-0.1-0.1-0.1-0.2,0-0.3l0,0c0.1-0.1,0-0.2-0.2-0.4L71.7,66z"/>
		<path class="st0" d="M46.5,20.5L46.5,20.5c0,0,0-0.1,0-0.1c0,0,0-0.1,0-0.1c0,0,0.1-0.1,0.2-0.1c0.2,0,0.2,0.1,0.2,0.2v0
			c0.2,0.4,0.6,0.7,1.1,0.8c0.2,0,0.3-0.1,0.5-0.2c0.1-0.1,0.1-0.2,0.1-0.4c0-0.3-0.3-0.4-0.8-0.6s-1.3-0.4-1.3-1.4
			c0-0.3,0.1-0.6,0.3-0.8c0.2-0.2,0.5-0.4,0.9-0.4c0.2,0,0.5,0,0.7,0.1c0.1,0,0.2,0.1,0.2,0.1h0.1c0,0,0.1,0,0.1,0
			c0.1,0,0.2,0.1,0.2,0.1c0,0,0,0,0,0c0,0.2,0,0.5,0.1,0.7c0,0.1,0,0.1,0,0.1c0,0.1,0,0.1-0.1,0.2c0,0-0.1,0.1-0.2,0.1
			c-0.2,0-0.2-0.1-0.2-0.3l0,0c-0.2-0.4-0.6-0.7-1-0.7c-0.2,0-0.3,0.1-0.4,0.2c-0.1,0.1-0.1,0.2-0.1,0.3c0,0.3,0.3,0.5,0.8,0.6
			s1.3,0.4,1.3,1.3c0,0.4-0.1,0.7-0.4,1c-0.3,0.3-0.6,0.4-1,0.4c-0.2,0-0.5,0-0.7-0.1L47,21.4l0,0c-0.1,0-0.2-0.1-0.2-0.1L46.5,20.5
			z"/>
		<path class="st0" d="M51,20.8c0,0.2,0.1,0.4,0.3,0.4c0.1,0,0.2,0.1,0.2,0.2c0,0,0,0,0,0c0,0,0,0.1-0.2,0.1h-0.2h-0.3h-0.3h-0.7
			c-0.1,0-0.2,0-0.2-0.1c0,0,0-0.1,0-0.1c0-0.1,0.2-0.2,0.2-0.2S50,21,50,20.7l0.2-2.5c0-0.2-0.1-0.4-0.3-0.4
			c-0.1,0-0.2-0.1-0.2-0.2c0,0,0,0,0,0c0,0,0-0.1,0-0.1c0.1-0.1,0.2-0.1,0.4,0h0.3h0.3h0.7c0.1,0,0.1,0,0.2,0.1c0,0,0,0.1,0,0.1
			c0,0.1-0.2,0.2-0.3,0.2l0,0c-0.1,0-0.2,0.2-0.2,0.4L51,20.8z"/>
		<path class="st0" d="M53.1,20.9c-0.1,0.1-0.1,0.3,0,0.4c0.1,0.1,0.3,0.2,0.5,0.2c0.3,0,0.5,0,0.7-0.2c0.3-0.3,0.6-0.7,0.6-1.1
			c0.1-0.5,0-1-0.2-1.4c-0.2-0.3-0.5-0.4-0.8-0.5c-0.3,0-0.4,0.1-0.4,0.3L53.1,20.9z M52.4,18.6c0.1-0.5,0-0.5-0.1-0.6h-0.1
			C52.1,18,52,17.9,52,17.8c0-0.1,0-0.1,0.1-0.1c0.1,0,0.2,0,0.2,0l0.4,0.1l0.4,0.1h0.4H54c0.7,0.1,1.4,0.4,1.8,0.9
			c0.3,0.4,0.4,0.9,0.3,1.4c-0.1,0.6-0.5,1.2-1,1.5c-0.5,0.3-1.1,0.4-1.7,0.3c-0.4-0.1-0.7-0.1-0.9-0.2l-0.3-0.1H52h-0.3
			c-0.1,0-0.2,0-0.2-0.1c0,0,0-0.1,0-0.1c0-0.1,0.2-0.2,0.3-0.2l0,0c0.2,0,0.2-0.3,0.2-0.5L52.4,18.6z"/>
		<path class="st0" d="M58.8,19.9c0-0.1,0-0.2,0-0.3c0-0.1-0.1-0.1-0.2-0.2c-0.1,0-0.2-0.2-0.1-0.3c0,0,0,0,0,0c0,0,0-0.1,0.1-0.1
			c0.1,0,0.2,0,0.4,0.1l0.3,0.1l0.3,0.1l0.3,0.1l0.3,0.1c0.1,0,0.1,0.1,0.2,0.1c0,0,0,0.1,0,0.1c0,0.1-0.1,0.1-0.2,0.1l0,0
			c-0.2,0-0.3,0.1-0.3,0.3l-0.6,1.6c-0.2,0.5,0,1.1,0.5,1.3c0,0,0.1,0,0.1,0c0.3,0.1,0.6,0.1,0.9,0c0.3-0.2,0.6-0.5,0.7-0.9l0.5-1.3
			c0.1-0.2,0-0.4-0.1-0.5c0,0,0,0-0.1,0c-0.2-0.1-0.2-0.2-0.2-0.3c0,0,0-0.1,0.1-0.1c0.1,0,0.2,0,0.3,0l0.2,0.1l0.2,0.1l0.2,0.1
			l0.2,0.1c0.1,0,0.1,0.1,0.1,0.1c0,0,0,0.1,0,0.1c0,0.1-0.2,0.1-0.2,0.1h-0.1c-0.1,0-0.2,0-0.3,0.5l-0.4,1.1c-0.2,0.5-0.5,1-1,1.2
			c-0.5,0.2-1.1,0.2-1.6,0c-0.5-0.1-0.9-0.4-1.1-0.9c-0.2-0.4-0.2-0.8,0-1.2L58.8,19.9z"/>
		<path class="st0" d="M63.1,22.6l-0.7,1.2c-0.2,0.2-0.2,0.6,0,0.8c0.1,0.1,0.1,0.2,0.1,0.3c0,0.1-0.1,0.1-0.3,0l-0.2-0.2l-0.2-0.2
			l-0.3-0.1l-0.3-0.1c-0.1,0-0.1-0.1-0.1-0.1c0,0,0-0.1,0-0.1c0.1-0.1,0.2-0.1,0.3-0.1l0,0c0.2,0,0.5-0.1,0.6-0.3l1.1-1.8
			c0.1-0.2,0.2-0.4,0.1-0.6L63,21.2c-0.1-0.1-0.1-0.2-0.1-0.3c0,0,0-0.1,0.1-0.1c0,0,0.1,0,0.1,0l0.2,0.1l0.2,0.1l0.2,0.1l0.2,0.1
			c0.1,0,0.2,0.1,0.2,0.3L64,24.1v0.2c0,0.1,0,0.1,0,0h0.1l2.2-1.4c0.1-0.1,0.2-0.1,0.3,0l0.2,0.1l0.2,0.1l0.2,0.1l0.2,0.1
			c0,0,0.1,0,0.1,0.1c0,0,0,0.1,0,0.1c-0.1,0.1-0.2,0.1-0.4,0.1l0,0c-0.2,0-0.2,0-0.4,0.2l-1,1.7c-0.2,0.4-0.3,0.6-0.1,1
			c0.1,0.1,0.2,0.2,0.1,0.3s-0.3,0-0.3,0L65,26.6l-0.3-0.2l0,0l-0.3-0.1l-0.3-0.1c-0.1,0-0.2-0.1-0.2-0.2c0,0,0-0.1,0-0.1
			c0.1-0.1,0.2-0.1,0.3-0.1s0.1,0,0.3-0.3l0.9-1.5l0,0l-2.1,1.4c-0.1,0.1-0.2,0.1-0.3,0.1c-0.1-0.1-0.1-0.1-0.1-0.2l0,0L63.1,22.6z"
			/>
		<path class="st0" d="M31.5,23.8c-0.2-0.3-0.3-0.2-0.5-0.2H31c-0.1,0-0.2,0-0.3-0.1c0,0,0-0.1,0-0.1c0-0.1,0.1-0.1,0.1-0.2l0.3-0.2
			l0.4-0.2l0.4-0.3l0.5-0.3c0.4-0.3,0.8-0.4,1.2-0.3c0.3,0.1,0.5,0.2,0.6,0.5c0.2,0.3,0.2,0.6,0.1,0.9c-0.1,0.3-0.3,0.7-0.6,0.8
			c0,0-0.6,0.4-0.8,0.1c0,0,0-0.1,0-0.1c0-0.1,0.1-0.1,0.2-0.2c0.1-0.1,0.2-0.2,0.3-0.4c0-0.2,0-0.4-0.1-0.6
			c-0.2-0.3-0.6-0.5-0.9-0.3c0,0-0.1,0.1-0.1,0.1c-0.1,0-0.1,0.1-0.1,0.2c0,0,0,0.1,0,0.1l1.4,2.3c0.1,0.2,0.3,0.2,0.6,0
			c0.1-0.1,0.2,0,0.3,0.1c0,0,0,0.1,0,0.1c0,0.1-0.1,0.2-0.3,0.2L34,26l-0.3,0.2l-0.3,0.2l-0.3,0.2c-0.1,0-0.1,0.1-0.2,0.1
			c-0.1,0-0.1,0-0.1-0.1c0-0.1,0-0.2,0-0.3l0,0c0.1-0.1,0.1-0.3,0-0.4L31.5,23.8z"/>
		<path class="st0" d="M57.2,21.9c0,0.2,0.1,0.4,0.2,0.5c0.1,0,0.2,0.1,0.1,0.2c0,0,0,0,0,0c0,0-0.1,0.1-0.2,0.1h-0.2l-0.3-0.1
			l-0.3-0.1l-0.3-0.1l-0.3-0.1c-0.1,0-0.2,0-0.2-0.1c0,0,0-0.1,0-0.1c0-0.1,0.2-0.1,0.3-0.1s0.2-0.1,0.3-0.3l0.7-2.4
			c0.1-0.2,0-0.4-0.1-0.4c0,0-0.1,0-0.1,0c-0.1,0-0.2-0.1-0.1-0.2c0,0,0,0,0,0c0,0,0-0.1,0.1-0.1c0.1,0,0.2,0,0.4,0l0.3,0.1l0.3,0.1
			l0.3,0.1l0.3,0.1c0.1,0,0.1,0.1,0.2,0.1c0,0,0,0.1,0,0.1c0,0.1-0.2,0.1-0.3,0.1l0,0c-0.2,0-0.2,0.1-0.3,0.3L57.2,21.9z"/>
		<path class="st0" d="M46.2,20.9c0-0.1,0-0.1-0.1-0.1c0,0-0.1,0-0.1,0c-0.1,0-0.1,0.1-0.2,0.2c0,0.1-0.1,0.2-0.2,0.2
			c-0.3,0.3-0.6,0.5-1,0.5c-0.1,0-0.2,0-0.2,0s-0.1-0.1-0.1-0.3l-0.1-1c0-0.1,0-0.1,0-0.1s0.1,0,0.2-0.1c0.3,0,0.4,0,0.6,0.1
			c0,0,0.1,0.1,0.1,0.1c0,0.1,0.1,0.2,0.2,0.2c0.1,0,0.1,0,0.1-0.1c0-0.1,0-0.1,0-0.2c0-0.1,0-0.2,0-0.2s0-0.2,0-0.2s0-0.2,0-0.2
			s0-0.2,0-0.3c0-0.1,0-0.1-0.1-0.2c0,0-0.1,0-0.1,0c-0.1,0-0.2,0.1-0.2,0.3s-0.2,0.3-0.5,0.4s-0.2,0-0.2,0l-0.1-1
			c0-0.1,0-0.2,0-0.2s0,0,0.1,0l0.4,0c0.7-0.1,0.8,0,0.8,0.3s0.2,0.2,0.2,0.2c0.1,0,0.1,0,0.1-0.1c0,0,0-0.1,0-0.1
			c0-0.1,0-0.1,0-0.2c0-0.1,0-0.1,0-0.2c0-0.1,0-0.1,0-0.2s0-0.1,0-0.2c0,0,0-0.1-0.1-0.1c-0.1,0-0.2,0-0.3,0l-0.9,0l-0.6,0.1h-0.3
			c-0.3,0.1-0.7,0.1-1,0.1l0,0c-0.1,0-0.2,0-0.2,0.1c0,0,0,0.1,0,0.1c0,0.1,0.2,0.2,0.4,0.2c0.1,0,0.2,0.1,0.3,0.6l0.3,2.1
			c0,0.3,0,0.4-0.1,0.5l0,0c-0.1,0.1-0.3,0.1-0.5,0.1c-0.1,0-0.3-0.1-0.4-0.3l-0.1-0.1L40,19.1c-0.1-0.1-0.1-0.1-0.2-0.1
			s-0.1,0.1-0.2,0.3L39,22.8c0,0.1-0.1,0.1-0.1,0.1h-0.1h-0.1c0,0,0,0-0.1,0c-0.5-0.3-1-0.6-1.4-1l0.1-0.1l0.1-0.1
			c0.2-0.3,0.2-0.6,0.1-0.9c-0.1-0.3-0.3-0.5-0.6-0.6c-0.5-0.1-1,0-1.4,0.2l-0.4,0.2l-0.5,0.2c-0.2,0.1-0.3,0.1-0.5,0.2L34,21.2
			c-0.1,0-0.1,0.1-0.2,0.1c0,0,0,0.1,0,0.1c0,0.1,0.2,0.2,0.3,0.1c0.2-0.1,0.4,0,0.5,0.2l1,2.3c0.1,0.1,0.1,0.3,0,0.4
			c0,0-0.2,0.1-0.1,0.3c0,0.1,0.1,0.1,0.2,0.1c0,0,0.1,0,0.1,0l0.3-0.2l0.3-0.2l0.3-0.1l0.3-0.1c0.2-0.1,0.3-0.1,0.3-0.2
			c0,0,0-0.1,0-0.1c0-0.1-0.1-0.2-0.3-0.1c0,0,0,0,0,0c-0.2,0.1-0.3,0.1-0.5-0.3l-0.4-0.9l0,0h0.1c0.1-0.1,0.2,0,0.4,0.1l1.1,0.8
			c0.2,0.2,0.4,0.2,0.7,0.1c0.2-0.1,0.3-0.2,0.4-0.3c0,0,0.1,0,0.1,0l0.3-0.1l0.3-0.1l0.3-0.1l0.3-0.1c0.1,0,0.1,0,0.2-0.1
			c0,0,0-0.1,0-0.1c0-0.1-0.2-0.1-0.4-0.1h-0.1c-0.1,0-0.2-0.1-0.2-0.2c0,0,0,0,0,0c0-0.2,0-0.4,0-0.6c0,0,0.1-0.1,0.1-0.1l0.8-0.2
			c0.3-0.1,0.3-0.1,0.4,0c0.2,0.2,0.3,0.4,0.4,0.6c0,0.1,0,0.2-0.1,0.3l0,0c-0.1,0-0.2,0.1-0.2,0.3c0,0.1,0.1,0.1,0.2,0.1l0.4-0.1
			l0.3-0.1l0.4-0.1l0.4-0.1c0.1,0,0.2-0.1,0.2-0.1c0,0,0.1,0,0.1,0c0.1,0,0.1,0,0.2,0l0.6-0.1l0.5-0.1L45,22l0.6-0.1
			c0.3-0.1,0.5-0.3,0.6-0.6C46.2,21.1,46.2,21,46.2,20.9z M36.7,21.9c-0.1,0.2-0.2,0.3-0.4,0.3c-0.2,0.1-0.2,0.1-0.3,0.1s0,0,0,0
			l-0.5-1c0-0.1,0-0.1,0-0.2c0,0,0.1-0.1,0.2-0.1c0.3-0.1,0.7,0,0.8,0.3c0,0,0,0,0,0.1C36.7,21.6,36.7,21.8,36.7,21.9z M39.8,21.4
			l0.2-1l0.7,0.8L39.8,21.4z"/>
		<path class="st0" d="M50,67.1c-0.2-0.2-0.5-0.3-0.8-0.2c-0.3,0-0.7,0-1,0.2L48,69.7l0,0v0.4c0.1,0.1,0.2,0.1,0.4,0.2
			c0.5-0.1,1-0.1,1.4,0c0.1,0,0.2-0.1,0.3-0.1c0-0.1,0-0.6,0-1.2S50,67.4,50,67.1z M58.4,64.1l0,0.5c0.5-0.6,0.7-1.3,0.8-2l0.2-0.9
			l0.2,0.1l-0.2,0.9c-0.1,0.8-0.5,1.6-1,2.2c1.2-0.6,2-1.9,2-3.2c0-0.3,0-0.5-0.1-0.8h0.1c-0.2-0.4-0.4-0.8-0.7-1.2l-1.5,2
			c-0.3,0.7,0,1.5-0.2,2.4L58.4,64.1z M44.3,72.1L44.3,72.1c-0.1,0.1-0.2,0.2-0.3,0.2c-0.3,0-0.6-0.4-0.6-0.9s0.2-0.9,0.5-0.9l0,0
			l1.2-0.7l0,0c-0.3-0.1-0.6-0.3-0.9-0.5c-0.5,0.6-1.5,1-3.2,1.1c0.3,0.6,0.9,1,1.6,1.2l0.1,0.1l-0.1,0.1c-0.3,0.5-0.7,1-1.2,1.4
			c1.5,0.1,3-0.4,4.1-1.3c0.2-0.2,0.5-0.4,0.7-0.7c0.3-0.3,0.5-0.6,0.8-0.9l-0.6-0.1C45.8,70.7,45,71.4,44.3,72.1L44.3,72.1z
			 M56,65.5h0.1c0,0.4,0,0.7-0.1,1.1c0.3-0.4,0.5-1,0.6-1.5l0.3-1l0.2,0.1L57,65c-0.1,0.5-0.3,1-0.6,1.5l0.2-0.1l0.2-0.2
			c0.2-0.1,0.4-0.2,0.6-0.2c0.5-0.4,0.8-1,0.8-1.7c0-0.1,0-0.1,0-0.2h0.1c-0.5-0.6-0.7-1.3-0.7-2C56.7,63.1,55.8,64.1,56,65.5z
			 M63.4,46.4v0.9c0,0.5,0.1,0.9,0.4,1.3c0.1-0.7,0.1-1.4,0-2h0.3c0.1,0.7,0.1,1.5,0,2.2c0.2-0.2,0.4-0.5,0.5-0.8h0.1
			c0-0.5,0.2-1.1-0.1-1.6c-0.3-0.6-0.7-1.2-1.2-1.6c0.1,0.3,0.1,0.7,0.1,1C63.4,46,63.4,46.2,63.4,46.4L63.4,46.4z M52.6,69.8
			c-0.3,0.1-0.5,0.1-0.8,0.2c0.6,0.5,1.4,1.1,1.8,1.5c0-0.1,0-0.1,0-0.2c0-0.3,0.1-0.6,0.3-0.8l-1.1-0.6L52.6,69.8z M54.2,72
			c0.2,0,0.3-0.3,0.3-0.7s-0.2-0.7-0.3-0.7s-0.3,0.3-0.3,0.7S54,72,54.2,72z M61.6,46.6l0-0.1l0.3,0.2c0.3,0.1,0.6,0.3,0.9,0.6
			c-0.2-0.5-0.5-1-0.8-1.4l-0.8-1.2l0.2-0.1l0.8,1.2c0.3,0.4,0.6,0.7,0.8,1.1v-0.2c0-0.1,0-0.1,0-0.2c0-0.5-0.1-0.9-0.2-1.3l0.1,0
			c-0.3-1-1.5-1-2.2-1.7C60.4,44.5,60.4,46,61.6,46.6z M63.3,48.2c0-0.1-0.1-0.3-0.1-0.4h-0.1c-0.2-0.6-0.5-0.8-1.2-1l-0.3-0.2
			l0-0.1c-0.1,0-0.2,0.1-0.3,0.1C62.1,47.1,62.8,47.6,63.3,48.2L63.3,48.2z M50.3,67.1v1.7v0.7c0.8-0.5,1.6-1,2.2-1.7
			c0.3-0.2,0.7-0.3,1-0.1l-1.1-2.2c-0.1-0.2-0.3-0.3-0.5-0.3c-0.3,0-0.5,0.1-0.7,0.4l-0.7,1.1C50.4,66.8,50.3,66.9,50.3,67.1
			L50.3,67.1z M53.9,67.4L53.9,67.4L53.9,67.4z M54.5,68.7c0.1,0,0.2,0,0.3,0c-0.3-0.1-0.6-0.2-0.8-0.4c0.1,0.2,0.1,0.5-0.1,0.7
			c0.1,0.1,0.1,0.1,0.2,0.2C54,69,54.3,68.8,54.5,68.7L54.5,68.7z M53.9,68.6c0-0.2-0.1-0.3-0.2-0.4c-0.2-0.3-0.6-0.3-0.9-0.1
			c-0.7,0.7-1.5,1.3-2.4,1.8V70l1-0.2l0,0l0,0c0.8,0,1.6-0.3,2.2-0.9C53.7,68.9,53.8,68.7,53.9,68.6L53.9,68.6z M43.9,70.6
			c-0.2,0-0.3,0.3-0.3,0.7s0.2,0.7,0.3,0.7s0.3-0.3,0.3-0.7S44.1,70.7,43.9,70.6L43.9,70.6z M46.8,65.6c-0.1-0.3-0.4-0.4-0.7-0.4
			c-0.2,0-0.4,0.1-0.5,0.3l-1.1,2.2c0.3-0.2,0.7-0.1,1,0.1c0.7,0.7,1.4,1.2,2.2,1.7c0-0.4,0.1-1.1,0.1-1.6c0-0.3,0-0.5,0.1-0.7v-0.2
			l-0.4-0.4L46.8,65.6z M46.6,69.8L46.6,69.8l1,0.2v-0.2c-0.9-0.5-1.7-1.1-2.4-1.8c-0.3-0.2-0.7-0.2-0.9,0.1c-0.2,0.2-0.2,0.6,0,0.8
			c0,0,0,0,0,0C44.9,69.4,45.7,69.7,46.6,69.8L46.6,69.8z M46.3,70c-0.3-0.1-0.6-0.1-0.8-0.2L45.2,70l-1.1,0.6
			c0.2,0.2,0.3,0.5,0.3,0.8c0,0.1,0,0.1,0,0.2C44.9,71.1,45.7,70.5,46.3,70L46.3,70z M60.9,60.3l0.2,1.2v0.3
			c0.2-1.1,0.2-2.3,0.1-3.4h0.2c0.2,1.3,0.1,2.6-0.2,3.8c0.1,0,0.2-0.1,0.3-0.2c0-0.1,0-0.1,0-0.2c0,0,0-0.1,0-0.1
			c0-0.2,0.1-0.4,0.1-0.5c0.1-0.6,0.2-1.1,0.5-1.6c0.2-0.3,0.2-0.7,0.2-1c-0.1-0.8-0.4-1.5-1-2c-0.3,0.6-0.6,1.1-1,1.8
			c-0.3,0.7-0.1,1.5,0.3,2L60.9,60.3z M61.7,52.8l0.1-0.1l0.9,0.9c0.3,0.2,0.6,0.5,0.9,0.8c-0.1-0.5-0.3-0.9-0.6-1.3l-0.5-0.9
			l0.2-0.1l0.5,0.9c0.3,0.5,0.6,1.1,0.7,1.7l0.1-0.2c-0.2-0.4-0.2-0.9-0.2-1.3c0-0.4,0-0.8-0.2-1.2c-0.1-0.3-0.4-0.6-0.6-0.8
			c-0.4-0.3-0.7-0.6-0.9-1l0.2-0.1c0.2,0.4,0.5,0.7,0.8,0.9c0.3,0.2,0.6,0.5,0.7,0.9c0.1,0.4,0.2,0.9,0.2,1.3c0,0.3,0,0.7,0.1,1
			c0.1-0.6,0.1-1.2,0-1.8l0,0v-0.1c-0.1-0.3-0.2-0.6-0.2-0.9l0,0c-0.2-1-0.4-1-0.8-1.1l-0.7-0.2l0.1-0.1
			C61.4,50.4,61.4,51.8,61.7,52.8L61.7,52.8z M61.2,62.2L61.2,62.2L61.2,62.2z M63.8,50.4L63.8,50.4L63.8,50.4z M61.4,62.4l-0.2,0
			L61,62.6l-0.2-1l-0.1-0.7c0,0.3,0.1,0.5,0.1,0.8c0,0.7-0.2,1.4-0.5,2C60.8,63.4,61.1,62.9,61.4,62.4L61.4,62.4z M61,47.9
			c0.3,0.8,0.8,1.5,1.5,2l0.1-0.1l0.6,0.2c0.2,0,0.3,0.1,0.4,0.2c-0.1-0.2-0.3-0.4-0.5-0.6L62,48.4l0.2-0.2l1.1,1.2
			c0.2,0.2,0.4,0.4,0.5,0.6c-0.3-1.4-1.3-2.6-2.6-3.2l0,0C60.9,47.1,60.8,47.5,61,47.9z M64.9,54.3l-0.2,0.2
			c-0.2,0.2-0.2,0.5-0.3,0.8c0,0.1,0,0.3,0.1,0.4c0.5-0.6,1-1.2,1.2-2l0.2,0.1c-0.3,0.8-0.7,1.5-1.3,2L65,56c0.4,0.2,0.9,0,1.2-0.3
			l0.1,0.1c0.3-0.8,0.4-1.6,0.3-2.4c0-0.6-0.3-1.2-0.7-1.6C65.8,52.7,65.4,53.6,64.9,54.3L64.9,54.3z M62.9,59.3l-0.6,0.9h-0.1
			c0,0.1-0.1,0.2-0.1,0.3c0.1-0.1,0.2-0.2,0.3-0.3c0.2-0.2,0.5-0.3,0.7-0.4c0-0.1,0-0.2,0-0.4c0-0.2,0-0.4,0.1-0.5L62.9,59.3z
			 M60.7,60.9L60.7,60.9L60.7,60.9L60.7,60.9z M63.5,56.4c0.1-1.2-0.6-2.2-1.7-2.7c-0.1,0.2-0.2,0.5-0.3,0.7c0,0.5,0,0.9,0.1,1.4
			l0.2-0.1c0.3,0.8,0.7,1.5,1.2,2.2l0.2,0.3l-0.3-1.2c-0.1-0.6-0.3-1.2-0.6-1.8l0.2-0.1c0.3,0.6,0.4,1.2,0.5,1.8l0.3,1
			C63.4,57.4,63.5,56.9,63.5,56.4L63.5,56.4z M65.7,56.2c-0.2,0-0.5,0-0.7,0l-0.5-0.1h-0.1l-0.1-0.3c0,0.7-0.2,1.3-0.5,1.9
			c0.3-0.3,0.6-0.6,1-0.9C65.1,56.7,65.4,56.5,65.7,56.2L65.7,56.2z M64.7,49.5c-0.3,0.5-0.5,1.1-0.5,1.6c0,0.2,0,0.4,0.1,0.6
			c0.1-0.2,0.2-0.4,0.3-0.6c0.2-0.3,0.4-0.6,0.4-1h0.2c-0.1,0.4-0.2,0.7-0.5,1.1c-0.2,0.3-0.3,0.6-0.3,0.9l0,0
			c0.5,0,0.9-0.2,1.2-0.5l0.2-0.2c0.3-1.2,0.1-2.5-0.6-3.5c-0.2-0.2-0.2,0.5-0.3,0.5H65L64.7,49.5z M62.7,59.2l0.4-0.7L62.8,58
			l-0.3-0.5c0.3,0.5,0.3,1.2,0.1,1.7L62.7,59.2z M64.1,49.2L64.1,49.2L63.7,49l0,0c0.2,0.4,0.3,0.8,0.3,1.2c0.1-0.3,0.2-0.5,0.3-0.8
			l0.3-0.9h0.1c-0.1-0.1-0.1-0.1-0.1-0.2C64.6,48.6,64.3,48.9,64.1,49.2L64.1,49.2z M61.5,56.5L61.5,56.5c0.3,0.1,0.4,0.3,0.6,0.5
			c-0.2-0.3-0.4-0.7-0.5-1C61.6,56.2,61.6,56.3,61.5,56.5L61.5,56.5z M64.1,54.9L64,55.1c0,0,0,0.1,0,0.1c0,0.2-0.1,0.4-0.3,0.5
			c0.1,0.7,0.1,1.3,0,2C64,56.8,64.1,55.8,64.1,54.9L64.1,54.9z M64.4,54.9c0.1-0.1,0.1-0.3,0.2-0.4l0.2-0.2
			c0.5-0.7,0.7-1.5,0.8-2.3c-0.3,0.2-0.7,0.4-1.1,0.4c0.1,0.8,0.1,1.6-0.1,2.4C64.3,54.7,64.3,54.8,64.4,54.9L64.4,54.9z M63.7,55.2
			c0-0.4-0.6-0.9-1.1-1.4L61.7,53c0,0.1,0,0.2,0.1,0.2c0,0.1,0,0.2,0,0.3l0,0c0.8,0.4,1.5,1.1,1.7,1.9c0.1-0.1,0.1-0.2,0.1-0.3
			L63.7,55.2z M31.3,56.3c0.7,1.4,0.3,2.7,1.4,4.1v-0.1c0.5,0,0.9,0.1,1.4,0.3L32.8,59l0.2-0.2l1.3,1.5c0-0.2,0.1-0.4,0.3-0.6
			c-0.6-0.9-1.6-1.6-2.7-1.7v-0.2c1.2,0.2,2.3,0.8,2.9,1.9H35c-0.3-0.3-0.6-0.7-0.8-1.1h-0.1v-0.1l0,0c-0.7-0.4-1.4-0.9-2-1.6
			l0.2-0.2c0.5,0.5,1,0.9,1.6,1.3c-0.5-1-1.3-1.8-2.2-2.3l0.1-0.1C31.6,55.7,31.4,56,31.3,56.3z M32.1,50.5c0.4,0.2,0.7,0.5,1,0.8
			c-0.1-0.5-0.3-1-0.6-1.5l0.2-0.1c0.3,0.6,0.6,1.2,0.7,1.8h-0.1c0.2,0.3,0.4,0.6,0.5,1c0-0.2,0-0.3-0.1-0.5c-0.1-0.3-0.1-0.7,0-1
			c0-1-0.8-1.6-1.5-2.1L32,48.7c-0.1,0.6-0.1,1.2-0.1,1.8l0.1-0.1L32.1,50.5z M32.3,48.7c0.4,0.3,0.8,0.6,1.1,0.9
			c-0.1-0.5-0.3-0.9-0.6-1.3l0.2-0.2c0.5,0.5,0.7,1.2,0.8,1.9l0,0c0,0.1,0.1,0.2,0.1,0.3L34,49l0,0c0-0.6-0.4-1.1-0.8-1.3l0-0.1
			c-0.1,0-0.7-0.3-0.8-0.2c-0.2,0.4-0.3,0.8-0.4,1.3l0.1-0.2L32.3,48.7z M33.3,47.5c0.5,0.3,0.8,0.7,0.9,1.3
			c0.1-0.2,0.2-0.3,0.3-0.5l-0.2,0.1c-0.4-0.5-0.6-1.1-0.5-1.8l0.2-0.3c0.2-0.3,0.3-0.7,0.2-1h0.2c0.1,0.4,0,0.8-0.2,1.1l-0.1,0.2
			c-0.1,0.5,0.1,1.1,0.4,1.5c0.1-0.2,0.3-0.3,0.5-0.5l-0.5-0.6l0.1-0.1c0.4-0.5,0.6-1.3,0.4-1.9H35c-0.1-0.3-0.3-0.6-0.6-0.8
			c-0.2-0.1-0.5-0.1-0.6,0.2c0,0.1-0.1,0.1-0.1,0.2c0,0.6-0.2,1.1-0.5,1.5c-0.2,0.4-0.2,0.9,0,1.4L33.3,47.5z M35.6,62.6
			C35.6,62.6,35.7,62.6,35.6,62.6c0.3,0.1,0.6,0.1,0.9,0.1l-0.2-0.2l-0.5-0.2c-0.9,0-1.7-0.3-2.3-1l0.2-0.2c0.5,0.6,1.3,1,2.1,0.9
			l0.7,0.3l0.2,0.2l-0.1,0.1l0.3,0.1c0-0.2,0-0.3,0-0.5l-0.4-0.5l0,0l-0.2,0.4L36.2,62c-0.2-0.2-0.3-0.2-0.6-0.2h-0.4v-0.1
			c-0.5-0.9-1.4-1.4-2.4-1.3c0,0.2-0.3,0.4-0.2,0.5c0.3,0.7,0.8,1.2,1.5,1.6C34.9,62.9,34.8,61.9,35.6,62.6L35.6,62.6z M32.9,56.2
			c-0.2-0.7-0.5-1.4-0.9-2l0.2-0.1c0.5,0.6,0.8,1.3,1,2c0.6-1.3-0.5-2.4-1.7-3.2l0.1-0.1l-0.2-0.1c-0.3,1-0.1,2,0.5,2.9l0.1-0.1
			C32.3,55.7,32.6,55.9,32.9,56.2z M36.6,51.3c0-0.3-0.4-0.2-0.5-0.3l-0.5,0.3c-0.9,0.4-1.6,1.3-1.7,2.3l0,0l-0.1,0.7l-0.1,0.6
			c0.2-0.3,0.4-0.6,0.7-0.9l0,0c0-0.8,0.4-1.6,1.1-2.1l0.2,0.2c-0.6,0.4-0.9,1.1-1,1.8c0.3-0.2,0.7-0.4,1-0.6l0,0.1
			C35.6,52.7,36.8,52.2,36.6,51.3z M34.8,47.2l0.4,0.4l-0.1,0l0.2-0.2h-0.1c-0.1-1,0.4-2,1.3-2.4l0.1,0.2c-0.8,0.4-1.2,1.2-1.2,2.1
			l0.3-0.2c0.4-0.2,0.8-0.5,0.9-0.7h0.1c0-0.5,1.4-1.5,0.7-2c-0.5-0.5-1.8,0.3-2.3,0.7c0,0.2,0.1,0.4,0.1,0.6
			C35.2,46.3,35.1,46.8,34.8,47.2z M36.8,64.5c0.3-0.1,0.6-0.1,0.9-0.1c-0.6-0.3-1.3-0.5-2-0.7l0.1-0.2c0.9,0.2,1.7,0.5,2.5,1l0,0
			c0.1,0,0.2,0.1,0.3,0.1c-0.1-0.2-0.2-0.4-0.2-0.6l0,0c-1-0.9-1.3-1.3-2.8-1.1v-0.2c-0.3,0.1-0.6,0.2-0.8,0.2
			c-0.2,0-0.2,0.3-0.2,0.5C35.1,64.2,36,64.2,36.8,64.5L36.8,64.5z M36.2,54.8L36.2,54.8c0.1-0.5-0.1-1-0.4-1.4l0,0.1
			c-1.4,0.5-2.3,1.8-2.3,3.2h-0.1c0.3,0.4,0.6,0.8,0.8,1.2c0-0.2,0-0.4,0-0.5s0-0.1,0-0.2l0,0c-0.3-1,0.1-2,0.8-2.7l0.2,0.2
			c-0.5,0.4-0.9,1-0.9,1.7C34.7,55.7,35.3,55.1,36.2,54.8L36.2,54.8z M34.5,58.3c0.2,0.5,0.5,0.9,0.8,1.2c-0.1-0.3-0.1-0.7,0-1
			c0.2-0.5,0.8-0.7,1.1-1.4c0.2-0.7,0.1-1.4-0.2-2.1c-1.8,0.9-1.9,1.7-1.8,2.9l0.1-0.2c0.4-0.5,0.7-1,1-1.5l0.2,0.1
			c-0.2,0.6-0.6,1.1-1,1.6L34.5,58.3z M43.5,69.2c-0.3,0.3-0.6,0.5-1,0.6c0.6-0.1,1.1-0.4,1.6-0.8C44,68.9,44,68.8,44,68.7
			c-0.6-0.2-1.2-0.3-1.8-0.1h-0.3v-0.2h0.3c0.6-0.2,1.2-0.1,1.8,0.1c0-0.1,0-0.1,0.1-0.2l0,0l0.1-0.2L44,68.1c0-0.1,0-0.1-0.1-0.2
			l0,0c-1-0.5-2.3-0.3-3.1,0.4l-0.1-0.1c-0.5,0.3,0,0.8,0.3,0.8h0.7C42.2,69.4,42.9,68.9,43.5,69.2L43.5,69.2z M61.9,63.4
			c0.3-0.1,0.1-0.5,0.1-0.6l0,0c-0.1-0.1-0.2-0.2-0.2-0.4c-0.4,0.7-1,1.3-1.7,1.6l-0.2,0.2l-0.1,0.1c0.3-0.1,0.6-0.2,0.9-0.3
			l1.2-0.4l0.1,0.2l-1.2,0.4c-0.9,0.2-1.8,0.6-2.4,1.2c0.4-0.2,0.9-0.3,1.3-0.4l1.7-0.5l0.1,0.2l-1.7,0.5c-0.5,0.1-1.1,0.3-1.5,0.5
			l0,0c0.4,0,0.7,0,1.1,0c0.2,0,0.5,0,0.8,0.1h0.5H61v0.1c1-0.6,1.8-1.7,1.6-2.5C62.5,63.2,62.2,63.9,61.9,63.4L61.9,63.4z
			 M39.8,66.3c0-0.1-0.1-0.1-0.1-0.2l-1.6-0.7l-0.5-0.2l0.1-0.2l0.4,0.2l1.4,0.6c0-0.2-0.1-0.4-0.1-0.6c-0.7-0.7-1.8-0.9-2.7-0.6
			l0,0c0,0.1-0.3,0.3-0.2,0.6c0.5,0.8,1.5,0.8,2.4,1.2v-0.1C39.2,66.3,39.5,66.3,39.8,66.3z M58.2,66.1c-0.3,0-0.5,0.1-0.8,0.1
			c-0.2,0.2-0.4,0.3-0.7,0.4l-0.4,0.7c0.6-0.2,1.2-0.4,1.8-0.4l1-0.1l0,0.2l-1,0.1c-0.6,0-1.3,0.2-1.8,0.5h0.2l1.2,0.2v0.1
			c0.2,0,0.3,0,0.5-0.1V68c0.5-0.2,1-0.4,1.5-0.7c0.5-0.3,0.8-0.7,1.1-1.2c-0.3,0-0.5,0-0.8,0C59.4,66.2,58.8,66.2,58.2,66.1
			L58.2,66.1z M65,57.1c-0.7,0.4-1.2,1.1-1.6,1.8l0,0l0,0c0,0.1-0.1,0.3-0.1,0.4c0,0,0,0.1,0,0.1c0.8-0.5,1.6-1.2,2.2-2l0.2,0.2
			c-0.6,0.7-1.3,1.4-2,1.9l0.3-0.1c0.6-0.1,1.2-0.3,1.8-0.6l0.1,0.2c0.2-0.3,0.3-0.7,0.5-1c0.1-0.7,0.1-1.4-0.1-2
			C65.9,56.4,65.5,56.8,65,57.1z M62.6,60.4c-0.3,0.2-0.5,0.5-0.6,0.9c0,0.1,0,0.2,0,0.3c0,0.1,0,0.2,0,0.3c0.7-0.4,1.4-0.8,2-1.3
			l0.2,0.2c-0.7,0.6-1.4,1-2.2,1.5c0,0.2,0.1,0.3,0.2,0.5l-0.1,0.1c1.1,0,2.1-0.6,2.6-1.5c0.4-0.8,0.8-1.4,1.2-2
			c-0.7,0.5-1.5,0.7-2.3,0.7C63.2,60,62.8,60.1,62.6,60.4L62.6,60.4z M40.6,68.2c0.2-0.2,0.5-0.4,0.8-0.5c-0.6-0.3-1.3-0.4-2-0.3
			v-0.2c0.8-0.1,1.5,0.1,2.2,0.4l-0.1,0.1c0.4-0.2,0.8-0.2,1.2-0.3c-1.1-0.7-2.4-1-3.7-0.8v-0.1c-0.6,0.2-1,1-0.5,1.2
			c0.7,0.3,1.5,0.5,2.2,0.7L40.6,68.2z M54.7,67.2l0.3-0.1l0.6-0.1v-0.1c0.2-0.4,0.3-0.8,0.2-1.3c-0.1,0-0.1,0.1-0.2,0.2h0.1
			C55.6,66.4,55.2,66.8,54.7,67.2L54.7,67.2z M52.9,69.7L52.9,69.7l1.2,0.7l0,0c0.3,0,0.5,0.4,0.5,0.9s-0.3,0.9-0.6,0.9
			c-0.1,0-0.3-0.1-0.3-0.2l0,0c-0.7-0.7-1.5-1.4-2.4-2l-0.6,0.1c1.2,1.9,3.4,3,5.6,2.9c-0.5-0.4-0.9-0.9-1.2-1.4l-0.1-0.1l0.1-0.1
			c0.7-0.1,1.3-0.6,1.6-1.2c-1.6-0.1-2.7-0.5-3.2-1.1C53.6,69.4,53.3,69.6,52.9,69.7L52.9,69.7z M53.7,65.6c0,0.3,0,0.6,0.1,0.9
			c0,0.2,0.1,0.5,0.1,0.7c0.4-0.6,0.6-1.4,0.7-2.1h0.2c0,0.8-0.3,1.6-0.7,2.3c0.6-0.4,1.3-0.9,1.4-1.5h0.1c-0.3-0.8-0.2-1.7,0.3-2.4
			c-1.5-0.2-1.5,0.9-2.3,1.5h0.1C53.8,65.1,53.7,65.4,53.7,65.6L53.7,65.6z M52.7,65.5l1,2c0-0.3,0-0.7-0.1-1c-0.1-0.5-0.1-1,0-1.4
			l-0.1,0.1c-0.3-0.5-0.7-0.4-1.2-0.3c-0.2,0-0.4,0.1-0.6,0.2c0.1,0,0.2,0,0.2,0C52.3,65,52.6,65.2,52.7,65.5L52.7,65.5z M44,65.9
			c-0.2,0.7-0.1,1.4,0.2,2l0.4-0.8l-0.2,0.1c-0.1-0.3-0.1-0.7,0-1l0.1-0.8h0.2l-0.1,0.9c0,0.2,0,0.5,0,0.7l0.7-1.5
			c0.1-0.3,0.4-0.5,0.8-0.5l0,0c-0.3-0.1-0.5-0.2-0.7-0.4c-0.3-0.2-0.7-0.7-1.2-0.3c-0.3,0.2,0,0.7-0.3,1H44V65.9z M33.9,51.4
			L33.9,51.4c0,0.2,0,0.3,0.1,0.5c0.1,0.2,0.1,0.4,0.1,0.6c0.1-0.2,0.2-0.4,0.4-0.5h-0.2c0.1-0.7,0.5-1.3,1.1-1.7l0.2,0.2
			c-0.5,0.3-0.9,0.8-1,1.4c0.3-0.3,0.6-0.5,0.9-0.7l0.5-0.4l0.1,0.1c0.3-0.4,0.5-0.9,0.5-1.4c-0.3,0-0.3-0.2-0.5-0.3v0.1l-0.1,0
			C34.8,49.8,34.2,50,33.9,51.4z M54.3,67.4L54.3,67.4z M43.3,66.9c-0.3-0.7-0.5-1.4-0.6-2.2H43c0,0.8,0.2,1.5,0.6,2.2
			c0-0.3,0-0.7,0.1-1l0.1-0.6h0.1c-0.3-0.8-0.6-2.5-1.7-1.7c-0.1,0.1-0.1,0.8-0.2,1h0.1C42.2,65.5,42.7,66.3,43.3,66.9L43.3,66.9z
			 M56,67.8h-0.2c-0.6-0.1-1.2-0.1-1.7-0.1c0.4,0.3,0.8,0.4,1.3,0.4H56v0.2h-0.5c-0.5,0-0.9-0.1-1.3-0.3c0.5,0.4,1,0.6,1.6,0.6v0.2
			c0.2,0,0.4,0,0.6,0c0.6-0.3,1.2-0.4,1.8-0.6C57.5,68.2,56.8,68.1,56,67.8L56,67.8z M54.6,67.4c0.4,0,0.8,0,1.2,0.1l0.2-0.3
			l0.1-0.1c-0.3,0.1-0.7,0.2-1,0.2L54.6,67.4z M36.2,61.6L36.2,61.6c0-0.1-0.1-0.2-0.1-0.2c0-0.3-0.1-0.5-0.3-0.7
			c-0.2-0.2-0.4-0.5-0.5-0.9l-0.7,0c-0.2,0.2-0.3,0.6-0.3,0.9c0.3,0.2,0.6,0.5,0.8,0.9h0.3c0.1,0,0.2,0,0.3,0
			c-0.3-0.3-0.6-0.7-0.8-1l0.2-0.2C35.5,60.8,35.8,61.3,36.2,61.6z M33.5,54.8l0.1-0.5l0.1-0.8c0-0.1,0-0.2,0-0.3
			c0-1.2-0.8-1.8-1.7-2.5l-0.1-0.1c0,0.7,0.2,1.6,0.2,2.3c0,0,0,0,0,0.1c0.4,0.3,0.7,0.6,1,1c-0.1-0.7-0.3-1.4-0.6-2l0.2-0.1
			c0.4,0.8,0.7,1.6,0.7,2.5l0,0C33.4,54.5,33.4,54.6,33.5,54.8z M36.8,46.8c-0.2,0.3-0.5,0.5-0.9,0.6c-0.7,0.3-1.3,0.9-1.7,1.6
			L34,50.4c0.1-0.2,0.2-0.4,0.4-0.5l0,0c0.2-0.8,0.8-1.6,1.5-2l0.1,0.2c-0.6,0.3-1,0.8-1.2,1.5c0.4-0.2,0.7-0.4,1.1-0.6l0.1,0v0.1
			C36.9,48.7,36.8,47.6,36.8,46.8L36.8,46.8z M36.6,57.6c-0.6,0.2-0.8,1-1.1,1.8h0.1c0,0.4,0.1,0.8,0.4,1.1c0.2,0.2,0.4,0.5,0.4,0.8
			l0.2,0.2c-0.2-0.8-0.2-1.6,0-2.4l0.1-0.4h0.2l-0.1,0.4c-0.2,0.8-0.2,1.6,0,2.4c0-0.6,0.2-1.2,0.6-1.6l0.1,0.1
			C37.3,59.2,38,57.3,36.6,57.6z M38.8,62.2c-0.1,0.4-0.2,0.8-0.3,1.3c0,0.6,0.3,1.2,0.9,1.5c-0.2-0.7-0.3-1.5-0.2-2.3h0.3
			c0,0.8,0,1.5,0.2,2.2l-0.2,0h0.1l0.6-0.3c-0.1-0.5-0.1-1,0-1.5h0.1c-0.5-0.5,0-1.5-0.7-1.9c-0.5-0.2-0.7,0-0.8,0.5h0.1L38.8,62.2z
			 M41.2,66.5c-0.5-0.4-0.8-0.9-0.9-1.5l-0.5,0.2c0.1,0.6,0.2,0.8,0.4,1.1l0,0C40.5,66.4,40.8,66.4,41.2,66.5z M37.7,60.1
			c-0.7,0.8-0.7,1.4-0.5,2.7l0,0c0.3,0.1,0.5,0.3,0.7,0.5c-0.2-0.7-0.2-1.5-0.1-2.2h0.2c-0.2,0.8-0.1,1.7,0.2,2.5l0.1,0.1
			c0-0.5,0.1-1,0.2-1.5l0.1-0.3h0.1c-0.3-0.7,0.2-1.5-0.7-2c-0.2,0-0.4,0-0.5,0.2L37.7,60.1z M41.8,66.7L41.8,66.7l0.2,0.1
			c-0.5-0.8-0.9-1.7-1.1-2.6h0.2c0.2,1.1,0.6,2,1.3,2.8l0,0c0.2,0.1,0.4,0.2,0.6,0.4c0.2,0,0.5,0.1,0.7,0.2v-0.1
			c-1-0.7-1.7-1.8-1.8-3h0c-0.3-0.7-0.2-1.5-0.8-2c-0.5-0.3-0.5,0.3-0.8,0.7h0.1C40,64.6,40.6,66,41.8,66.7z"/>
		<path class="st0" d="M49.2,39.2l-0.3-0.3c-0.6-0.7-1.5-1-2.4-1c-0.6,0-1.3,0.1-1.9,0.3c-0.7,0.2-1.4,0.3-2.1,0.3
			c-0.3,0-0.6,0-0.9-0.1h-0.2l0.6-7.8h0.2c1.1,0.1,2.1,0,3.2-0.3c0.6-0.2,1.2-0.3,1.9-0.3c1.3,0,1.8,0.6,2,1.2V39.2L49.2,39.2z
			 M46.6,37.5c0.8,0,1.5,0.3,2.1,0.8v-7c-0.2-0.6-0.7-0.9-1.6-0.9c-0.6,0-1.2,0.1-1.8,0.3c-1,0.3-2.1,0.4-3.1,0.3l-0.5,7
			c0.2,0,0.4,0,0.6,0c0.7,0,1.4-0.1,2-0.3c0.7-0.2,1.3-0.3,2-0.3L46.6,37.5z"/>
		<path class="st0" d="M48.3,39.2c-0.9-1.1-2.2-1-3.6-0.6c-1.2,0.4-2.5,0.5-3.8,0.2h-0.1l0.6-7.6h0.2l-0.6,7.4
			c1.2,0.2,2.4,0.1,3.6-0.2c1.5-0.3,2.9-0.5,3.9,0.7L48.3,39.2z"/>
		<path class="st0" d="M48,39.5c-1-1-2.3-0.7-3.6-0.4l-0.8,0.2c-1.1,0.2-2.2,0.1-3.2-0.1h-0.1l0.7-7.6h0.2l-0.7,7.4c1,0.2,2,0.2,3,0
			l0.8-0.2c1.3-0.3,2.7-0.6,3.8,0.5L48,39.5z"/>
		<path class="st0" d="M49,40.5c-0.6,0-1.1-0.3-1.5-0.6l-8.1,0.2l0.9-8.1l0.7-0.1l0.1,0.4l-0.4,0.1l-0.8,7.3l7.8-0.2l0.1,0.1
			c0.2,0.3,1,0.5,1.3,0.5L49,40.5z"/>
		<path class="st0" d="M48.8,39.2v-7.9c0.2-0.5,0.7-1.2,2-1.2c0.6,0,1.3,0.1,1.9,0.3c1,0.3,2.1,0.4,3.2,0.3H56l0.6,7.8h-0.2
			c-0.3,0-0.6,0.1-0.9,0.1l0,0c-0.7,0-1.4-0.1-2.1-0.3c-0.6-0.1-1.2-0.2-1.9-0.2h-0.2c-0.8,0-1.6,0.4-2.2,1L48.8,39.2z M49.2,31.4v7
			c0.6-0.6,1.5-0.9,2.4-0.8c0.7,0,1.3,0.1,2,0.3c0.7,0.2,1.4,0.3,2.1,0.3l0,0c0.2,0,0.4,0,0.6,0l-0.5-7c-1,0.1-2.1,0-3.1-0.3
			c-0.6-0.2-1.2-0.3-1.8-0.3C49.9,30.5,49.4,30.8,49.2,31.4L49.2,31.4z"/>
		<path class="st0" d="M49.6,39.2L49.4,39c1-1.2,2.3-1,3.9-0.7c1.2,0.4,2.4,0.4,3.6,0.2l-0.6-7.4h0.2l0.6,7.6H57
			c-1.3,0.2-2.6,0.1-3.8-0.2C51.8,38.2,50.5,38.1,49.6,39.2z"/>
		<path class="st0" d="M50,39.5l-0.2-0.2c1.1-1.1,2.6-0.8,3.8-0.5l0.8,0.2c1,0.2,2,0.2,3,0l-0.7-7.4H57l0.7,7.6h-0.1
			c-1.1,0.2-2.2,0.2-3.2,0.1l-0.8-0.2C52.3,38.8,51,38.5,50,39.5z"/>
		<path class="st0" d="M49,40.5v-0.4c0.3,0,1-0.2,1.3-0.5l0.1-0.1l7.8,0.2l-0.8-7.3l-0.4-0.1l0.1-0.4l0.7,0.1v0.2l0.9,8l-8.1-0.2
			C50.1,40.2,49.6,40.5,49,40.5z"/>
		<path class="st0" d="M47.8,39.8l-0.2-0.2c0.3-0.4,0.9-0.7,1.4-0.7l0,0c0.5,0,1,0.3,1.4,0.7l-0.2,0.2c-0.3-0.4-0.7-0.6-1.2-0.6l0,0
			C48.5,39.2,48.1,39.4,47.8,39.8z"/>
		<polygon class="st0" points="58.3,38.6 58.3,38.4 59.2,38.3 59,36.9 58.1,36.9 58.1,36.7 59.2,36.7 59.5,38.6 		"/>
		<polygon class="st0" points="57.8,34.4 57.8,34.1 58.6,34.1 58.4,32.8 57.6,32.8 57.6,32.5 58.6,32.5 58.9,34.4 		"/>
		<polygon class="st0" points="39.7,38.6 38.5,38.6 38.8,36.7 39.9,36.7 39.9,36.9 39,36.9 38.8,38.3 39.7,38.4 		"/>
		<polygon class="st0" points="40.2,34.4 39.1,34.4 39.4,32.5 40.4,32.5 40.4,32.8 39.6,32.8 39.4,34.1 40.2,34.1 		"/>
		<path class="st0" d="M42.8,37.3v-0.4c0.7,0,1.5-0.1,2.2-0.4l0.3-0.1c1-0.2,1.9-0.1,2.9,0.2L47.9,37c-0.8-0.2-1.7-0.3-2.5-0.1
			l-0.2,0.1C44.4,37.2,43.6,37.3,42.8,37.3z"/>
		<path class="st0" d="M42.9,36.7v-0.4c0.7,0,1.5-0.1,2.2-0.4l0.2-0.1c0.9-0.2,1.9-0.1,2.8,0.2L48,36.4c-0.8-0.2-1.7-0.3-2.5-0.2
			l-0.2,0.1C44.5,36.6,43.7,36.7,42.9,36.7z"/>
		<path class="st0" d="M43,36.1v-0.4c0.7,0,1.5-0.1,2.2-0.4l0.3-0.1c0.9-0.2,1.8-0.2,2.7,0.1L48,35.7c-0.8-0.2-1.6-0.2-2.4-0.1
			l-0.2,0.1C44.6,35.9,43.8,36.1,43,36.1z"/>
		<path class="st0" d="M43,35.4V35c0.7,0,1.5-0.1,2.2-0.4l0.2-0.1c0.9-0.2,1.8-0.1,2.7,0.1L48,35c-0.8-0.2-1.6-0.2-2.4-0.1L45.3,35
			C44.6,35.3,43.8,35.4,43,35.4z"/>
		<path class="st0" d="M43,34.8v-0.4c0.7,0,1.5-0.1,2.2-0.4l0.3-0.1c0.9-0.2,1.8-0.1,2.7,0.1l-0.2,0.4c-0.8-0.2-1.6-0.2-2.3-0.1
			l-0.2,0.1C44.6,34.7,43.8,34.8,43,34.8z"/>
		<path class="st0" d="M43,34.2v-0.4c0.7,0,1.5-0.1,2.2-0.4l0.2-0.1c0.9-0.2,1.8-0.1,2.7,0.1l-0.2,0.4c-0.8-0.2-1.6-0.2-2.3-0.1
			l-0.2,0.1C44.6,34,43.8,34.2,43,34.2z"/>
		<path class="st0" d="M43.1,33.5v-0.4c0.7,0,1.5-0.1,2.2-0.4l0.3-0.1c0.9-0.2,1.8-0.1,2.6,0.1l-0.2,0.4c-0.7-0.2-1.5-0.3-2.3-0.1
			l-0.2,0.1C44.7,33.4,43.9,33.6,43.1,33.5z"/>
		<path class="st0" d="M43.1,32.9v-0.4c0.7,0,1.5-0.1,2.2-0.4l0.3-0.1c0.9-0.2,1.8-0.1,2.6,0.1l-0.2,0.4c-0.7-0.2-1.5-0.2-2.3-0.1
			l-0.2,0.1C44.7,32.8,43.9,32.9,43.1,32.9z"/>
		<path class="st0" d="M43.2,32.3v-0.4c0.7,0,1.5-0.1,2.2-0.4l0.2-0.1c0.8-0.2,1.7-0.1,2.5,0.1l-0.2,0.4c-0.7-0.2-1.5-0.2-2.2-0.1
			l-0.2,0.1C44.7,32.2,43.9,32.3,43.2,32.3z"/>
		<path class="st0" d="M55.1,37.3c-0.8,0-1.6-0.1-2.3-0.4l-0.2-0.1c-0.9-0.1-1.7-0.1-2.6,0.2l-0.2-0.4c0.9-0.3,1.9-0.3,2.9-0.2
			l0.3,0.1c0.7,0.2,1.4,0.4,2.2,0.4L55.1,37.3z"/>
		<path class="st0" d="M55,36.7c-0.8,0-1.6-0.1-2.3-0.4l-0.2-0.1c-0.8-0.1-1.7-0.1-2.5,0.2L49.8,36c0.9-0.3,1.9-0.4,2.8-0.2l0.2,0.1
			c0.7,0.2,1.4,0.4,2.2,0.4L55,36.7z"/>
		<path class="st0" d="M55,36.1c-0.8,0-1.6-0.1-2.3-0.4l-0.2-0.1c-0.8-0.2-1.6-0.1-2.4,0.1l-0.2-0.4c0.9-0.3,1.8-0.3,2.7-0.1
			l0.3,0.1c0.7,0.2,1.4,0.4,2.2,0.4L55,36.1z"/>
		<path class="st0" d="M55,35.4c-0.8,0-1.6-0.2-2.3-0.4h-0.2c-0.8-0.1-1.6-0.1-2.4,0.1l-0.2-0.4c0.9-0.3,1.8-0.3,2.7-0.1l0.2,0.1
			c0.7,0.2,1.5,0.3,2.2,0.3V35.4z"/>
		<path class="st0" d="M54.9,34.8c-0.8,0-1.6-0.1-2.3-0.4l-0.2-0.1c-0.8-0.1-1.6-0.1-2.3,0.1l-0.2-0.4c0.9-0.3,1.8-0.3,2.7-0.1
			l0.3,0.1c0.7,0.2,1.4,0.4,2.2,0.4L54.9,34.8z"/>
		<path class="st0" d="M54.9,34.2c-0.8,0-1.6-0.1-2.3-0.4l-0.2-0.1c-0.8-0.1-1.6-0.1-2.3,0.1l-0.2-0.4c0.9-0.3,1.8-0.3,2.7-0.1
			l0.2,0.1c0.7,0.2,1.4,0.4,2.2,0.4L54.9,34.2z"/>
		<path class="st0" d="M54.8,33.5c-0.8,0-1.6-0.1-2.3-0.4l-0.2-0.1c-0.8-0.1-1.5-0.1-2.3,0.1l-0.2-0.4c0.8-0.3,1.7-0.3,2.6-0.1
			l0.3,0.1c0.7,0.2,1.4,0.4,2.2,0.4L54.8,33.5z"/>
		<path class="st0" d="M54.8,32.9c-0.8,0-1.6-0.1-2.3-0.4l-0.2-0.1c-0.8-0.2-1.5-0.1-2.3,0.1l-0.2-0.4c0.8-0.3,1.7-0.3,2.6-0.1
			l0.3,0.1c0.7,0.2,1.4,0.4,2.2,0.4L54.8,32.9z"/>
		<path class="st0" d="M54.8,32.3c-0.8,0-1.6-0.1-2.3-0.4l-0.2-0.1c-0.7-0.2-1.5-0.1-2.2,0.1l-0.2-0.4c0.8-0.3,1.7-0.3,2.5-0.1
			l0.2,0.1c0.7,0.2,1.4,0.4,2.2,0.4L54.8,32.3z"/>
	</g>
</g>
</svg>
